%TF.GenerationSoftware,Altium Limited,Altium Designer,24.5.1 (21)*%
G04 Layer_Physical_Order=2*
G04 Layer_Color=16711680*
%FSLAX45Y45*%
%MOMM*%
%TF.SameCoordinates,A56B3D6E-D5BE-476E-BB8E-EB53D717D8A4*%
%TF.FilePolarity,Positive*%
%TF.FileFunction,Copper,L2,Bot,Signal*%
%TF.Part,Single*%
G01*
G75*
%TA.AperFunction,Conductor*%
%ADD34C,0.30000*%
%ADD35C,0.20000*%
%TA.AperFunction,ComponentPad*%
%ADD37C,1.60000*%
G04:AMPARAMS|DCode=38|XSize=1.6mm|YSize=1.6mm|CornerRadius=0.4mm|HoleSize=0mm|Usage=FLASHONLY|Rotation=180.000|XOffset=0mm|YOffset=0mm|HoleType=Round|Shape=RoundedRectangle|*
%AMROUNDEDRECTD38*
21,1,1.60000,0.80000,0,0,180.0*
21,1,0.80000,1.60000,0,0,180.0*
1,1,0.80000,-0.40000,0.40000*
1,1,0.80000,0.40000,0.40000*
1,1,0.80000,0.40000,-0.40000*
1,1,0.80000,-0.40000,-0.40000*
%
%ADD38ROUNDEDRECTD38*%
%ADD39C,1.20000*%
%ADD40R,1.20000X1.20000*%
G04:AMPARAMS|DCode=41|XSize=1.6mm|YSize=1.6mm|CornerRadius=0.4mm|HoleSize=0mm|Usage=FLASHONLY|Rotation=270.000|XOffset=0mm|YOffset=0mm|HoleType=Round|Shape=RoundedRectangle|*
%AMROUNDEDRECTD41*
21,1,1.60000,0.80000,0,0,270.0*
21,1,0.80000,1.60000,0,0,270.0*
1,1,0.80000,-0.40000,-0.40000*
1,1,0.80000,-0.40000,0.40000*
1,1,0.80000,0.40000,0.40000*
1,1,0.80000,0.40000,-0.40000*
%
%ADD41ROUNDEDRECTD41*%
%ADD42R,1.30000X1.30000*%
%ADD43C,1.30000*%
%ADD44C,1.57000*%
%ADD45R,1.57000X1.57000*%
%TA.AperFunction,ViaPad*%
%ADD46C,0.60000*%
%ADD47C,0.70000*%
G36*
X17006886Y9224713D02*
X17028030Y9215955D01*
X17047060Y9203241D01*
X17063242Y9187058D01*
X17075955Y9168031D01*
X17084714Y9146887D01*
X17089177Y9124442D01*
Y9113000D01*
Y5537000D01*
Y5525558D01*
X17084714Y5503113D01*
X17075955Y5481970D01*
X17063242Y5462941D01*
X17047058Y5446758D01*
X17028030Y5434045D01*
X17006886Y5425287D01*
X16984444Y5420823D01*
X9675557D01*
X9653112Y5425287D01*
X9631970Y5434045D01*
X9612941Y5446759D01*
X9596758Y5462942D01*
X9584045Y5481969D01*
X9575287Y5503113D01*
X9570823Y5525557D01*
Y5537000D01*
Y9113000D01*
Y9124443D01*
X9575287Y9146887D01*
X9584045Y9168030D01*
X9596759Y9187059D01*
X9612942Y9203241D01*
X9631969Y9215955D01*
X9653112Y9224713D01*
X9675557Y9229177D01*
X16984442D01*
X17006886Y9224713D01*
D02*
G37*
%LPC*%
G36*
X10849165Y8920000D02*
X10822835D01*
X10797402Y8913185D01*
X10774599Y8900020D01*
X10774270Y8899691D01*
X10790743Y8883217D01*
X10772783Y8865257D01*
X10756309Y8881730D01*
X10755980Y8881401D01*
X10742815Y8858598D01*
X10736000Y8833165D01*
Y8806835D01*
X10742815Y8781402D01*
X10755980Y8758599D01*
X10756309Y8758270D01*
X10772783Y8774743D01*
X10790743Y8756783D01*
X10774270Y8740309D01*
X10774599Y8739980D01*
X10797402Y8726815D01*
X10822835Y8720000D01*
X10849165D01*
X10874598Y8726815D01*
X10897401Y8739980D01*
X10897730Y8740309D01*
X10881257Y8756783D01*
X10899217Y8774743D01*
X10915691Y8758270D01*
X10916020Y8758599D01*
X10929185Y8781402D01*
X10936000Y8806835D01*
Y8833165D01*
X10929185Y8858598D01*
X10916020Y8881401D01*
X10915691Y8881730D01*
X10899217Y8865257D01*
X10881257Y8883217D01*
X10897730Y8899691D01*
X10897401Y8900020D01*
X10874598Y8913185D01*
X10849165Y8920000D01*
D02*
G37*
G36*
X11103165D02*
X11076835D01*
X11051402Y8913185D01*
X11028599Y8900020D01*
X11009980Y8881401D01*
X10996815Y8858598D01*
X10990000Y8833165D01*
Y8806835D01*
X10996815Y8781402D01*
X11009980Y8758599D01*
X11028599Y8739980D01*
X11051402Y8726815D01*
X11076835Y8720000D01*
X11103165D01*
X11128598Y8726815D01*
X11151401Y8739980D01*
X11170020Y8758599D01*
X11183185Y8781402D01*
X11190000Y8806835D01*
Y8833165D01*
X11183185Y8858598D01*
X11170020Y8881401D01*
X11151401Y8900020D01*
X11128598Y8913185D01*
X11103165Y8920000D01*
D02*
G37*
G36*
X10595165D02*
X10568835D01*
X10543402Y8913185D01*
X10520599Y8900020D01*
X10501980Y8881401D01*
X10488815Y8858598D01*
X10482000Y8833165D01*
Y8806835D01*
X10488815Y8781402D01*
X10501980Y8758599D01*
X10520599Y8739980D01*
X10543402Y8726815D01*
X10568835Y8720000D01*
X10595165D01*
X10620598Y8726815D01*
X10643401Y8739980D01*
X10662020Y8758599D01*
X10675185Y8781402D01*
X10682000Y8806835D01*
Y8833165D01*
X10675185Y8858598D01*
X10662020Y8881401D01*
X10643401Y8900020D01*
X10620598Y8913185D01*
X10595165Y8920000D01*
D02*
G37*
G36*
X10341165D02*
X10314835D01*
X10289402Y8913185D01*
X10266599Y8900020D01*
X10247980Y8881401D01*
X10234815Y8858598D01*
X10228000Y8833165D01*
Y8806835D01*
X10234815Y8781402D01*
X10247980Y8758599D01*
X10266599Y8739980D01*
X10289402Y8726815D01*
X10314835Y8720000D01*
X10341165D01*
X10366598Y8726815D01*
X10389401Y8739980D01*
X10408020Y8758599D01*
X10421185Y8781402D01*
X10428000Y8806835D01*
Y8833165D01*
X10421185Y8858598D01*
X10408020Y8881401D01*
X10389401Y8900020D01*
X10366598Y8913185D01*
X10341165Y8920000D01*
D02*
G37*
G36*
X11384000Y8921175D02*
X11304000D01*
X11280589Y8916519D01*
X11260743Y8903257D01*
X11247481Y8883411D01*
X11242825Y8860000D01*
Y8780000D01*
X11247481Y8756589D01*
X11260743Y8736742D01*
X11280589Y8723481D01*
X11304000Y8718825D01*
X11384000D01*
X11407411Y8723481D01*
X11427257Y8736742D01*
X11440519Y8756589D01*
X11445175Y8780000D01*
Y8860000D01*
X11440519Y8883411D01*
X11427257Y8903257D01*
X11407411Y8916519D01*
X11384000Y8921175D01*
D02*
G37*
G36*
X16481190Y8410000D02*
X16458810D01*
X16437192Y8404207D01*
X16419164Y8393798D01*
X16435519Y8377442D01*
X16417558Y8359482D01*
X16401202Y8375838D01*
X16390793Y8357809D01*
X16385001Y8336191D01*
Y8313810D01*
X16390793Y8292191D01*
X16401202Y8274162D01*
X16417558Y8290518D01*
X16435519Y8272558D01*
X16419164Y8256202D01*
X16437192Y8245793D01*
X16458810Y8240000D01*
X16481190D01*
X16502811Y8245793D01*
X16520839Y8256202D01*
X16504483Y8272558D01*
X16522443Y8290518D01*
X16538799Y8274162D01*
X16549208Y8292191D01*
X16555000Y8313810D01*
Y8336191D01*
X16549208Y8357809D01*
X16538799Y8375838D01*
X16522443Y8359482D01*
X16504483Y8377442D01*
X16520839Y8393798D01*
X16502811Y8404207D01*
X16481190Y8410000D01*
D02*
G37*
G36*
X11848500Y8302500D02*
X11651500D01*
Y8105500D01*
X11848500D01*
Y8302500D01*
D02*
G37*
G36*
X16481190Y8210000D02*
X16458810D01*
X16437192Y8204207D01*
X16417810Y8193017D01*
X16401984Y8177191D01*
X16390793Y8157809D01*
X16385001Y8136190D01*
Y8113810D01*
X16390793Y8092191D01*
X16401984Y8072809D01*
X16417810Y8056983D01*
X16437192Y8045793D01*
X16458810Y8040000D01*
X16481190D01*
X16502811Y8045793D01*
X16522192Y8056983D01*
X16538017Y8072809D01*
X16549208Y8092191D01*
X16555000Y8113810D01*
Y8136190D01*
X16549208Y8157809D01*
X16538017Y8177191D01*
X16522192Y8193017D01*
X16502811Y8204207D01*
X16481190Y8210000D01*
D02*
G37*
G36*
X11762968Y8048500D02*
X11737032D01*
X11711981Y8041787D01*
X11689520Y8028820D01*
X11671181Y8010481D01*
X11658213Y7988020D01*
X11651500Y7962968D01*
Y7937032D01*
X11658213Y7911981D01*
X11671181Y7889520D01*
X11689520Y7871181D01*
X11711981Y7858213D01*
X11737032Y7851500D01*
X11762968D01*
X11788020Y7858213D01*
X11810481Y7871181D01*
X11828820Y7889520D01*
X11841787Y7911981D01*
X11848500Y7937032D01*
Y7962968D01*
X11841787Y7988020D01*
X11828820Y8010481D01*
X11810481Y8028820D01*
X11788020Y8041787D01*
X11762968Y8048500D01*
D02*
G37*
G36*
X16481190Y8010000D02*
X16458810D01*
X16437192Y8004208D01*
X16417810Y7993017D01*
X16401984Y7977191D01*
X16390793Y7957809D01*
X16385001Y7936191D01*
Y7913810D01*
X16390793Y7892191D01*
X16401984Y7872809D01*
X16417810Y7856983D01*
X16437192Y7845793D01*
X16458810Y7840000D01*
X16481190D01*
X16502811Y7845793D01*
X16522192Y7856983D01*
X16538017Y7872809D01*
X16549208Y7892191D01*
X16555000Y7913810D01*
Y7936191D01*
X16549208Y7957809D01*
X16538017Y7977191D01*
X16522192Y7993017D01*
X16502811Y8004208D01*
X16481190Y8010000D01*
D02*
G37*
G36*
Y7810000D02*
X16458810D01*
X16437192Y7804207D01*
X16417810Y7793017D01*
X16401984Y7777191D01*
X16390793Y7757809D01*
X16385001Y7736191D01*
Y7713810D01*
X16390793Y7692191D01*
X16401984Y7672809D01*
X16417810Y7656983D01*
X16437192Y7645793D01*
X16458810Y7640000D01*
X16481190D01*
X16502811Y7645793D01*
X16522192Y7656983D01*
X16538017Y7672809D01*
X16549208Y7692191D01*
X16555000Y7713810D01*
Y7736191D01*
X16549208Y7757809D01*
X16538017Y7777191D01*
X16522192Y7793017D01*
X16502811Y7804207D01*
X16481190Y7810000D01*
D02*
G37*
G36*
X12152968Y7808500D02*
X12127032D01*
X12101981Y7801787D01*
X12079520Y7788820D01*
X12061181Y7770481D01*
X12048213Y7748020D01*
X12041500Y7722968D01*
Y7697032D01*
X12048213Y7671981D01*
X12061181Y7649520D01*
X12079520Y7631181D01*
X12101981Y7618213D01*
X12127032Y7611500D01*
X12152968D01*
X12178020Y7618213D01*
X12200481Y7631181D01*
X12218820Y7649520D01*
X12231787Y7671981D01*
X12238500Y7697032D01*
Y7722968D01*
X12231787Y7748020D01*
X12218820Y7770481D01*
X12200481Y7788820D01*
X12178020Y7801787D01*
X12152968Y7808500D01*
D02*
G37*
G36*
X11762968Y7794500D02*
X11737032D01*
X11711981Y7787787D01*
X11689520Y7774820D01*
X11671181Y7756481D01*
X11658213Y7734020D01*
X11651500Y7708968D01*
Y7683032D01*
X11658213Y7657981D01*
X11671181Y7635520D01*
X11689520Y7617181D01*
X11711981Y7604213D01*
X11737032Y7597500D01*
X11762968D01*
X11788020Y7604213D01*
X11810481Y7617181D01*
X11828820Y7635520D01*
X11841787Y7657981D01*
X11848500Y7683032D01*
Y7708968D01*
X11841787Y7734020D01*
X11828820Y7756481D01*
X11810481Y7774820D01*
X11788020Y7787787D01*
X11762968Y7794500D01*
D02*
G37*
G36*
X12859946Y7850000D02*
X12840054D01*
X12821677Y7842388D01*
X12807613Y7828323D01*
X12800000Y7809946D01*
Y7790054D01*
X12807613Y7771677D01*
X12821677Y7757612D01*
X12840054Y7750000D01*
X12859946D01*
X12878323Y7757612D01*
X12890123Y7769412D01*
X13207330D01*
X13360001Y7616742D01*
Y7600054D01*
X13367612Y7581677D01*
X13381677Y7567612D01*
X13400053Y7560000D01*
X13419946D01*
X13438322Y7567612D01*
X13452388Y7581677D01*
X13460001Y7600054D01*
Y7619946D01*
X13452388Y7638323D01*
X13438322Y7652388D01*
X13419946Y7660000D01*
X13403258D01*
X13241629Y7821629D01*
X13231706Y7828259D01*
X13220000Y7830588D01*
X13220000Y7830588D01*
X12890123D01*
X12878323Y7842388D01*
X12859946Y7850000D01*
D02*
G37*
G36*
X16481190Y7610000D02*
X16458810D01*
X16437192Y7604207D01*
X16417810Y7593017D01*
X16401984Y7577191D01*
X16390793Y7557809D01*
X16385001Y7536190D01*
Y7513809D01*
X16390793Y7492191D01*
X16401984Y7472809D01*
X16417810Y7456983D01*
X16437192Y7445793D01*
X16458810Y7440000D01*
X16481190D01*
X16502811Y7445793D01*
X16522192Y7456983D01*
X16538017Y7472809D01*
X16549208Y7492191D01*
X16555000Y7513809D01*
Y7536190D01*
X16549208Y7557809D01*
X16538017Y7577191D01*
X16522192Y7593017D01*
X16502811Y7604207D01*
X16481190Y7610000D01*
D02*
G37*
G36*
X12769946Y7500000D02*
X12750054D01*
X12731677Y7492388D01*
X12719877Y7480588D01*
X12140000D01*
X12128295Y7478259D01*
X12118371Y7471629D01*
X12118371Y7471628D01*
X11872330Y7225588D01*
X10905123D01*
X10898323Y7232388D01*
X10879946Y7240000D01*
X10860054D01*
X10841677Y7232388D01*
X10827612Y7218323D01*
X10820000Y7199946D01*
Y7180054D01*
X10827612Y7161677D01*
X10834102Y7155188D01*
X10788569D01*
X10783644Y7167078D01*
X10769578Y7181143D01*
X10751201Y7188755D01*
X10731310D01*
X10712933Y7181143D01*
X10698868Y7167078D01*
X10691256Y7148701D01*
Y7128810D01*
X10698868Y7110433D01*
X10712933Y7096367D01*
X10731310Y7088755D01*
X10751201D01*
X10764653Y7094327D01*
X10766235Y7094012D01*
X10766236Y7094012D01*
X11941577D01*
X11941578Y7094012D01*
X11953284Y7096341D01*
X11963207Y7102971D01*
X12209648Y7349412D01*
X12679877D01*
X12691677Y7337612D01*
X12710054Y7330000D01*
X12729946D01*
X12748323Y7337612D01*
X12762388Y7351677D01*
X12770000Y7370054D01*
Y7389946D01*
X12765835Y7400000D01*
X12769946D01*
X12788323Y7407612D01*
X12802388Y7421677D01*
X12810001Y7440054D01*
Y7459946D01*
X12802388Y7478323D01*
X12788323Y7492388D01*
X12769946Y7500000D01*
D02*
G37*
G36*
X16481190Y7410000D02*
X16458810D01*
X16437192Y7404207D01*
X16417810Y7393017D01*
X16401984Y7377191D01*
X16390793Y7357809D01*
X16385001Y7336191D01*
Y7313810D01*
X16390793Y7292191D01*
X16401984Y7272809D01*
X16417810Y7256983D01*
X16437192Y7245793D01*
X16458810Y7240000D01*
X16481190D01*
X16502811Y7245793D01*
X16522192Y7256983D01*
X16538017Y7272809D01*
X16549208Y7292191D01*
X16555000Y7313810D01*
Y7336191D01*
X16549208Y7357809D01*
X16538017Y7377191D01*
X16522192Y7393017D01*
X16502811Y7404207D01*
X16481190Y7410000D01*
D02*
G37*
G36*
X10639946Y7540000D02*
X10620054D01*
X10601677Y7532388D01*
X10587612Y7518323D01*
X10580000Y7499946D01*
Y7480054D01*
X10587612Y7461677D01*
X10599412Y7449877D01*
Y7131298D01*
X10588323Y7142388D01*
X10569946Y7150000D01*
X10550054D01*
X10531677Y7142388D01*
X10517612Y7128323D01*
X10510000Y7109946D01*
Y7090054D01*
X10517612Y7071677D01*
X10529412Y7059877D01*
Y6870123D01*
X10517612Y6858323D01*
X10510000Y6839946D01*
Y6820054D01*
X10517612Y6801677D01*
X10531677Y6787612D01*
X10550054Y6780000D01*
X10569946D01*
X10588323Y6787612D01*
X10602388Y6801677D01*
X10610000Y6820054D01*
Y6836742D01*
X10640000Y6806743D01*
Y6790054D01*
X10647612Y6771677D01*
X10661677Y6757612D01*
X10680054Y6750000D01*
X10699946D01*
X10718323Y6757612D01*
X10732388Y6771677D01*
X10740000Y6790054D01*
Y6809946D01*
X10732388Y6828323D01*
X10718323Y6842388D01*
X10699946Y6850000D01*
X10683258D01*
X10660588Y6872670D01*
Y7449877D01*
X10672388Y7461677D01*
X10680000Y7480054D01*
Y7499946D01*
X10672388Y7518323D01*
X10658323Y7532388D01*
X10639946Y7540000D01*
D02*
G37*
G36*
X16481190Y7210000D02*
X16458810D01*
X16437192Y7204207D01*
X16417810Y7193017D01*
X16401984Y7177191D01*
X16390793Y7157809D01*
X16385001Y7136190D01*
Y7113809D01*
X16390793Y7092191D01*
X16401984Y7072809D01*
X16417810Y7056983D01*
X16437192Y7045793D01*
X16458810Y7040000D01*
X16481190D01*
X16502811Y7045793D01*
X16522192Y7056983D01*
X16538017Y7072809D01*
X16549208Y7092191D01*
X16555000Y7113809D01*
Y7136190D01*
X16549208Y7157809D01*
X16538017Y7177191D01*
X16522192Y7193017D01*
X16502811Y7204207D01*
X16481190Y7210000D01*
D02*
G37*
G36*
X13219946Y7030000D02*
X13200053D01*
X13181677Y7022388D01*
X13167612Y7008323D01*
X13160001Y6989946D01*
Y6970054D01*
X13167612Y6951677D01*
X13181677Y6937612D01*
X13200053Y6930000D01*
X13219946D01*
X13238322Y6937612D01*
X13250124Y6949412D01*
X13820267D01*
X13827612Y6931677D01*
X13841676Y6917612D01*
X13860054Y6910000D01*
X13879945D01*
X13898323Y6917612D01*
X13912389Y6931677D01*
X13920000Y6950054D01*
Y6969946D01*
X13912389Y6988323D01*
X13898323Y7002388D01*
X13879945Y7010000D01*
X13860054D01*
X13852785Y7006988D01*
X13850880Y7008259D01*
X13839175Y7010588D01*
X13839175Y7010588D01*
X13250124D01*
X13238322Y7022388D01*
X13219946Y7030000D01*
D02*
G37*
G36*
X16481190Y7010000D02*
X16458810D01*
X16437192Y7004207D01*
X16417810Y6993017D01*
X16401984Y6977191D01*
X16390793Y6957809D01*
X16385001Y6936191D01*
Y6913810D01*
X16390793Y6892191D01*
X16401984Y6872809D01*
X16417810Y6856983D01*
X16437192Y6845793D01*
X16458810Y6840000D01*
X16481190D01*
X16502811Y6845793D01*
X16522192Y6856983D01*
X16538017Y6872809D01*
X16549208Y6892191D01*
X16555000Y6913810D01*
Y6936191D01*
X16549208Y6957809D01*
X16538017Y6977191D01*
X16522192Y6993017D01*
X16502811Y7004207D01*
X16481190Y7010000D01*
D02*
G37*
G36*
Y6810000D02*
X16458810D01*
X16437192Y6804207D01*
X16417810Y6793017D01*
X16401984Y6777191D01*
X16390793Y6757809D01*
X16385001Y6736190D01*
Y6713810D01*
X16390793Y6692191D01*
X16401984Y6672809D01*
X16417810Y6656983D01*
X16437192Y6645793D01*
X16458810Y6640000D01*
X16481190D01*
X16502811Y6645793D01*
X16522192Y6656983D01*
X16538017Y6672809D01*
X16549208Y6692191D01*
X16555000Y6713810D01*
Y6736190D01*
X16549208Y6757809D01*
X16538017Y6777191D01*
X16522192Y6793017D01*
X16502811Y6804207D01*
X16481190Y6810000D01*
D02*
G37*
G36*
X13165939Y6655000D02*
X13144060D01*
X13123845Y6646627D01*
X13108372Y6631155D01*
X13100000Y6610940D01*
Y6603911D01*
X13071774Y6575686D01*
X12662096D01*
X12651155Y6586626D01*
X12630940Y6595000D01*
X12609060D01*
X12588845Y6586626D01*
X12573373Y6571155D01*
X12565000Y6550940D01*
Y6529060D01*
X12573373Y6508845D01*
X12588845Y6493373D01*
X12609060Y6485000D01*
X12630940D01*
X12651155Y6493373D01*
X12662096Y6504314D01*
X13086555D01*
X13100212Y6507031D01*
X13111790Y6514766D01*
X13142619Y6545597D01*
X13144060Y6545000D01*
X13165939D01*
X13186156Y6553373D01*
X13201627Y6568845D01*
X13210001Y6589060D01*
Y6610940D01*
X13201627Y6631155D01*
X13186156Y6646627D01*
X13165939Y6655000D01*
D02*
G37*
G36*
X11405532Y6690000D02*
X11384468D01*
X11364121Y6684548D01*
X11345879Y6674016D01*
X11330984Y6659121D01*
X11320452Y6640879D01*
X11315000Y6620532D01*
Y6599468D01*
X11320452Y6579121D01*
X11330984Y6560879D01*
X11345879Y6545984D01*
X11364121Y6535452D01*
X11384468Y6530000D01*
X11405532D01*
X11425879Y6535452D01*
X11444121Y6545984D01*
X11459016Y6560879D01*
X11469548Y6579121D01*
X11475000Y6599468D01*
Y6620532D01*
X11469548Y6640879D01*
X11459016Y6659121D01*
X11444121Y6674016D01*
X11425879Y6684548D01*
X11405532Y6690000D01*
D02*
G37*
G36*
X11075000D02*
X10915000D01*
Y6530000D01*
X11075000D01*
Y6690000D01*
D02*
G37*
G36*
X11005532Y6490000D02*
X10984468D01*
X10964121Y6484548D01*
X10947822Y6475138D01*
X10964129Y6458831D01*
X10946169Y6440871D01*
X10929862Y6457177D01*
X10920452Y6440879D01*
X10915000Y6420532D01*
Y6399468D01*
X10920452Y6379121D01*
X10929862Y6362822D01*
X10946169Y6379129D01*
X10964129Y6361169D01*
X10947822Y6344862D01*
X10964121Y6335452D01*
X10984468Y6330000D01*
X11005532D01*
X11025879Y6335452D01*
X11042177Y6344862D01*
X11025871Y6361169D01*
X11043831Y6379129D01*
X11060138Y6362822D01*
X11069548Y6379121D01*
X11075000Y6399468D01*
Y6420532D01*
X11069548Y6440879D01*
X11060138Y6457177D01*
X11043831Y6440871D01*
X11025871Y6458831D01*
X11042177Y6475138D01*
X11025879Y6484548D01*
X11005532Y6490000D01*
D02*
G37*
G36*
X16481190Y6610000D02*
X16458810D01*
X16437192Y6604208D01*
X16417810Y6593017D01*
X16401984Y6577191D01*
X16390793Y6557809D01*
X16385001Y6536191D01*
Y6513810D01*
X16390793Y6492191D01*
X16401984Y6472809D01*
X16417810Y6456983D01*
X16437192Y6445793D01*
X16458810Y6440000D01*
X16481190D01*
X16502811Y6445793D01*
X16522192Y6456983D01*
X16538017Y6472809D01*
X16549208Y6492191D01*
X16555000Y6513810D01*
Y6536191D01*
X16549208Y6557809D01*
X16538017Y6577191D01*
X16522192Y6593017D01*
X16502811Y6604208D01*
X16481190Y6610000D01*
D02*
G37*
G36*
X11475000Y6490000D02*
X11315000D01*
Y6330000D01*
X11475000D01*
Y6490000D01*
D02*
G37*
G36*
X16555000Y6410000D02*
X16385001D01*
Y6240000D01*
X16555000D01*
Y6410000D01*
D02*
G37*
G36*
X10450000Y5998175D02*
X10422700D01*
Y5974712D01*
X10397300D01*
Y5998175D01*
X10370000D01*
X10346589Y5993519D01*
X10337509Y5987451D01*
X10353774Y5971187D01*
X10335813Y5953226D01*
X10319549Y5969491D01*
X10313481Y5960411D01*
X10308825Y5937000D01*
Y5909700D01*
X10332288D01*
Y5884300D01*
X10308825D01*
Y5857000D01*
X10313481Y5833589D01*
X10319549Y5824509D01*
X10335813Y5840773D01*
X10353774Y5822813D01*
X10337509Y5806548D01*
X10346589Y5800481D01*
X10370000Y5795825D01*
X10397300D01*
Y5819288D01*
X10422700D01*
Y5795825D01*
X10450000D01*
X10473411Y5800481D01*
X10482491Y5806548D01*
X10466226Y5822813D01*
X10484187Y5840773D01*
X10500451Y5824509D01*
X10506519Y5833589D01*
X10511175Y5857000D01*
Y5884300D01*
X10487712D01*
Y5909700D01*
X10511175D01*
Y5937000D01*
X10506519Y5960411D01*
X10500451Y5969491D01*
X10484187Y5953226D01*
X10466226Y5971187D01*
X10482491Y5987451D01*
X10473411Y5993519D01*
X10450000Y5998175D01*
D02*
G37*
G36*
X10423165Y5743000D02*
X10396835D01*
X10371402Y5736185D01*
X10348599Y5723020D01*
X10329980Y5704401D01*
X10316815Y5681598D01*
X10310000Y5656165D01*
Y5629835D01*
X10316815Y5604402D01*
X10329980Y5581599D01*
X10348599Y5562980D01*
X10371402Y5549815D01*
X10396835Y5543000D01*
X10423165D01*
X10448598Y5549815D01*
X10471401Y5562980D01*
X10490020Y5581599D01*
X10503185Y5604402D01*
X10510000Y5629835D01*
Y5656165D01*
X10503185Y5681598D01*
X10490020Y5704401D01*
X10471401Y5723020D01*
X10448598Y5736185D01*
X10423165Y5743000D01*
D02*
G37*
%LPD*%
G36*
X12679877Y7410588D02*
X12196978D01*
X12185273Y7408259D01*
X12175349Y7401629D01*
X12175349Y7401628D01*
X11928908Y7155188D01*
X10905899D01*
X10912388Y7161677D01*
X10913521Y7164412D01*
X11884999D01*
X11885000Y7164412D01*
X11896705Y7166741D01*
X11906629Y7173371D01*
X12152670Y7419412D01*
X12688702D01*
X12679877Y7410588D01*
D02*
G37*
G36*
X10599412Y6861298D02*
X10590588Y6870123D01*
Y7059877D01*
X10599412Y7068702D01*
Y6861298D01*
D02*
G37*
D34*
X12620000Y6540000D02*
X13086555D01*
X13146556Y6600000D02*
X13155000D01*
X13086555Y6540000D02*
X13146556Y6600000D01*
D35*
X13210001Y6980000D02*
X13839175D01*
X13859177Y6960000D02*
X13870000D01*
X13839175Y6980000D02*
X13859177Y6960000D01*
X12850000Y7800000D02*
X13220000D01*
X13410001Y7610000D01*
X10630000Y6860000D02*
Y7490000D01*
Y6860000D02*
X10690000Y6800000D01*
X10560000Y6830000D02*
Y7100000D01*
X11941578Y7124600D02*
X12196978Y7380000D01*
X12720000D01*
X10752080Y7138755D02*
X10766235Y7124600D01*
X10741256Y7138755D02*
X10752080D01*
X10766235Y7124600D02*
X11941578D01*
X10875000Y7195000D02*
X11885000D01*
X12140000Y7450000D01*
X10870000Y7190000D02*
X10875000Y7195000D01*
X12140000Y7450000D02*
X12760000D01*
D37*
X10328000Y8820000D02*
D03*
X10582000D02*
D03*
X11090000D02*
D03*
X10836000D02*
D03*
X10410000Y5643000D02*
D03*
D38*
X11344000Y8820000D02*
D03*
D39*
X10995000Y6410000D02*
D03*
X11395000Y6610000D02*
D03*
D40*
X10995000D02*
D03*
X11395000Y6410000D02*
D03*
D41*
X10410000Y5897000D02*
D03*
D42*
X16470001Y6325000D02*
D03*
D43*
Y6525000D02*
D03*
Y6725000D02*
D03*
Y6925000D02*
D03*
Y7125000D02*
D03*
Y7325000D02*
D03*
Y7525000D02*
D03*
Y7725000D02*
D03*
Y7925000D02*
D03*
Y8125000D02*
D03*
Y8325000D02*
D03*
D44*
X12140000Y7710000D02*
D03*
X11750000Y7696000D02*
D03*
Y7950000D02*
D03*
D45*
Y8204000D02*
D03*
D46*
X13960001Y8270000D02*
D03*
X13760001D02*
D03*
X13860001Y8275000D02*
D03*
X16560001Y9020000D02*
D03*
X16700000D02*
D03*
Y8900000D02*
D03*
X16560001D02*
D03*
Y8760000D02*
D03*
X16700000D02*
D03*
X12350000Y6630000D02*
D03*
X10530000Y6370000D02*
D03*
X10730000Y6140000D02*
D03*
X11910000Y5780000D02*
D03*
X12960001Y8230000D02*
D03*
X12970000Y8000000D02*
D03*
X13310001D02*
D03*
X12660000Y7890000D02*
D03*
X14280000Y8620000D02*
D03*
Y8990000D02*
D03*
X14820000Y8830000D02*
D03*
X15189999Y8890000D02*
D03*
X13870000Y6960000D02*
D03*
X13410001Y7610000D02*
D03*
X10560000Y7100000D02*
D03*
X10741256Y7138755D02*
D03*
X10560000Y6830000D02*
D03*
X10630000Y7490000D02*
D03*
X10690000Y6800000D02*
D03*
X12360000Y7260000D02*
D03*
X12720000Y7380000D02*
D03*
X12360000Y7050000D02*
D03*
X10370000Y6780000D02*
D03*
X11850000Y6030000D02*
D03*
X12880000Y6290000D02*
D03*
X11640000Y5880000D02*
D03*
X11102500Y8360000D02*
D03*
X10932500Y8520000D02*
D03*
X10832500D02*
D03*
X11102500Y8240000D02*
D03*
X10822500Y8070000D02*
D03*
X10662500Y8240000D02*
D03*
X10932500Y8070000D02*
D03*
X10662500Y8360000D02*
D03*
X11680000Y8460000D02*
D03*
X13060001Y7370000D02*
D03*
X11800000Y7260000D02*
D03*
X11570000Y7320000D02*
D03*
X10870000Y7190000D02*
D03*
X12760000Y7450000D02*
D03*
X12850000Y7800000D02*
D03*
X13500000Y7830000D02*
D03*
X12360000Y7160000D02*
D03*
X12170000Y7010000D02*
D03*
X11450000Y6010000D02*
D03*
X13210001Y6980000D02*
D03*
D47*
X13155000Y6600000D02*
D03*
X12620000Y6540000D02*
D03*
%TF.MD5,c9e1a3fcb383980f7794651c8bca377f*%
M02*
