%TF.GenerationSoftware,Altium Limited,Altium Designer,24.5.1 (21)*%
G04 Layer_Color=0*
%FSLAX45Y45*%
%MOMM*%
%TF.SameCoordinates,A56B3D6E-D5BE-476E-BB8E-EB53D717D8A4*%
%TF.FilePolarity,Positive*%
%TF.FileFunction,Plated,1,2,PTH,Drill*%
%TF.Part,Single*%
G01*
G75*
%TA.AperFunction,ComponentDrill*%
%ADD105C,1.10000*%
%ADD106C,0.70000*%
%ADD107C,1.10000*%
%ADD108C,0.80000*%
%ADD109C,1.02000*%
%ADD110C,1.02000*%
%TA.AperFunction,ViaDrill,NotFilled*%
%ADD111C,0.30000*%
D105*
X10328000Y8820000D02*
D03*
X10582000D02*
D03*
X11090000D02*
D03*
X11344000D02*
D03*
X10836000D02*
D03*
D106*
X10995000Y6410000D02*
D03*
Y6610000D02*
D03*
X11395000D02*
D03*
Y6410000D02*
D03*
D107*
X10410000Y5643000D02*
D03*
Y5897000D02*
D03*
D108*
X16470001Y6325000D02*
D03*
Y6525000D02*
D03*
Y6725000D02*
D03*
Y6925000D02*
D03*
Y7125000D02*
D03*
Y7325000D02*
D03*
Y7525000D02*
D03*
Y7725000D02*
D03*
Y7925000D02*
D03*
Y8125000D02*
D03*
Y8325000D02*
D03*
D109*
X12140000Y7710000D02*
D03*
D110*
X11750000Y7696000D02*
D03*
Y7950000D02*
D03*
Y8204000D02*
D03*
D111*
X13960001Y8270000D02*
D03*
X13760001D02*
D03*
X13860001Y8275000D02*
D03*
X16560001Y9020000D02*
D03*
X16700000D02*
D03*
Y8900000D02*
D03*
X16560001D02*
D03*
Y8760000D02*
D03*
X16700000D02*
D03*
X12350000Y6630000D02*
D03*
X10530000Y6370000D02*
D03*
X10730000Y6140000D02*
D03*
X11910000Y5780000D02*
D03*
X12960001Y8230000D02*
D03*
X12970000Y8000000D02*
D03*
X13310001D02*
D03*
X12660000Y7890000D02*
D03*
X14280000Y8620000D02*
D03*
Y8990000D02*
D03*
X14820000Y8830000D02*
D03*
X15189999Y8890000D02*
D03*
X13155000Y6600000D02*
D03*
X13870000Y6960000D02*
D03*
X13410001Y7610000D02*
D03*
X10560000Y7100000D02*
D03*
X10741256Y7138755D02*
D03*
X10560000Y6830000D02*
D03*
X10630000Y7490000D02*
D03*
X10690000Y6800000D02*
D03*
X12360000Y7260000D02*
D03*
X12720000Y7380000D02*
D03*
X12360000Y7050000D02*
D03*
X10370000Y6780000D02*
D03*
X11850000Y6030000D02*
D03*
X12880000Y6290000D02*
D03*
X11640000Y5880000D02*
D03*
X12620000Y6540000D02*
D03*
X11102500Y8360000D02*
D03*
X10932500Y8520000D02*
D03*
X10832500D02*
D03*
X11102500Y8240000D02*
D03*
X10822500Y8070000D02*
D03*
X10662500Y8240000D02*
D03*
X10932500Y8070000D02*
D03*
X10662500Y8360000D02*
D03*
X11680000Y8460000D02*
D03*
X13060001Y7370000D02*
D03*
X11800000Y7260000D02*
D03*
X11570000Y7320000D02*
D03*
X10870000Y7190000D02*
D03*
X12760000Y7450000D02*
D03*
X12850000Y7800000D02*
D03*
X13500000Y7830000D02*
D03*
X12360000Y7160000D02*
D03*
X12170000Y7010000D02*
D03*
X11450000Y6010000D02*
D03*
X13210001Y6980000D02*
D03*
%TF.MD5,a6586904bb8b8df42529aec761ee5295*%
M02*
