%TF.GenerationSoftware,Altium Limited,Altium Designer,24.5.1 (21)*%
G04 Layer_Physical_Order=1*
G04 Layer_Color=255*
%FSLAX45Y45*%
%MOMM*%
%TF.SameCoordinates,A56B3D6E-D5BE-476E-BB8E-EB53D717D8A4*%
%TF.FilePolarity,Positive*%
%TF.FileFunction,Copper,L1,Top,Signal*%
%TF.Part,Single*%
G01*
G75*
%TA.AperFunction,SMDPad,CuDef*%
%ADD10R,0.95000X0.90000*%
%TA.AperFunction,BGAPad,CuDef*%
%ADD11R,0.70000X0.70000*%
%TA.AperFunction,ConnectorPad*%
%ADD12R,0.90000X1.50000*%
%TA.AperFunction,SMDPad,CuDef*%
%ADD13R,0.60000X0.90000*%
G04:AMPARAMS|DCode=14|XSize=1.5mm|YSize=0.3mm|CornerRadius=0.0495mm|HoleSize=0mm|Usage=FLASHONLY|Rotation=0.000|XOffset=0mm|YOffset=0mm|HoleType=Round|Shape=RoundedRectangle|*
%AMROUNDEDRECTD14*
21,1,1.50000,0.20100,0,0,0.0*
21,1,1.40100,0.30000,0,0,0.0*
1,1,0.09900,0.70050,-0.10050*
1,1,0.09900,-0.70050,-0.10050*
1,1,0.09900,-0.70050,0.10050*
1,1,0.09900,0.70050,0.10050*
%
%ADD14ROUNDEDRECTD14*%
%ADD15R,0.90000X0.60000*%
%ADD16R,0.80000X0.90000*%
%ADD17R,1.20000X0.60000*%
%ADD18R,2.60000X1.70000*%
%ADD19R,5.49999X2.15000*%
%ADD20R,0.80000X0.80000*%
%ADD21R,0.80000X0.80000*%
%ADD22R,1.25000X0.60000*%
%ADD23R,2.99999X1.60000*%
%AMCUSTOMSHAPE24*
4,1,4,3.00000,-2.89999,3.00000,2.89999,-3.00000,2.89999,-3.00000,-2.89999,3.00000,-2.89999,0.0*%
%ADD24CUSTOMSHAPE24*%

%ADD25R,0.60000X1.20000*%
%ADD26R,1.00000X1.40000*%
%ADD27R,0.90000X0.80000*%
%ADD28R,0.50000X0.90000*%
%ADD29R,1.40000X2.65000*%
G04:AMPARAMS|DCode=30|XSize=4mm|YSize=5mm|CornerRadius=1mm|HoleSize=0mm|Usage=FLASHONLY|Rotation=0.000|XOffset=0mm|YOffset=0mm|HoleType=Round|Shape=RoundedRectangle|*
%AMROUNDEDRECTD30*
21,1,4.00000,3.00000,0,0,0.0*
21,1,2.00000,5.00000,0,0,0.0*
1,1,2.00000,1.00000,-1.50000*
1,1,2.00000,-1.00000,-1.50000*
1,1,2.00000,-1.00000,1.50000*
1,1,2.00000,1.00000,1.50000*
%
%ADD30ROUNDEDRECTD30*%
%ADD31R,0.90000X0.95000*%
%ADD32R,3.40000X2.10000*%
G04:AMPARAMS|DCode=33|XSize=4mm|YSize=5mm|CornerRadius=1mm|HoleSize=0mm|Usage=FLASHONLY|Rotation=90.000|XOffset=0mm|YOffset=0mm|HoleType=Round|Shape=RoundedRectangle|*
%AMROUNDEDRECTD33*
21,1,4.00000,3.00000,0,0,90.0*
21,1,2.00000,5.00000,0,0,90.0*
1,1,2.00000,1.50000,1.00000*
1,1,2.00000,1.50000,-1.00000*
1,1,2.00000,-1.50000,-1.00000*
1,1,2.00000,-1.50000,1.00000*
%
%ADD33ROUNDEDRECTD33*%
%TA.AperFunction,Conductor*%
%ADD34C,0.30000*%
%ADD35C,0.20000*%
%ADD36C,1.00000*%
%TA.AperFunction,ComponentPad*%
%ADD37C,1.60000*%
G04:AMPARAMS|DCode=38|XSize=1.6mm|YSize=1.6mm|CornerRadius=0.4mm|HoleSize=0mm|Usage=FLASHONLY|Rotation=180.000|XOffset=0mm|YOffset=0mm|HoleType=Round|Shape=RoundedRectangle|*
%AMROUNDEDRECTD38*
21,1,1.60000,0.80000,0,0,180.0*
21,1,0.80000,1.60000,0,0,180.0*
1,1,0.80000,-0.40000,0.40000*
1,1,0.80000,0.40000,0.40000*
1,1,0.80000,0.40000,-0.40000*
1,1,0.80000,-0.40000,-0.40000*
%
%ADD38ROUNDEDRECTD38*%
%ADD39C,1.20000*%
%ADD40R,1.20000X1.20000*%
G04:AMPARAMS|DCode=41|XSize=1.6mm|YSize=1.6mm|CornerRadius=0.4mm|HoleSize=0mm|Usage=FLASHONLY|Rotation=270.000|XOffset=0mm|YOffset=0mm|HoleType=Round|Shape=RoundedRectangle|*
%AMROUNDEDRECTD41*
21,1,1.60000,0.80000,0,0,270.0*
21,1,0.80000,1.60000,0,0,270.0*
1,1,0.80000,-0.40000,-0.40000*
1,1,0.80000,-0.40000,0.40000*
1,1,0.80000,0.40000,0.40000*
1,1,0.80000,0.40000,-0.40000*
%
%ADD41ROUNDEDRECTD41*%
%ADD42R,1.30000X1.30000*%
%ADD43C,1.30000*%
%ADD44C,1.57000*%
%ADD45R,1.57000X1.57000*%
%TA.AperFunction,ViaPad*%
%ADD46C,0.60000*%
%ADD47C,0.70000*%
G36*
X15857501Y8837500D02*
X15999052D01*
X16002501Y8836814D01*
X16092719D01*
X16164314Y8765218D01*
Y8483972D01*
X16151614Y8478854D01*
X16087662Y8542807D01*
X16076083Y8550543D01*
X16062427Y8553260D01*
X16037502D01*
Y8772500D01*
X15857501D01*
Y8655686D01*
X15817500D01*
X15803844Y8652969D01*
X15792267Y8645234D01*
X15617719Y8470686D01*
X15542500D01*
Y8769314D01*
X15632501D01*
X15646156Y8772031D01*
X15657735Y8779766D01*
X15832281Y8954314D01*
X15857501D01*
Y8837500D01*
D02*
G37*
G36*
X15220001Y8632940D02*
Y8560000D01*
X15350002D01*
Y8560000D01*
X15362502Y8559518D01*
Y8470686D01*
X15325002D01*
X15311343Y8467969D01*
X15299767Y8460234D01*
X15161734Y8322201D01*
X15150002Y8327061D01*
Y8405000D01*
X15020001D01*
Y8375588D01*
X14965001D01*
Y8428699D01*
X14965001D01*
Y8441301D01*
X14965001D01*
Y8494412D01*
X15020001D01*
Y8465000D01*
X15150002D01*
Y8546551D01*
X15150687Y8550000D01*
Y8580219D01*
X15208269Y8637800D01*
X15220001Y8632940D01*
D02*
G37*
G36*
Y8262940D02*
Y8190000D01*
X15350002D01*
Y8190000D01*
X15362502Y8189518D01*
Y8100686D01*
X15322501D01*
X15308846Y8097969D01*
X15297267Y8090234D01*
X15161734Y7954700D01*
X15150002Y7959561D01*
Y8035000D01*
X15020001D01*
Y8005588D01*
X14965001D01*
Y8058699D01*
X14965001D01*
Y8071301D01*
X14965001D01*
Y8124412D01*
X15020001D01*
Y8095000D01*
X15150002D01*
Y8209533D01*
X15208269Y8267800D01*
X15220001Y8262940D01*
D02*
G37*
G36*
X17006886Y9224713D02*
X17028030Y9215955D01*
X17047060Y9203241D01*
X17063242Y9187058D01*
X17075955Y9168031D01*
X17084714Y9146887D01*
X17089177Y9124442D01*
Y9113000D01*
Y5537000D01*
Y5525558D01*
X17084714Y5503113D01*
X17075955Y5481970D01*
X17063242Y5462941D01*
X17047058Y5446758D01*
X17028030Y5434045D01*
X17006886Y5425287D01*
X16984444Y5420823D01*
X15593422D01*
X15591206Y5433331D01*
X15602785Y5441067D01*
X15786032Y5624314D01*
X15857501D01*
Y5507500D01*
X16037502D01*
Y5741815D01*
X16127501D01*
X16141158Y5744531D01*
X16152734Y5752267D01*
X16295235Y5894766D01*
X16302969Y5906344D01*
X16305685Y5920000D01*
Y6195219D01*
X16373268Y6262800D01*
X16385001Y6257940D01*
Y6240000D01*
X16555000D01*
Y6410000D01*
X16395929D01*
X16390668Y6422700D01*
X16422337Y6454369D01*
X16437192Y6445793D01*
X16458810Y6440000D01*
X16481190D01*
X16502811Y6445793D01*
X16522192Y6456983D01*
X16538017Y6472809D01*
X16549208Y6492191D01*
X16555000Y6513810D01*
Y6536191D01*
X16549208Y6557809D01*
X16538017Y6577191D01*
X16522192Y6593017D01*
X16502811Y6604208D01*
X16481190Y6610000D01*
X16458810D01*
X16437192Y6604208D01*
X16417810Y6593017D01*
X16401984Y6577191D01*
X16390793Y6557809D01*
X16385001Y6536191D01*
Y6517967D01*
X16050220Y6183186D01*
X16002501D01*
X15999052Y6182500D01*
X15857501D01*
Y6065686D01*
X15802501D01*
X15788844Y6062969D01*
X15777267Y6055234D01*
X15597719Y5875686D01*
X15554449D01*
X15542500Y5877500D01*
Y6179314D01*
X15625002D01*
X15638657Y6182031D01*
X15650233Y6189766D01*
X15824782Y6364314D01*
X15857501D01*
Y6247500D01*
X16037502D01*
Y6354314D01*
X16135001D01*
X16148657Y6357031D01*
X16160234Y6364766D01*
X16440401Y6644933D01*
X16458810Y6640000D01*
X16481190D01*
X16502811Y6645793D01*
X16522192Y6656983D01*
X16538017Y6672809D01*
X16549208Y6692191D01*
X16555000Y6713810D01*
Y6736190D01*
X16549208Y6757809D01*
X16538017Y6777191D01*
X16522192Y6793017D01*
X16502811Y6804207D01*
X16481190Y6810000D01*
X16458810D01*
X16437192Y6804207D01*
X16417810Y6793017D01*
X16401984Y6777191D01*
X16390793Y6757809D01*
X16385001Y6736190D01*
Y6713810D01*
X16389934Y6695400D01*
X16120219Y6425686D01*
X16037502D01*
Y6552500D01*
X15857501D01*
Y6435686D01*
X15810001D01*
X15796344Y6432969D01*
X15784767Y6425234D01*
X15610219Y6250686D01*
X15542500D01*
Y6549314D01*
X15640001D01*
X15653658Y6552031D01*
X15665234Y6559766D01*
X15839783Y6734314D01*
X15857501D01*
Y6617500D01*
X16037502D01*
Y6714314D01*
X16060001D01*
X16073657Y6717031D01*
X16085234Y6724766D01*
X16249782Y6889314D01*
X16392455D01*
X16401984Y6872809D01*
X16417810Y6856983D01*
X16437192Y6845793D01*
X16458810Y6840000D01*
X16481190D01*
X16502811Y6845793D01*
X16522192Y6856983D01*
X16538017Y6872809D01*
X16549208Y6892191D01*
X16555000Y6913810D01*
Y6936191D01*
X16549208Y6957809D01*
X16538017Y6977191D01*
X16522192Y6993017D01*
X16502811Y7004207D01*
X16481190Y7010000D01*
X16458810D01*
X16437192Y7004207D01*
X16417810Y6993017D01*
X16401984Y6977191D01*
X16392455Y6960686D01*
X16235001D01*
X16221344Y6957969D01*
X16209767Y6950234D01*
X16050201Y6790667D01*
X16037502Y6795928D01*
Y6922500D01*
X15857501D01*
Y6805686D01*
X15825002D01*
X15811343Y6802969D01*
X15799767Y6795234D01*
X15625220Y6620686D01*
X15542500D01*
Y6921814D01*
X15642500D01*
X15656157Y6924531D01*
X15667734Y6932266D01*
X15839783Y7104314D01*
X15857501D01*
Y6987500D01*
X16037502D01*
Y7089314D01*
X16392455D01*
X16401984Y7072809D01*
X16417810Y7056983D01*
X16437192Y7045793D01*
X16458810Y7040000D01*
X16481190D01*
X16502811Y7045793D01*
X16522192Y7056983D01*
X16538017Y7072809D01*
X16549208Y7092191D01*
X16555000Y7113809D01*
Y7136190D01*
X16549208Y7157809D01*
X16538017Y7177191D01*
X16522192Y7193017D01*
X16502811Y7204207D01*
X16481190Y7210000D01*
X16458810D01*
X16437192Y7204207D01*
X16417810Y7193017D01*
X16401984Y7177191D01*
X16392455Y7160686D01*
X16037502D01*
Y7292500D01*
X15857501D01*
Y7175686D01*
X15825002D01*
X15811343Y7172969D01*
X15799767Y7165234D01*
X15627719Y6993186D01*
X15542500D01*
Y7291814D01*
X15665001D01*
X15678658Y7294531D01*
X15690234Y7302266D01*
X15844801Y7456833D01*
X15857501Y7451573D01*
Y7357500D01*
X16037502D01*
Y7454314D01*
X16055219D01*
X16209767Y7299766D01*
X16221344Y7292031D01*
X16235001Y7289314D01*
X16392455D01*
X16401984Y7272809D01*
X16417810Y7256983D01*
X16437192Y7245793D01*
X16458810Y7240000D01*
X16481190D01*
X16502811Y7245793D01*
X16522192Y7256983D01*
X16538017Y7272809D01*
X16549208Y7292191D01*
X16555000Y7313810D01*
Y7336191D01*
X16549208Y7357809D01*
X16538017Y7377191D01*
X16522192Y7393017D01*
X16502811Y7404207D01*
X16481190Y7410000D01*
X16458810D01*
X16437192Y7404207D01*
X16417810Y7393017D01*
X16401984Y7377191D01*
X16392455Y7360686D01*
X16249782D01*
X16095235Y7515234D01*
X16083656Y7522969D01*
X16070001Y7525686D01*
X16037502D01*
Y7659072D01*
X16048904Y7665629D01*
X16214767Y7499766D01*
X16226344Y7492031D01*
X16240001Y7489314D01*
X16392455D01*
X16401984Y7472809D01*
X16417810Y7456983D01*
X16437192Y7445793D01*
X16458810Y7440000D01*
X16481190D01*
X16502811Y7445793D01*
X16522192Y7456983D01*
X16538017Y7472809D01*
X16549208Y7492191D01*
X16555000Y7513809D01*
Y7536190D01*
X16549208Y7557809D01*
X16538017Y7577191D01*
X16522192Y7593017D01*
X16502811Y7604207D01*
X16481190Y7610000D01*
X16458810D01*
X16437192Y7604207D01*
X16417810Y7593017D01*
X16401984Y7577191D01*
X16392455Y7560686D01*
X16254784D01*
X16037502Y7777967D01*
Y8032500D01*
X15857501D01*
Y7915686D01*
X15827501D01*
X15813844Y7912969D01*
X15802267Y7905234D01*
X15627719Y7730686D01*
X15542500D01*
Y8029314D01*
X15637502D01*
X15651157Y8032031D01*
X15662733Y8039766D01*
X15837282Y8214314D01*
X15857501D01*
Y8097500D01*
X15999052D01*
X16002501Y8096814D01*
X16047719D01*
X16389934Y7754600D01*
X16385001Y7736191D01*
Y7713810D01*
X16390793Y7692191D01*
X16401984Y7672809D01*
X16417810Y7656983D01*
X16437192Y7645793D01*
X16458810Y7640000D01*
X16481190D01*
X16502811Y7645793D01*
X16522192Y7656983D01*
X16538017Y7672809D01*
X16549208Y7692191D01*
X16555000Y7713810D01*
Y7736191D01*
X16549208Y7757809D01*
X16538017Y7777191D01*
X16522192Y7793017D01*
X16502811Y7804207D01*
X16481190Y7810000D01*
X16458810D01*
X16440401Y7805067D01*
X16087735Y8157733D01*
X16076157Y8165469D01*
X16062502Y8168186D01*
X16037502D01*
Y8402500D01*
X15857501D01*
Y8285686D01*
X15822501D01*
X15808844Y8282969D01*
X15797267Y8275234D01*
X15622719Y8100686D01*
X15542500D01*
Y8399314D01*
X15632500D01*
X15646156Y8402031D01*
X15657735Y8409766D01*
X15832281Y8584314D01*
X15857501D01*
Y8467500D01*
X16037502D01*
Y8475720D01*
X16050201Y8479333D01*
X16094315Y8435219D01*
Y8265000D01*
X16097032Y8251344D01*
X16104767Y8239767D01*
X16389934Y7954600D01*
X16385001Y7936191D01*
Y7913810D01*
X16390793Y7892191D01*
X16401984Y7872809D01*
X16417810Y7856983D01*
X16437192Y7845793D01*
X16458810Y7840000D01*
X16481190D01*
X16502811Y7845793D01*
X16522192Y7856983D01*
X16538017Y7872809D01*
X16549208Y7892191D01*
X16555000Y7913810D01*
Y7936191D01*
X16549208Y7957809D01*
X16538017Y7977191D01*
X16522192Y7993017D01*
X16502811Y8004208D01*
X16481190Y8010000D01*
X16458810D01*
X16440401Y8005067D01*
X16165686Y8279782D01*
Y8361028D01*
X16178386Y8366147D01*
X16389934Y8154600D01*
X16385001Y8136190D01*
Y8113810D01*
X16390793Y8092191D01*
X16401984Y8072809D01*
X16417810Y8056983D01*
X16437192Y8045793D01*
X16458810Y8040000D01*
X16481190D01*
X16502811Y8045793D01*
X16522192Y8056983D01*
X16538017Y8072809D01*
X16549208Y8092191D01*
X16555000Y8113810D01*
Y8136190D01*
X16549208Y8157809D01*
X16538017Y8177191D01*
X16522192Y8193017D01*
X16502811Y8204207D01*
X16481190Y8210000D01*
X16458810D01*
X16440401Y8205067D01*
X16235686Y8409782D01*
Y8780000D01*
X16232970Y8793656D01*
X16225233Y8805234D01*
X16132735Y8897734D01*
X16121156Y8905469D01*
X16107501Y8908186D01*
X16037502D01*
Y9142500D01*
X15857501D01*
Y9025686D01*
X15817500D01*
X15803844Y9022969D01*
X15792267Y9015234D01*
X15617719Y8840686D01*
X15542500D01*
Y9142500D01*
X15362502D01*
Y9050482D01*
X15350002Y9050000D01*
Y9050000D01*
X15220001D01*
Y8930000D01*
X15350002D01*
Y8930000D01*
X15362502Y8929518D01*
Y8840686D01*
X15325002D01*
X15311343Y8837969D01*
X15299767Y8830234D01*
X15161734Y8692201D01*
X15150002Y8697061D01*
Y8775000D01*
X15020001D01*
Y8745588D01*
X14965001D01*
Y8798600D01*
X14965001Y8798700D01*
Y8811300D01*
X14965001Y8811400D01*
Y8863600D01*
X14942712D01*
Y8889000D01*
X14965001D01*
Y8941300D01*
X14932701D01*
Y8919012D01*
X14907301D01*
Y8941300D01*
X14875002D01*
Y8889000D01*
X14897289D01*
Y8863600D01*
X14875002D01*
Y8811400D01*
X14875002Y8811300D01*
Y8798700D01*
X14875002Y8798600D01*
Y8745588D01*
X14785001D01*
Y8780000D01*
X14685001D01*
Y8650000D01*
X14785001D01*
Y8684412D01*
X14875002D01*
Y8668700D01*
X14965001D01*
Y8684412D01*
X15020001D01*
Y8655000D01*
X15107941D01*
X15112801Y8643267D01*
X15089767Y8620234D01*
X15082031Y8608657D01*
X15079315Y8595000D01*
Y8585000D01*
X15020001D01*
Y8555588D01*
X14965001D01*
Y8571300D01*
X14875002D01*
Y8555588D01*
X14785001D01*
Y8590000D01*
X14685001D01*
Y8460000D01*
X14785001D01*
Y8494412D01*
X14875002D01*
Y8441301D01*
X14875000D01*
Y8428699D01*
X14875002D01*
Y8375588D01*
X14785001D01*
Y8410000D01*
X14685001D01*
Y8280000D01*
X14785001D01*
Y8314412D01*
X14875002D01*
Y8298700D01*
X14965001D01*
Y8314412D01*
X15020001D01*
Y8285000D01*
X15107941D01*
X15112801Y8273267D01*
X15084087Y8244553D01*
X15076350Y8232976D01*
X15073634Y8219320D01*
Y8215000D01*
X15020001D01*
Y8185588D01*
X14965001D01*
Y8201300D01*
X14875002D01*
Y8185588D01*
X14785001D01*
Y8220000D01*
X14685001D01*
Y8090000D01*
X14785001D01*
Y8124412D01*
X14875002D01*
Y8071301D01*
X14875000D01*
Y8058699D01*
X14875002D01*
Y8005588D01*
X14785001D01*
Y8040000D01*
X14685001D01*
Y7910000D01*
X14785001D01*
Y7944412D01*
X14875002D01*
Y7928700D01*
X14965001D01*
Y7944412D01*
X15020001D01*
Y7915000D01*
X15105440D01*
X15110300Y7903267D01*
X15089767Y7882734D01*
X15082031Y7871156D01*
X15079315Y7857500D01*
Y7845000D01*
X15020001D01*
Y7815588D01*
X14965001D01*
Y7831300D01*
X14875002D01*
Y7815588D01*
X14785001D01*
Y7850000D01*
X14685001D01*
Y7720000D01*
X14785001D01*
Y7754412D01*
X14875002D01*
Y7701301D01*
X14875000D01*
Y7688699D01*
X14875002D01*
Y7635588D01*
X14785001D01*
Y7670000D01*
X14685001D01*
Y7540000D01*
X14785001D01*
Y7574412D01*
X14875002D01*
Y7558700D01*
X14965001D01*
Y7574412D01*
X15020001D01*
Y7545000D01*
X15105440D01*
X15110300Y7533267D01*
X15089767Y7512734D01*
X15082031Y7501156D01*
X15079315Y7487500D01*
Y7475000D01*
X15020001D01*
Y7445588D01*
X14965001D01*
Y7461300D01*
X14875002D01*
Y7445588D01*
X14785001D01*
Y7480000D01*
X14685001D01*
Y7350001D01*
X14685001D01*
Y7339999D01*
X14685001D01*
Y7236218D01*
X14672301Y7230957D01*
X14636630Y7266629D01*
X14635001Y7267717D01*
Y7339999D01*
X14635001D01*
Y7350001D01*
X14635001D01*
Y7480000D01*
X14625587D01*
Y7540000D01*
X14635001D01*
Y7670000D01*
X14535001D01*
Y7635588D01*
X14489999D01*
Y7675000D01*
X14370001D01*
Y7555000D01*
X14489999D01*
Y7574412D01*
X14535001D01*
Y7540000D01*
X14564413D01*
Y7480000D01*
X14535001D01*
Y7455588D01*
X14489999D01*
Y7485000D01*
X14370001D01*
Y7455588D01*
X14145001D01*
X14145000Y7455588D01*
X14133295Y7453259D01*
X14123370Y7446629D01*
X13832330Y7155588D01*
X13815439D01*
X13810579Y7167321D01*
X14358267Y7715010D01*
X14370001Y7710149D01*
Y7705000D01*
X14489999D01*
Y7734413D01*
X14535001D01*
Y7720000D01*
X14635001D01*
Y7850000D01*
X14625587D01*
Y7910000D01*
X14635001D01*
Y8040000D01*
X14535001D01*
Y8015588D01*
X14489999D01*
Y8045000D01*
X14399852D01*
X14394992Y8056733D01*
X14413258Y8075000D01*
X14489999D01*
Y8124412D01*
X14535001D01*
Y8090000D01*
X14635001D01*
Y8220000D01*
X14625587D01*
Y8280000D01*
X14635001D01*
Y8410000D01*
X14535001D01*
Y8375588D01*
X14489999D01*
Y8415000D01*
X14370001D01*
Y8295000D01*
X14489999D01*
Y8314412D01*
X14535001D01*
Y8280000D01*
X14564413D01*
Y8220000D01*
X14535001D01*
Y8185588D01*
X14489999D01*
Y8195000D01*
X14370001D01*
Y8118258D01*
X14278371Y8026628D01*
X14273288Y8019020D01*
X14261961Y8020587D01*
X14260588Y8021133D01*
Y8377330D01*
X14357301Y8474043D01*
X14370001Y8473521D01*
Y8445000D01*
X14489999D01*
Y8474412D01*
X14535001D01*
Y8460000D01*
X14635001D01*
Y8590000D01*
X14625587D01*
Y8650000D01*
X14635001D01*
Y8780000D01*
X14535001D01*
Y8740588D01*
X14495000D01*
Y8770000D01*
X14375002D01*
Y8650000D01*
X14495000D01*
Y8679412D01*
X14535001D01*
Y8650000D01*
X14564413D01*
Y8590000D01*
X14535001D01*
Y8535588D01*
X14489999D01*
Y8565000D01*
X14370001D01*
Y8535588D01*
X14345001D01*
X14345000Y8535588D01*
X14333295Y8533259D01*
X14323370Y8526629D01*
X14323370Y8526628D01*
X14208371Y8411629D01*
X14203288Y8404021D01*
X14191962Y8405588D01*
X14190588Y8406133D01*
Y8747330D01*
X14212302Y8769043D01*
X14225000Y8763782D01*
X14225002Y8759876D01*
Y8722700D01*
X14247289D01*
Y8697300D01*
X14225002D01*
Y8650000D01*
X14272301D01*
Y8672288D01*
X14297701D01*
Y8650000D01*
X14345001D01*
Y8697300D01*
X14322713D01*
Y8722700D01*
X14345001D01*
Y8770000D01*
X14297701D01*
Y8747712D01*
X14272301D01*
Y8770000D01*
X14235378D01*
X14231218Y8770000D01*
X14225958Y8782700D01*
X14307671Y8864412D01*
X14535001D01*
Y8830000D01*
X14635001D01*
Y8960000D01*
X14625587D01*
Y9020000D01*
X14635001D01*
Y9150000D01*
X14535001D01*
Y9115588D01*
X14495000D01*
Y9145000D01*
X14375002D01*
Y9025000D01*
X14495000D01*
Y9054412D01*
X14535001D01*
Y9020000D01*
X14564413D01*
Y8960000D01*
X14535001D01*
Y8925588D01*
X14295001D01*
X14295000Y8925588D01*
X14283295Y8923259D01*
X14273370Y8916629D01*
X14138371Y8781629D01*
X14131741Y8771705D01*
X14129411Y8760000D01*
X14129411Y8759999D01*
Y7892670D01*
X13597629Y7360887D01*
X13589648Y7363558D01*
X13585487Y7366707D01*
Y7385050D01*
X13590138Y7390716D01*
X13595000Y7394412D01*
X13606705Y7396741D01*
X13616629Y7403371D01*
X13644128Y7430871D01*
X13644128Y7430871D01*
X13650758Y7440795D01*
X13653088Y7452500D01*
Y7797500D01*
X13650758Y7809205D01*
X13644128Y7819129D01*
X13485587Y7977670D01*
Y8030000D01*
X13514999D01*
Y8149999D01*
X13514999D01*
Y8160001D01*
X13514999D01*
Y8280000D01*
X13505000Y8285000D01*
Y8415000D01*
X13405000D01*
Y8285000D01*
X13395000Y8280000D01*
Y8160001D01*
X13395000D01*
Y8149999D01*
X13395000D01*
Y8030000D01*
X13424413D01*
Y7965002D01*
X13424413Y7965000D01*
X13426740Y7953295D01*
X13433371Y7943371D01*
X13564043Y7812700D01*
X13558781Y7800000D01*
X13554877Y7800000D01*
X13512700D01*
Y7777712D01*
X13487300D01*
Y7800000D01*
X13435001D01*
Y7762700D01*
X13457288D01*
Y7737300D01*
X13435001D01*
Y7700000D01*
X13487300D01*
Y7722288D01*
X13512700D01*
Y7700000D01*
X13564999D01*
Y7737300D01*
X13542712D01*
Y7762700D01*
X13564999D01*
Y7789624D01*
X13564999Y7793782D01*
X13577699Y7799043D01*
X13591911Y7784830D01*
Y7505132D01*
X13579211Y7501280D01*
X13578038Y7503038D01*
X13569785Y7508552D01*
X13560049Y7510489D01*
X13520589D01*
Y7550000D01*
X13564999D01*
Y7650000D01*
X13440710D01*
X13438322Y7652388D01*
X13419946Y7660000D01*
X13400053D01*
X13381677Y7652388D01*
X13380309Y7651019D01*
X13367609Y7656280D01*
Y7862978D01*
X13367609Y7862979D01*
X13365280Y7874685D01*
X13358650Y7884608D01*
X13225958Y8017300D01*
X13231218Y8030000D01*
X13245000Y8030000D01*
X13257700Y8030000D01*
X13292300D01*
Y8052288D01*
X13317700D01*
Y8030000D01*
X13364999D01*
Y8077300D01*
X13342712D01*
Y8102700D01*
X13364999D01*
Y8147300D01*
X13364999Y8150000D01*
Y8160000D01*
X13364999Y8162700D01*
X13364999Y8280000D01*
X13355000Y8286518D01*
X13355000Y8292700D01*
Y8415000D01*
X13335588D01*
Y8488102D01*
X13629799D01*
X13637604Y8489654D01*
X13644218Y8494074D01*
X13648639Y8500690D01*
X13650191Y8508494D01*
Y8834396D01*
X13670000D01*
Y8780000D01*
X14050000D01*
Y9030000D01*
X13670000D01*
Y8975604D01*
X13650191D01*
Y9088493D01*
X13648639Y9096296D01*
X13644218Y9102912D01*
X13637604Y9107332D01*
X13629799Y9108884D01*
X13029799D01*
X13021996Y9107332D01*
X13015379Y9102912D01*
X13010959Y9096296D01*
X13009407Y9088493D01*
Y8508494D01*
X13010959Y8500690D01*
X13015379Y8494074D01*
X13021996Y8489654D01*
X13029799Y8488102D01*
X13274413D01*
Y8415000D01*
X13255000D01*
Y8291518D01*
X13245000Y8285000D01*
X13242300Y8285000D01*
X13145000D01*
Y8155000D01*
X13134370Y8150000D01*
X13125000D01*
Y8030000D01*
X13159412D01*
Y8010001D01*
X13159412Y8010000D01*
X13161742Y7998295D01*
X13168372Y7988371D01*
X13210121Y7946621D01*
X13203865Y7934917D01*
X13200000Y7935686D01*
X13139999D01*
Y7990000D01*
X13000000D01*
Y7859851D01*
X12988268Y7854991D01*
X12905588Y7937670D01*
Y7985000D01*
X12905000Y7987955D01*
Y8085000D01*
X12805000D01*
Y7925000D01*
X12844412D01*
X12846741Y7913295D01*
X12853371Y7903372D01*
X12974043Y7782700D01*
X12968782Y7770000D01*
X12905000D01*
Y7710588D01*
X12816133D01*
X12815588Y7711961D01*
X12814021Y7723288D01*
X12821629Y7728371D01*
X12843259Y7750000D01*
X12859946D01*
X12878323Y7757612D01*
X12892387Y7771677D01*
X12900000Y7790054D01*
Y7809946D01*
X12892387Y7828323D01*
X12878323Y7842388D01*
X12859946Y7850000D01*
X12840054D01*
X12821677Y7842388D01*
X12807613Y7828323D01*
X12800000Y7809946D01*
Y7793258D01*
X12787330Y7780588D01*
X12490000D01*
X12478295Y7778259D01*
X12468371Y7771629D01*
X12468371Y7771628D01*
X12011733Y7314991D01*
X12000000Y7319851D01*
Y7415000D01*
X11994851D01*
X11989991Y7426733D01*
X12161628Y7598371D01*
X12161629Y7598371D01*
X12168259Y7608295D01*
X12169794Y7616009D01*
X12178020Y7618213D01*
X12200481Y7631181D01*
X12218820Y7649520D01*
X12231787Y7671981D01*
X12238500Y7697032D01*
Y7722968D01*
X12231787Y7748020D01*
X12218820Y7770481D01*
X12200481Y7788820D01*
X12178020Y7801787D01*
X12152968Y7808500D01*
X12127032D01*
X12101981Y7801787D01*
X12079520Y7788820D01*
X12061181Y7770481D01*
X12048213Y7748020D01*
X12041500Y7722968D01*
Y7697032D01*
X12048213Y7671981D01*
X12061181Y7649520D01*
X12079520Y7631181D01*
X12088493Y7626000D01*
X12090151Y7613408D01*
X11918371Y7441629D01*
X11911741Y7431705D01*
X11909412Y7420000D01*
X11898641Y7415000D01*
X11880000D01*
Y7285000D01*
X11965149D01*
X11970009Y7273267D01*
X11818372Y7121629D01*
X11818371Y7121629D01*
X11722700Y7025957D01*
X11710000Y7031218D01*
Y7147500D01*
X11580000D01*
Y7110588D01*
X11362670D01*
X11265588Y7207670D01*
Y7234000D01*
X11375000D01*
Y7424000D01*
X11340588D01*
Y7437687D01*
X11340588Y7437689D01*
X11338259Y7449394D01*
X11331629Y7459318D01*
X10612588Y8178359D01*
Y8724668D01*
X10620598Y8726815D01*
X10643401Y8739980D01*
X10662020Y8758599D01*
X10666712Y8766727D01*
X10679412Y8763324D01*
Y8760001D01*
X10679412Y8760000D01*
X10681741Y8748294D01*
X10688371Y8738371D01*
X10808371Y8618371D01*
X10818295Y8611741D01*
X10830000Y8609412D01*
X10995330D01*
X11422371Y8182372D01*
X11422371Y8182371D01*
X11432295Y8175741D01*
X11444000Y8173412D01*
X11444001Y8173412D01*
X11651500D01*
Y8105500D01*
X11719412D01*
Y8043779D01*
X11711981Y8041787D01*
X11689520Y8028820D01*
X11671181Y8010481D01*
X11658213Y7988020D01*
X11651500Y7962968D01*
Y7937032D01*
X11658213Y7911981D01*
X11671181Y7889520D01*
X11689520Y7871181D01*
X11711981Y7858213D01*
X11719412Y7856222D01*
Y7789779D01*
X11711981Y7787787D01*
X11689520Y7774820D01*
X11671181Y7756481D01*
X11658213Y7734020D01*
X11651500Y7708968D01*
Y7683032D01*
X11658213Y7657981D01*
X11671181Y7635520D01*
X11689520Y7617181D01*
X11711981Y7604213D01*
X11737032Y7597500D01*
X11762968D01*
X11788020Y7604213D01*
X11810481Y7617181D01*
X11828820Y7635520D01*
X11841787Y7657981D01*
X11848500Y7683032D01*
Y7708968D01*
X11841787Y7734020D01*
X11828820Y7756481D01*
X11810481Y7774820D01*
X11788020Y7787787D01*
X11780588Y7789779D01*
Y7856222D01*
X11788020Y7858213D01*
X11810481Y7871181D01*
X11828820Y7889520D01*
X11841787Y7911981D01*
X11848500Y7937032D01*
Y7962968D01*
X11841787Y7988020D01*
X11828820Y8010481D01*
X11810481Y8028820D01*
X11788020Y8041787D01*
X11780588Y8043779D01*
Y8105500D01*
X11848500D01*
Y8302500D01*
X11651500D01*
Y8234588D01*
X11456670D01*
X11029629Y8661629D01*
X11019705Y8668259D01*
X11008000Y8670588D01*
X11007999Y8670588D01*
X10842670D01*
X10800392Y8712865D01*
X10806966Y8724252D01*
X10822835Y8720000D01*
X10849165D01*
X10874598Y8726815D01*
X10897401Y8739980D01*
X10897730Y8740309D01*
X10881257Y8756783D01*
X10899217Y8774743D01*
X10915691Y8758270D01*
X10916020Y8758599D01*
X10929185Y8781402D01*
X10936000Y8806835D01*
Y8833165D01*
X10929185Y8858598D01*
X10916020Y8881401D01*
X10915691Y8881730D01*
X10899217Y8865257D01*
X10881257Y8883217D01*
X10897730Y8899691D01*
X10897401Y8900020D01*
X10874598Y8913185D01*
X10849165Y8920000D01*
X10822835D01*
X10797402Y8913185D01*
X10774599Y8900020D01*
X10774270Y8899691D01*
X10790743Y8883217D01*
X10772783Y8865257D01*
X10756309Y8881730D01*
X10755980Y8881401D01*
X10753288Y8876738D01*
X10740588Y8880141D01*
Y8984000D01*
X10775000D01*
Y9174000D01*
X10645000D01*
Y8984000D01*
X10679412D01*
Y8876676D01*
X10666712Y8873273D01*
X10662020Y8881401D01*
X10643401Y8900020D01*
X10620598Y8913185D01*
X10595165Y8920000D01*
X10568835D01*
X10543402Y8913185D01*
X10520599Y8900020D01*
X10501980Y8881401D01*
X10488815Y8858598D01*
X10488288Y8856632D01*
X10475588Y8858303D01*
Y9043998D01*
X10475588Y9044000D01*
X10475000Y9046957D01*
Y9174000D01*
X10345000D01*
Y8984000D01*
X10414412D01*
Y8892969D01*
X10401712Y8887708D01*
X10389401Y8900020D01*
X10366598Y8913185D01*
X10341165Y8920000D01*
X10314835D01*
X10289402Y8913185D01*
X10266599Y8900020D01*
X10247980Y8881401D01*
X10234815Y8858598D01*
X10228000Y8833165D01*
Y8806835D01*
X10234815Y8781402D01*
X10247980Y8758599D01*
X10266599Y8739980D01*
X10289402Y8726815D01*
X10297412Y8724668D01*
Y8291717D01*
X10297412Y8291716D01*
X10299741Y8280010D01*
X10306371Y8270087D01*
X10381912Y8194546D01*
Y7424000D01*
X10345000D01*
Y7234000D01*
X10431742D01*
X10521759Y7143983D01*
Y7132470D01*
X10517612Y7128323D01*
X10510000Y7109946D01*
Y7097700D01*
X10510000Y7090054D01*
X10498347Y7085000D01*
X10390000D01*
Y7060686D01*
X10350000D01*
Y7085000D01*
X10324876D01*
Y7158287D01*
X10322159Y7171943D01*
X10314424Y7183521D01*
X10299876Y7198069D01*
Y7234000D01*
X10325000D01*
Y7424000D01*
X10195000D01*
Y7234000D01*
X10228504D01*
Y7183287D01*
X10231221Y7169631D01*
X10238956Y7158054D01*
X10253504Y7143506D01*
Y7085000D01*
X10230000D01*
Y7025467D01*
X10169766Y6965233D01*
X10162031Y6953656D01*
X10159314Y6940000D01*
Y6695026D01*
Y6644974D01*
Y5860000D01*
X10162031Y5846344D01*
X10169766Y5834766D01*
X10259766Y5744766D01*
X10271344Y5737031D01*
X10285000Y5734314D01*
X10345206D01*
X10347193Y5721614D01*
X10329980Y5704401D01*
X10316815Y5681598D01*
X10310000Y5656165D01*
Y5629835D01*
X10316815Y5604402D01*
X10329980Y5581599D01*
X10348599Y5562980D01*
X10371402Y5549815D01*
X10396835Y5543000D01*
X10423165D01*
X10448598Y5549815D01*
X10471401Y5562980D01*
X10490020Y5581599D01*
X10503185Y5604402D01*
X10505332Y5612412D01*
X10665000D01*
Y5570000D01*
X10761742D01*
X10778370Y5553372D01*
X10778371Y5553371D01*
X10788294Y5546740D01*
X10800000Y5544412D01*
X11205000D01*
Y5525000D01*
X11365000D01*
Y5528482D01*
X11375000Y5535000D01*
X11505000D01*
X11509961Y5524989D01*
X11629960D01*
Y5607928D01*
X11641694Y5612788D01*
X11654715Y5599767D01*
X11666293Y5592031D01*
X11679949Y5589314D01*
X11750000D01*
Y5565000D01*
X11819533D01*
X11822267Y5562266D01*
X11833845Y5554530D01*
X11847501Y5551814D01*
X12245001D01*
Y5459999D01*
X12834999D01*
Y5544470D01*
X12837500Y5556911D01*
X12849205Y5559240D01*
X12859129Y5565871D01*
X13066628Y5773370D01*
X13066629Y5773371D01*
X13073259Y5783294D01*
X13075587Y5795000D01*
Y6354999D01*
X13095000D01*
Y6484999D01*
X12995000D01*
Y6354999D01*
X13014412D01*
Y6071018D01*
X13002679Y6066158D01*
X12994420Y6074417D01*
X12994418Y6074418D01*
X12987804Y6078838D01*
X12980000Y6080391D01*
Y6085000D01*
X12879398D01*
X12878841Y6087803D01*
X12874420Y6094419D01*
X12867804Y6098839D01*
X12860001Y6100391D01*
X12835005D01*
X12833034Y6099999D01*
X12600391D01*
X12598839Y6107803D01*
X12594418Y6114419D01*
X12594418Y6114419D01*
X12565571Y6143266D01*
X12570431Y6155000D01*
X12712500D01*
Y6174412D01*
X12860001D01*
Y6115000D01*
X12980000D01*
Y6234999D01*
X12882956D01*
X12880000Y6235587D01*
X12879999Y6235587D01*
X12845000D01*
Y6272299D01*
X12822713D01*
Y6297699D01*
X12845000D01*
Y6334999D01*
X12792700D01*
Y6312711D01*
X12767300D01*
Y6334999D01*
X12715000D01*
X12712500Y6346664D01*
Y6364412D01*
X12724999D01*
X12725000Y6364412D01*
X12736705Y6366740D01*
X12746629Y6373371D01*
X12758258Y6385000D01*
X12845000D01*
Y6354999D01*
X12945000D01*
Y6484999D01*
X12845000D01*
Y6484999D01*
X12715000D01*
Y6456664D01*
X12712500Y6445000D01*
X12547500D01*
X12540686Y6454877D01*
Y6479999D01*
X12565000D01*
Y6504314D01*
X12577904D01*
X12588845Y6493373D01*
X12609060Y6485000D01*
X12630940D01*
X12651155Y6493373D01*
X12666626Y6508845D01*
X12675000Y6529060D01*
Y6550940D01*
X12668467Y6566712D01*
X12674962Y6579412D01*
X12845000D01*
Y6565000D01*
X12926743D01*
X12983371Y6508371D01*
X12993295Y6501741D01*
X13005000Y6499412D01*
X13137331D01*
X13767500Y5869243D01*
Y5772500D01*
X13897501D01*
Y5885439D01*
X13909233Y5890299D01*
X13934314Y5865218D01*
Y5600000D01*
X13937032Y5586344D01*
X13944766Y5574766D01*
X14029765Y5489766D01*
X14041344Y5482031D01*
X14055000Y5479314D01*
X14075002D01*
Y5465000D01*
X14146667D01*
X14156213Y5463101D01*
X14526831D01*
X14548866Y5441067D01*
X14560443Y5433331D01*
X14558228Y5420823D01*
X9675557D01*
X9653112Y5425287D01*
X9631970Y5434045D01*
X9612941Y5446759D01*
X9596758Y5462942D01*
X9584045Y5481969D01*
X9575287Y5503113D01*
X9570823Y5525557D01*
Y5537000D01*
Y9113000D01*
Y9124443D01*
X9575287Y9146887D01*
X9584045Y9168030D01*
X9596759Y9187059D01*
X9612942Y9203241D01*
X9631969Y9215955D01*
X9653112Y9224713D01*
X9675557Y9229177D01*
X16984442D01*
X17006886Y9224713D01*
D02*
G37*
G36*
X14370001Y8015149D02*
Y7925000D01*
X14489999D01*
Y7954412D01*
X14535001D01*
Y7910000D01*
X14564413D01*
Y7850000D01*
X14535001D01*
Y7795588D01*
X14489999D01*
Y7825000D01*
X14370001D01*
Y7795588D01*
X14364999D01*
X14353294Y7793259D01*
X14343372Y7786629D01*
X13767172Y7210430D01*
X13762361Y7211143D01*
X13757901Y7224643D01*
X14321629Y7788371D01*
X14328259Y7798295D01*
X14330588Y7810000D01*
X14330588Y7810001D01*
Y7992329D01*
X14358267Y8020009D01*
X14370001Y8015149D01*
D02*
G37*
G36*
X15220001Y7895439D02*
Y7820000D01*
X15350002D01*
Y7820000D01*
X15362502Y7819518D01*
Y7730686D01*
X15322501D01*
X15308846Y7727969D01*
X15297267Y7720234D01*
X15161734Y7584700D01*
X15150002Y7589561D01*
Y7665000D01*
X15020001D01*
Y7635588D01*
X14965001D01*
Y7688699D01*
X14965001D01*
Y7701301D01*
X14965001D01*
Y7754412D01*
X15020001D01*
Y7725000D01*
X15150002D01*
Y7806551D01*
X15150687Y7810000D01*
Y7842719D01*
X15208269Y7900300D01*
X15220001Y7895439D01*
D02*
G37*
G36*
X10416831Y8754918D02*
X10419835Y8753664D01*
X10423371Y8748371D01*
X10459412Y8712330D01*
Y7630001D01*
X10459412Y7630000D01*
X10461741Y7618295D01*
X10468371Y7608371D01*
X10580000Y7496742D01*
Y7480054D01*
X10587612Y7461677D01*
X10601677Y7447612D01*
X10620054Y7440000D01*
X10639946D01*
X10658323Y7447612D01*
X10672388Y7461677D01*
X10680000Y7480054D01*
Y7499946D01*
X10672388Y7518323D01*
X10658323Y7532388D01*
X10639946Y7540000D01*
X10623258D01*
X10520588Y7642670D01*
Y8725000D01*
X10520515Y8725363D01*
X10531849Y8733485D01*
X10543402Y8726815D01*
X10551412Y8724668D01*
Y8165690D01*
X10551412Y8165689D01*
X10553741Y8153983D01*
X10560371Y8144060D01*
X11191143Y7513288D01*
X11185883Y7500588D01*
X10910001D01*
X10910000Y7500588D01*
X10898295Y7498259D01*
X10888371Y7491629D01*
X10840871Y7444129D01*
X10834241Y7434206D01*
X10832210Y7424000D01*
X10795000D01*
Y7240178D01*
X10783844Y7234991D01*
X10775000Y7242043D01*
Y7424000D01*
X10645000D01*
Y7234000D01*
X10697006D01*
X10709232Y7232680D01*
X10711561Y7220975D01*
X10718191Y7211051D01*
X10728754Y7200489D01*
X10725099Y7186183D01*
X10712933Y7181143D01*
X10701133Y7169343D01*
X10671415D01*
X10618491Y7222267D01*
X10623351Y7234000D01*
X10625000D01*
Y7424000D01*
X10495000D01*
Y7274711D01*
X10483907Y7269972D01*
X10475000Y7277318D01*
Y7424000D01*
X10443088D01*
Y8207214D01*
X10443088Y8207215D01*
X10440759Y8218921D01*
X10434129Y8228844D01*
X10434128Y8228845D01*
X10358588Y8304386D01*
Y8724668D01*
X10366598Y8726815D01*
X10389401Y8739980D01*
X10404667Y8755246D01*
X10406611Y8755736D01*
X10416831Y8754918D01*
D02*
G37*
G36*
X12905000Y7632957D02*
X12904411Y7630000D01*
X12905000Y7627043D01*
Y7590000D01*
X13039412D01*
Y7497670D01*
X13018188Y7476446D01*
X13005489Y7481707D01*
Y7485050D01*
X13003552Y7494785D01*
X12998038Y7503038D01*
X12989784Y7508552D01*
X12980051Y7510489D01*
X12839951D01*
X12830215Y7508552D01*
X12821962Y7503038D01*
X12816447Y7494785D01*
X12814513Y7485050D01*
Y7482241D01*
X12804756Y7479088D01*
X12801813Y7478899D01*
X12788323Y7492388D01*
X12769946Y7500000D01*
X12750054D01*
X12731677Y7492388D01*
X12717612Y7478323D01*
X12710000Y7459946D01*
Y7440055D01*
X12701829Y7426593D01*
X12691677Y7422388D01*
X12677612Y7408323D01*
X12674613Y7401083D01*
X12674576Y7401038D01*
X12659081Y7396771D01*
X12656853Y7398259D01*
X12645147Y7400588D01*
X12645146Y7400588D01*
X12380001D01*
X12380000Y7400588D01*
X12368295Y7398259D01*
X12358371Y7391629D01*
X12358371Y7391628D01*
X12344056Y7377313D01*
X12330556Y7381774D01*
X12329842Y7386584D01*
X12592670Y7649412D01*
X12905000D01*
Y7632957D01*
D02*
G37*
G36*
X12564413Y7718039D02*
X12565980Y7706712D01*
X12558371Y7701629D01*
X12558371Y7701628D01*
X12281743Y7425000D01*
X12224851D01*
X12219991Y7436733D01*
X12502670Y7719412D01*
X12563867D01*
X12564413Y7718039D01*
D02*
G37*
G36*
X14535001Y7350001D02*
X14535001D01*
Y7339999D01*
X14535001D01*
Y7210000D01*
X14606683D01*
X14614029Y7201093D01*
X14609290Y7190000D01*
X14535001D01*
Y7171219D01*
X14522301Y7165958D01*
X14484991Y7203267D01*
X14489851Y7215000D01*
X14489999D01*
Y7335000D01*
X14370001D01*
Y7303088D01*
X14207500D01*
Y7337500D01*
X14117351D01*
X14112491Y7349233D01*
X14157671Y7394412D01*
X14370001D01*
Y7365000D01*
X14489999D01*
Y7394412D01*
X14535001D01*
Y7350001D01*
D02*
G37*
G36*
X15857501Y7727500D02*
X15987035D01*
X16040630Y7673904D01*
X16034073Y7662500D01*
X15857501D01*
Y7533260D01*
X15835075D01*
X15821419Y7530543D01*
X15809840Y7522808D01*
X15650220Y7363186D01*
X15542500D01*
Y7659314D01*
X15642500D01*
X15656157Y7662031D01*
X15667734Y7669766D01*
X15842282Y7844314D01*
X15857501D01*
Y7727500D01*
D02*
G37*
G36*
X15220001Y7525439D02*
Y7450000D01*
X15350002D01*
Y7450000D01*
X15362502Y7449518D01*
Y7363186D01*
X15322501D01*
X15308844Y7360469D01*
X15297267Y7352734D01*
X15161734Y7217200D01*
X15150002Y7222061D01*
Y7295000D01*
X15020001D01*
Y7265588D01*
X14965001D01*
Y7318699D01*
X14965001D01*
Y7331301D01*
X14965001D01*
Y7384412D01*
X15020001D01*
Y7355000D01*
X15150002D01*
Y7436551D01*
X15150687Y7440000D01*
Y7472719D01*
X15208269Y7530300D01*
X15220001Y7525439D01*
D02*
G37*
G36*
X14370001Y7215000D02*
X14399413D01*
X14401741Y7203295D01*
X14408372Y7193372D01*
X14495088Y7106656D01*
X14505011Y7100025D01*
X14516716Y7097697D01*
X14516718Y7097697D01*
X14535001D01*
Y7060000D01*
X14594289D01*
X14599028Y7048907D01*
X14591682Y7040000D01*
X14535001D01*
Y7020588D01*
X14505000D01*
Y7050000D01*
X14428258D01*
X14376630Y7101629D01*
X14366705Y7108259D01*
X14355000Y7110588D01*
X14354999Y7110588D01*
X14020000D01*
X14008295Y7108259D01*
X13998370Y7101629D01*
X13952330Y7055588D01*
X13925439D01*
X13920578Y7067321D01*
X14060168Y7206912D01*
X14104999D01*
X14105000Y7206912D01*
X14107957Y7207500D01*
X14207500D01*
Y7241912D01*
X14370001D01*
Y7215000D01*
D02*
G37*
G36*
X12195000Y7395149D02*
Y7326058D01*
X12188371Y7321629D01*
X12188371Y7321628D01*
X12014830Y7148088D01*
X11995001D01*
X11995000Y7148088D01*
X11992044Y7147500D01*
X11947352D01*
X11942491Y7159233D01*
X12183267Y7400009D01*
X12195000Y7395149D01*
D02*
G37*
G36*
X13134412Y7237670D02*
X13018188Y7121446D01*
X13005489Y7126707D01*
Y7135050D01*
X13003552Y7144785D01*
X13000067Y7150000D01*
X13003552Y7155215D01*
X13005489Y7164950D01*
Y7185050D01*
X13003552Y7194785D01*
X13000067Y7200000D01*
X13003552Y7205215D01*
X13005489Y7214950D01*
Y7235050D01*
X13003552Y7244785D01*
X13000067Y7250000D01*
X13003552Y7255215D01*
X13005489Y7264950D01*
Y7285050D01*
X13003552Y7294785D01*
X13000067Y7300000D01*
X13003552Y7305215D01*
X13005489Y7314950D01*
Y7335050D01*
X13003552Y7344785D01*
X13000067Y7350000D01*
X13003552Y7355215D01*
X13005489Y7364950D01*
Y7383314D01*
X13010001Y7394412D01*
X13021706Y7396741D01*
X13031628Y7403371D01*
X13091629Y7463371D01*
X13098259Y7473295D01*
X13100587Y7485000D01*
X13100587Y7485001D01*
Y7590000D01*
X13134412D01*
Y7237670D01*
D02*
G37*
G36*
X14823370Y7213372D02*
X14823372Y7213371D01*
X14833295Y7206741D01*
X14845001Y7204412D01*
X14845003Y7204412D01*
X14875002D01*
Y7188700D01*
X14965001D01*
Y7204412D01*
X15020001D01*
Y7175000D01*
X15102940D01*
X15107800Y7163267D01*
X15089767Y7145234D01*
X15082031Y7133657D01*
X15079315Y7120000D01*
Y7105000D01*
X15020001D01*
Y7075588D01*
X14965001D01*
Y7091300D01*
X14875002D01*
Y7080588D01*
X14785001D01*
Y7190000D01*
X14696391D01*
X14693607Y7199372D01*
X14701805Y7210000D01*
X14785001D01*
Y7238518D01*
X14797701Y7239042D01*
X14823370Y7213372D01*
D02*
G37*
G36*
X11173435Y7436700D02*
X11166647Y7424000D01*
X11095000D01*
Y7234000D01*
X11121912D01*
Y7115000D01*
X11087500D01*
Y7042351D01*
X11075767Y7037491D01*
X11043088Y7070170D01*
Y7234000D01*
X11075000D01*
Y7424000D01*
X10945000D01*
Y7234000D01*
X10981913D01*
Y7057501D01*
X10981912Y7057500D01*
X10984241Y7045794D01*
X10990871Y7035871D01*
X11058356Y6968386D01*
X11058356Y6968323D01*
X11054497Y6955686D01*
X10922500D01*
Y6960000D01*
X10792500D01*
Y6950686D01*
X10747500D01*
Y6965000D01*
X10627968D01*
X10555667Y7037300D01*
X10560928Y7050000D01*
X10569946D01*
X10588323Y7057612D01*
X10602388Y7071677D01*
X10604800Y7077501D01*
X10617500Y7074975D01*
Y7015000D01*
X10679546D01*
X10682500Y7014412D01*
X10685455Y7015000D01*
X10747500D01*
Y7088755D01*
X10751201D01*
X10769578Y7096367D01*
X10779800Y7106589D01*
X10792500Y7101329D01*
Y7010000D01*
X10854545D01*
X10857500Y7009412D01*
X10860455Y7010000D01*
X10922500D01*
Y7110000D01*
X10888088D01*
Y7115000D01*
X10885760Y7126705D01*
X10884716Y7128267D01*
X10889364Y7143901D01*
X10898323Y7147612D01*
X10912388Y7161677D01*
X10920000Y7180054D01*
Y7199946D01*
X10912388Y7218323D01*
X10909411Y7221300D01*
X10914672Y7234000D01*
X10925000D01*
Y7423999D01*
X10925000D01*
X10928447Y7435272D01*
X10931213Y7439412D01*
X11171623D01*
X11173435Y7436700D01*
D02*
G37*
G36*
X13235001Y7590000D02*
X13240614Y7579625D01*
Y7035185D01*
X13227914Y7026699D01*
X13219946Y7030000D01*
X13203258D01*
X13186629Y7046629D01*
X13176704Y7053259D01*
X13164999Y7055588D01*
X13164999Y7055588D01*
X13055440D01*
X13050578Y7067321D01*
X13186629Y7203371D01*
X13186629Y7203371D01*
X13193259Y7213295D01*
X13195589Y7225000D01*
Y7590000D01*
X13235001D01*
D02*
G37*
G36*
X11204412Y7195002D02*
X11204412Y7195000D01*
X11206741Y7183295D01*
X11213371Y7173371D01*
X11328371Y7058372D01*
X11328372Y7058371D01*
X11338295Y7051741D01*
X11350000Y7049412D01*
X11350002Y7049412D01*
X11580000D01*
Y7020588D01*
X11217500D01*
Y7115000D01*
X11183088D01*
Y7234000D01*
X11204412D01*
Y7195002D01*
D02*
G37*
G36*
X12535000Y7220000D02*
Y7122700D01*
X12535000Y7110001D01*
X12535000D01*
Y7109999D01*
X12535000D01*
Y6990000D01*
X12655000D01*
Y7044412D01*
X12749561D01*
X12754422Y7032679D01*
X12691742Y6970000D01*
X12615000D01*
Y6940587D01*
X12535000D01*
Y6970000D01*
X12415000D01*
Y6940587D01*
X12375000D01*
Y6970000D01*
X12320588D01*
Y7175000D01*
X12325000D01*
Y7273942D01*
X12331629Y7278371D01*
X12373267Y7320009D01*
X12385000Y7315149D01*
Y7292700D01*
X12407288D01*
Y7267300D01*
X12385000D01*
Y7220000D01*
Y7182700D01*
X12407288D01*
Y7157300D01*
X12385000D01*
Y7122700D01*
X12385000Y7110000D01*
X12385000Y7097300D01*
Y7062700D01*
X12407288D01*
Y7037300D01*
X12385000D01*
Y6990000D01*
X12432300D01*
Y7012288D01*
X12457700D01*
Y6990000D01*
X12505000D01*
Y7037300D01*
X12482712D01*
Y7062700D01*
X12505000D01*
Y7097300D01*
X12505000Y7110000D01*
X12505000Y7122700D01*
Y7157300D01*
X12482712D01*
Y7182700D01*
X12505000D01*
Y7220000D01*
Y7267300D01*
X12482712D01*
Y7292700D01*
X12505000D01*
Y7339412D01*
X12535000D01*
Y7220000D01*
D02*
G37*
G36*
X15220001Y7157939D02*
Y7080000D01*
X15350002D01*
Y7080000D01*
X15362502Y7079518D01*
Y6993186D01*
X15322501D01*
X15308846Y6990469D01*
X15297267Y6982734D01*
X15161734Y6847200D01*
X15150002Y6852060D01*
Y6925000D01*
X15020001D01*
Y6895588D01*
X14965001D01*
Y6948699D01*
X14965001D01*
Y6961301D01*
X14965001D01*
Y7014412D01*
X15020001D01*
Y6985000D01*
X15150002D01*
Y7066551D01*
X15150687Y7070000D01*
Y7105219D01*
X15208269Y7162800D01*
X15220001Y7157939D01*
D02*
G37*
G36*
X11895000Y7095149D02*
Y7058258D01*
X11597330Y6760588D01*
X11115000D01*
X11103294Y6758259D01*
X11093371Y6751629D01*
X11093370Y6751628D01*
X11031742Y6690000D01*
X10915000D01*
Y6530000D01*
X11075000D01*
Y6646742D01*
X11127670Y6699412D01*
X11370527D01*
X11372198Y6686712D01*
X11364121Y6684548D01*
X11345879Y6674016D01*
X11330984Y6659121D01*
X11320452Y6640879D01*
X11315000Y6620532D01*
Y6599468D01*
X11320452Y6579121D01*
X11330984Y6560879D01*
X11345879Y6545984D01*
X11364121Y6535452D01*
X11384468Y6530000D01*
X11405532D01*
X11425879Y6535452D01*
X11444121Y6545984D01*
X11459016Y6560879D01*
X11469548Y6579121D01*
X11469626Y6579412D01*
X12034999D01*
X12035000Y6579412D01*
X12046705Y6581741D01*
X12056629Y6588371D01*
X12318258Y6850000D01*
X12375000D01*
Y6879412D01*
X12415000D01*
Y6863598D01*
X12413294Y6863259D01*
X12403371Y6856629D01*
X12403370Y6856628D01*
X11987330Y6440588D01*
X11475000D01*
Y6490000D01*
X11315000D01*
Y6330000D01*
X11475000D01*
Y6379412D01*
X11999999D01*
X12000000Y6379412D01*
X12011705Y6381741D01*
X12021629Y6388371D01*
X12403267Y6770009D01*
X12415000Y6765149D01*
Y6700000D01*
X12446401D01*
X12446740Y6698295D01*
X12453371Y6688371D01*
X12530009Y6611733D01*
X12525149Y6599999D01*
X12445000D01*
Y6479999D01*
X12469314D01*
Y6454877D01*
X12462500Y6445000D01*
X12297500D01*
Y6345000D01*
Y6274865D01*
X12014473D01*
X12006669Y6273312D01*
X12000054Y6268892D01*
X12000053Y6268891D01*
X11915581Y6184419D01*
X11911160Y6177803D01*
X11909608Y6170000D01*
Y6134999D01*
X11885000D01*
Y5925000D01*
X11909608D01*
Y5869999D01*
X11911161Y5862196D01*
X11915581Y5855580D01*
X11995580Y5775581D01*
X11995580Y5775580D01*
X12002196Y5771160D01*
X12010000Y5769607D01*
X12958389D01*
X12961331Y5765813D01*
X12964246Y5757503D01*
X12846733Y5639990D01*
X12834999Y5644850D01*
Y5714999D01*
X12245001D01*
Y5623185D01*
X11870000D01*
Y5685000D01*
X11750000D01*
Y5660686D01*
X11694730D01*
X11629960Y5725456D01*
Y5794988D01*
X11509961D01*
X11505000Y5785000D01*
X11375000D01*
X11365000Y5791518D01*
Y5815000D01*
X11205000D01*
Y5715000D01*
X11314533D01*
X11319766Y5709767D01*
X11331344Y5702031D01*
X11345000Y5699314D01*
X11375000D01*
Y5685000D01*
X11505000D01*
X11509961Y5674989D01*
X11579493D01*
X11597760Y5656722D01*
X11592900Y5644988D01*
X11509961D01*
X11505000Y5635000D01*
X11375000D01*
Y5631518D01*
X11365000Y5625000D01*
X11205000D01*
Y5605587D01*
X10812670D01*
X10805000Y5613257D01*
Y5716573D01*
X10817700Y5721833D01*
X10894767Y5644766D01*
X10906344Y5637031D01*
X10920001Y5634314D01*
X10955000D01*
Y5620000D01*
X11115000D01*
Y5720000D01*
X10955000D01*
Y5705686D01*
X10934782D01*
X10862201Y5778267D01*
X10867061Y5790000D01*
X10900000D01*
Y5969999D01*
X10860588D01*
Y6020000D01*
X10860000Y6022954D01*
Y6104999D01*
X10840588D01*
Y6680000D01*
X10838259Y6691706D01*
X10831629Y6701629D01*
X10831628Y6701629D01*
X10740000Y6793258D01*
Y6809946D01*
X10732388Y6828323D01*
X10718323Y6842388D01*
X10699946Y6850000D01*
X10680054D01*
X10661677Y6842388D01*
X10647612Y6828323D01*
X10640000Y6809946D01*
Y6790054D01*
X10647612Y6771677D01*
X10661677Y6757612D01*
X10680054Y6750000D01*
X10696742D01*
X10779412Y6667330D01*
Y6104999D01*
X10760000D01*
Y5975000D01*
X10760000D01*
Y5969999D01*
X10760000D01*
Y5805686D01*
X10710000D01*
Y5867300D01*
X10687712D01*
Y5892700D01*
X10710000D01*
Y5962299D01*
X10710000Y5969999D01*
X10710000Y5982700D01*
Y6027300D01*
X10687712D01*
Y6052700D01*
X10710000D01*
Y6104999D01*
X10672700D01*
Y6082712D01*
X10647300D01*
Y6104999D01*
X10610000D01*
Y6052700D01*
X10632288D01*
Y6027300D01*
X10610000D01*
Y5982700D01*
X10610000Y5975000D01*
X10599371Y5969999D01*
X10570000D01*
Y5892700D01*
X10592288D01*
Y5867300D01*
X10570000D01*
Y5805686D01*
X10502319D01*
X10496360Y5818386D01*
X10506519Y5833589D01*
X10511175Y5857000D01*
Y5884300D01*
X10487712D01*
Y5909700D01*
X10511175D01*
Y5937000D01*
X10506519Y5960411D01*
X10500451Y5969491D01*
X10484187Y5953226D01*
X10466226Y5971187D01*
X10482491Y5987451D01*
X10473411Y5993519D01*
X10450000Y5998175D01*
X10422700D01*
Y5974712D01*
X10397300D01*
Y5998175D01*
X10370000D01*
X10346589Y5993519D01*
X10337509Y5987451D01*
X10353774Y5971187D01*
X10335813Y5953226D01*
X10319549Y5969491D01*
X10313481Y5960411D01*
X10308825Y5937000D01*
Y5909700D01*
X10332288D01*
Y5884300D01*
X10308825D01*
Y5857000D01*
X10313481Y5833589D01*
X10323640Y5818386D01*
X10317681Y5805686D01*
X10299782D01*
X10230686Y5874781D01*
Y6619071D01*
X10232300Y6620297D01*
X10245000Y6613992D01*
Y6605000D01*
X10345000D01*
Y6735000D01*
X10245000D01*
Y6726008D01*
X10232300Y6719704D01*
X10230686Y6720929D01*
Y6815000D01*
X10277300D01*
Y6837288D01*
X10302700D01*
Y6815000D01*
X10350000D01*
Y6862300D01*
X10327712D01*
Y6887700D01*
X10350000D01*
Y6935000D01*
X10302700D01*
Y6912712D01*
X10277300D01*
Y6935000D01*
X10257061D01*
X10252200Y6946733D01*
X10270467Y6965000D01*
X10350000D01*
Y6989314D01*
X10390000D01*
Y6965000D01*
X10510000D01*
Y6965000D01*
X10522700Y6969333D01*
X10597267Y6894766D01*
X10608844Y6887031D01*
X10617500Y6885309D01*
Y6865000D01*
X10747500D01*
Y6879314D01*
X10792500D01*
Y6860000D01*
X10922500D01*
Y6884314D01*
X11087500D01*
Y6865000D01*
X11217500D01*
Y6959412D01*
X11729999D01*
X11730000Y6959412D01*
X11741705Y6961741D01*
X11751629Y6968371D01*
X11861628Y7078371D01*
X11861629Y7078371D01*
X11883267Y7100009D01*
X11895000Y7095149D01*
D02*
G37*
G36*
X12195000Y7225149D02*
Y7175000D01*
X12257044D01*
X12259412Y7174529D01*
Y6970000D01*
X12255000D01*
Y6873257D01*
X12237700Y6855957D01*
X12225000Y6861218D01*
Y6897300D01*
X12202712D01*
Y6922700D01*
X12225000D01*
Y6970000D01*
X12177700D01*
Y6947712D01*
X12152300D01*
Y6970000D01*
X12105000D01*
Y6922700D01*
X12127288D01*
Y6897300D01*
X12105000D01*
Y6850000D01*
X12152300D01*
Y6872288D01*
X12177700D01*
Y6850000D01*
X12213782D01*
X12219042Y6837300D01*
X12022330Y6640588D01*
X11469626D01*
X11469548Y6640879D01*
X11459016Y6659121D01*
X11444121Y6674016D01*
X11425879Y6684548D01*
X11417802Y6686712D01*
X11419473Y6699412D01*
X11609999D01*
X11610000Y6699412D01*
X11621705Y6701741D01*
X11631629Y6708371D01*
X11935758Y7012500D01*
X12025000D01*
Y7074471D01*
X12027501Y7086912D01*
X12039206Y7089241D01*
X12049129Y7095871D01*
X12183267Y7230009D01*
X12195000Y7225149D01*
D02*
G37*
G36*
X14235001Y6930000D02*
X14266913D01*
Y6850000D01*
X14235001D01*
Y6820588D01*
X14205000D01*
Y6860000D01*
X14170589D01*
Y6892500D01*
X14207500D01*
Y7022500D01*
X14072501D01*
Y6990588D01*
X13990356D01*
X13986504Y7003288D01*
X13986629Y7003371D01*
X14032671Y7049412D01*
X14235001D01*
Y6930000D01*
D02*
G37*
G36*
X13894412Y6687330D02*
Y6595001D01*
X13894412Y6595000D01*
X13896741Y6583295D01*
X13903371Y6573371D01*
X13993372Y6483372D01*
X13993372Y6483371D01*
X14003294Y6476741D01*
X14014999Y6474413D01*
X14370001D01*
Y6445000D01*
X14489999D01*
Y6464412D01*
X14535001D01*
Y6430000D01*
X14554413D01*
Y6370000D01*
X14535001D01*
Y6315588D01*
X14489999D01*
Y6345000D01*
X14370001D01*
Y6225000D01*
X14489999D01*
Y6254412D01*
X14535001D01*
Y6240000D01*
X14635001D01*
Y6370000D01*
X14615588D01*
Y6430000D01*
X14635001D01*
Y6560000D01*
X14535001D01*
Y6525588D01*
X14489999D01*
Y6565000D01*
X14370001D01*
Y6535588D01*
X14292857D01*
X14289005Y6548288D01*
X14289130Y6548371D01*
X14357301Y6616543D01*
X14370001Y6611282D01*
Y6595000D01*
X14489999D01*
Y6624412D01*
X14535001D01*
Y6610000D01*
X14635001D01*
Y6740000D01*
X14615588D01*
Y6760000D01*
X14635001D01*
Y6869412D01*
X14660001D01*
X14660001Y6869412D01*
X14671706Y6871741D01*
X14672301Y6872138D01*
X14685001Y6865349D01*
Y6760000D01*
X14785001D01*
Y6794412D01*
X14804999D01*
X14805000Y6794412D01*
X14816705Y6796741D01*
X14826630Y6803371D01*
X14856371Y6833112D01*
X14875002D01*
Y6818700D01*
X14965001D01*
Y6834412D01*
X15020001D01*
Y6805000D01*
X15102940D01*
X15107800Y6793267D01*
X15081587Y6767053D01*
X15073851Y6755476D01*
X15071135Y6741820D01*
Y6735000D01*
X15020001D01*
Y6705588D01*
X14965001D01*
Y6721300D01*
X14875002D01*
Y6705588D01*
X14785001D01*
Y6740000D01*
X14685001D01*
Y6610000D01*
X14785001D01*
Y6644412D01*
X14875002D01*
Y6591301D01*
X14875000D01*
Y6578699D01*
X14875002D01*
Y6525588D01*
X14785001D01*
Y6560000D01*
X14685001D01*
Y6430000D01*
X14785001D01*
Y6464412D01*
X14875002D01*
Y6448700D01*
X14965001D01*
Y6464412D01*
X15020001D01*
Y6435000D01*
X15107941D01*
X15112801Y6423267D01*
X15084087Y6394553D01*
X15076350Y6382976D01*
X15073634Y6369320D01*
Y6365000D01*
X15020001D01*
Y6335588D01*
X14965001D01*
Y6351300D01*
X14875002D01*
Y6335588D01*
X14785001D01*
Y6370000D01*
X14685001D01*
Y6240000D01*
X14785001D01*
Y6274412D01*
X14875002D01*
Y6221300D01*
X14875000D01*
Y6208699D01*
X14875002D01*
Y6155588D01*
X14785001D01*
Y6190000D01*
X14685001D01*
Y6060000D01*
X14785001D01*
Y6094412D01*
X14875002D01*
Y6078700D01*
X14965001D01*
Y6094412D01*
X15020001D01*
Y6065000D01*
X15105440D01*
X15110300Y6053267D01*
X15089767Y6032734D01*
X15082031Y6021157D01*
X15079315Y6007500D01*
Y5995000D01*
X15020001D01*
Y5965588D01*
X14965001D01*
Y5981300D01*
X14875002D01*
Y5965588D01*
X14785001D01*
Y6000000D01*
X14685001D01*
Y5870000D01*
X14785001D01*
Y5904412D01*
X14875002D01*
Y5851300D01*
X14875000D01*
X14875000Y5838700D01*
X14875002D01*
Y5785588D01*
X14785001D01*
Y5820000D01*
X14685001D01*
Y5690000D01*
X14785001D01*
Y5724412D01*
X14875002D01*
Y5708700D01*
X14965001D01*
Y5724412D01*
X15020001D01*
Y5695000D01*
X15105440D01*
X15110300Y5683267D01*
X15089339Y5662305D01*
X15081602Y5650728D01*
X15078886Y5637072D01*
Y5625000D01*
X15020001D01*
Y5595588D01*
X14965001D01*
Y5611300D01*
X14875002D01*
Y5595588D01*
X14785001D01*
Y5650000D01*
X14685001D01*
Y5520000D01*
X14785001D01*
Y5534412D01*
X14875002D01*
Y5501986D01*
X14592912D01*
X14588812Y5507300D01*
X14595053Y5520000D01*
X14635001D01*
Y5650000D01*
X14625587D01*
Y5690000D01*
X14635001D01*
Y5820000D01*
X14535001D01*
Y5780588D01*
X14489999D01*
Y5810000D01*
X14370001D01*
Y5780588D01*
X14322670D01*
X14280588Y5822670D01*
Y5979999D01*
X14280588Y5980000D01*
X14278259Y5991705D01*
X14271629Y6001629D01*
X14271628Y6001629D01*
X13770589Y6502670D01*
Y6669999D01*
X13770589Y6670000D01*
X13781023Y6682643D01*
X13783705Y6683037D01*
X13794412Y6672330D01*
Y6555001D01*
X13794412Y6555000D01*
X13796741Y6543295D01*
X13803371Y6533371D01*
X14223370Y6113372D01*
X14223370Y6113371D01*
X14233295Y6106741D01*
X14245000Y6104412D01*
X14245001Y6104412D01*
X14370001D01*
Y6075000D01*
X14489999D01*
Y6094412D01*
X14535001D01*
Y6060000D01*
X14554413D01*
Y6000000D01*
X14535001D01*
Y5930588D01*
X14489999D01*
Y5960000D01*
X14370001D01*
Y5840000D01*
X14489999D01*
Y5869412D01*
X14567499D01*
X14567500Y5869412D01*
X14570457Y5870000D01*
X14635001D01*
Y6000000D01*
X14615588D01*
Y6060000D01*
X14635001D01*
Y6190000D01*
X14535001D01*
Y6155588D01*
X14489999D01*
Y6195000D01*
X14370001D01*
Y6165588D01*
X14257669D01*
X13855588Y6567670D01*
Y6684999D01*
X13855588Y6685000D01*
X13853259Y6696705D01*
X13846629Y6706629D01*
X13846628Y6706629D01*
X13670580Y6882679D01*
X13675439Y6894412D01*
X13687331D01*
X13894412Y6687330D01*
D02*
G37*
G36*
X14072501Y6892500D02*
X14109413D01*
Y6860000D01*
X14075000D01*
Y6760000D01*
X14137044D01*
X14139999Y6759412D01*
X14140001Y6759412D01*
X14235001D01*
Y6730000D01*
X14307651D01*
X14312511Y6718267D01*
X14284830Y6690588D01*
X14205000D01*
Y6710000D01*
X14075000D01*
Y6616218D01*
X14062300Y6610957D01*
X14050587Y6622670D01*
Y6720000D01*
X14048259Y6731705D01*
X14041629Y6741629D01*
X14041628Y6741629D01*
X13884937Y6898321D01*
X13887917Y6913302D01*
X13898323Y6917612D01*
X13910123Y6929412D01*
X14072501D01*
Y6892500D01*
D02*
G37*
G36*
X12615000Y6700000D02*
X12652916D01*
X12653371Y6699319D01*
X12663294Y6692688D01*
X12675000Y6690360D01*
X12686705Y6692688D01*
X12696629Y6699319D01*
X12697084Y6700000D01*
X12735000D01*
Y6722808D01*
X12742499Y6731910D01*
X12754204Y6734239D01*
X12764127Y6740869D01*
X12801813Y6778554D01*
X12814513Y6773293D01*
Y6764950D01*
X12816447Y6755215D01*
X12821962Y6746962D01*
X12830215Y6741448D01*
X12839951Y6739511D01*
X12879411D01*
Y6695000D01*
X12845000D01*
Y6640588D01*
X12587670D01*
X12539438Y6688819D01*
X12535000Y6700000D01*
X12535000D01*
X12535000Y6700000D01*
Y6804412D01*
X12615000D01*
Y6700000D01*
D02*
G37*
G36*
X13160001Y6986742D02*
Y6970054D01*
X13167612Y6951677D01*
X13181677Y6937612D01*
X13200053Y6930000D01*
X13219946D01*
X13227914Y6933301D01*
X13240614Y6924815D01*
Y6641082D01*
X13235217Y6635686D01*
X13197096D01*
X13186156Y6646627D01*
X13165939Y6655000D01*
X13144060D01*
X13123845Y6646627D01*
X13112904Y6635686D01*
X13095000D01*
Y6695000D01*
X12995000D01*
Y6599851D01*
X12983267Y6594991D01*
X12960342Y6617916D01*
X12950420Y6624546D01*
X12945000Y6625624D01*
Y6695000D01*
X12940588D01*
Y6739511D01*
X12980051D01*
X12989784Y6741448D01*
X12998038Y6746962D01*
X13003552Y6755215D01*
X13005489Y6764950D01*
Y6782546D01*
X13005489Y6785050D01*
X13005415Y6786464D01*
X13005000Y6794412D01*
X13016705Y6796741D01*
X13026630Y6803371D01*
X13047736Y6824478D01*
X13047736Y6824479D01*
X13054367Y6834402D01*
X13056696Y6846108D01*
X13056696Y6846109D01*
Y6903892D01*
X13054367Y6915598D01*
X13047736Y6925521D01*
X13026630Y6946629D01*
X13016705Y6953259D01*
X13005000Y6955588D01*
X13005415Y6963536D01*
X13005489Y6964950D01*
X13005489Y6967454D01*
Y6985050D01*
X13013171Y6994412D01*
X13152330D01*
X13160001Y6986742D01*
D02*
G37*
G36*
X15220001Y6787939D02*
Y6710000D01*
X15350002D01*
Y6710000D01*
X15362502Y6709518D01*
Y6620686D01*
X15325002D01*
X15311345Y6617969D01*
X15299767Y6610234D01*
X15161734Y6472200D01*
X15150002Y6477061D01*
Y6555000D01*
X15020001D01*
Y6525588D01*
X14965001D01*
Y6578699D01*
X14965001D01*
Y6591301D01*
X14965001D01*
Y6644412D01*
X15020001D01*
Y6615000D01*
X15150002D01*
Y6734532D01*
X15208269Y6792799D01*
X15220001Y6787939D01*
D02*
G37*
G36*
Y6412939D02*
Y6340000D01*
X15350002D01*
Y6340000D01*
X15362502Y6339518D01*
Y6250686D01*
X15322501D01*
X15308844Y6247969D01*
X15297267Y6240234D01*
X15161734Y6104701D01*
X15150002Y6109561D01*
Y6185000D01*
X15020001D01*
Y6155588D01*
X14965001D01*
Y6208699D01*
X14965001D01*
Y6221300D01*
X14965001D01*
Y6274412D01*
X15020001D01*
Y6245000D01*
X15150002D01*
Y6359533D01*
X15208269Y6417800D01*
X15220001Y6412939D01*
D02*
G37*
G36*
X12297500Y6250000D02*
Y6217700D01*
X12319788D01*
Y6192300D01*
X12297500D01*
Y6155000D01*
X12367300D01*
Y6177288D01*
X12392700D01*
Y6155000D01*
X12462500D01*
Y6217500D01*
X12470000Y6210000D01*
X12524999Y6155000D01*
X12579999Y6099999D01*
X12552705D01*
Y6077711D01*
X12527305D01*
Y6099999D01*
X12245006D01*
Y5985199D01*
X12267294D01*
Y5959799D01*
X12245006D01*
Y5844999D01*
X12527305D01*
Y5867287D01*
X12552705D01*
Y5844999D01*
X12835005D01*
Y5959799D01*
X12812717D01*
Y5985199D01*
X12835005D01*
Y6079999D01*
X12860001D01*
Y6037700D01*
X12882288D01*
Y6012300D01*
X12860001D01*
Y5965000D01*
X12907300D01*
Y5987287D01*
X12932700D01*
Y5965000D01*
X12980000D01*
Y6012300D01*
X12957712D01*
Y6037700D01*
X12980000D01*
Y6059999D01*
X13006989Y6033009D01*
Y5836989D01*
X12960001Y5789999D01*
X12010000D01*
X11930000Y5869999D01*
Y5925000D01*
X12022300D01*
Y5947288D01*
X12047700D01*
Y5925000D01*
X12185000D01*
Y6017300D01*
X12162712D01*
Y6042700D01*
X12185000D01*
Y6134999D01*
X12047700D01*
Y6112712D01*
X12022300D01*
Y6134999D01*
X11930000D01*
Y6170000D01*
X12014473Y6254473D01*
X12297500D01*
Y6250000D01*
D02*
G37*
G36*
X13709412Y6657330D02*
Y6490001D01*
X13709412Y6490000D01*
X13711742Y6478295D01*
X13718372Y6468371D01*
X14219412Y5967330D01*
Y5917337D01*
X14212500Y5907500D01*
X14123257D01*
X13520589Y6510170D01*
Y6739511D01*
X13560049D01*
X13569785Y6741448D01*
X13578038Y6746962D01*
X13583553Y6755215D01*
X13585214Y6763568D01*
X13591711Y6767527D01*
X13597017Y6769725D01*
X13709412Y6657330D01*
D02*
G37*
G36*
X13880299Y5919233D02*
X13875439Y5907500D01*
X13815758D01*
X13182732Y6540526D01*
X13185210Y6552982D01*
X13186156Y6553373D01*
X13197096Y6564314D01*
X13235217D01*
X13880299Y5919233D01*
D02*
G37*
G36*
X16385001Y6399072D02*
Y6353260D01*
X16377576D01*
X16363918Y6350543D01*
X16352341Y6342808D01*
X16244768Y6235234D01*
X16237032Y6223657D01*
X16234315Y6210000D01*
Y5934782D01*
X16112720Y5813186D01*
X16002501D01*
X15999052Y5812500D01*
X15857501D01*
Y5695686D01*
X15771251D01*
X15757594Y5692969D01*
X15746017Y5685234D01*
X15562769Y5501986D01*
X15552917D01*
X15542500Y5507501D01*
Y5804314D01*
X15612502D01*
X15626157Y5807031D01*
X15637733Y5814766D01*
X15817282Y5994314D01*
X15857501D01*
Y5877500D01*
X16037502D01*
Y6111814D01*
X16065001D01*
X16078658Y6114531D01*
X16090234Y6122266D01*
X16372301Y6404333D01*
X16385001Y6399072D01*
D02*
G37*
G36*
X15220001Y6045440D02*
Y5970000D01*
X15350002D01*
Y5970000D01*
X15362502Y5969518D01*
Y5877500D01*
X15350552Y5875686D01*
X15317500D01*
X15303844Y5872969D01*
X15292267Y5865234D01*
X15161734Y5734701D01*
X15150002Y5739561D01*
Y5815000D01*
X15020001D01*
Y5785588D01*
X14965001D01*
Y5838700D01*
X14965001D01*
X14965001Y5851300D01*
X14965001D01*
Y5904412D01*
X15020001D01*
Y5875000D01*
X15150002D01*
Y5956551D01*
X15150687Y5960000D01*
Y5992719D01*
X15208269Y6050300D01*
X15220001Y6045440D01*
D02*
G37*
G36*
X14228371Y5788371D02*
X14288371Y5728371D01*
X14298296Y5721741D01*
X14310001Y5719412D01*
X14310001Y5719412D01*
X14370001D01*
Y5690000D01*
X14489999D01*
Y5719412D01*
X14535001D01*
Y5690000D01*
X14564413D01*
Y5650000D01*
X14535001D01*
Y5615587D01*
X14495001D01*
Y5650000D01*
X14375002D01*
Y5534473D01*
X14345001D01*
Y5650000D01*
X14268259D01*
X14231630Y5686629D01*
X14221706Y5693259D01*
X14210001Y5695588D01*
X14205000Y5706359D01*
Y5715000D01*
X14170589D01*
Y5772500D01*
X14212500D01*
Y5789265D01*
X14225200Y5793117D01*
X14228371Y5788371D01*
D02*
G37*
G36*
X13354347Y7353372D02*
X13354347Y7353371D01*
X13364272Y7346741D01*
X13375977Y7344412D01*
X13375977Y7344412D01*
X13386829D01*
X13394511Y7335050D01*
Y7314950D01*
X13396448Y7305215D01*
X13399933Y7300000D01*
X13396448Y7294785D01*
X13394511Y7285050D01*
Y7264950D01*
X13396448Y7255215D01*
X13399933Y7250000D01*
X13396448Y7244785D01*
X13394511Y7235050D01*
Y7214950D01*
X13396448Y7205215D01*
X13399933Y7200000D01*
X13396448Y7194785D01*
X13394511Y7185050D01*
Y7164950D01*
X13396448Y7155215D01*
X13399933Y7150000D01*
X13396448Y7144785D01*
X13394511Y7135050D01*
Y7114950D01*
X13396448Y7105215D01*
X13399933Y7100000D01*
X13396448Y7094785D01*
X13394511Y7085050D01*
Y7064950D01*
X13396448Y7055215D01*
X13399933Y7050000D01*
X13396448Y7044785D01*
X13394511Y7035050D01*
Y7014950D01*
X13396448Y7005215D01*
X13399933Y7000000D01*
X13396448Y6994785D01*
X13394511Y6985050D01*
Y6964950D01*
X13396448Y6955215D01*
X13399933Y6950000D01*
X13396448Y6944785D01*
X13394511Y6935050D01*
Y6914950D01*
X13396448Y6905215D01*
X13399933Y6900000D01*
X13396448Y6894785D01*
X13394511Y6885050D01*
Y6864950D01*
X13396448Y6855215D01*
X13399933Y6850000D01*
X13396448Y6844785D01*
X13394511Y6835050D01*
Y6814950D01*
X13396448Y6805215D01*
X13399933Y6800000D01*
X13396448Y6794785D01*
X13394511Y6785050D01*
Y6764950D01*
X13396448Y6755215D01*
X13401962Y6746962D01*
X13410216Y6741448D01*
X13419949Y6739511D01*
X13459412D01*
Y6497502D01*
X13459412Y6497500D01*
X13461742Y6485795D01*
X13468372Y6475871D01*
X14082500Y5861742D01*
Y5772500D01*
X14109413D01*
Y5715000D01*
X14075002D01*
Y5615000D01*
X14205000D01*
Y5615000D01*
X14213304Y5618439D01*
X14225002Y5606742D01*
Y5534473D01*
X14205000D01*
Y5565000D01*
X14075002D01*
Y5563427D01*
X14062302Y5558166D01*
X14005685Y5614782D01*
Y5880000D01*
X14002969Y5893656D01*
X13995235Y5905234D01*
X13300467Y6600000D01*
X13301534Y6601067D01*
X13309270Y6612644D01*
X13311986Y6626300D01*
Y7377772D01*
X13324686Y7383032D01*
X13354347Y7353372D01*
D02*
G37*
G36*
X15220001Y5675440D02*
Y5600000D01*
X15350002D01*
Y5600000D01*
X15362502Y5599518D01*
Y5507501D01*
X15352084Y5501986D01*
X15161452D01*
X15150002Y5505000D01*
Y5588708D01*
X15150258Y5590000D01*
Y5622290D01*
X15208269Y5680300D01*
X15220001Y5675440D01*
D02*
G37*
%LPC*%
G36*
X16739999Y9171036D02*
X16652699D01*
Y9147712D01*
X16627299D01*
Y9171036D01*
X16539999D01*
X16508675Y9166911D01*
X16479482Y9154820D01*
X16464577Y9143383D01*
X16480457Y9127504D01*
X16462495Y9109544D01*
X16446617Y9125422D01*
X16435181Y9110518D01*
X16423090Y9081327D01*
X16418965Y9050000D01*
Y8912700D01*
X16442288D01*
Y8887300D01*
X16418965D01*
Y8750000D01*
X16423090Y8718673D01*
X16435181Y8689482D01*
X16446617Y8674578D01*
X16462495Y8690456D01*
X16480457Y8672496D01*
X16464577Y8656617D01*
X16479482Y8645180D01*
X16508675Y8633089D01*
X16539999Y8628964D01*
X16627299D01*
Y8652288D01*
X16652699D01*
Y8628964D01*
X16739999D01*
X16771326Y8633089D01*
X16800517Y8645180D01*
X16815424Y8656617D01*
X16799544Y8672496D01*
X16817503Y8690456D01*
X16833383Y8674578D01*
X16844820Y8689482D01*
X16856911Y8718673D01*
X16861035Y8750000D01*
Y8887300D01*
X16837712D01*
Y8912700D01*
X16861035D01*
Y9050000D01*
X16856911Y9081327D01*
X16844820Y9110518D01*
X16833383Y9125422D01*
X16817503Y9109544D01*
X16799544Y9127504D01*
X16815424Y9143383D01*
X16800517Y9154820D01*
X16771326Y9166911D01*
X16739999Y9171036D01*
D02*
G37*
G36*
X14345001Y9145000D02*
X14297701D01*
Y9122712D01*
X14272301D01*
Y9145000D01*
X14225002D01*
Y9097700D01*
X14247289D01*
Y9072300D01*
X14225002D01*
Y9025000D01*
X14272301D01*
Y9047288D01*
X14297701D01*
Y9025000D01*
X14345001D01*
Y9072300D01*
X14322713D01*
Y9097700D01*
X14345001D01*
Y9145000D01*
D02*
G37*
G36*
X14965001Y9168700D02*
X14875002D01*
Y9115588D01*
X14785001D01*
Y9150000D01*
X14685001D01*
Y9020000D01*
X14785001D01*
Y9054412D01*
X14875002D01*
Y9038700D01*
X14965001D01*
Y9054412D01*
X15020001D01*
Y9025000D01*
X15150002D01*
Y9145000D01*
X15020001D01*
Y9115588D01*
X14965001D01*
Y9168700D01*
D02*
G37*
G36*
X11075000Y9174000D02*
X10945000D01*
Y8984000D01*
X11075000D01*
Y9174000D01*
D02*
G37*
G36*
X10925000D02*
X10795000D01*
Y8984000D01*
X10925000D01*
Y9174000D01*
D02*
G37*
G36*
X10625000D02*
X10495000D01*
Y8984000D01*
X10625000D01*
Y9174000D01*
D02*
G37*
G36*
X10325000D02*
X10195000D01*
Y8984000D01*
X10325000D01*
Y9174000D01*
D02*
G37*
G36*
X14785001Y8960000D02*
X14747701D01*
Y8937712D01*
X14722301D01*
Y8960000D01*
X14685001D01*
Y8907700D01*
X14707289D01*
Y8882300D01*
X14685001D01*
Y8830000D01*
X14722301D01*
Y8852288D01*
X14747701D01*
Y8830000D01*
X14785001D01*
Y8882300D01*
X14762714D01*
Y8907700D01*
X14785001D01*
Y8960000D01*
D02*
G37*
G36*
X15150002Y8955000D02*
X15097701D01*
Y8932712D01*
X15072301D01*
Y8955000D01*
X15020001D01*
Y8907700D01*
X15042290D01*
Y8882300D01*
X15020001D01*
Y8835000D01*
X15072301D01*
Y8857288D01*
X15097701D01*
Y8835000D01*
X15150002D01*
Y8882300D01*
X15127713D01*
Y8907700D01*
X15150002D01*
Y8955000D01*
D02*
G37*
G36*
X12820094Y9126986D02*
X12480094D01*
Y9057574D01*
X12036987D01*
X12025281Y9055246D01*
X12015358Y9048615D01*
X12015357Y9048615D01*
X11818371Y8851629D01*
X11811741Y8841705D01*
X11809412Y8830000D01*
X11809412Y8829999D01*
Y8628166D01*
X11796712Y8626915D01*
X11795759Y8631705D01*
X11789129Y8641629D01*
X11789128Y8641629D01*
X11745546Y8685211D01*
X11745000Y8687957D01*
Y8755000D01*
X11745000D01*
Y8765001D01*
X11745000D01*
Y8865000D01*
X11615000D01*
Y8765001D01*
X11615000D01*
Y8755000D01*
X11615000D01*
Y8655000D01*
X11690612D01*
X11693371Y8650871D01*
X11726542Y8617700D01*
X11721282Y8605000D01*
X11692700D01*
Y8582712D01*
X11667300D01*
Y8605000D01*
X11615000D01*
Y8567700D01*
X11637288D01*
Y8542300D01*
X11615000D01*
Y8505000D01*
X11667300D01*
Y8527288D01*
X11692700D01*
Y8505000D01*
X11736912D01*
Y8452501D01*
X11736912Y8452500D01*
X11739241Y8440795D01*
X11745871Y8430871D01*
X11889412Y8287330D01*
Y7532670D01*
X11832330Y7475588D01*
X11760000D01*
Y7510000D01*
X11640000D01*
Y7380000D01*
X11760000D01*
Y7414412D01*
X11844999D01*
X11845000Y7414412D01*
X11856706Y7416741D01*
X11866629Y7423371D01*
X11941629Y7498371D01*
X11948259Y7508295D01*
X11950588Y7520000D01*
X11950588Y7520001D01*
Y8033867D01*
X11951958Y8034411D01*
X11963288Y8035979D01*
X11968371Y8028371D01*
X12038371Y7958372D01*
X12038371Y7958371D01*
X12048295Y7951741D01*
X12060000Y7949412D01*
X12060001Y7949412D01*
X12095000D01*
Y7925000D01*
X12225000D01*
Y7944412D01*
X12245000D01*
Y7925000D01*
X12331742D01*
X12365871Y7890871D01*
X12375795Y7884241D01*
X12387500Y7881912D01*
X12412500D01*
Y7847500D01*
X12547500D01*
Y7977500D01*
X12412500D01*
Y7943981D01*
X12399800Y7943458D01*
X12375000Y7968258D01*
Y8025000D01*
X12245000D01*
Y8005587D01*
X12225000D01*
Y8025000D01*
X12095000D01*
Y8010588D01*
X12072670D01*
X12020588Y8062670D01*
Y8300000D01*
X12018259Y8311705D01*
X12011629Y8321629D01*
X12011628Y8321630D01*
X11870588Y8462670D01*
Y8817330D01*
X12049656Y8996399D01*
X12480094D01*
Y8926987D01*
X12820094D01*
Y9126986D01*
D02*
G37*
G36*
X11225000Y9174000D02*
X11095000D01*
Y8984000D01*
X11129412D01*
Y8925682D01*
X11117580Y8916137D01*
X11103165Y8920000D01*
X11076835D01*
X11051402Y8913185D01*
X11028599Y8900020D01*
X11009980Y8881401D01*
X10996815Y8858598D01*
X10990000Y8833165D01*
Y8806835D01*
X10996815Y8781402D01*
X11009980Y8758599D01*
X11028599Y8739980D01*
X11051402Y8726815D01*
X11076835Y8720000D01*
X11103165D01*
X11128598Y8726815D01*
X11151401Y8739980D01*
X11170020Y8758599D01*
X11183185Y8781402D01*
X11190000Y8806835D01*
Y8833165D01*
X11183185Y8858598D01*
X11173342Y8875647D01*
X11181628Y8883934D01*
X11181629Y8883934D01*
X11188259Y8893858D01*
X11190588Y8905563D01*
X11190588Y8905564D01*
Y8984000D01*
X11225000D01*
Y9174000D01*
D02*
G37*
G36*
X11525000D02*
X11395000D01*
Y8984000D01*
X11525000D01*
Y9048412D01*
X11538330D01*
X11615000Y8971742D01*
Y8915000D01*
X11745000D01*
Y9015000D01*
X11658257D01*
X11572629Y9100629D01*
X11562705Y9107259D01*
X11551000Y9109588D01*
X11550999Y9109588D01*
X11525000D01*
Y9174000D01*
D02*
G37*
G36*
X11375000D02*
X11245000D01*
Y8984000D01*
X11309412D01*
Y8921175D01*
X11304000D01*
X11280589Y8916519D01*
X11260743Y8903257D01*
X11247481Y8883411D01*
X11242825Y8860000D01*
Y8780000D01*
X11247481Y8756589D01*
X11260743Y8736742D01*
X11280589Y8723481D01*
X11304000Y8718825D01*
X11384000D01*
X11407411Y8723481D01*
X11427257Y8736742D01*
X11440519Y8756589D01*
X11445175Y8780000D01*
Y8860000D01*
X11440519Y8883411D01*
X11427257Y8903257D01*
X11407411Y8916519D01*
X11384000Y8921175D01*
X11370588D01*
Y8984000D01*
X11375000D01*
Y9174000D01*
D02*
G37*
G36*
X12310000Y8851035D02*
X12010000D01*
X11978674Y8846911D01*
X11949482Y8834820D01*
X11924415Y8815585D01*
X11905180Y8790518D01*
X11893089Y8761326D01*
X11888965Y8730000D01*
Y8530000D01*
X11893089Y8498674D01*
X11905180Y8469482D01*
X11924415Y8444415D01*
X11949482Y8425180D01*
X11978674Y8413089D01*
X12010000Y8408965D01*
X12129412D01*
Y8175000D01*
X12095000D01*
Y8075000D01*
X12225000D01*
Y8175000D01*
X12190588D01*
Y8408965D01*
X12310000D01*
X12341327Y8413089D01*
X12370518Y8425180D01*
X12395585Y8444415D01*
X12414820Y8469482D01*
X12426911Y8498674D01*
X12430956Y8529396D01*
X12480000D01*
Y8470000D01*
X12820000D01*
Y8670000D01*
X12624586D01*
X12620000Y8670603D01*
X12431036D01*
Y8730000D01*
X12426911Y8761326D01*
X12414820Y8790518D01*
X12395585Y8815585D01*
X12370518Y8834820D01*
X12341327Y8846911D01*
X12310000Y8851035D01*
D02*
G37*
G36*
X10935000Y8465000D02*
X10922300Y8465000D01*
X10892700D01*
Y8442712D01*
X10867300D01*
Y8465000D01*
X10837700D01*
X10825000Y8465000D01*
X10812300Y8465000D01*
X10782700D01*
Y8442712D01*
X10757300D01*
Y8465000D01*
X10715000D01*
Y8422700D01*
X10737288D01*
Y8397300D01*
X10715000D01*
Y8367700D01*
X10715000Y8355000D01*
X10715000Y8342300D01*
Y8312700D01*
X10737288D01*
Y8287300D01*
X10715000D01*
Y8257700D01*
X10715000Y8245000D01*
X10715000Y8232300D01*
Y8202700D01*
X10737288D01*
Y8177300D01*
X10715000D01*
Y8135000D01*
X10757300D01*
Y8157288D01*
X10782700D01*
Y8135000D01*
X10812300D01*
X10825000Y8135000D01*
X10837700Y8135000D01*
X10867300D01*
Y8157288D01*
X10892700D01*
Y8135000D01*
X10922300D01*
X10935000Y8135000D01*
X10947700Y8135000D01*
X10977300D01*
Y8157288D01*
X11002700D01*
Y8135000D01*
X11045000D01*
Y8177300D01*
X11022712D01*
Y8202700D01*
X11045000D01*
Y8232300D01*
X11045000Y8245000D01*
X11045000Y8257700D01*
Y8287300D01*
X11022712D01*
Y8312700D01*
X11045000D01*
Y8342300D01*
X11045000Y8355000D01*
X11045000Y8367700D01*
Y8397300D01*
X11022712D01*
Y8422700D01*
X11045000D01*
Y8465000D01*
X11002700D01*
Y8442712D01*
X10977300D01*
Y8465000D01*
X10935000D01*
D02*
G37*
G36*
X14050000Y8400000D02*
X13872701D01*
Y8377712D01*
X13847301D01*
Y8400000D01*
X13670000D01*
Y8287700D01*
X13692288D01*
Y8262300D01*
X13670000D01*
Y8150000D01*
X13847301D01*
Y8172288D01*
X13872701D01*
Y8150000D01*
X14050000D01*
Y8262300D01*
X14027711D01*
Y8287700D01*
X14050000D01*
Y8400000D01*
D02*
G37*
G36*
X16481190Y8410000D02*
X16458810D01*
X16437192Y8404207D01*
X16419164Y8393798D01*
X16435519Y8377442D01*
X16417558Y8359482D01*
X16401202Y8375838D01*
X16390793Y8357809D01*
X16385001Y8336191D01*
Y8313810D01*
X16390793Y8292191D01*
X16401202Y8274162D01*
X16417558Y8290518D01*
X16435519Y8272558D01*
X16419164Y8256202D01*
X16437192Y8245793D01*
X16458810Y8240000D01*
X16481190D01*
X16502811Y8245793D01*
X16520839Y8256202D01*
X16504483Y8272558D01*
X16522443Y8290518D01*
X16538799Y8274162D01*
X16549208Y8292191D01*
X16555000Y8313810D01*
Y8336191D01*
X16549208Y8357809D01*
X16538799Y8375838D01*
X16522443Y8359482D01*
X16504483Y8377442D01*
X16520839Y8393798D01*
X16502811Y8404207D01*
X16481190Y8410000D01*
D02*
G37*
G36*
X13095000Y8285000D02*
X13057700D01*
Y8262712D01*
X13032300D01*
Y8285000D01*
X12995000D01*
Y8232700D01*
X13017288D01*
Y8207300D01*
X12995000D01*
Y8162700D01*
X12995000Y8155000D01*
X12984370Y8150000D01*
X12975000D01*
Y8102700D01*
X12997289D01*
Y8077300D01*
X12975000D01*
Y8030000D01*
X13022301D01*
Y8052288D01*
X13047701D01*
Y8030000D01*
X13095000D01*
Y8077300D01*
X13072713D01*
Y8102700D01*
X13095000D01*
Y8142300D01*
X13095000Y8150000D01*
X13095000Y8162700D01*
Y8207300D01*
X13072713D01*
Y8232700D01*
X13095000D01*
Y8285000D01*
D02*
G37*
G36*
X12810001Y8335000D02*
X12710000D01*
Y8258088D01*
X12547500D01*
Y8292500D01*
X12412500D01*
Y8251098D01*
X12410795Y8250759D01*
X12400871Y8244129D01*
X12400871Y8244128D01*
X12331742Y8175000D01*
X12245000D01*
Y8075000D01*
X12375000D01*
Y8131742D01*
X12401320Y8158062D01*
X12412500Y8162500D01*
Y8162500D01*
X12412500Y8162500D01*
X12547500D01*
Y8196912D01*
X12710000D01*
Y8175000D01*
X12810001D01*
Y8335000D01*
D02*
G37*
G36*
X12715000Y8085000D02*
X12677700D01*
Y8062712D01*
X12652300D01*
Y8085000D01*
X12615000D01*
Y8017700D01*
X12637288D01*
Y7992300D01*
X12615000D01*
Y7925000D01*
X12652300D01*
Y7947288D01*
X12677700D01*
Y7925000D01*
X12715000D01*
Y7992300D01*
X12692712D01*
Y8017700D01*
X12715000D01*
Y8085000D01*
D02*
G37*
G36*
X11525000Y7424000D02*
X11472700D01*
Y7401712D01*
X11447300D01*
Y7424000D01*
X11395000D01*
Y7341700D01*
X11417288D01*
Y7316300D01*
X11395000D01*
Y7234000D01*
X11447300D01*
Y7256288D01*
X11472700D01*
Y7234000D01*
X11525000D01*
Y7316300D01*
X11502712D01*
Y7341700D01*
X11525000D01*
Y7424000D01*
D02*
G37*
G36*
X11760000Y7320000D02*
X11712700D01*
Y7297712D01*
X11687300D01*
Y7320000D01*
X11640000D01*
Y7267700D01*
X11662288D01*
Y7242300D01*
X11640000D01*
Y7190000D01*
X11687300D01*
Y7212288D01*
X11712700D01*
Y7190000D01*
X11760000D01*
Y7242300D01*
X11737712D01*
Y7267700D01*
X11760000D01*
Y7320000D01*
D02*
G37*
G36*
X10510000Y6935000D02*
X10462700D01*
Y6912712D01*
X10437300D01*
Y6935000D01*
X10390000D01*
Y6887700D01*
X10412288D01*
Y6862300D01*
X10390000D01*
Y6815000D01*
X10437300D01*
Y6837288D01*
X10462700D01*
Y6815000D01*
X10498347D01*
X10510000Y6815000D01*
X10516277Y6804900D01*
X10517612Y6801677D01*
X10518016Y6801274D01*
X10451742Y6735000D01*
X10395000D01*
Y6605001D01*
X10388483Y6595000D01*
X10380000D01*
Y6475000D01*
X10500000D01*
Y6595000D01*
X10500000D01*
X10495000Y6605001D01*
Y6691743D01*
X10574203Y6770945D01*
X10580833Y6780869D01*
X10581622Y6784837D01*
X10588323Y6787612D01*
X10602388Y6801677D01*
X10610000Y6820054D01*
Y6839946D01*
X10602388Y6858323D01*
X10588323Y6872388D01*
X10569946Y6880000D01*
X10550054D01*
X10531677Y6872388D01*
X10522700Y6863411D01*
X10510000Y6868671D01*
Y6935000D01*
D02*
G37*
G36*
X12415000Y6599999D02*
X12367700D01*
Y6577712D01*
X12342300D01*
Y6599999D01*
X12295000D01*
Y6552699D01*
X12317288D01*
Y6527299D01*
X12295000D01*
Y6479999D01*
X12342300D01*
Y6502287D01*
X12367700D01*
Y6479999D01*
X12415000D01*
Y6527299D01*
X12392712D01*
Y6552699D01*
X12415000D01*
Y6599999D01*
D02*
G37*
G36*
X11005532Y6490000D02*
X10984468D01*
X10964121Y6484548D01*
X10947822Y6475138D01*
X10964129Y6458831D01*
X10946169Y6440871D01*
X10929862Y6457177D01*
X10920452Y6440879D01*
X10915000Y6420532D01*
Y6399468D01*
X10920452Y6379121D01*
X10929862Y6362822D01*
X10946169Y6379129D01*
X10964129Y6361169D01*
X10947822Y6344862D01*
X10964121Y6335452D01*
X10984468Y6330000D01*
X11005532D01*
X11025879Y6335452D01*
X11042177Y6344862D01*
X11025871Y6361169D01*
X11043831Y6379129D01*
X11060138Y6362822D01*
X11069548Y6379121D01*
X11075000Y6399468D01*
Y6420532D01*
X11069548Y6440879D01*
X11060138Y6457177D01*
X11043831Y6440871D01*
X11025871Y6458831D01*
X11042177Y6475138D01*
X11025879Y6484548D01*
X11005532Y6490000D01*
D02*
G37*
G36*
X10500000Y6445000D02*
X10452700D01*
Y6422712D01*
X10427300D01*
Y6445000D01*
X10380000D01*
Y6397700D01*
X10402288D01*
Y6372300D01*
X10380000D01*
Y6325000D01*
X10427300D01*
Y6347288D01*
X10452700D01*
Y6325000D01*
X10500000D01*
Y6372300D01*
X10477712D01*
Y6397700D01*
X10500000D01*
Y6445000D01*
D02*
G37*
G36*
X11775000Y6134999D02*
X11637700D01*
Y6112712D01*
X11612300D01*
Y6134999D01*
X11475000D01*
Y6042700D01*
X11497288D01*
Y6017300D01*
X11475000D01*
Y5925000D01*
X11612300D01*
Y5947288D01*
X11637700D01*
Y5925000D01*
X11775000D01*
Y6017300D01*
X11752712D01*
Y6042700D01*
X11775000D01*
Y6134999D01*
D02*
G37*
G36*
X11870000Y5835000D02*
X11822700D01*
Y5812712D01*
X11797300D01*
Y5835000D01*
X11750000D01*
Y5787700D01*
X11772288D01*
Y5762300D01*
X11750000D01*
Y5715000D01*
X11797300D01*
Y5737288D01*
X11822700D01*
Y5715000D01*
X11870000D01*
Y5762300D01*
X11847712D01*
Y5787700D01*
X11870000D01*
Y5835000D01*
D02*
G37*
%LPD*%
D10*
X14139999Y6957500D02*
D03*
X14139999Y7272500D02*
D03*
X12480000Y8227500D02*
D03*
X12480000Y7912500D02*
D03*
D11*
X10990000Y8410000D02*
D03*
Y8300000D02*
D03*
Y8190000D02*
D03*
X10880000D02*
D03*
X10770000D02*
D03*
Y8300000D02*
D03*
Y8410000D02*
D03*
X10880000D02*
D03*
Y8300000D02*
D03*
D12*
X10260000Y9079000D02*
D03*
X10410000D02*
D03*
X10560000D02*
D03*
X10710000D02*
D03*
X10860000D02*
D03*
X11010000D02*
D03*
X11160000D02*
D03*
X11310000D02*
D03*
X11460000D02*
D03*
Y7329000D02*
D03*
X11310000D02*
D03*
X11160000D02*
D03*
X11010000D02*
D03*
X10860000D02*
D03*
X10710000D02*
D03*
X10560000D02*
D03*
X10410000D02*
D03*
X10260000D02*
D03*
D13*
X12895000Y6630000D02*
D03*
X13045000D02*
D03*
Y6419999D02*
D03*
X12895000D02*
D03*
X10810000Y6040000D02*
D03*
X10660000D02*
D03*
X14735001Y8715000D02*
D03*
X14585001D02*
D03*
X14735001Y8895000D02*
D03*
X14585001D02*
D03*
X14735001Y9085000D02*
D03*
X14585001D02*
D03*
X14735001Y7275000D02*
D03*
X14585001D02*
D03*
X14735001Y6825000D02*
D03*
X14585001D02*
D03*
X14735001Y6975000D02*
D03*
X14585001D02*
D03*
X14735001Y7785000D02*
D03*
X14585001D02*
D03*
X14735001Y7605000D02*
D03*
X14585001D02*
D03*
X14735001Y7125000D02*
D03*
X14585001D02*
D03*
X14735001Y6675000D02*
D03*
X14585001D02*
D03*
X14735001Y7415000D02*
D03*
X14585001D02*
D03*
X14735001Y8525000D02*
D03*
X14585001D02*
D03*
X14735001Y8345000D02*
D03*
X14585001D02*
D03*
X14735001Y8155000D02*
D03*
X14585001D02*
D03*
X14735001Y7975000D02*
D03*
X14585001D02*
D03*
X14735001Y5585000D02*
D03*
X14585001D02*
D03*
X14735001Y6125000D02*
D03*
X14585001D02*
D03*
X14735001Y5755000D02*
D03*
X14585001D02*
D03*
X14735001Y5935000D02*
D03*
X14585001D02*
D03*
X14735001Y6495000D02*
D03*
X14585001D02*
D03*
X14735001Y6305000D02*
D03*
X14585001D02*
D03*
X10295000Y6670000D02*
D03*
X10445000D02*
D03*
X13455000Y8350000D02*
D03*
X13305000D02*
D03*
X13195000Y8220000D02*
D03*
X13045000D02*
D03*
D14*
X13489999Y7425000D02*
D03*
Y7375000D02*
D03*
Y7325000D02*
D03*
Y7275000D02*
D03*
Y7225000D02*
D03*
Y7175000D02*
D03*
Y7125000D02*
D03*
Y7075000D02*
D03*
Y7025000D02*
D03*
Y6975000D02*
D03*
Y6925000D02*
D03*
Y6875000D02*
D03*
Y6825000D02*
D03*
Y6775000D02*
D03*
X12910001D02*
D03*
Y6825000D02*
D03*
Y6875000D02*
D03*
Y6925000D02*
D03*
Y6975000D02*
D03*
Y7025000D02*
D03*
Y7075000D02*
D03*
Y7125000D02*
D03*
Y7175000D02*
D03*
Y7225000D02*
D03*
Y7275000D02*
D03*
Y7325000D02*
D03*
Y7375000D02*
D03*
Y7425000D02*
D03*
Y7475000D02*
D03*
X13489999D02*
D03*
D15*
X10682500Y6915000D02*
D03*
Y7065000D02*
D03*
X11440000Y5735000D02*
D03*
Y5585000D02*
D03*
X12780000Y6435000D02*
D03*
Y6284999D02*
D03*
X12310000Y7975000D02*
D03*
Y8125000D02*
D03*
X14139999Y6660000D02*
D03*
Y6810000D02*
D03*
X14140001Y5515000D02*
D03*
Y5665000D02*
D03*
X12160000Y8125000D02*
D03*
Y7975000D02*
D03*
X11680000Y8705000D02*
D03*
Y8555000D02*
D03*
Y8815000D02*
D03*
Y8965000D02*
D03*
X11152500Y6915000D02*
D03*
Y7065000D02*
D03*
X13500000Y7600000D02*
D03*
Y7750000D02*
D03*
X10857500Y6910000D02*
D03*
Y7060000D02*
D03*
X12260000Y7225000D02*
D03*
Y7375000D02*
D03*
D16*
X11940000Y7350000D02*
D03*
X11700000Y7255000D02*
D03*
Y7445000D02*
D03*
D17*
X11285000Y5575000D02*
D03*
Y5765000D02*
D03*
X11035000Y5670000D02*
D03*
D18*
X12035000Y6030000D02*
D03*
X11625000D02*
D03*
D19*
X12540000Y5587499D02*
D03*
X12540005Y5972499D02*
D03*
D20*
X11810000Y5625000D02*
D03*
Y5775000D02*
D03*
X12920000Y6025000D02*
D03*
Y6175000D02*
D03*
X11569961Y5584989D02*
D03*
Y5734989D02*
D03*
X14430000Y7985000D02*
D03*
Y8135000D02*
D03*
Y7275000D02*
D03*
Y7425000D02*
D03*
Y8355000D02*
D03*
Y8505000D02*
D03*
Y7615000D02*
D03*
Y7765000D02*
D03*
Y5750000D02*
D03*
Y5900000D02*
D03*
Y6135000D02*
D03*
Y6285000D02*
D03*
Y6505000D02*
D03*
Y6655000D02*
D03*
X12475000Y6760000D02*
D03*
Y6910000D02*
D03*
X10450000Y6875000D02*
D03*
Y7025000D02*
D03*
X12675000Y6760000D02*
D03*
Y6910000D02*
D03*
X10440000Y6385000D02*
D03*
Y6535000D02*
D03*
X10290000Y6875000D02*
D03*
Y7025000D02*
D03*
D21*
X12505000Y6539999D02*
D03*
X12355000D02*
D03*
X14435001Y8710000D02*
D03*
X14285001D02*
D03*
X14435001Y9085000D02*
D03*
X14285001D02*
D03*
X14295001Y6990000D02*
D03*
X14445001D02*
D03*
X14445000Y6790000D02*
D03*
X14295000D02*
D03*
X14285001Y5590000D02*
D03*
X14435001D02*
D03*
X12445000Y7170000D02*
D03*
X12595000D02*
D03*
X12165000Y6910000D02*
D03*
X12315000D02*
D03*
X12445000Y7280000D02*
D03*
X12595000D02*
D03*
X12445000Y7050000D02*
D03*
X12595000D02*
D03*
X13305000Y8090000D02*
D03*
X13455000D02*
D03*
X13035001D02*
D03*
X13185001D02*
D03*
X13305000Y8220000D02*
D03*
X13455000D02*
D03*
D22*
X12380000Y6205000D02*
D03*
Y6300000D02*
D03*
Y6395000D02*
D03*
X12630000D02*
D03*
Y6300000D02*
D03*
Y6205000D02*
D03*
D23*
X12650094Y9026987D02*
D03*
X12650000Y8570000D02*
D03*
D24*
X13329799Y8798493D02*
D03*
D25*
X12760000Y8255000D02*
D03*
X12855000Y8005000D02*
D03*
X12665000D02*
D03*
D26*
X10830000Y5880000D02*
D03*
X10735000Y5660000D02*
D03*
X10640000Y5880000D02*
D03*
X13164999Y7680000D02*
D03*
X13070000Y7900000D02*
D03*
X12975000Y7680000D02*
D03*
D27*
X15285001Y7880000D02*
D03*
X15085001Y7785000D02*
D03*
Y7975000D02*
D03*
X15285001Y8250000D02*
D03*
X15085001Y8155000D02*
D03*
Y8345000D02*
D03*
X15285001Y8990000D02*
D03*
X15085001Y8895000D02*
D03*
Y9085000D02*
D03*
X15285001Y8620000D02*
D03*
X15085001Y8525000D02*
D03*
Y8715000D02*
D03*
X15285001Y7510000D02*
D03*
X15085001Y7415000D02*
D03*
Y7605000D02*
D03*
X15285001Y6030000D02*
D03*
X15085001Y5935000D02*
D03*
Y6125000D02*
D03*
X15285001Y5660000D02*
D03*
X15085001Y5565000D02*
D03*
Y5755000D02*
D03*
X15285001Y7140000D02*
D03*
X15085001Y7045000D02*
D03*
Y7235000D02*
D03*
X15285001Y6770000D02*
D03*
X15085001Y6675000D02*
D03*
Y6865000D02*
D03*
X15285001Y6400000D02*
D03*
X15085001Y6305000D02*
D03*
Y6495000D02*
D03*
D28*
X14920001Y7993700D02*
D03*
Y7766300D02*
D03*
Y8733700D02*
D03*
Y8506300D02*
D03*
Y9103700D02*
D03*
Y8876300D02*
D03*
Y7623700D02*
D03*
Y7396300D02*
D03*
Y8363700D02*
D03*
Y8136300D02*
D03*
X14920001Y5773700D02*
D03*
Y5546300D02*
D03*
X14920001Y7253700D02*
D03*
Y7026300D02*
D03*
Y6883700D02*
D03*
Y6656300D02*
D03*
Y6143700D02*
D03*
Y5916300D02*
D03*
Y6513700D02*
D03*
Y6286300D02*
D03*
D29*
X15947501Y5660000D02*
D03*
X15452501D02*
D03*
X15947501Y6030000D02*
D03*
X15452501D02*
D03*
Y8620000D02*
D03*
X15947501D02*
D03*
Y8990000D02*
D03*
X15452501D02*
D03*
X15947501Y6400000D02*
D03*
X15452501D02*
D03*
X15947501Y6770000D02*
D03*
X15452501D02*
D03*
X15947501Y7140000D02*
D03*
X15452501D02*
D03*
X15947501Y7510000D02*
D03*
X15452501D02*
D03*
X15947501Y7880000D02*
D03*
X15452501D02*
D03*
X15947501Y8250000D02*
D03*
X15452501D02*
D03*
D30*
X16639999Y8900000D02*
D03*
D31*
X11645000Y7080000D02*
D03*
X11960000Y7080000D02*
D03*
X14147501Y5840000D02*
D03*
X13832500Y5840000D02*
D03*
D32*
X13860001Y8905000D02*
D03*
Y8275000D02*
D03*
D33*
X12160000Y8630000D02*
D03*
D34*
X10452500Y7020399D02*
Y7022699D01*
X10622500Y6920000D02*
X10677501D01*
X10525533Y7016967D02*
X10622500Y6920000D01*
X10452500Y7020399D02*
X10455932Y7016967D01*
X10525533D01*
X13155000Y6600000D02*
X13250000D01*
X13060001D02*
X13155000D01*
X13035001Y6625000D02*
X13060001Y6600000D01*
X12505000Y6540000D02*
X12620000D01*
X12505000Y6539999D02*
X12505000Y6540000D01*
X12620000D02*
X12620000Y6540000D01*
X13250000Y6600000D02*
X13276300Y6626300D01*
X13200000Y7900000D02*
X13276300Y7823700D01*
Y6626300D02*
Y7823700D01*
X13250000Y6600000D02*
X13970000Y5880000D01*
Y5600000D02*
Y5880000D01*
X14055000Y5515000D02*
X14140001D01*
X13970000Y5600000D02*
X14055000Y5515000D01*
X14140001D02*
X14156213Y5498787D01*
X14541612D01*
X14574100Y5466300D01*
X15285001Y5660000D02*
X15452501D01*
X14574100Y5466300D02*
X15577551D01*
X15771251Y5660000D01*
X15285001Y6030000D02*
X15452501D01*
X10842500Y6915000D02*
X10857500Y6900000D01*
X10682500Y6915000D02*
X10842500D01*
X10857500Y6920000D02*
X11147500D01*
X10677501Y6920000D02*
X10682500Y6915000D01*
X12380000Y6300000D02*
X12477500D01*
X12505000Y6327499D02*
Y6539999D01*
X12477500Y6300000D02*
X12505000Y6327499D01*
X10290000Y7025000D02*
X10450000D01*
X10920001Y5670000D02*
X11035000D01*
X10285000Y5770000D02*
X10820000D01*
X10920001Y5670000D01*
X10195000Y5860000D02*
Y6644974D01*
Y5860000D02*
X10285000Y5770000D01*
X11285000Y5765000D02*
X11315000D01*
X11345000Y5735000D02*
X11440000D01*
X11315000Y5765000D02*
X11345000Y5735000D01*
X11440006Y5734994D02*
X11569955D01*
X11569961Y5734989D01*
X11440000Y5735000D02*
X11440006Y5734994D01*
X11569961Y5734989D02*
X11679949Y5625000D01*
X11810000D01*
X11847501Y5587499D02*
X12530000D01*
X11810000Y5625000D02*
X11847501Y5587499D01*
X10282700Y7022699D02*
X10289190Y7029190D01*
X10295000Y6670000D02*
X10305000D01*
X10220026D02*
X10295000D01*
X12630000Y6300000D02*
X12750000D01*
X14430000Y6655000D02*
X14437500Y6662500D01*
X14575002Y6655000D02*
X14595001Y6675000D01*
X14725002D02*
X14735001D01*
X14735001Y6675000D01*
X14437500Y6782500D02*
X14445000Y6790000D01*
X14437500Y6662500D02*
Y6782500D01*
X15085001Y6675000D02*
X15106821Y6696820D01*
Y6741820D01*
X15090001Y8525000D02*
X15115001Y8550000D01*
Y8595000D01*
X15285001Y8620000D02*
X15452501D01*
X15285001Y8990000D02*
X15452501D01*
X15115001Y8595000D02*
X15325002Y8805000D01*
X15817500Y8990000D02*
X15947501D01*
X15325002Y8805000D02*
X15632501D01*
X16002501Y8872500D02*
X16107501D01*
X15947501Y8927500D02*
Y8990000D01*
X15632501Y8805000D02*
X15817500Y8990000D01*
X15947501Y8927500D02*
X16002501Y8872500D01*
Y8517574D02*
X16062427D01*
X15955038Y8565037D02*
X16002501Y8517574D01*
X15947501Y8572574D02*
X15955038Y8565037D01*
X15947501Y8572574D02*
Y8620000D01*
X15817500D02*
X15947501D01*
X16062427Y8517574D02*
X16130000Y8450000D01*
X14735001Y7415000D02*
X14753700Y7396300D01*
X15085001Y7045000D02*
X15090001D01*
X15115001Y7070000D01*
Y7120000D02*
X15322501Y7327500D01*
X15115001Y7070000D02*
Y7120000D01*
X15090001Y7415000D02*
X15115001Y7440000D01*
Y7487500D01*
X15090001Y7785000D02*
X15115001Y7810000D01*
Y7487500D02*
X15322501Y7695000D01*
X14915001Y7050000D02*
X14920001Y7045000D01*
X14725002Y6305000D02*
X14725002Y6305000D01*
X15612502Y5840000D02*
X15802501Y6030000D01*
X15947501D01*
Y6092500D01*
X15317500Y5840000D02*
X15612502D01*
X16002501Y6147500D02*
X16065001D01*
X15947501Y6092500D02*
X16002501Y6147500D01*
X15115001Y5960000D02*
Y6007500D01*
X15090001Y5935000D02*
X15115001Y5960000D01*
X15109322Y6329320D02*
Y6369320D01*
X15085001Y6305000D02*
X15109322Y6329320D01*
X15115001Y6007500D02*
X15322501Y6215000D01*
X14725002Y5755000D02*
X14725002Y5755000D01*
X14725002Y5935000D02*
X14725002Y5935000D01*
X15947501Y6400000D02*
X15957501Y6390000D01*
X15810001Y6400000D02*
X15947501D01*
X15285001D02*
X15452501D01*
X15625002Y6215000D02*
X15810001Y6400000D01*
X15322501Y6215000D02*
X15625002D01*
X15957501Y6390000D02*
X16135001D01*
X15089572Y5565000D02*
X15114572Y5590000D01*
Y5637072D02*
X15317500Y5840000D01*
X15114572Y5590000D02*
Y5637072D01*
X15947501Y5660000D02*
Y5722500D01*
X15771251Y5660000D02*
X15947501D01*
Y5722500D02*
X16002501Y5777500D01*
X16127501D01*
X15285001Y7140000D02*
X15452501D01*
X15322501Y7695000D02*
X15642500D01*
X15322501Y7327500D02*
X15665001D01*
X15827501Y7880000D02*
X15947501D01*
Y7817500D02*
X16240001Y7525000D01*
X15947501Y7817500D02*
Y7880000D01*
Y7510000D02*
X15967500Y7490000D01*
X15642500Y7695000D02*
X15827501Y7880000D01*
X15935075Y7497574D02*
X15947501Y7510000D01*
X15637502Y8065000D02*
X15822501Y8250000D01*
X16002501Y8132500D02*
X16062502D01*
X15325002Y8435000D02*
X15632500D01*
X15822501Y8250000D02*
X15947501D01*
X15322501Y8065000D02*
X15637502D01*
X15947501Y8187500D02*
X16002501Y8132500D01*
X15947501Y8187500D02*
Y8250000D01*
X16062502Y8132500D02*
X16470001Y7725000D01*
X16070001Y7490000D02*
X16235001Y7325000D01*
X16130000Y8265000D02*
Y8450000D01*
X16200002Y8395000D02*
X16470001Y8125000D01*
X16130000Y8265000D02*
X16470001Y7925000D01*
X16240001Y7525000D02*
X16470001D01*
X16235001Y7325000D02*
X16470001D01*
X16235001Y6925000D02*
X16470001D01*
X15947501Y6770000D02*
X15967500Y6750000D01*
X16060001D01*
X15947501Y7140000D02*
X15962502Y7125000D01*
X16060001Y6750000D02*
X16235001Y6925000D01*
X15962502Y7125000D02*
X16470001D01*
X16423367Y6505866D02*
X16450867D01*
X16462575Y6317574D02*
X16470001Y6325000D01*
X16127501Y5777500D02*
X16270001Y5920000D01*
X16450867Y6505866D02*
X16470001Y6525000D01*
X16135001Y6390000D02*
X16470001Y6725000D01*
X16065001Y6147500D02*
X16423367Y6505866D01*
X16270001Y6210000D02*
X16377576Y6317574D01*
X16270001Y5920000D02*
Y6210000D01*
X16377576Y6317574D02*
X16462575D01*
X15109322Y8219320D02*
X15325002Y8435000D01*
X15085001Y8155000D02*
X15109322Y8179320D01*
Y8219320D01*
X15115001Y7857500D02*
X15322501Y8065000D01*
X15115001Y7810000D02*
Y7857500D01*
X15322501Y6957500D02*
X15642500D01*
X15109322Y6369320D02*
X15325002Y6585000D01*
X15825002Y6770000D02*
X15947501D01*
X15640001Y6585000D02*
X15825002Y6770000D01*
X15106821Y6741820D02*
X15322501Y6957500D01*
X15285001Y6770000D02*
X15452501D01*
X15325002Y6585000D02*
X15640001D01*
X15642500Y6957500D02*
X15825002Y7140000D01*
X15665001Y7327500D02*
X15835075Y7497574D01*
X15935075D01*
X15967500Y7490000D02*
X16070001D01*
X15825002Y7140000D02*
X15947501D01*
X15285001Y7510000D02*
X15452501D01*
X15285001Y8250000D02*
X15452501D01*
X15285001Y7880000D02*
X15452501D01*
X16107501Y8872500D02*
X16200002Y8780000D01*
Y8395000D02*
Y8780000D01*
X15632500Y8435000D02*
X15817500Y8620000D01*
X10195000Y6695026D02*
Y6940000D01*
Y6644974D02*
Y6670000D01*
Y6644974D02*
X10220026Y6670000D01*
X10195000D02*
Y6695026D01*
Y6670000D02*
X10220026D01*
X10195000Y6695026D02*
X10220026Y6670000D01*
X10262500Y7329000D02*
X10274190Y7317310D01*
X10195000Y6940000D02*
X10272500Y7017500D01*
X13070000Y7900000D02*
X13200000D01*
X10262500Y7329000D02*
X10266790Y7333290D01*
X10272500Y7017500D02*
X10277500D01*
X10282700Y7022699D01*
X10264190Y7183287D02*
X10289190Y7158287D01*
Y7029190D02*
Y7158287D01*
X10264190Y7183287D02*
Y7323155D01*
D35*
X13664999Y7275000D02*
X14230000Y7840000D01*
Y8390000D02*
X14345000Y8505000D01*
X14230000Y7840000D02*
Y8390000D01*
X14160001Y7880000D02*
Y8760000D01*
X13605000Y7325000D02*
X14160001Y7880000D01*
Y8760000D02*
X14295000Y8895000D01*
X13714999Y7225000D02*
X14300000Y7810000D01*
Y8004999D02*
X14430000Y8135000D01*
X14300000Y7810000D02*
Y8004999D01*
X10990000Y8190000D02*
Y8300000D01*
X10880000D02*
X10990000D01*
X10880000D02*
Y8410000D01*
Y8190000D02*
Y8300000D01*
X10770000D02*
X10880000D01*
Y8410000D02*
X10990000D01*
X10770000Y8300000D02*
Y8410000D01*
X12880000Y6435000D02*
X12895000Y6419999D01*
X12780000Y6435000D02*
X12880000D01*
X12725000Y6395000D02*
X12765000Y6435000D01*
X12630000Y6395000D02*
X12725000D01*
X12765000Y6435000D02*
X12780000D01*
X13005000Y6530000D02*
X13150000D01*
X12938713Y6596287D02*
X13005000Y6530000D01*
X13150000D02*
X13797501Y5882500D01*
X12575000Y6610000D02*
X12885001D01*
X12914999Y6596287D02*
X12938713D01*
X12905000Y6606287D02*
Y6630000D01*
X12885001Y6610000D02*
X12905000Y6630000D01*
Y6606287D02*
X12914999Y6596287D01*
X12910001Y6635000D02*
Y6775000D01*
X12905000Y6630000D02*
X12910001Y6635000D01*
X13870000Y6960000D02*
X14137500D01*
X14139999Y6790000D02*
Y6957500D01*
X14137500Y6960000D02*
X14139999Y6957500D01*
X13337021Y7413955D02*
Y7862979D01*
Y7413955D02*
X13375977Y7375000D01*
X13189999Y8010000D02*
X13337021Y7862979D01*
X13410001Y7610000D02*
X13499998D01*
X13500000Y7610000D01*
X13489999Y7475000D02*
Y7600000D01*
X11007500Y7334000D02*
X11012500Y7329000D01*
Y7057500D02*
Y7329000D01*
X13189999Y8090000D02*
Y8215000D01*
Y8010000D02*
Y8090000D01*
X13797501Y5875000D02*
X13832500Y5840000D01*
X13797501Y5875000D02*
Y5882500D01*
X13739999Y6490000D02*
X14250000Y5980000D01*
X13739999Y6490000D02*
Y6670000D01*
X13825000Y6555000D02*
Y6685000D01*
X14245000Y6135000D02*
X14430000D01*
X13825000Y6555000D02*
X14245000Y6135000D01*
X14112500Y5877500D02*
X14147501Y5842500D01*
X14110001Y5877500D02*
X14112500D01*
X13489999Y6497500D02*
Y6775000D01*
Y6497500D02*
X14110001Y5877500D01*
X14147501Y5840000D02*
Y5842500D01*
X14140001Y5832500D02*
X14147501Y5840000D01*
X14140001Y5665000D02*
Y5832500D01*
Y5665000D02*
X14210001D01*
X14285001Y5590000D01*
X14430000Y5750000D02*
X14590001D01*
X14250000Y5810000D02*
Y5980000D01*
Y5810000D02*
X14310001Y5750000D01*
X14430000D01*
X13925000Y6595000D02*
X14014999Y6505000D01*
X14430000D01*
X14585001Y6495000D02*
X14595001D01*
X14440001D02*
X14585001D01*
X13764999Y6975000D02*
X14020000Y6720000D01*
Y6610000D02*
Y6720000D01*
X14060001Y6570000D02*
X14267500D01*
X14020000Y6610000D02*
X14060001Y6570000D01*
X14267500D02*
X14352499Y6655000D01*
X14430000D01*
X14139999Y6660000D02*
X14297501D01*
X14370000Y6732500D01*
X14139999Y6790000D02*
X14295000D01*
X12035000Y6610000D02*
X12335000Y6910000D01*
X12290000Y6940000D02*
X12320000Y6910000D01*
X12230000Y7235000D02*
X12260000Y7205000D01*
X14297501Y6790000D02*
Y6990000D01*
X13964999Y7025000D02*
X14020000Y7080000D01*
X14355000D02*
X14445001Y6990000D01*
X14020000Y7080000D02*
X14355000D01*
X13489999Y7025000D02*
X13964999D01*
X13489999Y7075000D02*
X13885001D01*
X14105000Y7237500D02*
X14139999Y7272500D01*
X14047501Y7237500D02*
X14105000D01*
X13885001Y7075000D02*
X14047501Y7237500D01*
X14430000Y7425000D02*
X14595001D01*
X13489999Y7125000D02*
X13845000D01*
X13489999Y7175000D02*
X13775000D01*
X14364999Y7765000D01*
X13489999Y7225000D02*
X13714999D01*
X14145000Y7425000D02*
X14430000D01*
X13845000Y7125000D02*
X14145000Y7425000D01*
X14364999Y7765000D02*
X14430000D01*
X14585001Y8155000D02*
X14595001D01*
X14450002D02*
X14585001D01*
X13489999Y7275000D02*
X13664999D01*
X13489999Y7425000D02*
X13595000D01*
X13622501Y7452500D02*
Y7797500D01*
X13455000Y8090000D02*
Y8350000D01*
X13595000Y7425000D02*
X13622501Y7452500D01*
X13455000Y7965000D02*
X13622501Y7797500D01*
X13489999Y7325000D02*
X13605000D01*
X14345000Y8505000D02*
X14430000D01*
X14595001Y8895000D02*
Y9085000D01*
X14295000Y8895000D02*
X14585001D01*
X14370000Y6732500D02*
Y6840001D01*
X14430000Y6900000D02*
X14660001D01*
X14370000Y6840001D02*
X14430000Y6900000D01*
X14715001Y6940000D02*
X14735001Y6960000D01*
X14660001Y6900000D02*
X14700002Y6940000D01*
X14735001Y6960000D02*
Y6975000D01*
X14700002Y6940000D02*
X14715001D01*
X10813283Y7159217D02*
X10839217D01*
X10857500Y7040000D02*
Y7115000D01*
X10839217Y7159217D02*
X10870000Y7190000D01*
X10829778Y7142722D02*
X10839217Y7133283D01*
Y7159217D01*
Y7133283D02*
X10843639Y7128861D01*
X10870000Y7190000D02*
Y7190000D01*
X10839217Y7133283D02*
X10857500Y7115000D01*
X10552346Y7107654D02*
X10560000Y7100000D01*
X10552346Y7107654D02*
Y7156653D01*
X10552574Y6822574D02*
X10560000Y6830000D01*
X10552574Y6792574D02*
Y6822574D01*
X10445000Y6685000D02*
X10552574Y6792574D01*
X10445000Y6670000D02*
Y6685000D01*
X10412500Y7296500D02*
Y8207215D01*
Y7296500D02*
X10552346Y7156653D01*
X10445000Y8770000D02*
X10490000Y8725000D01*
X10445000Y8770000D02*
Y9044000D01*
X10410000Y9079000D02*
X10445000Y9044000D01*
X10490000Y7630000D02*
Y8725000D01*
Y7630000D02*
X10630000Y7490000D01*
X10660001Y7137500D02*
X10682500Y7115000D01*
X10660001Y7138755D02*
X10700628D01*
X10682500Y7115000D02*
X10700628Y7133128D01*
X10660001Y7137500D02*
Y7138755D01*
X10700628D02*
X10741256D01*
X10682500Y7045000D02*
Y7115000D01*
X10552500Y7245000D02*
X10660001Y7137500D01*
X10700628Y7133128D02*
Y7138755D01*
X10690000Y6800000D02*
X10810000Y6680000D01*
Y6040000D02*
Y6680000D01*
X10582000Y8165689D02*
Y8820000D01*
Y8165689D02*
X11310000Y7437689D01*
X10862500Y7422500D02*
X10910000Y7470000D01*
X11192836D02*
X11235000Y7427836D01*
X10910000Y7470000D02*
X11192836D01*
X10862500Y7329000D02*
Y7422500D01*
X11235000Y7195000D02*
Y7427836D01*
Y7195000D02*
X11350000Y7080000D01*
X11645000D01*
X10995000Y6610000D02*
X11115000Y6730000D01*
X11610000D01*
X12000000Y6410000D02*
X12425000Y6835000D01*
X11395000Y6410000D02*
X12000000D01*
X11395000Y6610000D02*
X12035000D01*
X10810000Y6040000D02*
X10830000Y6020000D01*
Y5880000D02*
Y6020000D01*
X13305000Y8773694D02*
X13329799Y8798493D01*
X13305000Y8350000D02*
Y8773694D01*
X13195000Y8220000D02*
X13305000D01*
X13189999Y8215000D02*
X13195000Y8220000D01*
X13455000Y8090000D02*
X13455000Y8090000D01*
X13455000Y7965000D02*
Y8090000D01*
X12260000Y7365000D02*
X12265000Y7370000D01*
X12260000Y7375000D02*
X12275000D01*
X12580000Y7680000D01*
X12975000D01*
X12790147Y7225000D02*
X12910001D01*
X12645147Y7370000D02*
X12790147Y7225000D01*
X12380000Y7370000D02*
X12645147D01*
X12595000Y7280000D02*
X12608284Y7266716D01*
X12653284D02*
X12745000Y7175000D01*
X12910001D01*
X12608284Y7266716D02*
X12653284D01*
X12715000Y7125000D02*
X12910001D01*
X12566939Y7170000D02*
X12670000D01*
X12715000Y7125000D01*
X12210000Y7300000D02*
X12310000D01*
X12380000Y7370000D01*
X11995000Y7117500D02*
X12027500D01*
X11960000Y7077500D02*
Y7082500D01*
X12027500Y7117500D02*
X12210000Y7300000D01*
X12320000Y6910000D02*
X12335000D01*
X12290000Y6940000D02*
Y7220000D01*
X12230000Y7235000D02*
Y7235000D01*
X12798401Y7351018D02*
Y7411599D01*
X12720000Y7371132D02*
X12816132Y7275000D01*
X12798401Y7351018D02*
X12819418Y7330000D01*
X12816132Y7275000D02*
X12910001D01*
X12819418Y7330000D02*
X12905000D01*
X12720000Y7371132D02*
Y7380000D01*
X12905000Y7330000D02*
X12910001Y7325000D01*
X11925000Y7042500D02*
X11960000Y7077500D01*
X11922500Y7042500D02*
X11925000D01*
X11610000Y6730000D02*
X11922500Y7042500D01*
X10445000Y6670000D02*
X10445000Y6670000D01*
X10445000Y6540000D02*
Y6670000D01*
X10735000Y5640000D02*
X10800000Y5575000D01*
X11285000D01*
X10735000Y5640000D02*
Y5660000D01*
X10718000Y5643000D02*
X10735000Y5660000D01*
X10410000Y5643000D02*
X10718000D01*
X11285000Y5575000D02*
X11295000Y5585000D01*
X11440000D01*
X11440011Y5584989D01*
X11569961D01*
X13026108Y6846108D02*
Y6903892D01*
X13005000Y6825000D02*
X13026108Y6846108D01*
X13005000Y6925000D02*
X13026108Y6903892D01*
X12425000Y6835000D02*
X12735000D01*
X12775000Y6875000D02*
X12910001D01*
X12735000Y6835000D02*
X12775000Y6875000D01*
X12910001Y6825000D02*
X13005000D01*
X12910001Y6925000D02*
X13005000D01*
X12910001D02*
Y6975000D01*
X12475000Y6910000D02*
X12675000D01*
X12335000D02*
X12475000D01*
X12675000D02*
X12790000Y7025000D01*
X12837500Y5587499D02*
X13045000Y5795000D01*
Y6419999D01*
X11645000Y7080000D02*
Y7082500D01*
X11960000Y7082500D02*
X11995000Y7117500D01*
X12530000Y5587499D02*
X12837500D01*
X12880000Y6205000D02*
X12910001Y6175000D01*
X12630000Y6205000D02*
X12880000D01*
X12600000Y7075000D02*
X12910001D01*
X12595000Y7070000D02*
X12600000Y7075000D01*
X12475000Y6710000D02*
Y6760000D01*
Y6710000D02*
X12575000Y6610000D01*
X11680000Y8707500D02*
X11692500D01*
X11715000Y8685000D01*
Y8672500D02*
X11767500Y8620000D01*
X11715000Y8672500D02*
Y8685000D01*
X11767500Y8452500D02*
Y8620000D01*
X11680000Y8707500D02*
Y8815000D01*
X11680000Y8707500D02*
X11680000Y8707500D01*
Y8967500D02*
X11687500D01*
X11551000Y9079000D02*
X11665000Y8965000D01*
X11460000Y9079000D02*
X11551000D01*
X11665000Y8965000D02*
X11680000D01*
X12480000Y8227500D02*
X12740000D01*
X12760000Y8247500D02*
Y8255000D01*
X12740000Y8227500D02*
X12760000Y8247500D01*
X12317500Y7982500D02*
X12387500Y7912500D01*
X12480000D01*
X12875000Y7925000D02*
Y7985000D01*
X12855000Y8005000D02*
X12875000Y7985000D01*
X12160000Y7975000D02*
X12310000D01*
X12325000Y8125000D02*
X12422500Y8222500D01*
X12445000D02*
X12480000Y8257500D01*
X12310000Y8125000D02*
X12325000D01*
X12422500Y8222500D02*
X12445000D01*
X12160000Y8125000D02*
Y8630000D01*
X11840000Y8450000D02*
Y8830000D01*
X12036987Y9026987D01*
X12650094D01*
X12155000Y7980000D02*
X12160000Y7975000D01*
X12060000Y7980000D02*
X12155000D01*
X11990000Y8050000D02*
X12060000Y7980000D01*
X11990000Y8050000D02*
Y8300000D01*
X11840000Y8450000D02*
X11990000Y8300000D01*
X12480000Y8257500D02*
X12482500Y8255000D01*
X12140000Y7620000D02*
Y7710000D01*
X11920000Y7520000D02*
Y8300000D01*
X11767500Y8452500D02*
X11920000Y8300000D01*
X11845000Y7445000D02*
X11920000Y7520000D01*
X11310000Y7329000D02*
Y7437689D01*
X10328000Y8291716D02*
X10412500Y8207215D01*
X10328000Y8291716D02*
Y8820000D01*
X10710000Y8760000D02*
Y9079000D01*
Y8760000D02*
X10830000Y8640000D01*
X11008000D01*
X11750000Y7696000D02*
Y7950000D01*
X11008000Y8640000D02*
X11444000Y8204000D01*
X11750000Y7950000D02*
Y8204000D01*
X11444000D02*
X11750000D01*
X11340000Y8824000D02*
Y9049000D01*
X11310000Y9079000D02*
X11340000Y9049000D01*
Y8824000D02*
X11344000Y8820000D01*
X11090000Y8835563D02*
X11160000Y8905563D01*
Y9079000D01*
X11090000Y8820000D02*
Y8835563D01*
X14430000Y6655000D02*
X14575002D01*
X14735001Y6675000D02*
X15085001D01*
X14295000Y6790000D02*
X14297501D01*
X14920001Y6863700D02*
Y6883700D01*
Y6865000D02*
X15085001D01*
X14843700Y6863700D02*
X14920001D01*
X14430000Y6505000D02*
X14440001Y6495000D01*
X14725002D02*
X15085001D01*
X14585001Y6675000D02*
Y6825000D01*
X14805000D02*
X14843700Y6863700D01*
X14735001Y6825000D02*
X14805000D01*
X14435001Y9085000D02*
X14595001D01*
X14725002D02*
X15085001D01*
X14725002Y8895000D02*
X15085001D01*
X14725002Y8715000D02*
X15085001D01*
X14725002Y8525000D02*
X14920001D01*
X15090001D01*
X14575002Y8505000D02*
X14595001Y8525000D01*
X14590001Y8710000D02*
X14595001Y8715000D01*
Y8525000D02*
Y8715000D01*
X14430000Y8505000D02*
X14575002D01*
X14735001Y7415000D02*
X15085001D01*
X14725002Y7275000D02*
X14730000Y7270000D01*
X14585001Y7260000D02*
Y7275000D01*
X14730000Y7270000D02*
X14810001D01*
X14585001Y7260000D02*
X14600002Y7245000D01*
X14615001D01*
X14660001Y7200000D01*
X14810001Y7270000D02*
X14845001Y7235000D01*
X14920001Y7045000D02*
X15085001D01*
X14845001Y7235000D02*
X15085001D01*
X14920001Y7785000D02*
X15090001D01*
X14725002D02*
X14920001D01*
X14575002Y7765000D02*
X14595001Y7785000D01*
X14725002Y7605000D02*
X15085001D01*
X14430000Y7765000D02*
X14575002D01*
X14440001Y7605000D02*
X14595001D01*
X14430000Y7615000D02*
X14440001Y7605000D01*
X14585001Y6975000D02*
Y6975000D01*
X14735001Y7050000D02*
X14915001D01*
X14735001Y6975000D02*
Y7050000D01*
X14585001Y6990000D02*
X14660001Y7065000D01*
Y7200000D01*
X14735001Y7050000D02*
Y7125000D01*
X14570001Y6990000D02*
X14585001Y6975000D01*
X14581715Y7128285D02*
X14585001Y7125000D01*
X14595001Y7425000D02*
Y7605000D01*
X14595001Y7425000D02*
X14595001Y7425000D01*
X14445001Y6990000D02*
X14570001D01*
X14430000Y7215001D02*
Y7275000D01*
X14427499Y7272500D02*
X14430000Y7275000D01*
X14516716Y7128285D02*
X14581715D01*
X14430000Y7215001D02*
X14516716Y7128285D01*
X14430000Y6285000D02*
X14575002D01*
X14430000Y5900000D02*
X14567500D01*
X14440001Y6125000D02*
X14585001D01*
X14430000Y6135000D02*
X14440001Y6125000D01*
X14585001Y5935000D02*
Y6125000D01*
X14725002Y5755000D02*
X15085001D01*
X14725002Y5565000D02*
X14920001D01*
X14595001Y5585000D02*
X14595001Y5585000D01*
Y5755000D01*
X14430000Y5585000D02*
X14595001D01*
X14920001Y5565000D02*
X15089572D01*
X14575002Y6285000D02*
X14595001Y6305000D01*
X14585001D02*
Y6495000D01*
X14590001Y5750000D02*
X14595001Y5755000D01*
X14595001Y5935000D02*
X14595001Y5935000D01*
X14567500Y5900000D02*
X14595001Y5927500D01*
Y5935000D01*
X14725002Y6305000D02*
X14920001D01*
Y5935000D02*
X15090001D01*
X14920001Y6305000D02*
X15085001D01*
X14725002Y6125000D02*
X15085001D01*
X14725002Y5935000D02*
X14920001D01*
Y8155000D02*
X15085001D01*
X14139999Y7272500D02*
X14427499D01*
X14585001Y7985000D02*
X14595001Y7975000D01*
Y7785000D02*
Y7975000D01*
X14430000Y7985000D02*
X14585001D01*
X14430000Y8135000D02*
X14450002Y8155000D01*
X14725002Y7975000D02*
X15085001D01*
X14440001Y8345000D02*
X14595001D01*
Y8155000D02*
Y8345000D01*
X14725002D02*
X15085001D01*
X14725002Y8155000D02*
X14920001D01*
X14430000Y8355000D02*
X14440001Y8345000D01*
X14435001Y8710000D02*
X14590001D01*
X14139999Y6790000D02*
X14139999Y6790000D01*
X11940000Y7420000D02*
X12140000Y7620000D01*
X11940000Y7350000D02*
Y7420000D01*
X11700000Y7445000D02*
X11845000D01*
X12800000Y7750000D02*
X12850000Y7800000D01*
X12490000Y7750000D02*
X12800000D01*
X11840000Y7100000D02*
X12490000Y7750000D01*
X12935001Y7630000D02*
X12975000Y7670000D01*
Y7680000D01*
X11080000Y6990000D02*
X11730000D01*
X11012500Y7057500D02*
X11080000Y6990000D01*
X11730000D02*
X11840000Y7100000D01*
X11840000D01*
X10770000Y8190000D02*
Y8300000D01*
Y8190000D02*
X10880000D01*
X10770000Y8410000D02*
X10880000D01*
Y8190000D02*
X10990000D01*
X12875000Y7925000D02*
X13000000Y7800000D01*
X10813283Y7159217D02*
X10829778Y7142722D01*
X10739820Y7232680D02*
X10813283Y7159217D01*
X10829778Y7149778D02*
X10839217Y7159217D01*
X10829778Y7142722D02*
Y7149778D01*
X10862347Y7182347D02*
X10870000Y7190000D01*
X12760000Y7450000D02*
X12798401Y7411599D01*
X10712500Y7329000D02*
X10739820Y7301680D01*
Y7232680D02*
Y7301680D01*
X13500000Y7610000D02*
X13500000Y7610000D01*
X10552500Y7245000D02*
Y7329000D01*
X11152500Y7065000D02*
Y7329000D01*
X13164999Y7025000D02*
X13210001Y6980000D01*
X12910001Y7025000D02*
X13164999D01*
X12790000D02*
X12910001D01*
X13375977Y7375000D02*
X13489999D01*
Y6975000D02*
X13764999D01*
X12910001Y6875000D02*
X12910126Y6875125D01*
X12910001Y7425000D02*
X13010001D01*
X13070000Y7485000D01*
Y7747426D01*
X13000000Y7800000D02*
X13017426D01*
X13070000Y7747426D01*
X13925000Y6595000D02*
Y6700000D01*
X13635001Y6875000D02*
X13825000Y6685000D01*
X13489999Y6875000D02*
X13635001D01*
X13585001Y6825000D02*
X13739999Y6670000D01*
X13489999Y6825000D02*
X13585001D01*
X12910001Y7075000D02*
X13014999D01*
X13164999Y7225000D01*
Y7680000D01*
X12742498Y6762498D02*
X12805000Y6825000D01*
X12710607Y6762498D02*
X12742498D01*
X12675000Y6720947D02*
Y6726892D01*
X12710607Y6762498D01*
X12805000Y6825000D02*
X12910001D01*
X13489999Y6925000D02*
X13700000D01*
X13925000Y6700000D01*
D36*
X13329799Y8798493D02*
X13436307Y8905000D01*
X13860001D01*
X12190001Y8600000D02*
X12620000D01*
X12650000Y8570000D01*
X12160000Y8630000D02*
X12190001Y8600000D01*
D37*
X10328000Y8820000D02*
D03*
X10582000D02*
D03*
X11090000D02*
D03*
X10836000D02*
D03*
X10410000Y5643000D02*
D03*
D38*
X11344000Y8820000D02*
D03*
D39*
X10995000Y6410000D02*
D03*
X11395000Y6610000D02*
D03*
D40*
X10995000D02*
D03*
X11395000Y6410000D02*
D03*
D41*
X10410000Y5897000D02*
D03*
D42*
X16470001Y6325000D02*
D03*
D43*
Y6525000D02*
D03*
Y6725000D02*
D03*
Y6925000D02*
D03*
Y7125000D02*
D03*
Y7325000D02*
D03*
Y7525000D02*
D03*
Y7725000D02*
D03*
Y7925000D02*
D03*
Y8125000D02*
D03*
Y8325000D02*
D03*
D44*
X12140000Y7710000D02*
D03*
X11750000Y7696000D02*
D03*
Y7950000D02*
D03*
D45*
Y8204000D02*
D03*
D46*
X13960001Y8270000D02*
D03*
X13760001D02*
D03*
X13860001Y8275000D02*
D03*
X16560001Y9020000D02*
D03*
X16700000D02*
D03*
Y8900000D02*
D03*
X16560001D02*
D03*
Y8760000D02*
D03*
X16700000D02*
D03*
X12350000Y6630000D02*
D03*
X10530000Y6370000D02*
D03*
X10730000Y6140000D02*
D03*
X11910000Y5780000D02*
D03*
X12960001Y8230000D02*
D03*
X12970000Y8000000D02*
D03*
X13310001D02*
D03*
X12660000Y7890000D02*
D03*
X14280000Y8620000D02*
D03*
Y8990000D02*
D03*
X14820000Y8830000D02*
D03*
X15189999Y8890000D02*
D03*
X13870000Y6960000D02*
D03*
X13410001Y7610000D02*
D03*
X10560000Y7100000D02*
D03*
X10741256Y7138755D02*
D03*
X10560000Y6830000D02*
D03*
X10630000Y7490000D02*
D03*
X10690000Y6800000D02*
D03*
X12360000Y7260000D02*
D03*
X12720000Y7380000D02*
D03*
X12360000Y7050000D02*
D03*
X10370000Y6780000D02*
D03*
X11850000Y6030000D02*
D03*
X12880000Y6290000D02*
D03*
X11640000Y5880000D02*
D03*
X11102500Y8360000D02*
D03*
X10932500Y8520000D02*
D03*
X10832500D02*
D03*
X11102500Y8240000D02*
D03*
X10822500Y8070000D02*
D03*
X10662500Y8240000D02*
D03*
X10932500Y8070000D02*
D03*
X10662500Y8360000D02*
D03*
X11680000Y8460000D02*
D03*
X13060001Y7370000D02*
D03*
X11800000Y7260000D02*
D03*
X11570000Y7320000D02*
D03*
X10870000Y7190000D02*
D03*
X12760000Y7450000D02*
D03*
X12850000Y7800000D02*
D03*
X13500000Y7830000D02*
D03*
X12360000Y7160000D02*
D03*
X12170000Y7010000D02*
D03*
X11450000Y6010000D02*
D03*
X13210001Y6980000D02*
D03*
D47*
X13155000Y6600000D02*
D03*
X12620000Y6540000D02*
D03*
%TF.MD5,2c8943f5a9eeaae1f688150fde7e7da3*%
M02*
