%TF.GenerationSoftware,Altium Limited,Altium Designer,24.1.2 (44)*%
G04 Layer_Color=65535*
%FSLAX45Y45*%
%MOMM*%
%TF.SameCoordinates,126283BA-89AD-4916-A54F-9615FB238DFA*%
%TF.FilePolarity,Positive*%
%TF.FileFunction,Legend,Top*%
%TF.Part,Single*%
G01*
G75*
%TA.AperFunction,NonConductor*%
%ADD52C,0.20000*%
%ADD53C,0.25000*%
%ADD54C,0.50000*%
%ADD55C,0.15000*%
%ADD56C,0.15240*%
%ADD57C,0.10000*%
%ADD58R,1.58700X0.50800*%
%ADD59R,0.50800X1.58700*%
D52*
X11710000Y7520000D02*
G03*
X11710000Y7520000I-10000J0D01*
G01*
X10260000Y7184000D02*
G03*
X10260000Y7204000I0J10000D01*
G01*
D02*
G03*
X10260000Y7184000I0J-10000D01*
G01*
D02*
G03*
X10260000Y7204000I0J10000D01*
G01*
X11550000Y7479000D02*
Y8929000D01*
Y7479000D02*
Y8929000D01*
X9550000Y7304000D02*
Y9104000D01*
Y7304000D02*
Y9104000D01*
X10150000D01*
X9550000D02*
X10150000D01*
X9550000Y7304000D02*
X10150000D01*
X9550000D02*
X10150000D01*
X11700000Y8970000D02*
X11760000D01*
X12602500Y8400000D02*
Y8460000D01*
X12897501D01*
Y8400000D02*
Y8460000D01*
X12602500Y8400000D02*
X12897501D01*
X12600000Y8245000D02*
Y8365000D01*
X11690000Y8680000D02*
Y8740000D01*
X11613000Y8077000D02*
X11887000D01*
X11613000Y8343500D02*
X11887000D01*
X11613000Y7572000D02*
Y8343500D01*
Y7572000D02*
X11887000D01*
Y8343500D01*
X11590000Y6987500D02*
X11650000D01*
X11122500Y6990000D02*
X11182500D01*
X13627499Y8947500D02*
Y9292500D01*
X13972501Y8947500D02*
Y9292500D01*
X12527500Y8366500D02*
Y8493500D01*
X12372500Y8366500D02*
Y8493500D01*
Y8366500D02*
X12527500D01*
X10862500Y5405000D02*
X11437500D01*
Y6145000D01*
X10862500D02*
X11437500D01*
X10862500Y5405000D02*
Y6145000D01*
X13022501Y7520000D02*
X13377499D01*
Y6730000D02*
Y7520000D01*
X13022501Y6730000D02*
X13377499D01*
X13022501D02*
Y7520000D01*
X10212500Y5405000D02*
Y6145000D01*
X10787500D01*
Y5405000D02*
Y6145000D01*
X10212500Y5405000D02*
X10787500D01*
X10384394Y6575607D02*
X10625607D01*
X10384394Y6404393D02*
X10625607D01*
X10366894Y6829394D02*
Y7070607D01*
X10538107Y6829394D02*
Y7070607D01*
X11490500Y9273000D02*
Y9547000D01*
X11757000Y9273000D02*
Y9547000D01*
X10208000D02*
X11757000D01*
X10208000Y9273000D02*
Y9547000D01*
Y9273000D02*
X11757000D01*
X13160001Y7855000D02*
X13216000D01*
Y7790000D02*
Y7855000D01*
X12924001Y7790000D02*
Y7855000D01*
X12980000D01*
X12984601Y6100200D02*
Y6160200D01*
X12477500Y5875000D02*
X12532500D01*
X12477500D02*
Y6165000D01*
X12532500D01*
Y5875000D02*
Y6165000D01*
X12567500Y5860000D02*
X12692500D01*
X12004394Y6060000D02*
X12205607D01*
X12004394Y6230000D02*
X12205607D01*
X12117500Y5745000D02*
Y5767500D01*
Y6012500D02*
Y6035000D01*
X11642500D02*
X12117500D01*
X11642500Y5745000D02*
Y5767500D01*
Y6012500D02*
Y6035000D01*
Y5745000D02*
X12117500D01*
X12754601Y6210200D02*
X12814600D01*
X11934393Y5179394D02*
Y5420607D01*
X12105607Y5179394D02*
Y5420607D01*
X12399394Y6954393D02*
X12640607D01*
X12399394Y7125607D02*
X12640607D01*
X15607500Y9275000D02*
X15695000D01*
Y8975000D02*
Y9047500D01*
Y9202500D02*
Y9275000D01*
X15607500Y8975000D02*
X15695000D01*
X15555000Y9107500D02*
Y9142500D01*
X15607500Y8875000D02*
X15695000D01*
Y8575000D02*
Y8647500D01*
Y8802500D02*
Y8875000D01*
X15607500Y8575000D02*
X15695000D01*
X15555000Y8707500D02*
Y8742500D01*
X15607500Y8475000D02*
X15695000D01*
Y8175000D02*
Y8247500D01*
Y8402500D02*
Y8475000D01*
X15607500Y8175000D02*
X15695000D01*
X15555000Y8307500D02*
Y8342500D01*
X15607500Y8075000D02*
X15695000D01*
Y7775000D02*
Y7847500D01*
Y8002500D02*
Y8075000D01*
X15607500Y7775000D02*
X15695000D01*
X15555000Y7907500D02*
Y7942500D01*
X15607500Y6875000D02*
X15695000D01*
Y6575000D02*
Y6647500D01*
Y6802500D02*
Y6875000D01*
X15607500Y6575000D02*
X15695000D01*
X15555000Y6707500D02*
Y6742500D01*
X15607500Y6475000D02*
X15695000D01*
Y6175000D02*
Y6247500D01*
Y6402500D02*
Y6475000D01*
X15607500Y6175000D02*
X15695000D01*
X15555000Y6307500D02*
Y6342500D01*
X15607500Y6075000D02*
X15695000D01*
Y5775000D02*
Y5847500D01*
Y6002500D02*
Y6075000D01*
X15607500Y5775000D02*
X15695000D01*
X15555000Y5907500D02*
Y5942500D01*
X15607500Y7675000D02*
X15695000D01*
Y7375000D02*
Y7447500D01*
Y7602500D02*
Y7675000D01*
X15607500Y7375000D02*
X15695000D01*
X15555000Y7507500D02*
Y7542500D01*
X15607500Y7275000D02*
X15695000D01*
Y6975000D02*
Y7047500D01*
Y7202500D02*
Y7275000D01*
X15607500Y6975000D02*
X15695000D01*
X15555000Y7107500D02*
Y7142500D01*
X15607500Y5675000D02*
X15695000D01*
Y5375000D02*
Y5447500D01*
Y5602500D02*
Y5675000D01*
X15607500Y5375000D02*
X15695000D01*
X15555000Y5507500D02*
Y5542500D01*
X12399394Y7294393D02*
X12640607D01*
X12399394Y7465607D02*
X12640607D01*
X12081694Y6945607D02*
X12322907D01*
X12081694Y6774393D02*
X12322907D01*
X12419393Y7295000D02*
X12620607D01*
X12419393Y7125000D02*
X12620607D01*
X12389393Y6664393D02*
Y6905606D01*
X12560606Y6664393D02*
Y6905606D01*
X12760606Y6664393D02*
Y6905606D01*
X12589393Y6664393D02*
Y6905606D01*
X14086501Y5197500D02*
Y5352500D01*
X14213499D01*
X14086501Y5197500D02*
X14213499D01*
X14072501Y7061500D02*
X14227499D01*
X14072501D02*
Y7188500D01*
X14227499Y7061500D02*
Y7188500D01*
D53*
X11577500Y8204000D02*
G03*
X11577500Y8204000I-12500J0D01*
G01*
X11110000Y5337500D02*
G03*
X11110000Y5337500I-12500J0D01*
G01*
X12922501Y7547500D02*
G03*
X12922501Y7547500I-12500J0D01*
G01*
X10460000Y5337500D02*
G03*
X10460000Y5337500I-12500J0D01*
G01*
X11630000Y9595000D02*
G03*
X11630000Y9595000I-12500J0D01*
G01*
X12882500Y7680000D02*
G03*
X12882500Y7680000I-12500J0D01*
G01*
X12285001Y5890000D02*
G03*
X12285001Y5890000I-12500J0D01*
G01*
D54*
X12519705Y9096507D02*
G03*
X12519705Y9096507I-20000J0D01*
G01*
D55*
X11790000Y7500000D02*
X11890000D01*
Y7420000D02*
Y7500000D01*
X11790000Y7200000D02*
X11890000D01*
Y7280000D01*
X15300000Y8122500D02*
X15400000D01*
X15300000Y8922500D02*
X15400000D01*
X15300000Y8522500D02*
X15400000D01*
X15300000Y7322500D02*
X15400000D01*
X15300000Y6922500D02*
X15400000D01*
X15300000Y6122500D02*
X15400000D01*
X15300000Y5722500D02*
X15400000D01*
X16000000Y8989800D02*
X16300000D01*
X16000000Y9260200D02*
X16300000D01*
X16000000Y8589800D02*
X16300000D01*
X16000000Y8860200D02*
X16300000D01*
X16000000Y8189800D02*
X16300000D01*
X16000000Y8460200D02*
X16300000D01*
X16000000Y7789800D02*
X16300000D01*
X16000000Y8060200D02*
X16300000D01*
X16000000Y7389800D02*
X16300000D01*
X16000000Y7660200D02*
X16300000D01*
X15997501Y6989800D02*
X16297501D01*
X15997501Y7260200D02*
X16297501D01*
X15300000Y9322500D02*
X15400000D01*
X15300000Y7722500D02*
X15400000D01*
X15300000Y6522500D02*
X15400000D01*
X16000000Y6589800D02*
X16300000D01*
X16000000Y6860200D02*
X16300000D01*
X16000000Y6189800D02*
X16300000D01*
X16000000Y6460200D02*
X16300000D01*
X16000000Y5789800D02*
X16300000D01*
X16000000Y6060200D02*
X16300000D01*
X15997501Y5389800D02*
X16297501D01*
X15997501Y5660200D02*
X16297501D01*
X16931677Y5515000D02*
Y5581645D01*
X16898355Y5548322D02*
X16964999D01*
X12375000Y8935000D02*
Y9001645D01*
X12245000Y7765000D02*
X12178355D01*
X13371684Y8543323D02*
X13355025Y8559984D01*
X13321703D01*
X13305040Y8543323D01*
Y8476677D01*
X13321703Y8460016D01*
X13355025D01*
X13371684Y8476677D01*
X13405008Y8460016D02*
X13438332D01*
X13421671D01*
Y8559984D01*
X13405008Y8543323D01*
X13488315D02*
X13504976Y8559984D01*
X13538300D01*
X13554961Y8543323D01*
Y8476677D01*
X13538300Y8460016D01*
X13504976D01*
X13488315Y8476677D01*
Y8543323D01*
X12413339Y7959984D02*
X12380016D01*
X12396678D01*
Y7876677D01*
X12380016Y7860016D01*
X12363355D01*
X12346694Y7876677D01*
X12446661D02*
X12463323Y7860016D01*
X12496645D01*
X12513306Y7876677D01*
Y7943322D01*
X12496645Y7959984D01*
X12463323D01*
X12446661Y7943322D01*
Y7926661D01*
X12463323Y7910000D01*
X12513306D01*
X12013339Y7476677D02*
Y7543322D01*
X11996678Y7559984D01*
X11963355D01*
X11946694Y7543322D01*
Y7476677D01*
X11963355Y7460016D01*
X11996678D01*
X11980016Y7493339D02*
X12013339Y7460016D01*
X11996678D02*
X12013339Y7476677D01*
X12096645Y7460016D02*
Y7559984D01*
X12046661Y7510000D01*
X12113306D01*
X11645040Y9130016D02*
Y9229984D01*
X11695024D01*
X11711685Y9213322D01*
Y9180000D01*
X11695024Y9163339D01*
X11645040D01*
X11678363D02*
X11711685Y9130016D01*
X11745008D02*
X11778331D01*
X11761670D01*
Y9229984D01*
X11745008Y9213322D01*
X11828315D02*
X11844976Y9229984D01*
X11878299D01*
X11894960Y9213322D01*
Y9196661D01*
X11878299Y9180000D01*
X11894960Y9163339D01*
Y9146677D01*
X11878299Y9130016D01*
X11844976D01*
X11828315Y9146677D01*
Y9163339D01*
X11844976Y9180000D01*
X11828315Y9196661D01*
Y9213322D01*
X11844976Y9180000D02*
X11878299D01*
X11595040Y8530016D02*
Y8629984D01*
X11645024D01*
X11661685Y8613323D01*
Y8580000D01*
X11645024Y8563339D01*
X11595040D01*
X11628363D02*
X11661685Y8530016D01*
X11695008D02*
X11728331D01*
X11711669D01*
Y8629984D01*
X11695008Y8613323D01*
X11778315Y8629984D02*
X11844960D01*
Y8613323D01*
X11778315Y8546678D01*
Y8530016D01*
X9715040Y9259984D02*
X9748363D01*
X9731702D01*
Y9160016D01*
X9715040D01*
X9748363D01*
X9864992Y9243323D02*
X9848331Y9259984D01*
X9815008D01*
X9798347Y9243323D01*
Y9176678D01*
X9815008Y9160016D01*
X9848331D01*
X9864992Y9176678D01*
X9898314Y9243323D02*
X9914976Y9259984D01*
X9948298D01*
X9964959Y9243323D01*
Y9226661D01*
X9948298Y9210000D01*
X9931637D01*
X9948298D01*
X9964959Y9193339D01*
Y9176678D01*
X9948298Y9160016D01*
X9914976D01*
X9898314Y9176678D01*
X11703339Y8479984D02*
X11670016D01*
X11686677D01*
Y8396677D01*
X11670016Y8380016D01*
X11653355D01*
X11636694Y8396677D01*
X11736661Y8479984D02*
X11803306D01*
Y8463322D01*
X11736661Y8396677D01*
Y8380016D01*
X11223339Y5359984D02*
X11190016D01*
X11206678D01*
Y5276678D01*
X11190016Y5260016D01*
X11173355D01*
X11156694Y5276678D01*
X11323307Y5260016D02*
X11256662D01*
X11323307Y5326661D01*
Y5343323D01*
X11306645Y5359984D01*
X11273323D01*
X11256662Y5343323D01*
X15185016Y7000040D02*
Y7066685D01*
X15201677D01*
X15268323Y7000040D01*
X15284984D01*
Y7066685D01*
Y7100008D02*
Y7133331D01*
Y7116670D01*
X15185016D01*
X15201677Y7100008D01*
Y7183315D02*
X15185016Y7199976D01*
Y7233298D01*
X15201677Y7249960D01*
X15268323D01*
X15284984Y7233298D01*
Y7199976D01*
X15268323Y7183315D01*
X15201677D01*
X15185016Y9041694D02*
Y9108339D01*
X15201677D01*
X15268323Y9041694D01*
X15284984D01*
Y9108339D01*
X15268323Y9141662D02*
X15284984Y9158323D01*
Y9191646D01*
X15268323Y9208307D01*
X15201677D01*
X15185016Y9191646D01*
Y9158323D01*
X15201677Y9141662D01*
X15218340D01*
X15235001Y9158323D01*
Y9208307D01*
X15185016Y6641694D02*
Y6708339D01*
X15201677D01*
X15268323Y6641694D01*
X15284984D01*
Y6708339D01*
X15201677Y6741661D02*
X15185016Y6758323D01*
Y6791645D01*
X15201677Y6808306D01*
X15218340D01*
X15235001Y6791645D01*
X15251662Y6808306D01*
X15268323D01*
X15284984Y6791645D01*
Y6758323D01*
X15268323Y6741661D01*
X15251662D01*
X15235001Y6758323D01*
X15218340Y6741661D01*
X15201677D01*
X15235001Y6758323D02*
Y6791645D01*
X15185016Y8641694D02*
Y8708339D01*
X15201677D01*
X15268323Y8641694D01*
X15284984D01*
Y8708339D01*
X15185016Y8741661D02*
Y8808306D01*
X15201677D01*
X15268323Y8741661D01*
X15284984D01*
X15185016Y6241694D02*
Y6308339D01*
X15201677D01*
X15268323Y6241694D01*
X15284984D01*
Y6308339D01*
X15185016Y6408307D02*
X15201677Y6374984D01*
X15235001Y6341662D01*
X15268323D01*
X15284984Y6358323D01*
Y6391646D01*
X15268323Y6408307D01*
X15251662D01*
X15235001Y6391646D01*
Y6341662D01*
X15185016Y8241693D02*
Y8308338D01*
X15201677D01*
X15268323Y8241693D01*
X15284984D01*
Y8308338D01*
X15185016Y8408306D02*
Y8341661D01*
X15235001D01*
X15218340Y8374984D01*
Y8391645D01*
X15235001Y8408306D01*
X15268323D01*
X15284984Y8391645D01*
Y8358323D01*
X15268323Y8341661D01*
X15185016Y5841694D02*
Y5908339D01*
X15201677D01*
X15268323Y5841694D01*
X15284984D01*
Y5908339D01*
Y5991645D02*
X15185016D01*
X15235001Y5941661D01*
Y6008307D01*
X15185016Y7841694D02*
Y7908339D01*
X15201677D01*
X15268323Y7841694D01*
X15284984D01*
Y7908339D01*
X15201677Y7941662D02*
X15185016Y7958323D01*
Y7991645D01*
X15201677Y8008307D01*
X15218340D01*
X15235001Y7991645D01*
Y7974984D01*
Y7991645D01*
X15251662Y8008307D01*
X15268323D01*
X15284984Y7991645D01*
Y7958323D01*
X15268323Y7941662D01*
X15185014Y5441694D02*
Y5508339D01*
X15201677D01*
X15268323Y5441694D01*
X15284982D01*
Y5508339D01*
Y5608307D02*
Y5541662D01*
X15218338Y5608307D01*
X15201677D01*
X15185014Y5591645D01*
Y5558323D01*
X15201677Y5541662D01*
X15185016Y7458355D02*
Y7525000D01*
X15201677D01*
X15268323Y7458355D01*
X15284984D01*
Y7525000D01*
Y7558322D02*
Y7591645D01*
Y7574984D01*
X15185016D01*
X15201677Y7558322D01*
X14656709Y6930016D02*
Y7029984D01*
X14706693D01*
X14723355Y7013323D01*
Y6980000D01*
X14706693Y6963339D01*
X14656709D01*
X14690031D02*
X14723355Y6930016D01*
X14823322Y7029984D02*
X14756677D01*
Y6980000D01*
X14789999Y6996661D01*
X14806660D01*
X14823322Y6980000D01*
Y6946677D01*
X14806660Y6930016D01*
X14773338D01*
X14756677Y6946677D01*
X14923289Y7029984D02*
X14889967Y7013323D01*
X14856645Y6980000D01*
Y6946677D01*
X14873306Y6930016D01*
X14906628D01*
X14923289Y6946677D01*
Y6963339D01*
X14906628Y6980000D01*
X14856645D01*
X14654210Y7227516D02*
Y7327484D01*
X14704195D01*
X14720856Y7310823D01*
Y7277500D01*
X14704195Y7260839D01*
X14654210D01*
X14687532D02*
X14720856Y7227516D01*
X14820824Y7327484D02*
X14754178D01*
Y7277500D01*
X14787500Y7294161D01*
X14804161D01*
X14820824Y7277500D01*
Y7244178D01*
X14804161Y7227516D01*
X14770839D01*
X14754178Y7244178D01*
X14920790Y7327484D02*
X14854144D01*
Y7277500D01*
X14887468Y7294161D01*
X14904129D01*
X14920790Y7277500D01*
Y7244178D01*
X14904129Y7227516D01*
X14870807D01*
X14854144Y7244178D01*
X14651132Y8975255D02*
Y9075223D01*
X14701115D01*
X14717776Y9058561D01*
Y9025239D01*
X14701115Y9008577D01*
X14651132D01*
X14684454D02*
X14717776Y8975255D01*
X14817744Y9075223D02*
X14751100D01*
Y9025239D01*
X14784422Y9041900D01*
X14801083D01*
X14817744Y9025239D01*
Y8991916D01*
X14801083Y8975255D01*
X14767761D01*
X14751100Y8991916D01*
X14901051Y8975255D02*
Y9075223D01*
X14851068Y9025239D01*
X14917712D01*
X16622484Y6991710D02*
X16522516D01*
Y7041694D01*
X16539177Y7058355D01*
X16572501D01*
X16589162Y7041694D01*
Y6991710D01*
Y7025032D02*
X16622484Y7058355D01*
X16522516Y7158322D02*
Y7091677D01*
X16572501D01*
X16555840Y7125000D01*
Y7141661D01*
X16572501Y7158322D01*
X16605823D01*
X16622484Y7141661D01*
Y7108339D01*
X16605823Y7091677D01*
X16539177Y7191645D02*
X16522516Y7208307D01*
Y7241629D01*
X16539177Y7258290D01*
X16555840D01*
X16572501Y7241629D01*
Y7224968D01*
Y7241629D01*
X16589162Y7258290D01*
X16605823D01*
X16622484Y7241629D01*
Y7208307D01*
X16605823Y7191645D01*
X14652646Y9175771D02*
Y9275738D01*
X14702631D01*
X14719292Y9259077D01*
Y9225754D01*
X14702631Y9209093D01*
X14652646D01*
X14685970D02*
X14719292Y9175771D01*
X14819260Y9275738D02*
X14752614D01*
Y9225754D01*
X14785936Y9242416D01*
X14802599D01*
X14819260Y9225754D01*
Y9192432D01*
X14802599Y9175771D01*
X14769275D01*
X14752614Y9192432D01*
X14919228Y9175771D02*
X14852582D01*
X14919228Y9242416D01*
Y9259077D01*
X14902567Y9275738D01*
X14869243D01*
X14852582Y9259077D01*
X16624985Y8991709D02*
X16525015D01*
Y9041693D01*
X16541676Y9058355D01*
X16575000D01*
X16591661Y9041693D01*
Y8991709D01*
Y9025032D02*
X16624985Y9058355D01*
X16525015Y9158322D02*
Y9091677D01*
X16575000D01*
X16558337Y9125000D01*
Y9141661D01*
X16575000Y9158322D01*
X16608322D01*
X16624985Y9141661D01*
Y9108339D01*
X16608322Y9091677D01*
X16541676Y9191645D02*
X16525015Y9208306D01*
Y9241629D01*
X16541676Y9258290D01*
X16608322D01*
X16624985Y9241629D01*
Y9208306D01*
X16608322Y9191645D01*
X16541676D01*
X14652478Y6748134D02*
Y6848102D01*
X14702461D01*
X14719122Y6831440D01*
Y6798118D01*
X14702461Y6781457D01*
X14652478D01*
X14685802D02*
X14719122Y6748134D01*
X14802431D02*
Y6848102D01*
X14752446Y6798118D01*
X14819090D01*
X14852414Y6764795D02*
X14869075Y6748134D01*
X14902399D01*
X14919060Y6764795D01*
Y6831440D01*
X14902399Y6848102D01*
X14869075D01*
X14852414Y6831440D01*
Y6814779D01*
X14869075Y6798118D01*
X14919060D01*
X14652646Y8580276D02*
Y8680243D01*
X14702631D01*
X14719292Y8663582D01*
Y8630260D01*
X14702631Y8613598D01*
X14652646D01*
X14685970D02*
X14719292Y8580276D01*
X14802599D02*
Y8680243D01*
X14752614Y8630260D01*
X14819260D01*
X14852582Y8663582D02*
X14869243Y8680243D01*
X14902567D01*
X14919228Y8663582D01*
Y8646921D01*
X14902567Y8630260D01*
X14919228Y8613598D01*
Y8596937D01*
X14902567Y8580276D01*
X14869243D01*
X14852582Y8596937D01*
Y8613598D01*
X14869243Y8630260D01*
X14852582Y8646921D01*
Y8663582D01*
X14869243Y8630260D02*
X14902567D01*
X16624985Y6591709D02*
X16525015D01*
Y6641693D01*
X16541676Y6658354D01*
X16575000D01*
X16591661Y6641693D01*
Y6591709D01*
Y6625032D02*
X16624985Y6658354D01*
Y6741661D02*
X16525015D01*
X16575000Y6691677D01*
Y6758322D01*
X16525015Y6791645D02*
Y6858290D01*
X16541676D01*
X16608322Y6791645D01*
X16624985D01*
X14648106Y8795925D02*
Y8895893D01*
X14698090D01*
X14714751Y8879231D01*
Y8845909D01*
X14698090Y8829247D01*
X14648106D01*
X14681429D02*
X14714751Y8795925D01*
X14798058D02*
Y8895893D01*
X14748073Y8845909D01*
X14814719D01*
X14914687Y8895893D02*
X14881364Y8879231D01*
X14848041Y8845909D01*
Y8812586D01*
X14864703Y8795925D01*
X14898026D01*
X14914687Y8812586D01*
Y8829247D01*
X14898026Y8845909D01*
X14848041D01*
X16624985Y8591710D02*
X16525015D01*
Y8641693D01*
X16541676Y8658355D01*
X16575000D01*
X16591661Y8641693D01*
Y8591710D01*
Y8625032D02*
X16624985Y8658355D01*
Y8741661D02*
X16525015D01*
X16575000Y8691677D01*
Y8758322D01*
X16624985Y8841629D02*
X16525015D01*
X16575000Y8791645D01*
Y8858290D01*
X14656709Y6370016D02*
Y6469984D01*
X14706693D01*
X14723355Y6453323D01*
Y6420000D01*
X14706693Y6403339D01*
X14656709D01*
X14690031D02*
X14723355Y6370016D01*
X14806660D02*
Y6469984D01*
X14756677Y6420000D01*
X14823322D01*
X14856645Y6453323D02*
X14873306Y6469984D01*
X14906628D01*
X14923289Y6453323D01*
Y6436661D01*
X14906628Y6420000D01*
X14889967D01*
X14906628D01*
X14923289Y6403339D01*
Y6386678D01*
X14906628Y6370016D01*
X14873306D01*
X14856645Y6386678D01*
X16624985Y6208371D02*
X16525015D01*
Y6258355D01*
X16541676Y6275016D01*
X16575000D01*
X16591661Y6258355D01*
Y6208371D01*
Y6241693D02*
X16624985Y6275016D01*
Y6358323D02*
X16525015D01*
X16575000Y6308339D01*
Y6374984D01*
X16624985Y6408306D02*
Y6441629D01*
Y6424968D01*
X16525015D01*
X16541676Y6408306D01*
X14651711Y8375016D02*
Y8474984D01*
X14701694D01*
X14718355Y8458322D01*
Y8425000D01*
X14701694Y8408339D01*
X14651711D01*
X14685033D02*
X14718355Y8375016D01*
X14801662D02*
Y8474984D01*
X14751677Y8425000D01*
X14818323D01*
X14851645Y8458322D02*
X14868307Y8474984D01*
X14901630D01*
X14918291Y8458322D01*
Y8391677D01*
X14901630Y8375016D01*
X14868307D01*
X14851645Y8391677D01*
Y8458322D01*
X16622420Y8191704D02*
X16522452D01*
Y8241688D01*
X16539113Y8258349D01*
X16572437D01*
X16589098Y8241688D01*
Y8191704D01*
Y8225026D02*
X16622420Y8258349D01*
X16539113Y8291672D02*
X16522452Y8308333D01*
Y8341655D01*
X16539113Y8358317D01*
X16555775D01*
X16572437Y8341655D01*
Y8324994D01*
Y8341655D01*
X16589098Y8358317D01*
X16605759D01*
X16622420Y8341655D01*
Y8308333D01*
X16605759Y8291672D01*
X16539113Y8391639D02*
X16522452Y8408301D01*
Y8441623D01*
X16539113Y8458284D01*
X16555775D01*
X16572437Y8441623D01*
X16589098Y8458284D01*
X16605759D01*
X16622420Y8441623D01*
Y8408301D01*
X16605759Y8391639D01*
X16589098D01*
X16572437Y8408301D01*
X16555775Y8391639D01*
X16539113D01*
X16572437Y8408301D02*
Y8441623D01*
X14656709Y5980016D02*
Y6079984D01*
X14706693D01*
X14723355Y6063322D01*
Y6030000D01*
X14706693Y6013338D01*
X14656709D01*
X14690031D02*
X14723355Y5980016D01*
X14756677Y6063322D02*
X14773338Y6079984D01*
X14806660D01*
X14823322Y6063322D01*
Y6046661D01*
X14806660Y6030000D01*
X14789999D01*
X14806660D01*
X14823322Y6013338D01*
Y5996677D01*
X14806660Y5980016D01*
X14773338D01*
X14756677Y5996677D01*
X14856645Y6079984D02*
X14923289D01*
Y6063322D01*
X14856645Y5996677D01*
Y5980016D01*
X16624985Y5791709D02*
X16525015D01*
Y5841693D01*
X16541676Y5858354D01*
X16575000D01*
X16591661Y5841693D01*
Y5791709D01*
Y5825032D02*
X16624985Y5858354D01*
X16541676Y5891677D02*
X16525015Y5908338D01*
Y5941661D01*
X16541676Y5958322D01*
X16558337D01*
X16575000Y5941661D01*
Y5925000D01*
Y5941661D01*
X16591661Y5958322D01*
X16608322D01*
X16624985Y5941661D01*
Y5908338D01*
X16608322Y5891677D01*
X16525015Y6058290D02*
Y5991645D01*
X16575000D01*
X16558337Y6024967D01*
Y6041629D01*
X16575000Y6058290D01*
X16608322D01*
X16624985Y6041629D01*
Y6008306D01*
X16608322Y5991645D01*
X14654210Y7975016D02*
Y8074984D01*
X14704195D01*
X14720856Y8058322D01*
Y8025000D01*
X14704195Y8008339D01*
X14654210D01*
X14687532D02*
X14720856Y7975016D01*
X14754178Y8058322D02*
X14770839Y8074984D01*
X14804161D01*
X14820824Y8058322D01*
Y8041661D01*
X14804161Y8025000D01*
X14787500D01*
X14804161D01*
X14820824Y8008339D01*
Y7991677D01*
X14804161Y7975016D01*
X14770839D01*
X14754178Y7991677D01*
X14904129Y7975016D02*
Y8074984D01*
X14854144Y8025000D01*
X14920790D01*
X16624985Y7791710D02*
X16525015D01*
Y7841694D01*
X16541676Y7858355D01*
X16575000D01*
X16591661Y7841694D01*
Y7791710D01*
Y7825033D02*
X16624985Y7858355D01*
X16541676Y7891678D02*
X16525015Y7908339D01*
Y7941662D01*
X16541676Y7958323D01*
X16558337D01*
X16575000Y7941662D01*
Y7925000D01*
Y7941662D01*
X16591661Y7958323D01*
X16608322D01*
X16624985Y7941662D01*
Y7908339D01*
X16608322Y7891678D01*
X16624985Y8058291D02*
Y7991646D01*
X16558337Y8058291D01*
X16541676D01*
X16525015Y8041630D01*
Y8008307D01*
X16541676Y7991646D01*
X14683371Y5580016D02*
Y5679984D01*
X14733356D01*
X14750015Y5663322D01*
Y5630000D01*
X14733356Y5613339D01*
X14683371D01*
X14716695D02*
X14750015Y5580016D01*
X14783339Y5663322D02*
X14800000Y5679984D01*
X14833324D01*
X14849985Y5663322D01*
Y5646661D01*
X14833324Y5630000D01*
X14816663D01*
X14833324D01*
X14849985Y5613339D01*
Y5596677D01*
X14833324Y5580016D01*
X14800000D01*
X14783339Y5596677D01*
X14883307Y5580016D02*
X14916629D01*
X14899968D01*
Y5679984D01*
X14883307Y5663322D01*
X16622484Y5391709D02*
X16522516D01*
Y5441693D01*
X16539177Y5458354D01*
X16572501D01*
X16589162Y5441693D01*
Y5391709D01*
Y5425032D02*
X16622484Y5458354D01*
Y5558322D02*
Y5491677D01*
X16555840Y5558322D01*
X16539177D01*
X16522516Y5541661D01*
Y5508338D01*
X16539177Y5491677D01*
X16605823Y5591645D02*
X16622484Y5608306D01*
Y5641629D01*
X16605823Y5658290D01*
X16539177D01*
X16522516Y5641629D01*
Y5608306D01*
X16539177Y5591645D01*
X16555840D01*
X16572501Y5608306D01*
Y5658290D01*
X14651711Y7572516D02*
Y7672484D01*
X14701694D01*
X14718355Y7655823D01*
Y7622500D01*
X14701694Y7605839D01*
X14651711D01*
X14685033D02*
X14718355Y7572516D01*
X14818323D02*
X14751677D01*
X14818323Y7639161D01*
Y7655823D01*
X14801662Y7672484D01*
X14768340D01*
X14751677Y7655823D01*
X14851645D02*
X14868307Y7672484D01*
X14901630D01*
X14918291Y7655823D01*
Y7639161D01*
X14901630Y7622500D01*
X14918291Y7605839D01*
Y7589178D01*
X14901630Y7572516D01*
X14868307D01*
X14851645Y7589178D01*
Y7605839D01*
X14868307Y7622500D01*
X14851645Y7639161D01*
Y7655823D01*
X14868307Y7622500D02*
X14901630D01*
X16624985Y7391710D02*
X16525015D01*
Y7441694D01*
X16541676Y7458355D01*
X16575000D01*
X16591661Y7441694D01*
Y7391710D01*
Y7425032D02*
X16624985Y7458355D01*
Y7558323D02*
Y7491678D01*
X16558337Y7558323D01*
X16541676D01*
X16525015Y7541662D01*
Y7508339D01*
X16541676Y7491678D01*
X16525015Y7658290D02*
X16541676Y7624968D01*
X16575000Y7591645D01*
X16608322D01*
X16624985Y7608307D01*
Y7641629D01*
X16608322Y7658290D01*
X16591661D01*
X16575000Y7641629D01*
Y7591645D01*
X15766685Y7291677D02*
Y7358322D01*
X15750024Y7374984D01*
X15716702D01*
X15700040Y7358322D01*
Y7291677D01*
X15716702Y7275016D01*
X15750024D01*
X15733363Y7308338D02*
X15766685Y7275016D01*
X15750024D02*
X15766685Y7291677D01*
X15800008Y7275016D02*
X15833331D01*
X15816669D01*
Y7374984D01*
X15800008Y7358322D01*
X15933298Y7275016D02*
Y7374984D01*
X15883315Y7325000D01*
X15949959D01*
X15541685Y9341678D02*
Y9408323D01*
X15525024Y9424984D01*
X15491702D01*
X15475040Y9408323D01*
Y9341678D01*
X15491702Y9325016D01*
X15525024D01*
X15508363Y9358339D02*
X15541685Y9325016D01*
X15525024D02*
X15541685Y9341678D01*
X15575008Y9325016D02*
X15608331D01*
X15591670D01*
Y9424984D01*
X15575008Y9408323D01*
X15658315D02*
X15674976Y9424984D01*
X15708299D01*
X15724960Y9408323D01*
Y9391661D01*
X15708299Y9375000D01*
X15691637D01*
X15708299D01*
X15724960Y9358339D01*
Y9341678D01*
X15708299Y9325016D01*
X15674976D01*
X15658315Y9341678D01*
X15766685Y6891677D02*
Y6958322D01*
X15750024Y6974984D01*
X15716702D01*
X15700040Y6958322D01*
Y6891677D01*
X15716702Y6875016D01*
X15750024D01*
X15733363Y6908338D02*
X15766685Y6875016D01*
X15750024D02*
X15766685Y6891677D01*
X15800008Y6875016D02*
X15833331D01*
X15816669D01*
Y6974984D01*
X15800008Y6958322D01*
X15949959Y6875016D02*
X15883315D01*
X15949959Y6941661D01*
Y6958322D01*
X15933298Y6974984D01*
X15899976D01*
X15883315Y6958322D01*
X15783347Y8891677D02*
Y8958322D01*
X15766685Y8974984D01*
X15733363D01*
X15716702Y8958322D01*
Y8891677D01*
X15733363Y8875016D01*
X15766685D01*
X15750024Y8908339D02*
X15783347Y8875016D01*
X15766685D02*
X15783347Y8891677D01*
X15816669Y8875016D02*
X15849992D01*
X15833331D01*
Y8974984D01*
X15816669Y8958322D01*
X15899976Y8875016D02*
X15933298D01*
X15916637D01*
Y8974984D01*
X15899976Y8958322D01*
X15766685Y6491677D02*
Y6558322D01*
X15750024Y6574984D01*
X15716702D01*
X15700040Y6558322D01*
Y6491677D01*
X15716702Y6475016D01*
X15750024D01*
X15733363Y6508339D02*
X15766685Y6475016D01*
X15750024D02*
X15766685Y6491677D01*
X15800008Y6475016D02*
X15833331D01*
X15816669D01*
Y6574984D01*
X15800008Y6558322D01*
X15883315D02*
X15899976Y6574984D01*
X15933298D01*
X15949959Y6558322D01*
Y6491677D01*
X15933298Y6475016D01*
X15899976D01*
X15883315Y6491677D01*
Y6558322D01*
X15783339Y8491677D02*
Y8558322D01*
X15766676Y8574984D01*
X15733356D01*
X15716693Y8558322D01*
Y8491677D01*
X15733356Y8475016D01*
X15766676D01*
X15750015Y8508339D02*
X15783339Y8475016D01*
X15766676D02*
X15783339Y8491677D01*
X15816661D02*
X15833324Y8475016D01*
X15866644D01*
X15883305Y8491677D01*
Y8558322D01*
X15866644Y8574984D01*
X15833324D01*
X15816661Y8558322D01*
Y8541661D01*
X15833324Y8525000D01*
X15883305D01*
X15783339Y6091677D02*
Y6158322D01*
X15766676Y6174984D01*
X15733356D01*
X15716693Y6158322D01*
Y6091677D01*
X15733356Y6075016D01*
X15766676D01*
X15750015Y6108339D02*
X15783339Y6075016D01*
X15766676D02*
X15783339Y6091677D01*
X15816661Y6158322D02*
X15833324Y6174984D01*
X15866644D01*
X15883305Y6158322D01*
Y6141661D01*
X15866644Y6125000D01*
X15883305Y6108339D01*
Y6091677D01*
X15866644Y6075016D01*
X15833324D01*
X15816661Y6091677D01*
Y6108339D01*
X15833324Y6125000D01*
X15816661Y6141661D01*
Y6158322D01*
X15833324Y6125000D02*
X15866644D01*
X15783339Y8091677D02*
Y8158323D01*
X15766676Y8174984D01*
X15733356D01*
X15716693Y8158323D01*
Y8091677D01*
X15733356Y8075016D01*
X15766676D01*
X15750015Y8108339D02*
X15783339Y8075016D01*
X15766676D02*
X15783339Y8091677D01*
X15816661Y8174984D02*
X15883305D01*
Y8158323D01*
X15816661Y8091677D01*
Y8075016D01*
X15608339Y5241677D02*
Y5308322D01*
X15591676Y5324984D01*
X15558356D01*
X15541695Y5308322D01*
Y5241677D01*
X15558356Y5225016D01*
X15591676D01*
X15575015Y5258338D02*
X15608339Y5225016D01*
X15591676D02*
X15608339Y5241677D01*
X15708305Y5324984D02*
X15674985Y5308322D01*
X15641661Y5275000D01*
Y5241677D01*
X15658324Y5225016D01*
X15691644D01*
X15708305Y5241677D01*
Y5258338D01*
X15691644Y5275000D01*
X15641661D01*
X15783339Y7691678D02*
Y7758323D01*
X15766676Y7774984D01*
X15733356D01*
X15716693Y7758323D01*
Y7691678D01*
X15733356Y7675016D01*
X15766676D01*
X15750015Y7708339D02*
X15783339Y7675016D01*
X15766676D02*
X15783339Y7691678D01*
X15883305Y7774984D02*
X15816661D01*
Y7725000D01*
X15849985Y7741661D01*
X15866644D01*
X15883305Y7725000D01*
Y7691678D01*
X15866644Y7675016D01*
X15833324D01*
X15816661Y7691678D01*
X14276677Y7013355D02*
X14260016Y6996694D01*
Y6963371D01*
X14276677Y6946710D01*
X14343323D01*
X14359984Y6963371D01*
Y6996694D01*
X14343323Y7013355D01*
X14359984Y7113323D02*
Y7046678D01*
X14293340Y7113323D01*
X14276677D01*
X14260016Y7096662D01*
Y7063339D01*
X14276677Y7046678D01*
Y7146646D02*
X14260016Y7163307D01*
Y7196629D01*
X14276677Y7213291D01*
X14293340D01*
X14310001Y7196629D01*
X14326662Y7213291D01*
X14343323D01*
X14359984Y7196629D01*
Y7163307D01*
X14343323Y7146646D01*
X14326662D01*
X14310001Y7163307D01*
X14293340Y7146646D01*
X14276677D01*
X14310001Y7163307D02*
Y7196629D01*
X17238338Y8774984D02*
X17205016D01*
X17221677D01*
Y8691677D01*
X17205016Y8675016D01*
X17188354D01*
X17171693Y8691677D01*
X17321645Y8675016D02*
Y8774984D01*
X17271661Y8725000D01*
X17338306D01*
X12691310Y6360216D02*
Y6460184D01*
X12741294D01*
X12757955Y6443523D01*
Y6410200D01*
X12741294Y6393539D01*
X12691310D01*
X12724633D02*
X12757955Y6360216D01*
X12857922D02*
X12791278D01*
X12857922Y6426861D01*
Y6443523D01*
X12841261Y6460184D01*
X12807941D01*
X12791278Y6443523D01*
X12941229Y6360216D02*
Y6460184D01*
X12891246Y6410200D01*
X12957890D01*
X12931310Y6210216D02*
Y6310184D01*
X12981294D01*
X12997955Y6293523D01*
Y6260200D01*
X12981294Y6243539D01*
X12931310D01*
X12964633D02*
X12997955Y6210216D01*
X13097923D02*
X13031277D01*
X13097923Y6276861D01*
Y6293523D01*
X13081262Y6310184D01*
X13047940D01*
X13031277Y6293523D01*
X13131245D02*
X13147906Y6310184D01*
X13181230D01*
X13197891Y6293523D01*
Y6276861D01*
X13181230Y6260200D01*
X13164569D01*
X13181230D01*
X13197891Y6243539D01*
Y6226878D01*
X13181230Y6210216D01*
X13147906D01*
X13131245Y6226878D01*
X12100911Y6405416D02*
Y6505384D01*
X12150895D01*
X12167556Y6488723D01*
Y6455400D01*
X12150895Y6438739D01*
X12100911D01*
X12134233D02*
X12167556Y6405416D01*
X12267524D02*
X12200879D01*
X12267524Y6472061D01*
Y6488723D01*
X12250862Y6505384D01*
X12217540D01*
X12200879Y6488723D01*
X12367491Y6405416D02*
X12300846D01*
X12367491Y6472061D01*
Y6488723D01*
X12350830Y6505384D01*
X12317508D01*
X12300846Y6488723D01*
X10959984Y6605040D02*
X10860016D01*
Y6655024D01*
X10876677Y6671685D01*
X10910000D01*
X10926661Y6655024D01*
Y6605040D01*
Y6638363D02*
X10959984Y6671685D01*
Y6705008D02*
Y6738330D01*
Y6721669D01*
X10860016D01*
X10876677Y6705008D01*
X10860016Y6854959D02*
X10876677Y6821637D01*
X10910000Y6788314D01*
X10943322D01*
X10959984Y6804976D01*
Y6838298D01*
X10943322Y6854959D01*
X10926661D01*
X10910000Y6838298D01*
Y6788314D01*
X10789984Y6605040D02*
X10690016D01*
Y6655024D01*
X10706678Y6671685D01*
X10740000D01*
X10756661Y6655024D01*
Y6605040D01*
Y6638363D02*
X10789984Y6671685D01*
Y6705008D02*
Y6738331D01*
Y6721670D01*
X10690016D01*
X10706678Y6705008D01*
X10690016Y6854960D02*
Y6788315D01*
X10740000D01*
X10723339Y6821637D01*
Y6838298D01*
X10740000Y6854960D01*
X10773323D01*
X10789984Y6838298D01*
Y6804976D01*
X10773323Y6788315D01*
X14025040Y9095016D02*
Y9194984D01*
X14075024D01*
X14091685Y9178323D01*
Y9145000D01*
X14075024Y9128339D01*
X14025040D01*
X14058363D02*
X14091685Y9095016D01*
X14125008D02*
X14158331D01*
X14141669D01*
Y9194984D01*
X14125008Y9178323D01*
X14258298Y9095016D02*
Y9194984D01*
X14208315Y9145000D01*
X14274960D01*
X13725040Y8350016D02*
Y8449984D01*
X13775024D01*
X13791685Y8433322D01*
Y8400000D01*
X13775024Y8383339D01*
X13725040D01*
X13758363D02*
X13791685Y8350016D01*
X13825008D02*
X13858331D01*
X13841670D01*
Y8449984D01*
X13825008Y8433322D01*
X13908315D02*
X13924976Y8449984D01*
X13958298D01*
X13974960Y8433322D01*
Y8416661D01*
X13958298Y8400000D01*
X13941637D01*
X13958298D01*
X13974960Y8383339D01*
Y8366677D01*
X13958298Y8350016D01*
X13924976D01*
X13908315Y8366677D01*
X13005040Y8470016D02*
Y8569984D01*
X13055025D01*
X13071684Y8553322D01*
Y8520000D01*
X13055025Y8503339D01*
X13005040D01*
X13038364D02*
X13071684Y8470016D01*
X13105008D02*
X13138332D01*
X13121669D01*
Y8569984D01*
X13105008Y8553322D01*
X13254961Y8470016D02*
X13188313D01*
X13254961Y8536661D01*
Y8553322D01*
X13238298Y8569984D01*
X13204976D01*
X13188313Y8553322D01*
X14654210Y8202516D02*
Y8302484D01*
X14704195D01*
X14720856Y8285822D01*
Y8252500D01*
X14704195Y8235838D01*
X14654210D01*
X14687532D02*
X14720856Y8202516D01*
X14804161D02*
Y8302484D01*
X14754178Y8252500D01*
X14820824D01*
X14920790Y8202516D02*
X14854144D01*
X14920790Y8269161D01*
Y8285822D01*
X14904129Y8302484D01*
X14870807D01*
X14854144Y8285822D01*
X14683371Y6575016D02*
Y6674984D01*
X14733356D01*
X14750015Y6658322D01*
Y6625000D01*
X14733356Y6608339D01*
X14683371D01*
X14716695D02*
X14750015Y6575016D01*
X14849985Y6674984D02*
X14783339D01*
Y6625000D01*
X14816663Y6641661D01*
X14833324D01*
X14849985Y6625000D01*
Y6591677D01*
X14833324Y6575016D01*
X14800000D01*
X14783339Y6591677D01*
X14883307Y6575016D02*
X14916629D01*
X14899968D01*
Y6674984D01*
X14883307Y6658322D01*
X12099984Y8131702D02*
X12000016D01*
Y8181686D01*
X12016678Y8198347D01*
X12050000D01*
X12066661Y8181686D01*
Y8131702D01*
Y8165024D02*
X12099984Y8198347D01*
Y8231670D02*
Y8264992D01*
Y8248331D01*
X12000016D01*
X12016678Y8231670D01*
X12099984Y8314976D02*
Y8348299D01*
Y8331637D01*
X12000016D01*
X12016678Y8314976D01*
X12319984Y8125040D02*
X12220016D01*
Y8175024D01*
X12236678Y8191685D01*
X12270000D01*
X12286661Y8175024D01*
Y8125040D01*
Y8158363D02*
X12319984Y8191685D01*
Y8225008D02*
Y8258331D01*
Y8241670D01*
X12220016D01*
X12236678Y8225008D01*
Y8308315D02*
X12220016Y8324976D01*
Y8358298D01*
X12236678Y8374960D01*
X12303323D01*
X12319984Y8358298D01*
Y8324976D01*
X12303323Y8308315D01*
X12236678D01*
X14654210Y7775016D02*
Y7874984D01*
X14704195D01*
X14720856Y7858323D01*
Y7825000D01*
X14704195Y7808339D01*
X14654210D01*
X14687532D02*
X14720856Y7775016D01*
X14754178Y7858323D02*
X14770839Y7874984D01*
X14804161D01*
X14820824Y7858323D01*
Y7841661D01*
X14804161Y7825000D01*
X14787500D01*
X14804161D01*
X14820824Y7808339D01*
Y7791678D01*
X14804161Y7775016D01*
X14770839D01*
X14754178Y7791678D01*
X14920790Y7874984D02*
X14887468Y7858323D01*
X14854144Y7825000D01*
Y7791678D01*
X14870807Y7775016D01*
X14904129D01*
X14920790Y7791678D01*
Y7808339D01*
X14904129Y7825000D01*
X14854144D01*
X13601694Y7610016D02*
Y7709984D01*
X13651678D01*
X13668340Y7693322D01*
Y7660000D01*
X13651678Y7643338D01*
X13601694D01*
X13635016D02*
X13668340Y7610016D01*
X13701662Y7626677D02*
X13718323Y7610016D01*
X13751645D01*
X13768306Y7626677D01*
Y7693322D01*
X13751645Y7709984D01*
X13718323D01*
X13701662Y7693322D01*
Y7676661D01*
X13718323Y7660000D01*
X13768306D01*
X14656709Y6170016D02*
Y6269984D01*
X14706693D01*
X14723355Y6253323D01*
Y6220000D01*
X14706693Y6203339D01*
X14656709D01*
X14690031D02*
X14723355Y6170016D01*
X14806660D02*
Y6269984D01*
X14756677Y6220000D01*
X14823322D01*
X14923289Y6269984D02*
X14856645D01*
Y6220000D01*
X14889967Y6236661D01*
X14906628D01*
X14923289Y6220000D01*
Y6186677D01*
X14906628Y6170016D01*
X14873306D01*
X14856645Y6186677D01*
X14654210Y7375016D02*
Y7474984D01*
X14704195D01*
X14720856Y7458322D01*
Y7425000D01*
X14704195Y7408338D01*
X14654210D01*
X14687532D02*
X14720856Y7375016D01*
X14754178Y7458322D02*
X14770839Y7474984D01*
X14804161D01*
X14820824Y7458322D01*
Y7441661D01*
X14804161Y7425000D01*
X14787500D01*
X14804161D01*
X14820824Y7408338D01*
Y7391677D01*
X14804161Y7375016D01*
X14770839D01*
X14754178Y7391677D01*
X14854144Y7458322D02*
X14870807Y7474984D01*
X14904129D01*
X14920790Y7458322D01*
Y7391677D01*
X14904129Y7375016D01*
X14870807D01*
X14854144Y7391677D01*
Y7458322D01*
X14074985Y6641694D02*
X13975015D01*
Y6691677D01*
X13991676Y6708339D01*
X14025000D01*
X14041661Y6691677D01*
Y6641694D01*
Y6675016D02*
X14074985Y6708339D01*
X13991676Y6741661D02*
X13975015Y6758323D01*
Y6791645D01*
X13991676Y6808306D01*
X14008339D01*
X14025000Y6791645D01*
X14041661Y6808306D01*
X14058322D01*
X14074985Y6791645D01*
Y6758323D01*
X14058322Y6741661D01*
X14041661D01*
X14025000Y6758323D01*
X14008339Y6741661D01*
X13991676D01*
X14025000Y6758323D02*
Y6791645D01*
X14656709Y5770016D02*
Y5869984D01*
X14706693D01*
X14723355Y5853323D01*
Y5820000D01*
X14706693Y5803339D01*
X14656709D01*
X14690031D02*
X14723355Y5770016D01*
X14756677Y5853323D02*
X14773338Y5869984D01*
X14806660D01*
X14823322Y5853323D01*
Y5836661D01*
X14806660Y5820000D01*
X14789999D01*
X14806660D01*
X14823322Y5803339D01*
Y5786678D01*
X14806660Y5770016D01*
X14773338D01*
X14756677Y5786678D01*
X14856645D02*
X14873306Y5770016D01*
X14906628D01*
X14923289Y5786678D01*
Y5853323D01*
X14906628Y5869984D01*
X14873306D01*
X14856645Y5853323D01*
Y5836661D01*
X14873306Y5820000D01*
X14923289D01*
X12896693Y6470016D02*
Y6569984D01*
X12946677D01*
X12963339Y6553323D01*
Y6520000D01*
X12946677Y6503339D01*
X12896693D01*
X12930016D02*
X12963339Y6470016D01*
X12996661Y6569984D02*
X13063306D01*
Y6553323D01*
X12996661Y6486678D01*
Y6470016D01*
X14651711Y7075016D02*
Y7174984D01*
X14701694D01*
X14718355Y7158322D01*
Y7125000D01*
X14701694Y7108339D01*
X14651711D01*
X14685033D02*
X14718355Y7075016D01*
X14818323D02*
X14751677D01*
X14818323Y7141661D01*
Y7158322D01*
X14801662Y7174984D01*
X14768340D01*
X14751677Y7158322D01*
X14918291Y7174984D02*
X14851645D01*
Y7125000D01*
X14884969Y7141661D01*
X14901630D01*
X14918291Y7125000D01*
Y7091677D01*
X14901630Y7075016D01*
X14868307D01*
X14851645Y7091677D01*
X11456694Y6220016D02*
Y6319984D01*
X11506678D01*
X11523339Y6303322D01*
Y6270000D01*
X11506678Y6253339D01*
X11456694D01*
X11490016D02*
X11523339Y6220016D01*
X11623306Y6319984D02*
X11589984Y6303322D01*
X11556661Y6270000D01*
Y6236677D01*
X11573323Y6220016D01*
X11606645D01*
X11623306Y6236677D01*
Y6253339D01*
X11606645Y6270000D01*
X11556661D01*
X14656892Y5373707D02*
Y5473675D01*
X14706876D01*
X14723537Y5457013D01*
Y5423691D01*
X14706876Y5407030D01*
X14656892D01*
X14690215D02*
X14723537Y5373707D01*
X14756860Y5457013D02*
X14773521Y5473675D01*
X14806844D01*
X14823505Y5457013D01*
Y5440352D01*
X14806844Y5423691D01*
X14790182D01*
X14806844D01*
X14823505Y5407030D01*
Y5390368D01*
X14806844Y5373707D01*
X14773521D01*
X14756860Y5390368D01*
X14856828Y5457013D02*
X14873489Y5473675D01*
X14906812D01*
X14923473Y5457013D01*
Y5440352D01*
X14906812Y5423691D01*
X14890150D01*
X14906812D01*
X14923473Y5407030D01*
Y5390368D01*
X14906812Y5373707D01*
X14873489D01*
X14856828Y5390368D01*
X12636694Y7490016D02*
Y7589984D01*
X12686677D01*
X12703339Y7573322D01*
Y7540000D01*
X12686677Y7523339D01*
X12636694D01*
X12670016D02*
X12703339Y7490016D01*
X12803307Y7589984D02*
X12736661D01*
Y7540000D01*
X12769984Y7556661D01*
X12786645D01*
X12803307Y7540000D01*
Y7506677D01*
X12786645Y7490016D01*
X12753323D01*
X12736661Y7506677D01*
X11799984Y6936694D02*
X11700016D01*
Y6986678D01*
X11716677Y7003339D01*
X11750000D01*
X11766661Y6986678D01*
Y6936694D01*
Y6970016D02*
X11799984Y7003339D01*
Y7086645D02*
X11700016D01*
X11750000Y7036662D01*
Y7103307D01*
X14656892Y5225315D02*
Y5325283D01*
X14706876D01*
X14723537Y5308622D01*
Y5275299D01*
X14706876Y5258638D01*
X14656892D01*
X14690215D02*
X14723537Y5225315D01*
X14823505D02*
X14756860D01*
X14823505Y5291960D01*
Y5308622D01*
X14806844Y5325283D01*
X14773521D01*
X14756860Y5308622D01*
X14856828Y5325283D02*
X14923473D01*
Y5308622D01*
X14856828Y5241977D01*
Y5225315D01*
X10796694Y6230016D02*
Y6329984D01*
X10846678D01*
X10863339Y6313322D01*
Y6280000D01*
X10846678Y6263339D01*
X10796694D01*
X10830016D02*
X10863339Y6230016D01*
X10896661Y6313322D02*
X10913323Y6329984D01*
X10946645D01*
X10963306Y6313322D01*
Y6296661D01*
X10946645Y6280000D01*
X10929984D01*
X10946645D01*
X10963306Y6263339D01*
Y6246677D01*
X10946645Y6230016D01*
X10913323D01*
X10896661Y6246677D01*
X11249194Y6930016D02*
Y7029984D01*
X11299178D01*
X11315839Y7013323D01*
Y6980000D01*
X11299178Y6963339D01*
X11249194D01*
X11282516D02*
X11315839Y6930016D01*
X11415806D02*
X11349161D01*
X11415806Y6996661D01*
Y7013323D01*
X11399145Y7029984D01*
X11365823D01*
X11349161Y7013323D01*
X10219984Y6593355D02*
X10120016D01*
Y6643339D01*
X10136677Y6660000D01*
X10170000D01*
X10186661Y6643339D01*
Y6593355D01*
Y6626677D02*
X10219984Y6660000D01*
Y6693322D02*
Y6726645D01*
Y6709984D01*
X10120016D01*
X10136677Y6693322D01*
X12903339Y9416677D02*
Y9483322D01*
X12886678Y9499984D01*
X12853355D01*
X12836694Y9483322D01*
Y9416677D01*
X12853355Y9400016D01*
X12886678D01*
X12870016Y9433339D02*
X12903339Y9400016D01*
X12886678D02*
X12903339Y9416677D01*
X12936661Y9483322D02*
X12953323Y9499984D01*
X12986646D01*
X13003307Y9483322D01*
Y9466661D01*
X12986646Y9450000D01*
X12969984D01*
X12986646D01*
X13003307Y9433339D01*
Y9416677D01*
X12986646Y9400016D01*
X12953323D01*
X12936661Y9416677D01*
X12863339Y8546678D02*
Y8613323D01*
X12846677Y8629984D01*
X12813354D01*
X12796693Y8613323D01*
Y8546678D01*
X12813354Y8530016D01*
X12846677D01*
X12830016Y8563339D02*
X12863339Y8530016D01*
X12846677D02*
X12863339Y8546678D01*
X12963306Y8530016D02*
X12896661D01*
X12963306Y8596661D01*
Y8613323D01*
X12946645Y8629984D01*
X12913322D01*
X12896661Y8613323D01*
X13320000Y7716677D02*
Y7783323D01*
X13303339Y7799984D01*
X13270016D01*
X13253355Y7783323D01*
Y7716677D01*
X13270016Y7700016D01*
X13303339D01*
X13286678Y7733339D02*
X13320000Y7700016D01*
X13303339D02*
X13320000Y7716677D01*
X13353323Y7700016D02*
X13386646D01*
X13369984D01*
Y7799984D01*
X13353323Y7783323D01*
X12863354Y5489984D02*
Y5390016D01*
X12930000D01*
X12963322D02*
X12996645D01*
X12979984D01*
Y5489984D01*
X12963322Y5473323D01*
X10063339Y9459984D02*
X10030016D01*
X10046677D01*
Y9376677D01*
X10030016Y9360016D01*
X10013355D01*
X9996693Y9376677D01*
X10096661Y9443322D02*
X10113323Y9459984D01*
X10146645D01*
X10163306Y9443322D01*
Y9426661D01*
X10146645Y9410000D01*
X10129984D01*
X10146645D01*
X10163306Y9393339D01*
Y9376677D01*
X10146645Y9360016D01*
X10113323D01*
X10096661Y9376677D01*
X10600000Y5359984D02*
X10566677D01*
X10583339D01*
Y5276678D01*
X10566677Y5260016D01*
X10550016D01*
X10533355Y5276678D01*
X10633323Y5260016D02*
X10666645D01*
X10649984D01*
Y5359984D01*
X10633323Y5343323D01*
X12419641Y6310184D02*
X12452964D01*
X12436303D01*
Y6210216D01*
X12419641D01*
X12452964D01*
X12569593Y6293523D02*
X12552931Y6310184D01*
X12519609D01*
X12502948Y6293523D01*
Y6226878D01*
X12519609Y6210216D01*
X12552931D01*
X12569593Y6226878D01*
X12652899Y6210216D02*
Y6310184D01*
X12602915Y6260200D01*
X12669560D01*
X13135040Y6689984D02*
X13168362D01*
X13151701D01*
Y6590016D01*
X13135040D01*
X13168362D01*
X13284991Y6673322D02*
X13268330Y6689984D01*
X13235008D01*
X13218347Y6673322D01*
Y6606677D01*
X13235008Y6590016D01*
X13268330D01*
X13284991Y6606677D01*
X13384959Y6590016D02*
X13318314D01*
X13384959Y6656661D01*
Y6673322D01*
X13368298Y6689984D01*
X13334976D01*
X13318314Y6673322D01*
X11786693Y5699984D02*
Y5600016D01*
X11836677D01*
X11853338Y5616677D01*
Y5683322D01*
X11836677Y5699984D01*
X11786693D01*
X11953306Y5600016D02*
X11886661D01*
X11953306Y5666661D01*
Y5683322D01*
X11936645Y5699984D01*
X11903323D01*
X11886661Y5683322D01*
X12543355Y8659984D02*
Y8560016D01*
X12593339D01*
X12610000Y8576678D01*
Y8643323D01*
X12593339Y8659984D01*
X12543355D01*
X12643323Y8560016D02*
X12676645D01*
X12659984D01*
Y8659984D01*
X12643323Y8643323D01*
X14074139Y7506608D02*
Y7406640D01*
X14124124D01*
X14140785Y7423301D01*
Y7489946D01*
X14124124Y7506608D01*
X14074139D01*
X14174107Y7489946D02*
X14190768Y7506608D01*
X14224092D01*
X14240753Y7489946D01*
Y7473285D01*
X14224092Y7456624D01*
X14207430D01*
X14224092D01*
X14240753Y7439963D01*
Y7423301D01*
X14224092Y7406640D01*
X14190768D01*
X14174107Y7423301D01*
X13949680Y5530488D02*
Y5430520D01*
X13999664D01*
X14016325Y5447181D01*
Y5513826D01*
X13999664Y5530488D01*
X13949680D01*
X14099632Y5430520D02*
Y5530488D01*
X14049648Y5480504D01*
X14116293D01*
X11883322Y5308315D02*
X11899984Y5324976D01*
Y5358298D01*
X11883322Y5374960D01*
X11816677D01*
X11800016Y5358298D01*
Y5324976D01*
X11816677Y5308315D01*
X11800016Y5274992D02*
Y5241669D01*
Y5258330D01*
X11899984D01*
X11883322Y5274992D01*
X11899984Y5125040D02*
X11883322Y5158363D01*
X11850000Y5191685D01*
X11816677D01*
X11800016Y5175024D01*
Y5141701D01*
X11816677Y5125040D01*
X11833339D01*
X11850000Y5141701D01*
Y5191685D01*
X11859177Y6136686D02*
X11842516Y6120025D01*
Y6086703D01*
X11859177Y6070041D01*
X11925822D01*
X11942484Y6086703D01*
Y6120025D01*
X11925822Y6136686D01*
X11942484Y6170009D02*
Y6203332D01*
Y6186670D01*
X11842516D01*
X11859177Y6170009D01*
X11842516Y6319960D02*
Y6253315D01*
X11892500D01*
X11875839Y6286638D01*
Y6303299D01*
X11892500Y6319960D01*
X11925822D01*
X11942484Y6303299D01*
Y6269977D01*
X11925822Y6253315D01*
X13031277Y5766885D02*
X13014616Y5750224D01*
Y5716901D01*
X13031277Y5700240D01*
X13097923D01*
X13114584Y5716901D01*
Y5750224D01*
X13097923Y5766885D01*
X13114584Y5800208D02*
Y5833530D01*
Y5816869D01*
X13014616D01*
X13031277Y5800208D01*
X13114584Y5933498D02*
X13014616D01*
X13064600Y5883514D01*
Y5950159D01*
X14544646Y9430506D02*
X14527985Y9447168D01*
X14494661D01*
X14478000Y9430506D01*
Y9363861D01*
X14494661Y9347200D01*
X14527985D01*
X14544646Y9363861D01*
X14644614Y9347200D02*
X14577968D01*
X14644614Y9413845D01*
Y9430506D01*
X14627953Y9447168D01*
X14594629D01*
X14577968Y9430506D01*
X14677936Y9447168D02*
X14744582D01*
Y9430506D01*
X14677936Y9363861D01*
Y9347200D01*
X13766685Y8133323D02*
X13750024Y8149984D01*
X13716702D01*
X13700040Y8133323D01*
Y8066678D01*
X13716702Y8050016D01*
X13750024D01*
X13766685Y8066678D01*
X13800008Y8050016D02*
X13833331D01*
X13816670D01*
Y8149984D01*
X13800008Y8133323D01*
X13949960Y8050016D02*
X13883315D01*
X13949960Y8116661D01*
Y8133323D01*
X13933299Y8149984D01*
X13899976D01*
X13883315Y8133323D01*
X13233347Y8008323D02*
X13216685Y8024984D01*
X13183363D01*
X13166702Y8008323D01*
Y7941678D01*
X13183363Y7925016D01*
X13216685D01*
X13233347Y7941678D01*
X13266670Y7925016D02*
X13299992D01*
X13283331D01*
Y8024984D01*
X13266670Y8008323D01*
X13349976Y7925016D02*
X13383299D01*
X13366637D01*
Y8024984D01*
X13349976Y8008323D01*
X14216676Y8788355D02*
X14200015Y8771693D01*
Y8738371D01*
X14216676Y8721710D01*
X14283322D01*
X14299985Y8738371D01*
Y8771693D01*
X14283322Y8788355D01*
X14299985Y8888322D02*
Y8821677D01*
X14233339Y8888322D01*
X14216676D01*
X14200015Y8871661D01*
Y8838339D01*
X14216676Y8821677D01*
X14200015Y8988290D02*
X14216676Y8954968D01*
X14250000Y8921645D01*
X14283322D01*
X14299985Y8938306D01*
Y8971629D01*
X14283322Y8988290D01*
X14266661D01*
X14250000Y8971629D01*
Y8921645D01*
X14341676Y8433354D02*
X14325015Y8416693D01*
Y8383371D01*
X14341676Y8366709D01*
X14408322D01*
X14424983Y8383371D01*
Y8416693D01*
X14408322Y8433354D01*
X14424983Y8533322D02*
Y8466677D01*
X14358337Y8533322D01*
X14341676D01*
X14325015Y8516661D01*
Y8483339D01*
X14341676Y8466677D01*
Y8566645D02*
X14325015Y8583306D01*
Y8616629D01*
X14341676Y8633290D01*
X14358337D01*
X14374998Y8616629D01*
Y8599968D01*
Y8616629D01*
X14391661Y8633290D01*
X14408322D01*
X14424983Y8616629D01*
Y8583306D01*
X14408322Y8566645D01*
X14276678Y6713355D02*
X14260016Y6696693D01*
Y6663371D01*
X14276678Y6646710D01*
X14343323D01*
X14359984Y6663371D01*
Y6696693D01*
X14343323Y6713355D01*
X14359984Y6813322D02*
Y6746677D01*
X14293340Y6813322D01*
X14276678D01*
X14260016Y6796661D01*
Y6763339D01*
X14276678Y6746677D01*
X14260016Y6913290D02*
Y6846645D01*
X14310001D01*
X14293340Y6879968D01*
Y6896629D01*
X14310001Y6913290D01*
X14343323D01*
X14359984Y6896629D01*
Y6863307D01*
X14343323Y6846645D01*
X14366676Y8050016D02*
X14350015Y8033355D01*
Y8000032D01*
X14366676Y7983371D01*
X14433322D01*
X14449985Y8000032D01*
Y8033355D01*
X14433322Y8050016D01*
X14449985Y8149983D02*
Y8083338D01*
X14383339Y8149983D01*
X14366676D01*
X14350015Y8133322D01*
Y8100000D01*
X14366676Y8083338D01*
X14449985Y8183306D02*
Y8216629D01*
Y8199968D01*
X14350015D01*
X14366676Y8183306D01*
X11923339Y6893323D02*
X11906677Y6909984D01*
X11873355D01*
X11856694Y6893323D01*
Y6826677D01*
X11873355Y6810016D01*
X11906677D01*
X11923339Y6826677D01*
X11956661D02*
X11973323Y6810016D01*
X12006645D01*
X12023306Y6826677D01*
Y6893323D01*
X12006645Y6909984D01*
X11973323D01*
X11956661Y6893323D01*
Y6876661D01*
X11973323Y6860000D01*
X12023306D01*
X12233338Y7413322D02*
X12216677Y7429984D01*
X12183355D01*
X12166693Y7413322D01*
Y7346677D01*
X12183355Y7330016D01*
X12216677D01*
X12233338Y7346677D01*
X12266661Y7413322D02*
X12283323Y7429984D01*
X12316645D01*
X12333306Y7413322D01*
Y7396661D01*
X12316645Y7380000D01*
X12333306Y7363339D01*
Y7346677D01*
X12316645Y7330016D01*
X12283323D01*
X12266661Y7346677D01*
Y7363339D01*
X12283323Y7380000D01*
X12266661Y7396661D01*
Y7413322D01*
X12283323Y7380000D02*
X12316645D01*
X12703339Y6603323D02*
X12686677Y6619984D01*
X12653355D01*
X12636694Y6603323D01*
Y6536678D01*
X12653355Y6520016D01*
X12686677D01*
X12703339Y6536678D01*
X12736661Y6619984D02*
X12803307D01*
Y6603323D01*
X12736661Y6536678D01*
Y6520016D01*
X14391678Y6433355D02*
X14375015Y6416694D01*
Y6383371D01*
X14391678Y6366710D01*
X14458324D01*
X14474985Y6383371D01*
Y6416694D01*
X14458324Y6433355D01*
X14474985Y6533322D02*
Y6466677D01*
X14408339Y6533322D01*
X14391678D01*
X14375015Y6516661D01*
Y6483339D01*
X14391678Y6466677D01*
X14474985Y6616629D02*
X14375015D01*
X14425000Y6566645D01*
Y6633290D01*
X14391676Y7689185D02*
X14375015Y7672524D01*
Y7639202D01*
X14391676Y7622540D01*
X14458322D01*
X14474983Y7639202D01*
Y7672524D01*
X14458322Y7689185D01*
X14474983Y7722508D02*
Y7755831D01*
Y7739169D01*
X14375015D01*
X14391676Y7722508D01*
X14458322Y7805814D02*
X14474983Y7822476D01*
Y7855798D01*
X14458322Y7872459D01*
X14391676D01*
X14375015Y7855798D01*
Y7822476D01*
X14391676Y7805814D01*
X14408337D01*
X14425000Y7822476D01*
Y7872459D01*
X14391678Y6058355D02*
X14375015Y6041694D01*
Y6008371D01*
X14391678Y5991710D01*
X14458324D01*
X14474985Y6008371D01*
Y6041694D01*
X14458324Y6058355D01*
X14474985Y6158322D02*
Y6091677D01*
X14408339Y6158322D01*
X14391678D01*
X14375015Y6141661D01*
Y6108339D01*
X14391678Y6091677D01*
X14474985Y6258290D02*
Y6191645D01*
X14408339Y6258290D01*
X14391678D01*
X14375015Y6241629D01*
Y6208307D01*
X14391678Y6191645D01*
X14416676Y7316685D02*
X14400015Y7300024D01*
Y7266701D01*
X14416676Y7250040D01*
X14483322D01*
X14499985Y7266701D01*
Y7300024D01*
X14483322Y7316685D01*
X14499985Y7350008D02*
Y7383330D01*
Y7366669D01*
X14400015D01*
X14416676Y7350008D01*
X14400015Y7433314D02*
Y7499959D01*
X14416676D01*
X14483322Y7433314D01*
X14499985D01*
X12243339Y6693322D02*
X12226678Y6709984D01*
X12193355D01*
X12176694Y6693322D01*
Y6626677D01*
X12193355Y6610016D01*
X12226678D01*
X12243339Y6626677D01*
X12343307Y6709984D02*
X12309984Y6693322D01*
X12276662Y6660000D01*
Y6626677D01*
X12293323Y6610016D01*
X12326645D01*
X12343307Y6626677D01*
Y6643339D01*
X12326645Y6660000D01*
X12276662D01*
X14391676Y5658355D02*
X14375015Y5641694D01*
Y5608371D01*
X14391676Y5591710D01*
X14458322D01*
X14474983Y5608371D01*
Y5641694D01*
X14458322Y5658355D01*
X14474983Y5758322D02*
Y5691677D01*
X14408337Y5758322D01*
X14391676D01*
X14375015Y5741661D01*
Y5708339D01*
X14391676Y5691677D01*
Y5791645D02*
X14375015Y5808307D01*
Y5841629D01*
X14391676Y5858290D01*
X14458322D01*
X14474983Y5841629D01*
Y5808307D01*
X14458322Y5791645D01*
X14391676D01*
X12273339Y7073322D02*
X12256678Y7089984D01*
X12223355D01*
X12206694Y7073322D01*
Y7006677D01*
X12223355Y6990016D01*
X12256678D01*
X12273339Y7006677D01*
X12373306Y7089984D02*
X12306661D01*
Y7040000D01*
X12339984Y7056661D01*
X12356645D01*
X12373306Y7040000D01*
Y7006677D01*
X12356645Y6990016D01*
X12323323D01*
X12306661Y7006677D01*
X14391676Y5289186D02*
X14375015Y5272524D01*
Y5239202D01*
X14391676Y5222540D01*
X14458322D01*
X14474983Y5239202D01*
Y5272524D01*
X14458322Y5289186D01*
X14474983Y5322508D02*
Y5355831D01*
Y5339170D01*
X14375015D01*
X14391676Y5322508D01*
Y5405815D02*
X14375015Y5422476D01*
Y5455799D01*
X14391676Y5472460D01*
X14408337D01*
X14424998Y5455799D01*
X14441661Y5472460D01*
X14458322D01*
X14474983Y5455799D01*
Y5422476D01*
X14458322Y5405815D01*
X14441661D01*
X14424998Y5422476D01*
X14408337Y5405815D01*
X14391676D01*
X14424998Y5422476D02*
Y5455799D01*
X12293339Y7243323D02*
X12276678Y7259984D01*
X12243355D01*
X12226694Y7243323D01*
Y7176678D01*
X12243355Y7160016D01*
X12276678D01*
X12293339Y7176678D01*
X12376645Y7160016D02*
Y7259984D01*
X12326661Y7210000D01*
X12393306D01*
X10753339Y6523322D02*
X10736678Y6539984D01*
X10703355D01*
X10686694Y6523322D01*
Y6456677D01*
X10703355Y6440016D01*
X10736678D01*
X10753339Y6456677D01*
X10786661Y6523322D02*
X10803323Y6539984D01*
X10836645D01*
X10853306Y6523322D01*
Y6506661D01*
X10836645Y6490000D01*
X10819984D01*
X10836645D01*
X10853306Y6473339D01*
Y6456677D01*
X10836645Y6440016D01*
X10803323D01*
X10786661Y6456677D01*
X10116677Y6923339D02*
X10100016Y6906678D01*
Y6873355D01*
X10116677Y6856694D01*
X10183322D01*
X10199983Y6873355D01*
Y6906678D01*
X10183322Y6923339D01*
X10199983Y7023307D02*
Y6956661D01*
X10133338Y7023307D01*
X10116677D01*
X10100016Y7006645D01*
Y6973323D01*
X10116677Y6956661D01*
X10590000Y6733323D02*
X10573339Y6749984D01*
X10540016D01*
X10523355Y6733323D01*
Y6666678D01*
X10540016Y6650016D01*
X10573339D01*
X10590000Y6666678D01*
X10623323Y6650016D02*
X10656645D01*
X10639984D01*
Y6749984D01*
X10623323Y6733323D01*
D56*
X12779033Y8686885D02*
Y9356129D01*
Y8686885D02*
X13375771D01*
X12779033Y9356129D02*
X13375771D01*
X12212903Y5150001D02*
Y5750000D01*
X12797100Y5150001D02*
Y5750000D01*
D57*
X16814999Y6125000D02*
X17575000D01*
Y8520000D01*
X16814999D02*
X17575000D01*
X16814999Y6125000D02*
Y8520000D01*
D58*
X12446858Y8391885D02*
D03*
X14146848Y7086895D02*
D03*
D59*
X14111900Y5278150D02*
D03*
%TF.MD5,ae277c00bd1448c22f550dc1e950d76d*%
M02*
