G04*
G04 #@! TF.GenerationSoftware,Altium Limited,Altium Designer,24.1.2 (44)*
G04*
G04 Layer_Color=8388736*
%FSLAX44Y44*%
%MOMM*%
G71*
G04*
G04 #@! TF.SameCoordinates,35289A0D-B0B0-4263-B8D2-BBE876D284D7*
G04*
G04*
G04 #@! TF.FilePolarity,Negative*
G04*
G01*
G75*
%ADD24R,3.4000X2.1000*%
%ADD33R,1.1311X0.9121*%
%ADD34R,0.9121X0.9581*%
%ADD39R,0.7581X0.8121*%
%ADD40R,2.6000X1.7000*%
%ADD45R,0.9581X0.9121*%
%ADD46R,0.9121X1.1311*%
%ADD48R,0.9000X0.9000*%
%ADD49R,1.1000X1.7000*%
%ADD50R,3.2000X1.8000*%
%ADD51R,6.4000X6.0000*%
G04:AMPARAMS|DCode=52|XSize=4.2mm|YSize=5.2mm|CornerRadius=1.1mm|HoleSize=0mm|Usage=FLASHONLY|Rotation=0.000|XOffset=0mm|YOffset=0mm|HoleType=Round|Shape=RoundedRectangle|*
%AMROUNDEDRECTD52*
21,1,4.2000,3.0000,0,0,0.0*
21,1,2.0000,5.2000,0,0,0.0*
1,1,2.2000,1.0000,-1.5000*
1,1,2.2000,-1.0000,-1.5000*
1,1,2.2000,-1.0000,1.5000*
1,1,2.2000,1.0000,1.5000*
%
%ADD52ROUNDEDRECTD52*%
G04:AMPARAMS|DCode=53|XSize=1.6mm|YSize=0.4mm|CornerRadius=0.0995mm|HoleSize=0mm|Usage=FLASHONLY|Rotation=0.000|XOffset=0mm|YOffset=0mm|HoleType=Round|Shape=RoundedRectangle|*
%AMROUNDEDRECTD53*
21,1,1.6000,0.2010,0,0,0.0*
21,1,1.4010,0.4000,0,0,0.0*
1,1,0.1990,0.7005,-0.1005*
1,1,0.1990,-0.7005,-0.1005*
1,1,0.1990,-0.7005,0.1005*
1,1,0.1990,0.7005,0.1005*
%
%ADD53ROUNDEDRECTD53*%
%ADD54R,5.7000X2.3500*%
%ADD55R,1.1000X1.0000*%
%ADD56R,0.7000X1.2750*%
%ADD57R,1.6000X2.8500*%
%ADD58C,1.5700*%
%ADD59R,1.5700X1.5700*%
%ADD60C,1.5500*%
%ADD61R,1.5500X1.5500*%
%ADD62R,1.5700X1.5700*%
D24*
X1380000Y880500D02*
D03*
Y943500D02*
D03*
D33*
X1056905Y649000D02*
D03*
X1044095D02*
D03*
X1245595Y704000D02*
D03*
X1258405D02*
D03*
X1245595Y738000D02*
D03*
X1258405D02*
D03*
D34*
X1045250Y702270D02*
D03*
Y687730D02*
D03*
X1202000Y537270D02*
D03*
Y522730D02*
D03*
X1247500Y685770D02*
D03*
Y671230D02*
D03*
D39*
X1204230Y614500D02*
D03*
X1216770D02*
D03*
X1258270Y721000D02*
D03*
X1245730D02*
D03*
D40*
X1167500Y589000D02*
D03*
X1208500D02*
D03*
D45*
X1227500Y686000D02*
D03*
X1212960D02*
D03*
D46*
X1267500Y672095D02*
D03*
Y684905D02*
D03*
D48*
X1099000Y841000D02*
D03*
Y830000D02*
D03*
Y819000D02*
D03*
X1088000D02*
D03*
X1077000D02*
D03*
Y830000D02*
D03*
Y841000D02*
D03*
X1088000D02*
D03*
Y830000D02*
D03*
D49*
X1026000Y907900D02*
D03*
X1041000D02*
D03*
X1056000D02*
D03*
X1071000D02*
D03*
X1086000D02*
D03*
X1101000D02*
D03*
X1116000D02*
D03*
X1131000D02*
D03*
X1146000D02*
D03*
Y732900D02*
D03*
X1131000D02*
D03*
X1116000D02*
D03*
X1101000D02*
D03*
X1086000D02*
D03*
X1071000D02*
D03*
X1056000D02*
D03*
X1041000D02*
D03*
X1026000D02*
D03*
D50*
X1257500Y925000D02*
D03*
X1257491Y879301D02*
D03*
D51*
X1325970Y902151D02*
D03*
D52*
X1211000Y891000D02*
D03*
X1721000Y558000D02*
D03*
D53*
X1349000Y747500D02*
D03*
X1291000D02*
D03*
Y742500D02*
D03*
Y737500D02*
D03*
Y732500D02*
D03*
Y727500D02*
D03*
Y722500D02*
D03*
Y717500D02*
D03*
Y712500D02*
D03*
Y707500D02*
D03*
Y702500D02*
D03*
Y697500D02*
D03*
Y692500D02*
D03*
Y687500D02*
D03*
Y682500D02*
D03*
Y677500D02*
D03*
X1349000D02*
D03*
Y682500D02*
D03*
Y687500D02*
D03*
Y692500D02*
D03*
Y697500D02*
D03*
Y702500D02*
D03*
Y707500D02*
D03*
Y712500D02*
D03*
Y717500D02*
D03*
Y722500D02*
D03*
Y727500D02*
D03*
Y732500D02*
D03*
Y737500D02*
D03*
Y742500D02*
D03*
D54*
X1250500Y564250D02*
D03*
X1250500Y525750D02*
D03*
D55*
X1552500Y922000D02*
D03*
Y903000D02*
D03*
X1572500Y912500D02*
D03*
X1552500Y882000D02*
D03*
Y863000D02*
D03*
X1572500Y872500D02*
D03*
X1552500Y842000D02*
D03*
Y823000D02*
D03*
X1572500Y832500D02*
D03*
X1552500Y802000D02*
D03*
Y783000D02*
D03*
X1572500Y792500D02*
D03*
X1552500Y682000D02*
D03*
Y663000D02*
D03*
X1572500Y672500D02*
D03*
X1552500Y642000D02*
D03*
Y623000D02*
D03*
X1572500Y632500D02*
D03*
X1552500Y602000D02*
D03*
Y583000D02*
D03*
X1572500Y592500D02*
D03*
X1552500Y762000D02*
D03*
Y743000D02*
D03*
X1572500Y752500D02*
D03*
X1552500Y722000D02*
D03*
Y703000D02*
D03*
X1572500Y712500D02*
D03*
X1552500Y562000D02*
D03*
Y543000D02*
D03*
X1572500Y552500D02*
D03*
D56*
X1535000Y804120D02*
D03*
Y780880D02*
D03*
Y884120D02*
D03*
Y860880D02*
D03*
Y844120D02*
D03*
Y820880D02*
D03*
Y724120D02*
D03*
Y700880D02*
D03*
Y684120D02*
D03*
Y660880D02*
D03*
Y604120D02*
D03*
Y580880D02*
D03*
X1535000Y564120D02*
D03*
Y540880D02*
D03*
X1535000Y924120D02*
D03*
Y900880D02*
D03*
Y764120D02*
D03*
Y740880D02*
D03*
Y644120D02*
D03*
Y620880D02*
D03*
D57*
X1639750Y912500D02*
D03*
X1590250D02*
D03*
X1639750Y872500D02*
D03*
X1590250D02*
D03*
X1639750Y832500D02*
D03*
X1590250D02*
D03*
X1639750Y792500D02*
D03*
X1590250D02*
D03*
X1639750Y752500D02*
D03*
X1590250D02*
D03*
X1639500Y712500D02*
D03*
X1590000D02*
D03*
X1639750Y672500D02*
D03*
X1590250D02*
D03*
X1639750Y632500D02*
D03*
X1590250D02*
D03*
X1639750Y592500D02*
D03*
X1590250D02*
D03*
X1639500Y552500D02*
D03*
X1590000D02*
D03*
D58*
X1252000Y791000D02*
D03*
X1175000Y767600D02*
D03*
Y793000D02*
D03*
X1206000Y767600D02*
D03*
Y793000D02*
D03*
X1034750Y941000D02*
D03*
X1060150D02*
D03*
X1085550D02*
D03*
X1110950D02*
D03*
X1136350D02*
D03*
D59*
X1175000Y818400D02*
D03*
X1206000D02*
D03*
D60*
X1109750Y590000D02*
D03*
X1044750D02*
D03*
D61*
X1109750Y565000D02*
D03*
X1044750D02*
D03*
D62*
X1161750Y941000D02*
D03*
M02*
