M48
;Layer_Color=9474304
;FILE_FORMAT=4:4
METRIC,LZ
;TYPE=PLATED
T01F00S00C0.3000
T02F00S00C0.8000
T03F00S00C1.0000
T04F00S00C1.0200
%
T01
X01204094Y00632891
X01263Y00647
X01314Y00655
X01309014Y00687525
X01321Y00698
X01307Y00723
X01306Y00737
X01271
X01276Y00745
X01246Y00752
X01235Y007125
X01216012Y00725066
X012125Y007
X01285Y0078
X0133971Y00761
X0135Y007925
X01391Y00693
X0147Y00723
X0148204Y00712
X01484Y0067
X01523Y0069
X0127846Y0059902
X011805Y00612
X01167Y0057
X01189Y00542
X01179Y00727
X01146Y00748
X01122Y0075046
X01082Y00776
X01087Y00719
X01074126Y00713876
X0105825Y0071
X01058Y00683
X0103825Y006775
X010475Y006235
X01026679Y0074904
X0108225Y00807
X0109325
X0111025Y00824
Y00836
X0109325Y00852
X0108325
X0106625Y00836
Y00824
X01174Y00914
X01265Y00818
X012975Y008225
X0137Y009245
X0138
X0139
X01405Y009455
X01355
X01445Y009175
X014425Y0087
X015235Y0089275
T02
X01695Y006325
Y006525
Y006725
Y006925
Y007125
Y007325
Y007525
Y007725
Y007925
Y008125
Y008325
T03
X0104475Y00565
Y0059
X0110975
Y00565
T04
X01206Y007676
Y00793
X01252Y00791
X01175Y00793
Y007676
Y008184
X0116175Y00941
X0113635
X0111095
X0108555
X0106015
X0103475
X01206Y008184
M30
