G04*
G04 #@! TF.GenerationSoftware,Altium Limited,Altium Designer,24.1.2 (44)*
G04*
G04 Layer_Color=65535*
%FSLAX44Y44*%
%MOMM*%
G71*
G04*
G04 #@! TF.SameCoordinates,35289A0D-B0B0-4263-B8D2-BBE876D284D7*
G04*
G04*
G04 #@! TF.FilePolarity,Positive*
G04*
G01*
G75*
%ADD10C,0.2000*%
%ADD11C,0.2500*%
%ADD12C,0.5000*%
%ADD13C,0.1500*%
%ADD14C,0.1524*%
%ADD15C,0.1000*%
%ADD16R,1.5870X0.5080*%
%ADD17R,0.5080X1.5870*%
D10*
X1171000Y752000D02*
G03*
X1171000Y752000I-1000J0D01*
G01*
X1026000Y718400D02*
G03*
X1026000Y720400I0J1000D01*
G01*
D02*
G03*
X1026000Y718400I0J-1000D01*
G01*
D02*
G03*
X1026000Y720400I0J1000D01*
G01*
X1170000Y897000D02*
X1176000D01*
X1260250Y840000D02*
Y846000D01*
X1289750D01*
Y840000D02*
Y846000D01*
X1260250Y840000D02*
X1289750D01*
X1260000Y824500D02*
Y836500D01*
X1169000Y868000D02*
Y874000D01*
X955000Y730400D02*
X1015000D01*
X955000D02*
X1015000D01*
X955000Y910400D02*
X1015000D01*
X955000D02*
X1015000D01*
X955000Y730400D02*
Y910400D01*
Y730400D02*
Y910400D01*
X1155000Y747900D02*
Y892900D01*
Y747900D02*
Y892900D01*
X1161300Y805700D02*
X1188700D01*
X1161300Y832350D02*
X1188700D01*
X1161300Y755200D02*
Y832350D01*
Y755200D02*
X1188700D01*
Y832350D01*
X1192300Y805700D02*
X1219700D01*
X1192300Y832350D02*
X1219700D01*
X1192300Y755200D02*
Y832350D01*
Y755200D02*
X1219700D01*
Y832350D01*
X1159000Y698750D02*
X1165000D01*
X1112250Y699000D02*
X1118250D01*
X1362750Y894750D02*
Y929250D01*
X1397250Y894750D02*
Y929250D01*
X1252750Y836650D02*
Y849350D01*
X1237250Y836650D02*
Y849350D01*
Y836650D02*
X1252750D01*
X1086250Y540500D02*
X1143750D01*
Y614500D01*
X1086250D02*
X1143750D01*
X1086250Y540500D02*
Y614500D01*
X1302250Y752000D02*
X1337750D01*
Y673000D02*
Y752000D01*
X1302250Y673000D02*
X1337750D01*
X1302250D02*
Y752000D01*
X1021250Y540500D02*
Y614500D01*
X1078750D01*
Y540500D02*
Y614500D01*
X1021250Y540500D02*
X1078750D01*
X1038439Y657561D02*
X1062561D01*
X1038439Y640439D02*
X1062561D01*
X1036689Y682939D02*
Y707061D01*
X1053811Y682939D02*
Y707061D01*
X1149050Y927300D02*
Y954700D01*
X1175700Y927300D02*
Y954700D01*
X1020800D02*
X1175700D01*
X1020800Y927300D02*
Y954700D01*
Y927300D02*
X1175700D01*
X1316000Y785500D02*
X1321600D01*
Y779000D02*
Y785500D01*
X1292400Y779000D02*
Y785500D01*
X1298000D01*
X1298460Y610020D02*
Y616020D01*
X1247750Y587500D02*
X1253250D01*
X1247750D02*
Y616500D01*
X1253250D01*
Y587500D02*
Y616500D01*
X1256750Y586000D02*
X1269250D01*
X1200439Y606000D02*
X1220561D01*
X1200439Y623000D02*
X1220561D01*
X1211750Y574500D02*
Y576750D01*
Y601250D02*
Y603500D01*
X1164250D02*
X1211750D01*
X1164250Y574500D02*
Y576750D01*
Y601250D02*
Y603500D01*
Y574500D02*
X1211750D01*
X1275460Y621020D02*
X1281460D01*
X1193439Y517939D02*
Y542061D01*
X1210561Y517939D02*
Y542061D01*
X1239939Y695439D02*
X1264061D01*
X1239939Y712561D02*
X1264061D01*
X1560750Y927500D02*
X1569500D01*
Y897500D02*
Y904750D01*
Y920250D02*
Y927500D01*
X1560750Y897500D02*
X1569500D01*
X1555500Y910750D02*
Y914250D01*
X1560750Y887500D02*
X1569500D01*
Y857500D02*
Y864750D01*
Y880250D02*
Y887500D01*
X1560750Y857500D02*
X1569500D01*
X1555500Y870750D02*
Y874250D01*
X1560750Y847500D02*
X1569500D01*
Y817500D02*
Y824750D01*
Y840250D02*
Y847500D01*
X1560750Y817500D02*
X1569500D01*
X1555500Y830750D02*
Y834250D01*
X1560750Y807500D02*
X1569500D01*
Y777500D02*
Y784750D01*
Y800250D02*
Y807500D01*
X1560750Y777500D02*
X1569500D01*
X1555500Y790750D02*
Y794250D01*
X1560750Y687500D02*
X1569500D01*
Y657500D02*
Y664750D01*
Y680250D02*
Y687500D01*
X1560750Y657500D02*
X1569500D01*
X1555500Y670750D02*
Y674250D01*
X1560750Y647500D02*
X1569500D01*
Y617500D02*
Y624750D01*
Y640250D02*
Y647500D01*
X1560750Y617500D02*
X1569500D01*
X1555500Y630750D02*
Y634250D01*
X1560750Y607500D02*
X1569500D01*
Y577500D02*
Y584750D01*
Y600250D02*
Y607500D01*
X1560750Y577500D02*
X1569500D01*
X1555500Y590750D02*
Y594250D01*
X1560750Y767500D02*
X1569500D01*
Y737500D02*
Y744750D01*
Y760250D02*
Y767500D01*
X1560750Y737500D02*
X1569500D01*
X1555500Y750750D02*
Y754250D01*
X1560750Y727500D02*
X1569500D01*
Y697500D02*
Y704750D01*
Y720250D02*
Y727500D01*
X1560750Y697500D02*
X1569500D01*
X1555500Y710750D02*
Y714250D01*
X1560750Y567500D02*
X1569500D01*
Y537500D02*
Y544750D01*
Y560250D02*
Y567500D01*
X1560750Y537500D02*
X1569500D01*
X1555500Y550750D02*
Y554250D01*
X1239939Y729439D02*
X1264061D01*
X1239939Y746561D02*
X1264061D01*
X1208169Y694561D02*
X1232291D01*
X1208169Y677439D02*
X1232291D01*
X1241939Y729500D02*
X1262061D01*
X1241939Y712500D02*
X1262061D01*
X1238939Y666439D02*
Y690561D01*
X1256061Y666439D02*
Y690561D01*
X1276061Y666439D02*
Y690561D01*
X1258939Y666439D02*
Y690561D01*
X1408650Y519750D02*
Y535250D01*
X1421350D01*
X1408650Y519750D02*
X1421350D01*
X1407250Y706150D02*
X1422750D01*
X1407250D02*
Y718850D01*
X1422750Y706150D02*
Y718850D01*
D11*
X1157750Y818400D02*
G03*
X1157750Y818400I-1250J0D01*
G01*
X1188750D02*
G03*
X1188750Y818400I-1250J0D01*
G01*
X1111000Y533750D02*
G03*
X1111000Y533750I-1250J0D01*
G01*
X1292250Y754750D02*
G03*
X1292250Y754750I-1250J0D01*
G01*
X1046000Y533750D02*
G03*
X1046000Y533750I-1250J0D01*
G01*
X1163000Y959500D02*
G03*
X1163000Y959500I-1250J0D01*
G01*
X1288250Y768000D02*
G03*
X1288250Y768000I-1250J0D01*
G01*
X1228500Y589000D02*
G03*
X1228500Y589000I-1250J0D01*
G01*
D12*
X1251971Y909651D02*
G03*
X1251971Y909651I-2000J0D01*
G01*
D13*
X1189000Y720000D02*
Y728000D01*
X1179000Y720000D02*
X1189000D01*
Y742000D02*
Y750000D01*
X1179000D02*
X1189000D01*
X1530000Y812250D02*
X1540000D01*
X1530000Y892250D02*
X1540000D01*
X1530000Y852250D02*
X1540000D01*
X1530000Y732250D02*
X1540000D01*
X1530000Y692250D02*
X1540000D01*
X1530000Y612250D02*
X1540000D01*
X1530000Y572250D02*
X1540000D01*
X1600000Y898980D02*
X1630000D01*
X1600000Y926020D02*
X1630000D01*
X1600000Y858980D02*
X1630000D01*
X1600000Y886020D02*
X1630000D01*
X1600000Y818980D02*
X1630000D01*
X1600000Y846020D02*
X1630000D01*
X1600000Y778980D02*
X1630000D01*
X1600000Y806020D02*
X1630000D01*
X1600000Y738980D02*
X1630000D01*
X1600000Y766020D02*
X1630000D01*
X1599750Y698980D02*
X1629750D01*
X1599750Y726020D02*
X1629750D01*
X1530000Y932250D02*
X1540000D01*
X1530000Y772250D02*
X1540000D01*
X1530000Y652250D02*
X1540000D01*
X1600000Y658980D02*
X1630000D01*
X1600000Y686020D02*
X1630000D01*
X1600000Y618980D02*
X1630000D01*
X1600000Y646020D02*
X1630000D01*
X1600000Y578980D02*
X1630000D01*
X1600000Y606020D02*
X1630000D01*
X1599750Y538980D02*
X1629750D01*
X1599750Y566020D02*
X1629750D01*
X1228168Y790500D02*
Y797164D01*
X1224836Y793832D02*
X1231500D01*
X1224500Y763500D02*
Y770164D01*
X1693168Y551500D02*
Y558164D01*
X1689836Y554832D02*
X1696500D01*
X1237500Y893500D02*
Y900164D01*
X1269500Y788500D02*
Y795164D01*
X1164504Y913002D02*
Y922998D01*
X1169502D01*
X1171169Y921332D01*
Y918000D01*
X1169502Y916334D01*
X1164504D01*
X1167836D02*
X1171169Y913002D01*
X1174501D02*
X1177833D01*
X1176167D01*
Y922998D01*
X1174501Y921332D01*
X1182831D02*
X1184498Y922998D01*
X1187830D01*
X1189496Y921332D01*
Y919666D01*
X1187830Y918000D01*
X1189496Y916334D01*
Y914668D01*
X1187830Y913002D01*
X1184498D01*
X1182831Y914668D01*
Y916334D01*
X1184498Y918000D01*
X1182831Y919666D01*
Y921332D01*
X1184498Y918000D02*
X1187830D01*
X1247334Y813998D02*
X1244002D01*
X1245668D01*
Y805668D01*
X1244002Y804002D01*
X1242336D01*
X1240669Y805668D01*
X1250666D02*
X1252332Y804002D01*
X1255665D01*
X1257331Y805668D01*
Y812332D01*
X1255665Y813998D01*
X1252332D01*
X1250666Y812332D01*
Y810666D01*
X1252332Y809000D01*
X1257331D01*
X1233998Y810504D02*
X1224002D01*
Y815502D01*
X1225668Y817169D01*
X1229000D01*
X1230666Y815502D01*
Y810504D01*
Y813836D02*
X1233998Y817169D01*
Y820501D02*
Y823833D01*
Y822167D01*
X1224002D01*
X1225668Y820501D01*
Y828831D02*
X1224002Y830498D01*
Y833830D01*
X1225668Y835496D01*
X1232332D01*
X1233998Y833830D01*
Y830498D01*
X1232332Y828831D01*
X1225668D01*
X1286334Y854668D02*
Y861332D01*
X1284668Y862998D01*
X1281335D01*
X1279669Y861332D01*
Y854668D01*
X1281335Y853002D01*
X1284668D01*
X1283002Y856334D02*
X1286334Y853002D01*
X1284668D02*
X1286334Y854668D01*
X1296331Y853002D02*
X1289666D01*
X1296331Y859666D01*
Y861332D01*
X1294664Y862998D01*
X1291332D01*
X1289666Y861332D01*
X1159504Y853002D02*
Y862998D01*
X1164502D01*
X1166169Y861332D01*
Y858000D01*
X1164502Y856334D01*
X1159504D01*
X1162836D02*
X1166169Y853002D01*
X1169501D02*
X1172833D01*
X1171167D01*
Y862998D01*
X1169501Y861332D01*
X1177831Y862998D02*
X1184496D01*
Y861332D01*
X1177831Y854668D01*
Y853002D01*
X1170747Y762142D02*
Y768807D01*
X1169080Y770473D01*
X1165748D01*
X1164082Y768807D01*
Y762142D01*
X1165748Y760476D01*
X1169080D01*
X1167414Y763808D02*
X1170747Y760476D01*
X1169080D02*
X1170747Y762142D01*
X1179077Y760476D02*
Y770473D01*
X1174079Y765474D01*
X1180743D01*
X955548Y936081D02*
X958880D01*
X957214D01*
Y926084D01*
X955548D01*
X958880D01*
X970543Y934415D02*
X968877Y936081D01*
X965545D01*
X963879Y934415D01*
Y927750D01*
X965545Y926084D01*
X968877D01*
X970543Y927750D01*
X973875Y934415D02*
X975542Y936081D01*
X978874D01*
X980540Y934415D01*
Y932748D01*
X978874Y931082D01*
X977208D01*
X978874D01*
X980540Y929416D01*
Y927750D01*
X978874Y926084D01*
X975542D01*
X973875Y927750D01*
X1232334Y765998D02*
X1229002D01*
X1230668D01*
Y757668D01*
X1229002Y756002D01*
X1227336D01*
X1225669Y757668D01*
X1235666Y764332D02*
X1237332Y765998D01*
X1240665D01*
X1242331Y764332D01*
Y762666D01*
X1240665Y761000D01*
X1242331Y759334D01*
Y757668D01*
X1240665Y756002D01*
X1237332D01*
X1235666Y757668D01*
Y759334D01*
X1237332Y761000D01*
X1235666Y762666D01*
Y764332D01*
X1237332Y761000D02*
X1240665D01*
X1170334Y846998D02*
X1167002D01*
X1168668D01*
Y838668D01*
X1167002Y837002D01*
X1165335D01*
X1163669Y838668D01*
X1173666Y846998D02*
X1180331D01*
Y845332D01*
X1173666Y838668D01*
Y837002D01*
X1122334Y535998D02*
X1119002D01*
X1120668D01*
Y527668D01*
X1119002Y526002D01*
X1117336D01*
X1115669Y527668D01*
X1132331Y526002D02*
X1125666D01*
X1132331Y532666D01*
Y534332D01*
X1130665Y535998D01*
X1127332D01*
X1125666Y534332D01*
X1518502Y700004D02*
Y706668D01*
X1520168D01*
X1526832Y700004D01*
X1528498D01*
Y706668D01*
Y710001D02*
Y713333D01*
Y711667D01*
X1518502D01*
X1520168Y710001D01*
Y718332D02*
X1518502Y719998D01*
Y723330D01*
X1520168Y724996D01*
X1526832D01*
X1528498Y723330D01*
Y719998D01*
X1526832Y718332D01*
X1520168D01*
X1518502Y904169D02*
Y910834D01*
X1520168D01*
X1526832Y904169D01*
X1528498D01*
Y910834D01*
X1526832Y914166D02*
X1528498Y915832D01*
Y919165D01*
X1526832Y920831D01*
X1520168D01*
X1518502Y919165D01*
Y915832D01*
X1520168Y914166D01*
X1521834D01*
X1523500Y915832D01*
Y920831D01*
X1518502Y664169D02*
Y670834D01*
X1520168D01*
X1526832Y664169D01*
X1528498D01*
Y670834D01*
X1520168Y674166D02*
X1518502Y675832D01*
Y679165D01*
X1520168Y680831D01*
X1521834D01*
X1523500Y679165D01*
X1525166Y680831D01*
X1526832D01*
X1528498Y679165D01*
Y675832D01*
X1526832Y674166D01*
X1525166D01*
X1523500Y675832D01*
X1521834Y674166D01*
X1520168D01*
X1523500Y675832D02*
Y679165D01*
X1518502Y864169D02*
Y870834D01*
X1520168D01*
X1526832Y864169D01*
X1528498D01*
Y870834D01*
X1518502Y874166D02*
Y880831D01*
X1520168D01*
X1526832Y874166D01*
X1528498D01*
X1518502Y624169D02*
Y630834D01*
X1520168D01*
X1526832Y624169D01*
X1528498D01*
Y630834D01*
X1518502Y640831D02*
X1520168Y637498D01*
X1523500Y634166D01*
X1526832D01*
X1528498Y635832D01*
Y639165D01*
X1526832Y640831D01*
X1525166D01*
X1523500Y639165D01*
Y634166D01*
X1518502Y824169D02*
Y830834D01*
X1520168D01*
X1526832Y824169D01*
X1528498D01*
Y830834D01*
X1518502Y840831D02*
Y834166D01*
X1523500D01*
X1521834Y837498D01*
Y839165D01*
X1523500Y840831D01*
X1526832D01*
X1528498Y839165D01*
Y835832D01*
X1526832Y834166D01*
X1518502Y584169D02*
Y590834D01*
X1520168D01*
X1526832Y584169D01*
X1528498D01*
Y590834D01*
Y599165D02*
X1518502D01*
X1523500Y594166D01*
Y600831D01*
X1518502Y784169D02*
Y790834D01*
X1520168D01*
X1526832Y784169D01*
X1528498D01*
Y790834D01*
X1520168Y794166D02*
X1518502Y795832D01*
Y799165D01*
X1520168Y800831D01*
X1521834D01*
X1523500Y799165D01*
Y797498D01*
Y799165D01*
X1525166Y800831D01*
X1526832D01*
X1528498Y799165D01*
Y795832D01*
X1526832Y794166D01*
X1518501Y544169D02*
Y550834D01*
X1520168D01*
X1526832Y544169D01*
X1528498D01*
Y550834D01*
Y560831D02*
Y554166D01*
X1521834Y560831D01*
X1520168D01*
X1518501Y559165D01*
Y555832D01*
X1520168Y554166D01*
X1518502Y745835D02*
Y752500D01*
X1520168D01*
X1526832Y745835D01*
X1528498D01*
Y752500D01*
Y755832D02*
Y759165D01*
Y757498D01*
X1518502D01*
X1520168Y755832D01*
X1466671Y695002D02*
Y704998D01*
X1471669D01*
X1473336Y703332D01*
Y700000D01*
X1471669Y698334D01*
X1466671D01*
X1470003D02*
X1473336Y695002D01*
X1483332Y704998D02*
X1476668D01*
Y700000D01*
X1480000Y701666D01*
X1481666D01*
X1483332Y700000D01*
Y696668D01*
X1481666Y695002D01*
X1478334D01*
X1476668Y696668D01*
X1493329Y704998D02*
X1489997Y703332D01*
X1486664Y700000D01*
Y696668D01*
X1488331Y695002D01*
X1491663D01*
X1493329Y696668D01*
Y698334D01*
X1491663Y700000D01*
X1486664D01*
X1466671Y722502D02*
Y732498D01*
X1471669D01*
X1473336Y730832D01*
Y727500D01*
X1471669Y725834D01*
X1466671D01*
X1470003D02*
X1473336Y722502D01*
X1483332Y732498D02*
X1476668D01*
Y727500D01*
X1480000Y729166D01*
X1481666D01*
X1483332Y727500D01*
Y724168D01*
X1481666Y722502D01*
X1478334D01*
X1476668Y724168D01*
X1493329Y732498D02*
X1486664D01*
Y727500D01*
X1489997Y729166D01*
X1491663D01*
X1493329Y727500D01*
Y724168D01*
X1491663Y722502D01*
X1488331D01*
X1486664Y724168D01*
X1466671Y897502D02*
Y907498D01*
X1471669D01*
X1473336Y905832D01*
Y902500D01*
X1471669Y900834D01*
X1466671D01*
X1470003D02*
X1473336Y897502D01*
X1483332Y907498D02*
X1476668D01*
Y902500D01*
X1480000Y904166D01*
X1481666D01*
X1483332Y902500D01*
Y899168D01*
X1481666Y897502D01*
X1478334D01*
X1476668Y899168D01*
X1491663Y897502D02*
Y907498D01*
X1486664Y902500D01*
X1493329D01*
X1662248Y699171D02*
X1652252D01*
Y704169D01*
X1653918Y705835D01*
X1657250D01*
X1658916Y704169D01*
Y699171D01*
Y702503D02*
X1662248Y705835D01*
X1652252Y715832D02*
Y709168D01*
X1657250D01*
X1655584Y712500D01*
Y714166D01*
X1657250Y715832D01*
X1660582D01*
X1662248Y714166D01*
Y710834D01*
X1660582Y709168D01*
X1653918Y719165D02*
X1652252Y720831D01*
Y724163D01*
X1653918Y725829D01*
X1655584D01*
X1657250Y724163D01*
Y722497D01*
Y724163D01*
X1658916Y725829D01*
X1660582D01*
X1662248Y724163D01*
Y720831D01*
X1660582Y719165D01*
X1466671Y917502D02*
Y927498D01*
X1471669D01*
X1473336Y925832D01*
Y922500D01*
X1471669Y920834D01*
X1466671D01*
X1470003D02*
X1473336Y917502D01*
X1483332Y927498D02*
X1476668D01*
Y922500D01*
X1480000Y924166D01*
X1481666D01*
X1483332Y922500D01*
Y919168D01*
X1481666Y917502D01*
X1478334D01*
X1476668Y919168D01*
X1493329Y917502D02*
X1486664D01*
X1493329Y924166D01*
Y925832D01*
X1491663Y927498D01*
X1488331D01*
X1486664Y925832D01*
X1662498Y899171D02*
X1652502D01*
Y904169D01*
X1654168Y905835D01*
X1657500D01*
X1659166Y904169D01*
Y899171D01*
Y902503D02*
X1662498Y905835D01*
X1652502Y915832D02*
Y909168D01*
X1657500D01*
X1655834Y912500D01*
Y914166D01*
X1657500Y915832D01*
X1660832D01*
X1662498Y914166D01*
Y910834D01*
X1660832Y909168D01*
X1654168Y919165D02*
X1652502Y920831D01*
Y924163D01*
X1654168Y925829D01*
X1660832D01*
X1662498Y924163D01*
Y920831D01*
X1660832Y919165D01*
X1654168D01*
X1465671Y675002D02*
Y684998D01*
X1470669D01*
X1472336Y683332D01*
Y680000D01*
X1470669Y678334D01*
X1465671D01*
X1469003D02*
X1472336Y675002D01*
X1480666D02*
Y684998D01*
X1475668Y680000D01*
X1482332D01*
X1485665Y676668D02*
X1487331Y675002D01*
X1490663D01*
X1492329Y676668D01*
Y683332D01*
X1490663Y684998D01*
X1487331D01*
X1485665Y683332D01*
Y681666D01*
X1487331Y680000D01*
X1492329D01*
X1466671Y857502D02*
Y867498D01*
X1471669D01*
X1473336Y865832D01*
Y862500D01*
X1471669Y860834D01*
X1466671D01*
X1470003D02*
X1473336Y857502D01*
X1481666D02*
Y867498D01*
X1476668Y862500D01*
X1483332D01*
X1486664Y865832D02*
X1488331Y867498D01*
X1491663D01*
X1493329Y865832D01*
Y864166D01*
X1491663Y862500D01*
X1493329Y860834D01*
Y859168D01*
X1491663Y857502D01*
X1488331D01*
X1486664Y859168D01*
Y860834D01*
X1488331Y862500D01*
X1486664Y864166D01*
Y865832D01*
X1488331Y862500D02*
X1491663D01*
X1662498Y659171D02*
X1652502D01*
Y664169D01*
X1654168Y665835D01*
X1657500D01*
X1659166Y664169D01*
Y659171D01*
Y662503D02*
X1662498Y665835D01*
Y674166D02*
X1652502D01*
X1657500Y669168D01*
Y675832D01*
X1652502Y679165D02*
Y685829D01*
X1654168D01*
X1660832Y679165D01*
X1662498D01*
X1466671Y880002D02*
Y889998D01*
X1471669D01*
X1473336Y888332D01*
Y885000D01*
X1471669Y883334D01*
X1466671D01*
X1470003D02*
X1473336Y880002D01*
X1481666D02*
Y889998D01*
X1476668Y885000D01*
X1483332D01*
X1493329Y889998D02*
X1489997Y888332D01*
X1486664Y885000D01*
Y881668D01*
X1488331Y880002D01*
X1491663D01*
X1493329Y881668D01*
Y883334D01*
X1491663Y885000D01*
X1486664D01*
X1662498Y859171D02*
X1652502D01*
Y864169D01*
X1654168Y865835D01*
X1657500D01*
X1659166Y864169D01*
Y859171D01*
Y862503D02*
X1662498Y865835D01*
Y874166D02*
X1652502D01*
X1657500Y869168D01*
Y875832D01*
X1662498Y884163D02*
X1652502D01*
X1657500Y879165D01*
Y885829D01*
X1466671Y637502D02*
Y647498D01*
X1471669D01*
X1473336Y645832D01*
Y642500D01*
X1471669Y640834D01*
X1466671D01*
X1470003D02*
X1473336Y637502D01*
X1481666D02*
Y647498D01*
X1476668Y642500D01*
X1483332D01*
X1486664Y645832D02*
X1488331Y647498D01*
X1491663D01*
X1493329Y645832D01*
Y644166D01*
X1491663Y642500D01*
X1489997D01*
X1491663D01*
X1493329Y640834D01*
Y639168D01*
X1491663Y637502D01*
X1488331D01*
X1486664Y639168D01*
X1662498Y620837D02*
X1652502D01*
Y625835D01*
X1654168Y627502D01*
X1657500D01*
X1659166Y625835D01*
Y620837D01*
Y624169D02*
X1662498Y627502D01*
Y635832D02*
X1652502D01*
X1657500Y630834D01*
Y637498D01*
X1662498Y640831D02*
Y644163D01*
Y642497D01*
X1652502D01*
X1654168Y640831D01*
X1466671Y837502D02*
Y847498D01*
X1471669D01*
X1473336Y845832D01*
Y842500D01*
X1471669Y840834D01*
X1466671D01*
X1470003D02*
X1473336Y837502D01*
X1481666D02*
Y847498D01*
X1476668Y842500D01*
X1483332D01*
X1486664Y845832D02*
X1488331Y847498D01*
X1491663D01*
X1493329Y845832D01*
Y839168D01*
X1491663Y837502D01*
X1488331D01*
X1486664Y839168D01*
Y845832D01*
X1662242Y819170D02*
X1652245D01*
Y824169D01*
X1653911Y825835D01*
X1657244D01*
X1658910Y824169D01*
Y819170D01*
Y822503D02*
X1662242Y825835D01*
X1653911Y829167D02*
X1652245Y830833D01*
Y834165D01*
X1653911Y835832D01*
X1655578D01*
X1657244Y834165D01*
Y832499D01*
Y834165D01*
X1658910Y835832D01*
X1660576D01*
X1662242Y834165D01*
Y830833D01*
X1660576Y829167D01*
X1653911Y839164D02*
X1652245Y840830D01*
Y844162D01*
X1653911Y845828D01*
X1655578D01*
X1657244Y844162D01*
X1658910Y845828D01*
X1660576D01*
X1662242Y844162D01*
Y840830D01*
X1660576Y839164D01*
X1658910D01*
X1657244Y840830D01*
X1655578Y839164D01*
X1653911D01*
X1657244Y840830D02*
Y844162D01*
X1466671Y597502D02*
Y607498D01*
X1471669D01*
X1473336Y605832D01*
Y602500D01*
X1471669Y600834D01*
X1466671D01*
X1470003D02*
X1473336Y597502D01*
X1476668Y605832D02*
X1478334Y607498D01*
X1481666D01*
X1483332Y605832D01*
Y604166D01*
X1481666Y602500D01*
X1480000D01*
X1481666D01*
X1483332Y600834D01*
Y599168D01*
X1481666Y597502D01*
X1478334D01*
X1476668Y599168D01*
X1486664Y607498D02*
X1493329D01*
Y605832D01*
X1486664Y599168D01*
Y597502D01*
X1662498Y579171D02*
X1652502D01*
Y584169D01*
X1654168Y585835D01*
X1657500D01*
X1659166Y584169D01*
Y579171D01*
Y582503D02*
X1662498Y585835D01*
X1654168Y589168D02*
X1652502Y590834D01*
Y594166D01*
X1654168Y595832D01*
X1655834D01*
X1657500Y594166D01*
Y592500D01*
Y594166D01*
X1659166Y595832D01*
X1660832D01*
X1662498Y594166D01*
Y590834D01*
X1660832Y589168D01*
X1652502Y605829D02*
Y599165D01*
X1657500D01*
X1655834Y602497D01*
Y604163D01*
X1657500Y605829D01*
X1660832D01*
X1662498Y604163D01*
Y600831D01*
X1660832Y599165D01*
X1466671Y797502D02*
Y807498D01*
X1471669D01*
X1473336Y805832D01*
Y802500D01*
X1471669Y800834D01*
X1466671D01*
X1470003D02*
X1473336Y797502D01*
X1476668Y805832D02*
X1478334Y807498D01*
X1481666D01*
X1483332Y805832D01*
Y804166D01*
X1481666Y802500D01*
X1480000D01*
X1481666D01*
X1483332Y800834D01*
Y799168D01*
X1481666Y797502D01*
X1478334D01*
X1476668Y799168D01*
X1491663Y797502D02*
Y807498D01*
X1486664Y802500D01*
X1493329D01*
X1662498Y779171D02*
X1652502D01*
Y784169D01*
X1654168Y785835D01*
X1657500D01*
X1659166Y784169D01*
Y779171D01*
Y782503D02*
X1662498Y785835D01*
X1654168Y789168D02*
X1652502Y790834D01*
Y794166D01*
X1654168Y795832D01*
X1655834D01*
X1657500Y794166D01*
Y792500D01*
Y794166D01*
X1659166Y795832D01*
X1660832D01*
X1662498Y794166D01*
Y790834D01*
X1660832Y789168D01*
X1662498Y805829D02*
Y799165D01*
X1655834Y805829D01*
X1654168D01*
X1652502Y804163D01*
Y800831D01*
X1654168Y799165D01*
X1468337Y557502D02*
Y567498D01*
X1473336D01*
X1475002Y565832D01*
Y562500D01*
X1473336Y560834D01*
X1468337D01*
X1471669D02*
X1475002Y557502D01*
X1478334Y565832D02*
X1480000Y567498D01*
X1483332D01*
X1484998Y565832D01*
Y564166D01*
X1483332Y562500D01*
X1481666D01*
X1483332D01*
X1484998Y560834D01*
Y559168D01*
X1483332Y557502D01*
X1480000D01*
X1478334Y559168D01*
X1488331Y557502D02*
X1491663D01*
X1489997D01*
Y567498D01*
X1488331Y565832D01*
X1662248Y539171D02*
X1652252D01*
Y544169D01*
X1653918Y545835D01*
X1657250D01*
X1658916Y544169D01*
Y539171D01*
Y542503D02*
X1662248Y545835D01*
Y555832D02*
Y549168D01*
X1655584Y555832D01*
X1653918D01*
X1652252Y554166D01*
Y550834D01*
X1653918Y549168D01*
X1660582Y559165D02*
X1662248Y560831D01*
Y564163D01*
X1660582Y565829D01*
X1653918D01*
X1652252Y564163D01*
Y560831D01*
X1653918Y559165D01*
X1655584D01*
X1657250Y560831D01*
Y565829D01*
X1466671Y757502D02*
Y767498D01*
X1471669D01*
X1473336Y765832D01*
Y762500D01*
X1471669Y760834D01*
X1466671D01*
X1470003D02*
X1473336Y757502D01*
X1483332D02*
X1476668D01*
X1483332Y764166D01*
Y765832D01*
X1481666Y767498D01*
X1478334D01*
X1476668Y765832D01*
X1486664D02*
X1488331Y767498D01*
X1491663D01*
X1493329Y765832D01*
Y764166D01*
X1491663Y762500D01*
X1493329Y760834D01*
Y759168D01*
X1491663Y757502D01*
X1488331D01*
X1486664Y759168D01*
Y760834D01*
X1488331Y762500D01*
X1486664Y764166D01*
Y765832D01*
X1488331Y762500D02*
X1491663D01*
X1662498Y739171D02*
X1652502D01*
Y744169D01*
X1654168Y745835D01*
X1657500D01*
X1659166Y744169D01*
Y739171D01*
Y742503D02*
X1662498Y745835D01*
Y755832D02*
Y749168D01*
X1655834Y755832D01*
X1654168D01*
X1652502Y754166D01*
Y750834D01*
X1654168Y749168D01*
X1652502Y765829D02*
X1654168Y762497D01*
X1657500Y759165D01*
X1660832D01*
X1662498Y760831D01*
Y764163D01*
X1660832Y765829D01*
X1659166D01*
X1657500Y764163D01*
Y759165D01*
X1576669Y729168D02*
Y735832D01*
X1575002Y737498D01*
X1571670D01*
X1570004Y735832D01*
Y729168D01*
X1571670Y727502D01*
X1575002D01*
X1573336Y730834D02*
X1576669Y727502D01*
X1575002D02*
X1576669Y729168D01*
X1580001Y727502D02*
X1583333D01*
X1581667D01*
Y737498D01*
X1580001Y735832D01*
X1593330Y727502D02*
Y737498D01*
X1588331Y732500D01*
X1594996D01*
X1554169Y934168D02*
Y940832D01*
X1552502Y942498D01*
X1549170D01*
X1547504Y940832D01*
Y934168D01*
X1549170Y932502D01*
X1552502D01*
X1550836Y935834D02*
X1554169Y932502D01*
X1552502D02*
X1554169Y934168D01*
X1557501Y932502D02*
X1560833D01*
X1559167D01*
Y942498D01*
X1557501Y940832D01*
X1565831D02*
X1567498Y942498D01*
X1570830D01*
X1572496Y940832D01*
Y939166D01*
X1570830Y937500D01*
X1569164D01*
X1570830D01*
X1572496Y935834D01*
Y934168D01*
X1570830Y932502D01*
X1567498D01*
X1565831Y934168D01*
X1576669Y689168D02*
Y695832D01*
X1575002Y697498D01*
X1571670D01*
X1570004Y695832D01*
Y689168D01*
X1571670Y687502D01*
X1575002D01*
X1573336Y690834D02*
X1576669Y687502D01*
X1575002D02*
X1576669Y689168D01*
X1580001Y687502D02*
X1583333D01*
X1581667D01*
Y697498D01*
X1580001Y695832D01*
X1594996Y687502D02*
X1588331D01*
X1594996Y694166D01*
Y695832D01*
X1593330Y697498D01*
X1589998D01*
X1588331Y695832D01*
X1578335Y889168D02*
Y895832D01*
X1576669Y897498D01*
X1573336D01*
X1571670Y895832D01*
Y889168D01*
X1573336Y887502D01*
X1576669D01*
X1575002Y890834D02*
X1578335Y887502D01*
X1576669D02*
X1578335Y889168D01*
X1581667Y887502D02*
X1584999D01*
X1583333D01*
Y897498D01*
X1581667Y895832D01*
X1589998Y887502D02*
X1593330D01*
X1591664D01*
Y897498D01*
X1589998Y895832D01*
X1576669Y649168D02*
Y655832D01*
X1575002Y657498D01*
X1571670D01*
X1570004Y655832D01*
Y649168D01*
X1571670Y647502D01*
X1575002D01*
X1573336Y650834D02*
X1576669Y647502D01*
X1575002D02*
X1576669Y649168D01*
X1580001Y647502D02*
X1583333D01*
X1581667D01*
Y657498D01*
X1580001Y655832D01*
X1588331D02*
X1589998Y657498D01*
X1593330D01*
X1594996Y655832D01*
Y649168D01*
X1593330Y647502D01*
X1589998D01*
X1588331Y649168D01*
Y655832D01*
X1578334Y849168D02*
Y855832D01*
X1576668Y857498D01*
X1573336D01*
X1571669Y855832D01*
Y849168D01*
X1573336Y847502D01*
X1576668D01*
X1575002Y850834D02*
X1578334Y847502D01*
X1576668D02*
X1578334Y849168D01*
X1581666D02*
X1583332Y847502D01*
X1586664D01*
X1588331Y849168D01*
Y855832D01*
X1586664Y857498D01*
X1583332D01*
X1581666Y855832D01*
Y854166D01*
X1583332Y852500D01*
X1588331D01*
X1578334Y609168D02*
Y615832D01*
X1576668Y617498D01*
X1573336D01*
X1571669Y615832D01*
Y609168D01*
X1573336Y607502D01*
X1576668D01*
X1575002Y610834D02*
X1578334Y607502D01*
X1576668D02*
X1578334Y609168D01*
X1581666Y615832D02*
X1583332Y617498D01*
X1586664D01*
X1588331Y615832D01*
Y614166D01*
X1586664Y612500D01*
X1588331Y610834D01*
Y609168D01*
X1586664Y607502D01*
X1583332D01*
X1581666Y609168D01*
Y610834D01*
X1583332Y612500D01*
X1581666Y614166D01*
Y615832D01*
X1583332Y612500D02*
X1586664D01*
X1578334Y809168D02*
Y815832D01*
X1576668Y817498D01*
X1573336D01*
X1571669Y815832D01*
Y809168D01*
X1573336Y807502D01*
X1576668D01*
X1575002Y810834D02*
X1578334Y807502D01*
X1576668D02*
X1578334Y809168D01*
X1581666Y817498D02*
X1588331D01*
Y815832D01*
X1581666Y809168D01*
Y807502D01*
X1560834Y524168D02*
Y530832D01*
X1559168Y532498D01*
X1555836D01*
X1554169Y530832D01*
Y524168D01*
X1555836Y522502D01*
X1559168D01*
X1557502Y525834D02*
X1560834Y522502D01*
X1559168D02*
X1560834Y524168D01*
X1570831Y532498D02*
X1567498Y530832D01*
X1564166Y527500D01*
Y524168D01*
X1565832Y522502D01*
X1569164D01*
X1570831Y524168D01*
Y525834D01*
X1569164Y527500D01*
X1564166D01*
X1578334Y769168D02*
Y775832D01*
X1576668Y777498D01*
X1573336D01*
X1571669Y775832D01*
Y769168D01*
X1573336Y767502D01*
X1576668D01*
X1575002Y770834D02*
X1578334Y767502D01*
X1576668D02*
X1578334Y769168D01*
X1588331Y777498D02*
X1581666D01*
Y772500D01*
X1584998Y774166D01*
X1586664D01*
X1588331Y772500D01*
Y769168D01*
X1586664Y767502D01*
X1583332D01*
X1581666Y769168D01*
X1426668Y698335D02*
X1425002Y696669D01*
Y693337D01*
X1426668Y691671D01*
X1433332D01*
X1434998Y693337D01*
Y696669D01*
X1433332Y698335D01*
X1434998Y708332D02*
Y701668D01*
X1428334Y708332D01*
X1426668D01*
X1425002Y706666D01*
Y703334D01*
X1426668Y701668D01*
Y711665D02*
X1425002Y713331D01*
Y716663D01*
X1426668Y718329D01*
X1428334D01*
X1430000Y716663D01*
X1431666Y718329D01*
X1433332D01*
X1434998Y716663D01*
Y713331D01*
X1433332Y711665D01*
X1431666D01*
X1430000Y713331D01*
X1428334Y711665D01*
X1426668D01*
X1430000Y713331D02*
Y716663D01*
X1723834Y877498D02*
X1720502D01*
X1722168D01*
Y869168D01*
X1720502Y867502D01*
X1718835D01*
X1717169Y869168D01*
X1732164Y867502D02*
Y877498D01*
X1727166Y872500D01*
X1733831D01*
X1269131Y636022D02*
Y646018D01*
X1274129D01*
X1275796Y644352D01*
Y641020D01*
X1274129Y639354D01*
X1269131D01*
X1272463D02*
X1275796Y636022D01*
X1285792D02*
X1279128D01*
X1285792Y642686D01*
Y644352D01*
X1284126Y646018D01*
X1280794D01*
X1279128Y644352D01*
X1294123Y636022D02*
Y646018D01*
X1289125Y641020D01*
X1295789D01*
X1293131Y621022D02*
Y631018D01*
X1298129D01*
X1299796Y629352D01*
Y626020D01*
X1298129Y624354D01*
X1293131D01*
X1296463D02*
X1299796Y621022D01*
X1309792D02*
X1303128D01*
X1309792Y627686D01*
Y629352D01*
X1308126Y631018D01*
X1304794D01*
X1303128Y629352D01*
X1313125D02*
X1314791Y631018D01*
X1318123D01*
X1319789Y629352D01*
Y627686D01*
X1318123Y626020D01*
X1316457D01*
X1318123D01*
X1319789Y624354D01*
Y622688D01*
X1318123Y621022D01*
X1314791D01*
X1313125Y622688D01*
X1210091Y640542D02*
Y650538D01*
X1215089D01*
X1216756Y648872D01*
Y645540D01*
X1215089Y643874D01*
X1210091D01*
X1213423D02*
X1216756Y640542D01*
X1226752D02*
X1220088D01*
X1226752Y647206D01*
Y648872D01*
X1225086Y650538D01*
X1221754D01*
X1220088Y648872D01*
X1236749Y640542D02*
X1230085D01*
X1236749Y647206D01*
Y648872D01*
X1235083Y650538D01*
X1231751D01*
X1230085Y648872D01*
X1095998Y660504D02*
X1086002D01*
Y665502D01*
X1087668Y667169D01*
X1091000D01*
X1092666Y665502D01*
Y660504D01*
Y663836D02*
X1095998Y667169D01*
Y670501D02*
Y673833D01*
Y672167D01*
X1086002D01*
X1087668Y670501D01*
X1086002Y685496D02*
X1087668Y682164D01*
X1091000Y678831D01*
X1094332D01*
X1095998Y680498D01*
Y683830D01*
X1094332Y685496D01*
X1092666D01*
X1091000Y683830D01*
Y678831D01*
X1078998Y660504D02*
X1069002D01*
Y665502D01*
X1070668Y667169D01*
X1074000D01*
X1075666Y665502D01*
Y660504D01*
Y663836D02*
X1078998Y667169D01*
Y670501D02*
Y673833D01*
Y672167D01*
X1069002D01*
X1070668Y670501D01*
X1069002Y685496D02*
Y678831D01*
X1074000D01*
X1072334Y682164D01*
Y683830D01*
X1074000Y685496D01*
X1077332D01*
X1078998Y683830D01*
Y680498D01*
X1077332Y678831D01*
X1402504Y909502D02*
Y919498D01*
X1407502D01*
X1409169Y917832D01*
Y914500D01*
X1407502Y912834D01*
X1402504D01*
X1405836D02*
X1409169Y909502D01*
X1412501D02*
X1415833D01*
X1414167D01*
Y919498D01*
X1412501Y917832D01*
X1425830Y909502D02*
Y919498D01*
X1420831Y914500D01*
X1427496D01*
X1372504Y835002D02*
Y844998D01*
X1377502D01*
X1379169Y843332D01*
Y840000D01*
X1377502Y838334D01*
X1372504D01*
X1375836D02*
X1379169Y835002D01*
X1382501D02*
X1385833D01*
X1384167D01*
Y844998D01*
X1382501Y843332D01*
X1390831D02*
X1392498Y844998D01*
X1395830D01*
X1397496Y843332D01*
Y841666D01*
X1395830Y840000D01*
X1394164D01*
X1395830D01*
X1397496Y838334D01*
Y836668D01*
X1395830Y835002D01*
X1392498D01*
X1390831Y836668D01*
X1300504Y847002D02*
Y856998D01*
X1305502D01*
X1307168Y855332D01*
Y852000D01*
X1305502Y850334D01*
X1300504D01*
X1303836D02*
X1307168Y847002D01*
X1310501D02*
X1313833D01*
X1312167D01*
Y856998D01*
X1310501Y855332D01*
X1325496Y847002D02*
X1318831D01*
X1325496Y853666D01*
Y855332D01*
X1323830Y856998D01*
X1320498D01*
X1318831Y855332D01*
X1466671Y820002D02*
Y829998D01*
X1471669D01*
X1473336Y828332D01*
Y825000D01*
X1471669Y823334D01*
X1466671D01*
X1470003D02*
X1473336Y820002D01*
X1481666D02*
Y829998D01*
X1476668Y825000D01*
X1483332D01*
X1493329Y820002D02*
X1486664D01*
X1493329Y826666D01*
Y828332D01*
X1491663Y829998D01*
X1488331D01*
X1486664Y828332D01*
X1468337Y657502D02*
Y667498D01*
X1473336D01*
X1475002Y665832D01*
Y662500D01*
X1473336Y660834D01*
X1468337D01*
X1471669D02*
X1475002Y657502D01*
X1484998Y667498D02*
X1478334D01*
Y662500D01*
X1481666Y664166D01*
X1483332D01*
X1484998Y662500D01*
Y659168D01*
X1483332Y657502D01*
X1480000D01*
X1478334Y659168D01*
X1488331Y657502D02*
X1491663D01*
X1489997D01*
Y667498D01*
X1488331Y665832D01*
X1197998Y840170D02*
X1188002D01*
Y845169D01*
X1189668Y846835D01*
X1193000D01*
X1194666Y845169D01*
Y840170D01*
Y843502D02*
X1197998Y846835D01*
Y850167D02*
Y853499D01*
Y851833D01*
X1188002D01*
X1189668Y850167D01*
X1197998Y858498D02*
Y861830D01*
Y860164D01*
X1188002D01*
X1189668Y858498D01*
X1466671Y777502D02*
Y787498D01*
X1471669D01*
X1473336Y785832D01*
Y782500D01*
X1471669Y780834D01*
X1466671D01*
X1470003D02*
X1473336Y777502D01*
X1476668Y785832D02*
X1478334Y787498D01*
X1481666D01*
X1483332Y785832D01*
Y784166D01*
X1481666Y782500D01*
X1480000D01*
X1481666D01*
X1483332Y780834D01*
Y779168D01*
X1481666Y777502D01*
X1478334D01*
X1476668Y779168D01*
X1493329Y787498D02*
X1489997Y785832D01*
X1486664Y782500D01*
Y779168D01*
X1488331Y777502D01*
X1491663D01*
X1493329Y779168D01*
Y780834D01*
X1491663Y782500D01*
X1486664D01*
X1360169Y761002D02*
Y770998D01*
X1365168D01*
X1366834Y769332D01*
Y766000D01*
X1365168Y764334D01*
X1360169D01*
X1363502D02*
X1366834Y761002D01*
X1370166Y762668D02*
X1371832Y761002D01*
X1375164D01*
X1376831Y762668D01*
Y769332D01*
X1375164Y770998D01*
X1371832D01*
X1370166Y769332D01*
Y767666D01*
X1371832Y766000D01*
X1376831D01*
X1466671Y617502D02*
Y627498D01*
X1471669D01*
X1473336Y625832D01*
Y622500D01*
X1471669Y620834D01*
X1466671D01*
X1470003D02*
X1473336Y617502D01*
X1481666D02*
Y627498D01*
X1476668Y622500D01*
X1483332D01*
X1493329Y627498D02*
X1486664D01*
Y622500D01*
X1489997Y624166D01*
X1491663D01*
X1493329Y622500D01*
Y619168D01*
X1491663Y617502D01*
X1488331D01*
X1486664Y619168D01*
X1466671Y737502D02*
Y747498D01*
X1471669D01*
X1473336Y745832D01*
Y742500D01*
X1471669Y740834D01*
X1466671D01*
X1470003D02*
X1473336Y737502D01*
X1476668Y745832D02*
X1478334Y747498D01*
X1481666D01*
X1483332Y745832D01*
Y744166D01*
X1481666Y742500D01*
X1480000D01*
X1481666D01*
X1483332Y740834D01*
Y739168D01*
X1481666Y737502D01*
X1478334D01*
X1476668Y739168D01*
X1486664Y745832D02*
X1488331Y747498D01*
X1491663D01*
X1493329Y745832D01*
Y739168D01*
X1491663Y737502D01*
X1488331D01*
X1486664Y739168D01*
Y745832D01*
X1407498Y664169D02*
X1397502D01*
Y669168D01*
X1399168Y670834D01*
X1402500D01*
X1404166Y669168D01*
Y664169D01*
Y667502D02*
X1407498Y670834D01*
X1399168Y674166D02*
X1397502Y675832D01*
Y679165D01*
X1399168Y680831D01*
X1400834D01*
X1402500Y679165D01*
X1404166Y680831D01*
X1405832D01*
X1407498Y679165D01*
Y675832D01*
X1405832Y674166D01*
X1404166D01*
X1402500Y675832D01*
X1400834Y674166D01*
X1399168D01*
X1402500Y675832D02*
Y679165D01*
X1466671Y577502D02*
Y587498D01*
X1471669D01*
X1473336Y585832D01*
Y582500D01*
X1471669Y580834D01*
X1466671D01*
X1470003D02*
X1473336Y577502D01*
X1476668Y585832D02*
X1478334Y587498D01*
X1481666D01*
X1483332Y585832D01*
Y584166D01*
X1481666Y582500D01*
X1480000D01*
X1481666D01*
X1483332Y580834D01*
Y579168D01*
X1481666Y577502D01*
X1478334D01*
X1476668Y579168D01*
X1486664D02*
X1488331Y577502D01*
X1491663D01*
X1493329Y579168D01*
Y585832D01*
X1491663Y587498D01*
X1488331D01*
X1486664Y585832D01*
Y584166D01*
X1488331Y582500D01*
X1493329D01*
X1289669Y647002D02*
Y656998D01*
X1294668D01*
X1296334Y655332D01*
Y652000D01*
X1294668Y650334D01*
X1289669D01*
X1293002D02*
X1296334Y647002D01*
X1299666Y656998D02*
X1306331D01*
Y655332D01*
X1299666Y648668D01*
Y647002D01*
X1466671Y707502D02*
Y717498D01*
X1471669D01*
X1473336Y715832D01*
Y712500D01*
X1471669Y710834D01*
X1466671D01*
X1470003D02*
X1473336Y707502D01*
X1483332D02*
X1476668D01*
X1483332Y714166D01*
Y715832D01*
X1481666Y717498D01*
X1478334D01*
X1476668Y715832D01*
X1493329Y717498D02*
X1486664D01*
Y712500D01*
X1489997Y714166D01*
X1491663D01*
X1493329Y712500D01*
Y709168D01*
X1491663Y707502D01*
X1488331D01*
X1486664Y709168D01*
X1145669Y622002D02*
Y631998D01*
X1150668D01*
X1152334Y630332D01*
Y627000D01*
X1150668Y625334D01*
X1145669D01*
X1149002D02*
X1152334Y622002D01*
X1162331Y631998D02*
X1158998Y630332D01*
X1155666Y627000D01*
Y623668D01*
X1157332Y622002D01*
X1160665D01*
X1162331Y623668D01*
Y625334D01*
X1160665Y627000D01*
X1155666D01*
X1466671Y537502D02*
Y547498D01*
X1471669D01*
X1473336Y545832D01*
Y542500D01*
X1471669Y540834D01*
X1466671D01*
X1470003D02*
X1473336Y537502D01*
X1476668Y545832D02*
X1478334Y547498D01*
X1481666D01*
X1483332Y545832D01*
Y544166D01*
X1481666Y542500D01*
X1480000D01*
X1481666D01*
X1483332Y540834D01*
Y539168D01*
X1481666Y537502D01*
X1478334D01*
X1476668Y539168D01*
X1486664Y545832D02*
X1488331Y547498D01*
X1491663D01*
X1493329Y545832D01*
Y544166D01*
X1491663Y542500D01*
X1489997D01*
X1491663D01*
X1493329Y540834D01*
Y539168D01*
X1491663Y537502D01*
X1488331D01*
X1486664Y539168D01*
X1263669Y749002D02*
Y758998D01*
X1268668D01*
X1270334Y757332D01*
Y754000D01*
X1268668Y752334D01*
X1263669D01*
X1267002D02*
X1270334Y749002D01*
X1280331Y758998D02*
X1273666D01*
Y754000D01*
X1276998Y755666D01*
X1278664D01*
X1280331Y754000D01*
Y750668D01*
X1278664Y749002D01*
X1275332D01*
X1273666Y750668D01*
X1179998Y693669D02*
X1170002D01*
Y698668D01*
X1171668Y700334D01*
X1175000D01*
X1176666Y698668D01*
Y693669D01*
Y697002D02*
X1179998Y700334D01*
Y708664D02*
X1170002D01*
X1175000Y703666D01*
Y710331D01*
X1466671Y522502D02*
Y532498D01*
X1471669D01*
X1473336Y530832D01*
Y527500D01*
X1471669Y525834D01*
X1466671D01*
X1470003D02*
X1473336Y522502D01*
X1483332D02*
X1476668D01*
X1483332Y529166D01*
Y530832D01*
X1481666Y532498D01*
X1478334D01*
X1476668Y530832D01*
X1486664Y532498D02*
X1493329D01*
Y530832D01*
X1486664Y524168D01*
Y522502D01*
X1079669Y623002D02*
Y632998D01*
X1084668D01*
X1086334Y631332D01*
Y628000D01*
X1084668Y626334D01*
X1079669D01*
X1083002D02*
X1086334Y623002D01*
X1089666Y631332D02*
X1091332Y632998D01*
X1094665D01*
X1096331Y631332D01*
Y629666D01*
X1094665Y628000D01*
X1092998D01*
X1094665D01*
X1096331Y626334D01*
Y624668D01*
X1094665Y623002D01*
X1091332D01*
X1089666Y624668D01*
X1124919Y693002D02*
Y702998D01*
X1129918D01*
X1131584Y701332D01*
Y698000D01*
X1129918Y696334D01*
X1124919D01*
X1128252D02*
X1131584Y693002D01*
X1141581D02*
X1134916D01*
X1141581Y699666D01*
Y701332D01*
X1139914Y702998D01*
X1136582D01*
X1134916Y701332D01*
X1021998Y659335D02*
X1012002D01*
Y664334D01*
X1013668Y666000D01*
X1017000D01*
X1018666Y664334D01*
Y659335D01*
Y662668D02*
X1021998Y666000D01*
Y669332D02*
Y672664D01*
Y670998D01*
X1012002D01*
X1013668Y669332D01*
X1290654Y941318D02*
Y947983D01*
X1288988Y949649D01*
X1285656D01*
X1283990Y947983D01*
Y941318D01*
X1285656Y939652D01*
X1288988D01*
X1287322Y942984D02*
X1290654Y939652D01*
X1288988D02*
X1290654Y941318D01*
X1293987Y947983D02*
X1295653Y949649D01*
X1298985D01*
X1300651Y947983D01*
Y946317D01*
X1298985Y944651D01*
X1297319D01*
X1298985D01*
X1300651Y942984D01*
Y941318D01*
X1298985Y939652D01*
X1295653D01*
X1293987Y941318D01*
X1332000Y771668D02*
Y778332D01*
X1330334Y779998D01*
X1327002D01*
X1325336Y778332D01*
Y771668D01*
X1327002Y770002D01*
X1330334D01*
X1328668Y773334D02*
X1332000Y770002D01*
X1330334D02*
X1332000Y771668D01*
X1335332Y770002D02*
X1338665D01*
X1336998D01*
Y779998D01*
X1335332Y778332D01*
X1286335Y548998D02*
Y539002D01*
X1293000D01*
X1296332D02*
X1299664D01*
X1297998D01*
Y548998D01*
X1296332Y547332D01*
X1007584Y940748D02*
X1004252D01*
X1005918D01*
Y932418D01*
X1004252Y930752D01*
X1002586D01*
X1000919Y932418D01*
X1010916Y939082D02*
X1012582Y940748D01*
X1015915D01*
X1017581Y939082D01*
Y937416D01*
X1015915Y935750D01*
X1014248D01*
X1015915D01*
X1017581Y934084D01*
Y932418D01*
X1015915Y930752D01*
X1012582D01*
X1010916Y932418D01*
X1060000Y535998D02*
X1056668D01*
X1058334D01*
Y527668D01*
X1056668Y526002D01*
X1055002D01*
X1053335Y527668D01*
X1063332Y526002D02*
X1066665D01*
X1064998D01*
Y535998D01*
X1063332Y534332D01*
X1241964Y631018D02*
X1245296D01*
X1243630D01*
Y621022D01*
X1241964D01*
X1245296D01*
X1256959Y629352D02*
X1255293Y631018D01*
X1251961D01*
X1250295Y629352D01*
Y622688D01*
X1251961Y621022D01*
X1255293D01*
X1256959Y622688D01*
X1265290Y621022D02*
Y631018D01*
X1260292Y626020D01*
X1266956D01*
X1313504Y668998D02*
X1316836D01*
X1315170D01*
Y659002D01*
X1313504D01*
X1316836D01*
X1328499Y667332D02*
X1326833Y668998D01*
X1323501D01*
X1321835Y667332D01*
Y660668D01*
X1323501Y659002D01*
X1326833D01*
X1328499Y660668D01*
X1338496Y659002D02*
X1331831D01*
X1338496Y665666D01*
Y667332D01*
X1336830Y668998D01*
X1333498D01*
X1331831Y667332D01*
X1178669Y569998D02*
Y560002D01*
X1183668D01*
X1185334Y561668D01*
Y568332D01*
X1183668Y569998D01*
X1178669D01*
X1195331Y560002D02*
X1188666D01*
X1195331Y566666D01*
Y568332D01*
X1193664Y569998D01*
X1190332D01*
X1188666Y568332D01*
X1254335Y865998D02*
Y856002D01*
X1259334D01*
X1261000Y857668D01*
Y864332D01*
X1259334Y865998D01*
X1254335D01*
X1264332Y856002D02*
X1267664D01*
X1265998D01*
Y865998D01*
X1264332Y864332D01*
X1407414Y750661D02*
Y740664D01*
X1412412D01*
X1414079Y742330D01*
Y748995D01*
X1412412Y750661D01*
X1407414D01*
X1417411Y748995D02*
X1419077Y750661D01*
X1422409D01*
X1424075Y748995D01*
Y747328D01*
X1422409Y745662D01*
X1420743D01*
X1422409D01*
X1424075Y743996D01*
Y742330D01*
X1422409Y740664D01*
X1419077D01*
X1417411Y742330D01*
X1394968Y553049D02*
Y543052D01*
X1399966D01*
X1401633Y544718D01*
Y551383D01*
X1399966Y553049D01*
X1394968D01*
X1409963Y543052D02*
Y553049D01*
X1404965Y548050D01*
X1411629D01*
X1188332Y530831D02*
X1189998Y532498D01*
Y535830D01*
X1188332Y537496D01*
X1181668D01*
X1180002Y535830D01*
Y532498D01*
X1181668Y530831D01*
X1180002Y527499D02*
Y524167D01*
Y525833D01*
X1189998D01*
X1188332Y527499D01*
X1189998Y512504D02*
X1188332Y515836D01*
X1185000Y519169D01*
X1181668D01*
X1180002Y517502D01*
Y514170D01*
X1181668Y512504D01*
X1183334D01*
X1185000Y514170D01*
Y519169D01*
X1185918Y613669D02*
X1184252Y612002D01*
Y608670D01*
X1185918Y607004D01*
X1192582D01*
X1194248Y608670D01*
Y612002D01*
X1192582Y613669D01*
X1194248Y617001D02*
Y620333D01*
Y618667D01*
X1184252D01*
X1185918Y617001D01*
X1184252Y631996D02*
Y625331D01*
X1189250D01*
X1187584Y628664D01*
Y630330D01*
X1189250Y631996D01*
X1192582D01*
X1194248Y630330D01*
Y626998D01*
X1192582Y625331D01*
X1303128Y576688D02*
X1301462Y575022D01*
Y571690D01*
X1303128Y570024D01*
X1309792D01*
X1311458Y571690D01*
Y575022D01*
X1309792Y576688D01*
X1311458Y580021D02*
Y583353D01*
Y581687D01*
X1301462D01*
X1303128Y580021D01*
X1311458Y593350D02*
X1301462D01*
X1306460Y588351D01*
Y595016D01*
X1454465Y943051D02*
X1452798Y944717D01*
X1449466D01*
X1447800Y943051D01*
Y936386D01*
X1449466Y934720D01*
X1452798D01*
X1454465Y936386D01*
X1464461Y934720D02*
X1457797D01*
X1464461Y941385D01*
Y943051D01*
X1462795Y944717D01*
X1459463D01*
X1457797Y943051D01*
X1467794Y944717D02*
X1474458D01*
Y943051D01*
X1467794Y936386D01*
Y934720D01*
X1376669Y813332D02*
X1375002Y814998D01*
X1371670D01*
X1370004Y813332D01*
Y806668D01*
X1371670Y805002D01*
X1375002D01*
X1376669Y806668D01*
X1380001Y805002D02*
X1383333D01*
X1381667D01*
Y814998D01*
X1380001Y813332D01*
X1394996Y805002D02*
X1388331D01*
X1394996Y811666D01*
Y813332D01*
X1393330Y814998D01*
X1389998D01*
X1388331Y813332D01*
X1323335Y800832D02*
X1321669Y802498D01*
X1318336D01*
X1316670Y800832D01*
Y794168D01*
X1318336Y792502D01*
X1321669D01*
X1323335Y794168D01*
X1326667Y792502D02*
X1329999D01*
X1328333D01*
Y802498D01*
X1326667Y800832D01*
X1334998Y792502D02*
X1338330D01*
X1336664D01*
Y802498D01*
X1334998Y800832D01*
X1421668Y878836D02*
X1420002Y877169D01*
Y873837D01*
X1421668Y872171D01*
X1428332D01*
X1429998Y873837D01*
Y877169D01*
X1428332Y878836D01*
X1429998Y888832D02*
Y882168D01*
X1423334Y888832D01*
X1421668D01*
X1420002Y887166D01*
Y883834D01*
X1421668Y882168D01*
X1420002Y898829D02*
X1421668Y895497D01*
X1425000Y892165D01*
X1428332D01*
X1429998Y893831D01*
Y897163D01*
X1428332Y898829D01*
X1426666D01*
X1425000Y897163D01*
Y892165D01*
X1337168Y854332D02*
X1335502Y855998D01*
X1332170D01*
X1330504Y854332D01*
Y847668D01*
X1332170Y846002D01*
X1335502D01*
X1337168Y847668D01*
X1340501Y846002D02*
X1343833D01*
X1342167D01*
Y855998D01*
X1340501Y854332D01*
X1348831D02*
X1350498Y855998D01*
X1353830D01*
X1355496Y854332D01*
Y847668D01*
X1353830Y846002D01*
X1350498D01*
X1348831Y847668D01*
Y854332D01*
X1434168Y843335D02*
X1432502Y841669D01*
Y838337D01*
X1434168Y836671D01*
X1440832D01*
X1442498Y838337D01*
Y841669D01*
X1440832Y843335D01*
X1442498Y853332D02*
Y846668D01*
X1435834Y853332D01*
X1434168D01*
X1432502Y851666D01*
Y848334D01*
X1434168Y846668D01*
Y856665D02*
X1432502Y858331D01*
Y861663D01*
X1434168Y863329D01*
X1435834D01*
X1437500Y861663D01*
Y859997D01*
Y861663D01*
X1439166Y863329D01*
X1440832D01*
X1442498Y861663D01*
Y858331D01*
X1440832Y856665D01*
X1426668Y670835D02*
X1425002Y669169D01*
Y665837D01*
X1426668Y664171D01*
X1433332D01*
X1434998Y665837D01*
Y669169D01*
X1433332Y670835D01*
X1434998Y680832D02*
Y674168D01*
X1428334Y680832D01*
X1426668D01*
X1425002Y679166D01*
Y675834D01*
X1426668Y674168D01*
X1425002Y690829D02*
Y684165D01*
X1430000D01*
X1428334Y687497D01*
Y689163D01*
X1430000Y690829D01*
X1433332D01*
X1434998Y689163D01*
Y685831D01*
X1433332Y684165D01*
X1436668Y805002D02*
X1435002Y803335D01*
Y800003D01*
X1436668Y798337D01*
X1443332D01*
X1444998Y800003D01*
Y803335D01*
X1443332Y805002D01*
X1444998Y814998D02*
Y808334D01*
X1438334Y814998D01*
X1436668D01*
X1435002Y813332D01*
Y810000D01*
X1436668Y808334D01*
X1444998Y818331D02*
Y821663D01*
Y819997D01*
X1435002D01*
X1436668Y818331D01*
X1192334Y689332D02*
X1190668Y690998D01*
X1187336D01*
X1185669Y689332D01*
Y682668D01*
X1187336Y681002D01*
X1190668D01*
X1192334Y682668D01*
X1195666D02*
X1197332Y681002D01*
X1200665D01*
X1202331Y682668D01*
Y689332D01*
X1200665Y690998D01*
X1197332D01*
X1195666Y689332D01*
Y687666D01*
X1197332Y686000D01*
X1202331D01*
X1223334Y741332D02*
X1221668Y742998D01*
X1218335D01*
X1216669Y741332D01*
Y734668D01*
X1218335Y733002D01*
X1221668D01*
X1223334Y734668D01*
X1226666Y741332D02*
X1228332Y742998D01*
X1231665D01*
X1233331Y741332D01*
Y739666D01*
X1231665Y738000D01*
X1233331Y736334D01*
Y734668D01*
X1231665Y733002D01*
X1228332D01*
X1226666Y734668D01*
Y736334D01*
X1228332Y738000D01*
X1226666Y739666D01*
Y741332D01*
X1228332Y738000D02*
X1231665D01*
X1270334Y660332D02*
X1268668Y661998D01*
X1265335D01*
X1263669Y660332D01*
Y653668D01*
X1265335Y652002D01*
X1268668D01*
X1270334Y653668D01*
X1273666Y661998D02*
X1280331D01*
Y660332D01*
X1273666Y653668D01*
Y652002D01*
X1439168Y645835D02*
X1437502Y644169D01*
Y640837D01*
X1439168Y639171D01*
X1445832D01*
X1447498Y640837D01*
Y644169D01*
X1445832Y645835D01*
X1447498Y655832D02*
Y649168D01*
X1440834Y655832D01*
X1439168D01*
X1437502Y654166D01*
Y650834D01*
X1439168Y649168D01*
X1447498Y664163D02*
X1437502D01*
X1442500Y659165D01*
Y665829D01*
X1439168Y768919D02*
X1437502Y767252D01*
Y763920D01*
X1439168Y762254D01*
X1445832D01*
X1447498Y763920D01*
Y767252D01*
X1445832Y768919D01*
X1447498Y772251D02*
Y775583D01*
Y773917D01*
X1437502D01*
X1439168Y772251D01*
X1445832Y780581D02*
X1447498Y782248D01*
Y785580D01*
X1445832Y787246D01*
X1439168D01*
X1437502Y785580D01*
Y782248D01*
X1439168Y780581D01*
X1440834D01*
X1442500Y782248D01*
Y787246D01*
X1439168Y605835D02*
X1437502Y604169D01*
Y600837D01*
X1439168Y599171D01*
X1445832D01*
X1447498Y600837D01*
Y604169D01*
X1445832Y605835D01*
X1447498Y615832D02*
Y609168D01*
X1440834Y615832D01*
X1439168D01*
X1437502Y614166D01*
Y610834D01*
X1439168Y609168D01*
X1447498Y625829D02*
Y619165D01*
X1440834Y625829D01*
X1439168D01*
X1437502Y624163D01*
Y620831D01*
X1439168Y619165D01*
X1441668Y731668D02*
X1440002Y730002D01*
Y726670D01*
X1441668Y725004D01*
X1448332D01*
X1449998Y726670D01*
Y730002D01*
X1448332Y731668D01*
X1449998Y735001D02*
Y738333D01*
Y736667D01*
X1440002D01*
X1441668Y735001D01*
X1440002Y743331D02*
Y749996D01*
X1441668D01*
X1448332Y743331D01*
X1449998D01*
X1224334Y669332D02*
X1222668Y670998D01*
X1219335D01*
X1217669Y669332D01*
Y662668D01*
X1219335Y661002D01*
X1222668D01*
X1224334Y662668D01*
X1234331Y670998D02*
X1230998Y669332D01*
X1227666Y666000D01*
Y662668D01*
X1229332Y661002D01*
X1232664D01*
X1234331Y662668D01*
Y664334D01*
X1232664Y666000D01*
X1227666D01*
X1439168Y565835D02*
X1437502Y564169D01*
Y560837D01*
X1439168Y559171D01*
X1445832D01*
X1447498Y560837D01*
Y564169D01*
X1445832Y565835D01*
X1447498Y575832D02*
Y569168D01*
X1440834Y575832D01*
X1439168D01*
X1437502Y574166D01*
Y570834D01*
X1439168Y569168D01*
Y579165D02*
X1437502Y580831D01*
Y584163D01*
X1439168Y585829D01*
X1445832D01*
X1447498Y584163D01*
Y580831D01*
X1445832Y579165D01*
X1439168D01*
X1227334Y707332D02*
X1225668Y708998D01*
X1222336D01*
X1220669Y707332D01*
Y700668D01*
X1222336Y699002D01*
X1225668D01*
X1227334Y700668D01*
X1237331Y708998D02*
X1230666D01*
Y704000D01*
X1233998Y705666D01*
X1235665D01*
X1237331Y704000D01*
Y700668D01*
X1235665Y699002D01*
X1232332D01*
X1230666Y700668D01*
X1439168Y528919D02*
X1437502Y527252D01*
Y523920D01*
X1439168Y522254D01*
X1445832D01*
X1447498Y523920D01*
Y527252D01*
X1445832Y528919D01*
X1447498Y532251D02*
Y535583D01*
Y533917D01*
X1437502D01*
X1439168Y532251D01*
Y540582D02*
X1437502Y542248D01*
Y545580D01*
X1439168Y547246D01*
X1440834D01*
X1442500Y545580D01*
X1444166Y547246D01*
X1445832D01*
X1447498Y545580D01*
Y542248D01*
X1445832Y540582D01*
X1444166D01*
X1442500Y542248D01*
X1440834Y540582D01*
X1439168D01*
X1442500Y542248D02*
Y545580D01*
X1229334Y724332D02*
X1227668Y725998D01*
X1224335D01*
X1222669Y724332D01*
Y717668D01*
X1224335Y716002D01*
X1227668D01*
X1229334Y717668D01*
X1237664Y716002D02*
Y725998D01*
X1232666Y721000D01*
X1239331D01*
X1075334Y652332D02*
X1073668Y653998D01*
X1070335D01*
X1068669Y652332D01*
Y645668D01*
X1070335Y644002D01*
X1073668D01*
X1075334Y645668D01*
X1078666Y652332D02*
X1080332Y653998D01*
X1083664D01*
X1085331Y652332D01*
Y650666D01*
X1083664Y649000D01*
X1081998D01*
X1083664D01*
X1085331Y647334D01*
Y645668D01*
X1083664Y644002D01*
X1080332D01*
X1078666Y645668D01*
X1011668Y692334D02*
X1010002Y690668D01*
Y687336D01*
X1011668Y685669D01*
X1018332D01*
X1019998Y687336D01*
Y690668D01*
X1018332Y692334D01*
X1019998Y702331D02*
Y695666D01*
X1013334Y702331D01*
X1011668D01*
X1010002Y700665D01*
Y697332D01*
X1011668Y695666D01*
X1059000Y673332D02*
X1057334Y674998D01*
X1054002D01*
X1052336Y673332D01*
Y666668D01*
X1054002Y665002D01*
X1057334D01*
X1059000Y666668D01*
X1062332Y665002D02*
X1065665D01*
X1063998D01*
Y674998D01*
X1062332Y673332D01*
D14*
X1277903Y868689D02*
Y935613D01*
Y868689D02*
X1337577D01*
X1277903Y935613D02*
X1337577D01*
X1221290Y515000D02*
Y575000D01*
X1279710Y515000D02*
Y575000D01*
D15*
X1681500Y612500D02*
X1757500D01*
Y852000D01*
X1681500D02*
X1757500D01*
X1681500Y612500D02*
Y852000D01*
D16*
X1244686Y839189D02*
D03*
X1414685Y708689D02*
D03*
D17*
X1411190Y527815D02*
D03*
M02*
