%TF.GenerationSoftware,Altium Limited,Altium Designer,24.5.1 (21)*%
G04 Layer_Color=8388736*
%FSLAX45Y45*%
%MOMM*%
%TF.SameCoordinates,A56B3D6E-D5BE-476E-BB8E-EB53D717D8A4*%
%TF.FilePolarity,Negative*%
%TF.FileFunction,Soldermask,Top*%
%TF.Part,Single*%
G01*
G75*
%TA.AperFunction,SMDPad,CuDef*%
%ADD18R,2.60000X1.70000*%
%ADD32R,3.40000X2.10000*%
%TA.AperFunction,ComponentPad*%
%ADD39C,1.20000*%
%ADD40R,1.20000X1.20000*%
%ADD44C,1.57000*%
%ADD45R,1.57000X1.57000*%
%TA.AperFunction,SMDPad,CuDef*%
%ADD57R,1.15000X1.10000*%
%TA.AperFunction,BGAPad,CuDef*%
%ADD58R,0.90000X0.90000*%
%TA.AperFunction,ConnectorPad*%
%ADD59R,1.10000X1.70000*%
%TA.AperFunction,SMDPad,CuDef*%
%ADD60R,0.80000X1.10000*%
G04:AMPARAMS|DCode=61|XSize=1.6mm|YSize=0.4mm|CornerRadius=0.0995mm|HoleSize=0mm|Usage=FLASHONLY|Rotation=0.000|XOffset=0mm|YOffset=0mm|HoleType=Round|Shape=RoundedRectangle|*
%AMROUNDEDRECTD61*
21,1,1.60000,0.20100,0,0,0.0*
21,1,1.40100,0.40000,0,0,0.0*
1,1,0.19900,0.70050,-0.10050*
1,1,0.19900,-0.70050,-0.10050*
1,1,0.19900,-0.70050,0.10050*
1,1,0.19900,0.70050,0.10050*
%
%ADD61ROUNDEDRECTD61*%
%ADD62R,1.10000X0.80000*%
%ADD63R,1.00000X1.10000*%
%ADD64R,1.40000X0.80000*%
%ADD65R,5.69999X2.35000*%
%ADD66R,1.00000X1.00000*%
%ADD67R,1.00000X1.00000*%
%ADD68R,1.45000X0.80000*%
%ADD69R,3.19999X1.80000*%
%ADD70R,0.80000X1.40000*%
%ADD71R,1.20000X1.60000*%
%ADD72R,1.10000X1.00000*%
%ADD73R,0.70000X1.10000*%
%ADD74R,1.60000X2.85000*%
G04:AMPARAMS|DCode=75|XSize=4.2mm|YSize=5.2mm|CornerRadius=1.1mm|HoleSize=0mm|Usage=FLASHONLY|Rotation=0.000|XOffset=0mm|YOffset=0mm|HoleType=Round|Shape=RoundedRectangle|*
%AMROUNDEDRECTD75*
21,1,4.20000,3.00000,0,0,0.0*
21,1,2.00000,5.20000,0,0,0.0*
1,1,2.20000,1.00000,-1.50000*
1,1,2.20000,-1.00000,-1.50000*
1,1,2.20000,-1.00000,1.50000*
1,1,2.20000,1.00000,1.50000*
%
%ADD75ROUNDEDRECTD75*%
%ADD76R,1.10000X1.15000*%
G04:AMPARAMS|DCode=77|XSize=4.2mm|YSize=5.2mm|CornerRadius=1.1mm|HoleSize=0mm|Usage=FLASHONLY|Rotation=90.000|XOffset=0mm|YOffset=0mm|HoleType=Round|Shape=RoundedRectangle|*
%AMROUNDEDRECTD77*
21,1,4.20000,3.00000,0,0,90.0*
21,1,2.00000,5.20000,0,0,90.0*
1,1,2.20000,1.50000,1.00000*
1,1,2.20000,1.50000,-1.00000*
1,1,2.20000,-1.50000,-1.00000*
1,1,2.20000,-1.50000,1.00000*
%
%ADD77ROUNDEDRECTD77*%
%TA.AperFunction,ComponentPad*%
%ADD78C,1.80000*%
G04:AMPARAMS|DCode=79|XSize=1.8mm|YSize=1.8mm|CornerRadius=0.5mm|HoleSize=0mm|Usage=FLASHONLY|Rotation=180.000|XOffset=0mm|YOffset=0mm|HoleType=Round|Shape=RoundedRectangle|*
%AMROUNDEDRECTD79*
21,1,1.80000,0.80000,0,0,180.0*
21,1,0.80000,1.80000,0,0,180.0*
1,1,1.00000,-0.40000,0.40000*
1,1,1.00000,0.40000,0.40000*
1,1,1.00000,0.40000,-0.40000*
1,1,1.00000,-0.40000,-0.40000*
%
%ADD79ROUNDEDRECTD79*%
G04:AMPARAMS|DCode=80|XSize=1.8mm|YSize=1.8mm|CornerRadius=0.5mm|HoleSize=0mm|Usage=FLASHONLY|Rotation=270.000|XOffset=0mm|YOffset=0mm|HoleType=Round|Shape=RoundedRectangle|*
%AMROUNDEDRECTD80*
21,1,1.80000,0.80000,0,0,270.0*
21,1,0.80000,1.80000,0,0,270.0*
1,1,1.00000,-0.40000,-0.40000*
1,1,1.00000,-0.40000,0.40000*
1,1,1.00000,0.40000,0.40000*
1,1,1.00000,0.40000,-0.40000*
%
%ADD80ROUNDEDRECTD80*%
%ADD81R,1.50000X1.50000*%
%ADD82C,1.50000*%
G36*
X13631107Y9098428D02*
X13632393Y9098173D01*
X13633633Y9097751D01*
X13634810Y9097171D01*
X13635899Y9096443D01*
X13636885Y9095579D01*
X13637750Y9094593D01*
X13638478Y9093503D01*
X13639058Y9092328D01*
X13639479Y9091086D01*
X13639735Y9089801D01*
X13639821Y9088493D01*
Y8508494D01*
X13639735Y8507186D01*
X13639479Y8505900D01*
X13639058Y8504659D01*
X13638478Y8503483D01*
X13637750Y8502393D01*
X13636885Y8501408D01*
X13635899Y8500543D01*
X13634810Y8499815D01*
X13633633Y8499235D01*
X13632393Y8498814D01*
X13631107Y8498558D01*
X13629799Y8498472D01*
X13029799D01*
X13028491Y8498558D01*
X13027205Y8498814D01*
X13025964Y8499235D01*
X13024788Y8499815D01*
X13023698Y8500543D01*
X13022713Y8501408D01*
X13021848Y8502393D01*
X13021120Y8503483D01*
X13020540Y8504659D01*
X13020119Y8505900D01*
X13019862Y8507186D01*
X13019778Y8508494D01*
Y9088493D01*
X13019862Y9089801D01*
X13020119Y9091086D01*
X13020540Y9092328D01*
X13021120Y9093503D01*
X13021848Y9094593D01*
X13022713Y9095579D01*
X13023698Y9096443D01*
X13024788Y9097171D01*
X13025964Y9097751D01*
X13027205Y9098173D01*
X13028491Y9098428D01*
X13029799Y9098514D01*
X13629799D01*
X13631107Y9098428D01*
D02*
G37*
D18*
X12035000Y6030000D02*
D03*
X11625000D02*
D03*
D32*
X13860001Y8905000D02*
D03*
Y8275000D02*
D03*
D39*
X10995000Y6410000D02*
D03*
X11395000Y6610000D02*
D03*
D40*
X10995000D02*
D03*
X11395000Y6410000D02*
D03*
D44*
X12140000Y7710000D02*
D03*
X11750000Y7696000D02*
D03*
Y7950000D02*
D03*
D45*
Y8204000D02*
D03*
D57*
X14139999Y6957500D02*
D03*
X14139999Y7272500D02*
D03*
X12480000Y8227500D02*
D03*
X12480000Y7912500D02*
D03*
D58*
X10990000Y8410000D02*
D03*
Y8300000D02*
D03*
Y8190000D02*
D03*
X10880000D02*
D03*
X10770000D02*
D03*
Y8300000D02*
D03*
Y8410000D02*
D03*
X10880000D02*
D03*
Y8300000D02*
D03*
D59*
X10260000Y9079000D02*
D03*
X10410000D02*
D03*
X10560000D02*
D03*
X10710000D02*
D03*
X10860000D02*
D03*
X11010000D02*
D03*
X11160000D02*
D03*
X11310000D02*
D03*
X11460000D02*
D03*
Y7329000D02*
D03*
X11310000D02*
D03*
X11160000D02*
D03*
X11010000D02*
D03*
X10860000D02*
D03*
X10710000D02*
D03*
X10560000D02*
D03*
X10410000D02*
D03*
X10260000D02*
D03*
D60*
X12895000Y6630000D02*
D03*
X13045000D02*
D03*
Y6419999D02*
D03*
X12895000D02*
D03*
X10810000Y6040000D02*
D03*
X10660000D02*
D03*
X14735001Y8715000D02*
D03*
X14585001D02*
D03*
X14735001Y8895000D02*
D03*
X14585001D02*
D03*
X14735001Y9085000D02*
D03*
X14585001D02*
D03*
X14735001Y7275000D02*
D03*
X14585001D02*
D03*
X14735001Y6825000D02*
D03*
X14585001D02*
D03*
X14735001Y6975000D02*
D03*
X14585001D02*
D03*
X14735001Y7785000D02*
D03*
X14585001D02*
D03*
X14735001Y7605000D02*
D03*
X14585001D02*
D03*
X14735001Y7125000D02*
D03*
X14585001D02*
D03*
X14735001Y6675000D02*
D03*
X14585001D02*
D03*
X14735001Y7415000D02*
D03*
X14585001D02*
D03*
X14735001Y8525000D02*
D03*
X14585001D02*
D03*
X14735001Y8345000D02*
D03*
X14585001D02*
D03*
X14735001Y8155000D02*
D03*
X14585001D02*
D03*
X14735001Y7975000D02*
D03*
X14585001D02*
D03*
X14735001Y5585000D02*
D03*
X14585001D02*
D03*
X14735001Y6125000D02*
D03*
X14585001D02*
D03*
X14735001Y5755000D02*
D03*
X14585001D02*
D03*
X14735001Y5935000D02*
D03*
X14585001D02*
D03*
X14735001Y6495000D02*
D03*
X14585001D02*
D03*
X14735001Y6305000D02*
D03*
X14585001D02*
D03*
X10295000Y6670000D02*
D03*
X10445000D02*
D03*
X13455000Y8350000D02*
D03*
X13305000D02*
D03*
X13195000Y8220000D02*
D03*
X13045000D02*
D03*
D61*
X13489999Y7425000D02*
D03*
Y7375000D02*
D03*
Y7325000D02*
D03*
Y7275000D02*
D03*
Y7225000D02*
D03*
Y7175000D02*
D03*
Y7125000D02*
D03*
Y7075000D02*
D03*
Y7025000D02*
D03*
Y6975000D02*
D03*
Y6925000D02*
D03*
Y6875000D02*
D03*
Y6825000D02*
D03*
Y6775000D02*
D03*
X12910001D02*
D03*
Y6825000D02*
D03*
Y6875000D02*
D03*
Y6925000D02*
D03*
Y6975000D02*
D03*
Y7025000D02*
D03*
Y7075000D02*
D03*
Y7125000D02*
D03*
Y7175000D02*
D03*
Y7225000D02*
D03*
Y7275000D02*
D03*
Y7325000D02*
D03*
Y7375000D02*
D03*
Y7425000D02*
D03*
Y7475000D02*
D03*
X13489999D02*
D03*
D62*
X10682500Y6915000D02*
D03*
Y7065000D02*
D03*
X11440000Y5735000D02*
D03*
Y5585000D02*
D03*
X12780000Y6435000D02*
D03*
Y6284999D02*
D03*
X12310000Y7975000D02*
D03*
Y8125000D02*
D03*
X14139999Y6660000D02*
D03*
Y6810000D02*
D03*
X14140001Y5515000D02*
D03*
Y5665000D02*
D03*
X12160000Y8125000D02*
D03*
Y7975000D02*
D03*
X11680000Y8705000D02*
D03*
Y8555000D02*
D03*
Y8815000D02*
D03*
Y8965000D02*
D03*
X11152500Y6915000D02*
D03*
Y7065000D02*
D03*
X13500000Y7600000D02*
D03*
Y7750000D02*
D03*
X10857500Y6910000D02*
D03*
Y7060000D02*
D03*
X12260000Y7225000D02*
D03*
Y7375000D02*
D03*
D63*
X11940000Y7350000D02*
D03*
X11700000Y7255000D02*
D03*
Y7445000D02*
D03*
D64*
X11285000Y5575000D02*
D03*
Y5765000D02*
D03*
X11035000Y5670000D02*
D03*
D65*
X12540000Y5587499D02*
D03*
X12540005Y5972499D02*
D03*
D66*
X11810000Y5625000D02*
D03*
Y5775000D02*
D03*
X12920000Y6025000D02*
D03*
Y6175000D02*
D03*
X11569961Y5584989D02*
D03*
Y5734989D02*
D03*
X14430000Y7985000D02*
D03*
Y8135000D02*
D03*
Y7275000D02*
D03*
Y7425000D02*
D03*
Y8355000D02*
D03*
Y8505000D02*
D03*
Y7615000D02*
D03*
Y7765000D02*
D03*
Y5750000D02*
D03*
Y5900000D02*
D03*
Y6135000D02*
D03*
Y6285000D02*
D03*
Y6505000D02*
D03*
Y6655000D02*
D03*
X12475000Y6760000D02*
D03*
Y6910000D02*
D03*
X10450000Y6875000D02*
D03*
Y7025000D02*
D03*
X12675000Y6760000D02*
D03*
Y6910000D02*
D03*
X10440000Y6385000D02*
D03*
Y6535000D02*
D03*
X10290000Y6875000D02*
D03*
Y7025000D02*
D03*
D67*
X12505000Y6539999D02*
D03*
X12355000D02*
D03*
X14435001Y8710000D02*
D03*
X14285001D02*
D03*
X14435001Y9085000D02*
D03*
X14285001D02*
D03*
X14295001Y6990000D02*
D03*
X14445001D02*
D03*
X14445000Y6790000D02*
D03*
X14295000D02*
D03*
X14285001Y5590000D02*
D03*
X14435001D02*
D03*
X12445000Y7170000D02*
D03*
X12595000D02*
D03*
X12165000Y6910000D02*
D03*
X12315000D02*
D03*
X12445000Y7280000D02*
D03*
X12595000D02*
D03*
X12445000Y7050000D02*
D03*
X12595000D02*
D03*
X13305000Y8090000D02*
D03*
X13455000D02*
D03*
X13035001D02*
D03*
X13185001D02*
D03*
X13305000Y8220000D02*
D03*
X13455000D02*
D03*
D68*
X12380000Y6205000D02*
D03*
Y6300000D02*
D03*
Y6395000D02*
D03*
X12630000D02*
D03*
Y6300000D02*
D03*
Y6205000D02*
D03*
D69*
X12650094Y9026987D02*
D03*
X12650000Y8570000D02*
D03*
D70*
X12760000Y8255000D02*
D03*
X12855000Y8005000D02*
D03*
X12665000D02*
D03*
D71*
X10830000Y5880000D02*
D03*
X10735000Y5660000D02*
D03*
X10640000Y5880000D02*
D03*
X13164999Y7680000D02*
D03*
X13070000Y7900000D02*
D03*
X12975000Y7680000D02*
D03*
D72*
X15285001Y7880000D02*
D03*
X15085001Y7785000D02*
D03*
Y7975000D02*
D03*
X15285001Y8250000D02*
D03*
X15085001Y8155000D02*
D03*
Y8345000D02*
D03*
X15285001Y8990000D02*
D03*
X15085001Y8895000D02*
D03*
Y9085000D02*
D03*
X15285001Y8620000D02*
D03*
X15085001Y8525000D02*
D03*
Y8715000D02*
D03*
X15285001Y7510000D02*
D03*
X15085001Y7415000D02*
D03*
Y7605000D02*
D03*
X15285001Y6030000D02*
D03*
X15085001Y5935000D02*
D03*
Y6125000D02*
D03*
X15285001Y5660000D02*
D03*
X15085001Y5565000D02*
D03*
Y5755000D02*
D03*
X15285001Y7140000D02*
D03*
X15085001Y7045000D02*
D03*
Y7235000D02*
D03*
X15285001Y6770000D02*
D03*
X15085001Y6675000D02*
D03*
Y6865000D02*
D03*
X15285001Y6400000D02*
D03*
X15085001Y6305000D02*
D03*
Y6495000D02*
D03*
D73*
X14920001Y7993700D02*
D03*
Y7766300D02*
D03*
Y8733700D02*
D03*
Y8506300D02*
D03*
Y9103700D02*
D03*
Y8876300D02*
D03*
Y7623700D02*
D03*
Y7396300D02*
D03*
Y8363700D02*
D03*
Y8136300D02*
D03*
X14920001Y5773700D02*
D03*
Y5546300D02*
D03*
X14920001Y7253700D02*
D03*
Y7026300D02*
D03*
Y6883700D02*
D03*
Y6656300D02*
D03*
Y6143700D02*
D03*
Y5916300D02*
D03*
Y6513700D02*
D03*
Y6286300D02*
D03*
D74*
X15947501Y5660000D02*
D03*
X15452501D02*
D03*
X15947501Y6030000D02*
D03*
X15452501D02*
D03*
Y8620000D02*
D03*
X15947501D02*
D03*
Y8990000D02*
D03*
X15452501D02*
D03*
X15947501Y6400000D02*
D03*
X15452501D02*
D03*
X15947501Y6770000D02*
D03*
X15452501D02*
D03*
X15947501Y7140000D02*
D03*
X15452501D02*
D03*
X15947501Y7510000D02*
D03*
X15452501D02*
D03*
X15947501Y7880000D02*
D03*
X15452501D02*
D03*
X15947501Y8250000D02*
D03*
X15452501D02*
D03*
D75*
X16639999Y8900000D02*
D03*
D76*
X11645000Y7080000D02*
D03*
X11960000Y7080000D02*
D03*
X14147501Y5840000D02*
D03*
X13832500Y5840000D02*
D03*
D77*
X12160000Y8630000D02*
D03*
D78*
X10328000Y8820000D02*
D03*
X10582000D02*
D03*
X11090000D02*
D03*
X10836000D02*
D03*
X10410000Y5643000D02*
D03*
D79*
X11344000Y8820000D02*
D03*
D80*
X10410000Y5897000D02*
D03*
D81*
X16470001Y6325000D02*
D03*
D82*
Y6525000D02*
D03*
Y6725000D02*
D03*
Y6925000D02*
D03*
Y7125000D02*
D03*
Y7325000D02*
D03*
Y7525000D02*
D03*
Y7725000D02*
D03*
Y7925000D02*
D03*
Y8125000D02*
D03*
Y8325000D02*
D03*
%TF.MD5,59438c01f055f411c7aa12d474a07188*%
M02*
