%TF.GenerationSoftware,Altium Limited,Altium Designer,24.1.2 (44)*%
G04 Layer_Color=8421504*
%FSLAX45Y45*%
%MOMM*%
%TF.SameCoordinates,126283BA-89AD-4916-A54F-9615FB238DFA*%
%TF.FilePolarity,Positive*%
%TF.FileFunction,Paste,Top*%
%TF.Part,Single*%
G01*
G75*
%TA.AperFunction,SMDPad,CuDef*%
%ADD18R,3.40000X2.10000*%
%ADD26R,1.13108X0.91213*%
%ADD27R,0.91213X0.95814*%
%ADD31R,0.75814X0.81213*%
%ADD32R,2.60000X1.70000*%
%ADD37R,0.95814X0.91213*%
%ADD38R,0.91213X1.13108*%
%ADD85R,0.99881X0.89881*%
%ADD86R,0.75654X0.85654*%
%TA.AperFunction,ConnectorPad*%
%ADD87R,0.81243X1.41243*%
%TA.AperFunction,BGAPad,CuDef*%
%ADD88R,0.64537X0.64537*%
%TA.AperFunction,SMDPad,CuDef*%
%ADD89R,0.89881X0.99881*%
%ADD90R,0.76321X0.61321*%
%ADD91R,0.55907X1.15907*%
%ADD92R,0.61321X0.76321*%
%ADD93R,0.90257X0.85257*%
%ADD94R,2.83775X1.43775*%
%ADD95R,5.73226X5.33226*%
%ADD96R,0.90544X0.75544*%
G04:AMPARAMS|DCode=97|XSize=3.65159mm|YSize=4.65159mm|CornerRadius=0.82579mm|HoleSize=0mm|Usage=FLASHONLY|Rotation=0.000|XOffset=0mm|YOffset=0mm|HoleType=Round|Shape=RoundedRectangle|*
%AMROUNDEDRECTD97*
21,1,3.65159,3.00000,0,0,0.0*
21,1,2.00000,4.65159,0,0,0.0*
1,1,1.65159,1.00000,-1.50000*
1,1,1.65159,-1.00000,-1.50000*
1,1,1.65159,-1.00000,1.50000*
1,1,1.65159,1.00000,1.50000*
%
%ADD97ROUNDEDRECTD97*%
%ADD98R,0.75544X0.90544*%
G04:AMPARAMS|DCode=99|XSize=1.48737mm|YSize=0.28737mm|CornerRadius=0.04319mm|HoleSize=0mm|Usage=FLASHONLY|Rotation=0.000|XOffset=0mm|YOffset=0mm|HoleType=Round|Shape=RoundedRectangle|*
%AMROUNDEDRECTD99*
21,1,1.48737,0.20100,0,0,0.0*
21,1,1.40100,0.28737,0,0,0.0*
1,1,0.08637,0.70050,-0.10050*
1,1,0.08637,-0.70050,-0.10050*
1,1,0.08637,-0.70050,0.10050*
1,1,0.08637,0.70050,0.10050*
%
%ADD99ROUNDEDRECTD99*%
%ADD100R,0.76483X0.56483*%
%ADD101R,0.94018X1.34018*%
%ADD102R,1.20853X0.55853*%
%ADD103R,5.26064X1.91065*%
%ADD104R,0.83390X0.73390*%
%ADD105R,0.44702X1.02202*%
%ADD106R,1.25758X2.50758*%
%ADD107R,0.85257X0.90257*%
D18*
X13800000Y8805000D02*
D03*
Y9435000D02*
D03*
D26*
X10569053Y6490000D02*
D03*
X10440948D02*
D03*
X12455948Y7040000D02*
D03*
X12584053D02*
D03*
X12455948Y7380000D02*
D03*
X12584053D02*
D03*
D27*
X10452500Y7022699D02*
D03*
Y6877301D02*
D03*
X12020000Y5372699D02*
D03*
Y5227301D02*
D03*
X12475000Y6857699D02*
D03*
Y6712301D02*
D03*
D31*
X12042301Y6145000D02*
D03*
X12167700D02*
D03*
X12582699Y7210000D02*
D03*
X12457301D02*
D03*
D32*
X11675000Y5890000D02*
D03*
X12085000D02*
D03*
D37*
X12275000Y6860000D02*
D03*
X12129601D02*
D03*
D38*
X12675000Y6720947D02*
D03*
Y6849052D02*
D03*
D85*
X14575000Y6597500D02*
D03*
Y6452500D02*
D03*
X10290000Y7022500D02*
D03*
Y6877500D02*
D03*
X12930000Y5747500D02*
D03*
Y5892500D02*
D03*
X14575000Y8452500D02*
D03*
Y8597500D02*
D03*
Y8052500D02*
D03*
Y8197500D02*
D03*
Y7652500D02*
D03*
Y7797500D02*
D03*
Y7227500D02*
D03*
Y7372500D02*
D03*
Y6052500D02*
D03*
Y6197500D02*
D03*
Y5277500D02*
D03*
Y5422500D02*
D03*
Y5652500D02*
D03*
Y5797500D02*
D03*
X14570000Y9182500D02*
D03*
Y9037500D02*
D03*
D86*
X11700000Y7445000D02*
D03*
Y7255000D02*
D03*
X11940000Y7350000D02*
D03*
D87*
X10260000Y7329000D02*
D03*
X10410000D02*
D03*
X10560000D02*
D03*
X10710000D02*
D03*
X10860000D02*
D03*
X11010000D02*
D03*
X11160000D02*
D03*
X11310000D02*
D03*
X11460000D02*
D03*
Y9079000D02*
D03*
X11310000D02*
D03*
X11160000D02*
D03*
X11010000D02*
D03*
X10860000D02*
D03*
X10710000D02*
D03*
X10560000D02*
D03*
X10410000D02*
D03*
X10260000D02*
D03*
D88*
X10880000Y8300000D02*
D03*
Y8410000D02*
D03*
X10770000D02*
D03*
Y8300000D02*
D03*
Y8190000D02*
D03*
X10880000D02*
D03*
X10990000D02*
D03*
Y8300000D02*
D03*
Y8410000D02*
D03*
D89*
X13447501Y8350000D02*
D03*
X13302499D02*
D03*
X13477499Y8125000D02*
D03*
X13622501D02*
D03*
X13127499D02*
D03*
X13272501D02*
D03*
X14572501Y8830000D02*
D03*
X14427499D02*
D03*
Y7000000D02*
D03*
X14572501D02*
D03*
Y6800000D02*
D03*
X14427499D02*
D03*
D90*
X11730000Y8892500D02*
D03*
Y9047500D02*
D03*
X11620000Y6910000D02*
D03*
Y7065000D02*
D03*
X11152500Y6912500D02*
D03*
Y7067500D02*
D03*
X12784601Y6287700D02*
D03*
Y6132700D02*
D03*
D91*
X12655000Y8305000D02*
D03*
X12845000D02*
D03*
X12750000Y8555000D02*
D03*
D92*
X11767500Y8710000D02*
D03*
X11612500D02*
D03*
X13062102Y6130200D02*
D03*
X12907101D02*
D03*
D93*
X12450000Y8272500D02*
D03*
X12450000Y8587500D02*
D03*
X14150000Y7282500D02*
D03*
X14150000Y6967500D02*
D03*
D94*
X12575000Y9250000D02*
D03*
X12574906Y8793013D02*
D03*
D95*
X13259705Y9021507D02*
D03*
D96*
X12060000Y8445000D02*
D03*
Y8575000D02*
D03*
X12270000Y8575000D02*
D03*
Y8445000D02*
D03*
X13500000Y7610000D02*
D03*
Y7740000D02*
D03*
X13625000Y8465000D02*
D03*
Y8335000D02*
D03*
X14150000Y6660000D02*
D03*
Y6790000D02*
D03*
D97*
X12110000Y8910000D02*
D03*
X17210001Y5580000D02*
D03*
D98*
X13010001Y8350000D02*
D03*
X13139999D02*
D03*
X11365000Y6275000D02*
D03*
X11235000D02*
D03*
X10715000D02*
D03*
X10585000D02*
D03*
X12615000Y7650000D02*
D03*
X12745000D02*
D03*
X10305000Y6670000D02*
D03*
X10435000D02*
D03*
X12304601Y6325200D02*
D03*
X12174601D02*
D03*
X12905000Y6630000D02*
D03*
X13035001D02*
D03*
X15114999Y9225000D02*
D03*
X14985001D02*
D03*
X15114999Y8025000D02*
D03*
X14985001D02*
D03*
X15114999Y8825000D02*
D03*
X14985001D02*
D03*
X15114999Y8625000D02*
D03*
X14985001D02*
D03*
X15114999Y8425000D02*
D03*
X14985001D02*
D03*
X15114999Y7625000D02*
D03*
X14985001D02*
D03*
X15114999Y6825000D02*
D03*
X14985001D02*
D03*
X15114999Y5625000D02*
D03*
X14985001D02*
D03*
X15114999Y6025000D02*
D03*
X14985001D02*
D03*
X15114999Y7275000D02*
D03*
X14985001D02*
D03*
X15114999Y9025000D02*
D03*
X14985001D02*
D03*
X15114999Y6425000D02*
D03*
X14985001D02*
D03*
X15114999Y6975000D02*
D03*
X14985001D02*
D03*
Y5825000D02*
D03*
X15114999D02*
D03*
Y8225000D02*
D03*
X14985001D02*
D03*
X15114999Y6625000D02*
D03*
X14985001D02*
D03*
X15114999Y7825000D02*
D03*
X14985001D02*
D03*
X15114999Y6225000D02*
D03*
X14985001D02*
D03*
X15114999Y7425000D02*
D03*
X14985001D02*
D03*
X15114999Y7125000D02*
D03*
X14985001D02*
D03*
X15114999Y5425000D02*
D03*
X14985001D02*
D03*
X15114999Y5275000D02*
D03*
X14985001D02*
D03*
D99*
X13489999Y7475000D02*
D03*
X12910001D02*
D03*
Y7425000D02*
D03*
Y7375000D02*
D03*
Y7325000D02*
D03*
Y7275000D02*
D03*
Y7225000D02*
D03*
Y7175000D02*
D03*
Y7125000D02*
D03*
Y7075000D02*
D03*
Y7025000D02*
D03*
Y6975000D02*
D03*
Y6925000D02*
D03*
Y6875000D02*
D03*
Y6825000D02*
D03*
Y6775000D02*
D03*
X13489999D02*
D03*
Y6825000D02*
D03*
Y6875000D02*
D03*
Y6925000D02*
D03*
Y6975000D02*
D03*
Y7025000D02*
D03*
Y7075000D02*
D03*
Y7125000D02*
D03*
Y7175000D02*
D03*
Y7225000D02*
D03*
Y7275000D02*
D03*
Y7325000D02*
D03*
Y7375000D02*
D03*
Y7425000D02*
D03*
D100*
X10857500Y7040000D02*
D03*
Y6910000D02*
D03*
X10682500Y7045000D02*
D03*
Y6915000D02*
D03*
D101*
X13164999Y7680000D02*
D03*
X13070000Y7900000D02*
D03*
X12975000Y7680000D02*
D03*
D102*
X12630000Y5925000D02*
D03*
Y6020000D02*
D03*
Y6115000D02*
D03*
X12380000D02*
D03*
Y6020000D02*
D03*
Y5925000D02*
D03*
D103*
X12505005Y5642501D02*
D03*
X12505000Y5257501D02*
D03*
D104*
X15525000Y9220000D02*
D03*
Y9030000D02*
D03*
X15725000Y9125000D02*
D03*
X15525000Y8820000D02*
D03*
Y8630000D02*
D03*
X15725000Y8725000D02*
D03*
X15525000Y8420000D02*
D03*
Y8230000D02*
D03*
X15725000Y8325000D02*
D03*
X15525000Y8020000D02*
D03*
Y7830000D02*
D03*
X15725000Y7925000D02*
D03*
X15525000Y6820000D02*
D03*
Y6630000D02*
D03*
X15725000Y6725000D02*
D03*
X15525000Y6420000D02*
D03*
Y6230000D02*
D03*
X15725000Y6325000D02*
D03*
X15525000Y6020000D02*
D03*
Y5830000D02*
D03*
X15725000Y5925000D02*
D03*
X15525000Y7620000D02*
D03*
Y7430000D02*
D03*
X15725000Y7525000D02*
D03*
X15525000Y7220000D02*
D03*
Y7030000D02*
D03*
X15725000Y7125000D02*
D03*
X15525000Y5620000D02*
D03*
Y5430000D02*
D03*
X15725000Y5525000D02*
D03*
D105*
X15350000Y8041200D02*
D03*
Y7808800D02*
D03*
Y8841200D02*
D03*
Y8608800D02*
D03*
Y8441200D02*
D03*
Y8208800D02*
D03*
Y7241200D02*
D03*
Y7008800D02*
D03*
Y6841200D02*
D03*
Y6608800D02*
D03*
Y6041200D02*
D03*
Y5808800D02*
D03*
X15350000Y5641200D02*
D03*
Y5408800D02*
D03*
X15350000Y9241200D02*
D03*
Y9008800D02*
D03*
Y7641200D02*
D03*
Y7408800D02*
D03*
Y6441200D02*
D03*
Y6208800D02*
D03*
D106*
X16397501Y9125000D02*
D03*
X15902499D02*
D03*
X16397501Y8725000D02*
D03*
X15902499D02*
D03*
X16397501Y8325000D02*
D03*
X15902499D02*
D03*
X16397501Y7925000D02*
D03*
X15902499D02*
D03*
X16397501Y7525000D02*
D03*
X15902499D02*
D03*
X16395000Y7125000D02*
D03*
X15900000D02*
D03*
X16397501Y6725000D02*
D03*
X15902499D02*
D03*
X16397501Y6325000D02*
D03*
X15902499D02*
D03*
X16397501Y5925000D02*
D03*
X15902499D02*
D03*
X16395000Y5525000D02*
D03*
X15900000D02*
D03*
D107*
X14307500Y5275000D02*
D03*
X13992500Y5275000D02*
D03*
%TF.MD5,069e122f83b1fba453742111a30a5040*%
M02*
