%TF.GenerationSoftware,Altium Limited,Altium Designer,24.5.1 (21)*%
G04 Layer_Color=65535*
%FSLAX45Y45*%
%MOMM*%
%TF.SameCoordinates,A56B3D6E-D5BE-476E-BB8E-EB53D717D8A4*%
%TF.FilePolarity,Positive*%
%TF.FileFunction,Legend,Top*%
%TF.Part,Single*%
G01*
G75*
%TA.AperFunction,NonConductor*%
%ADD48C,0.20000*%
%ADD49C,0.25000*%
%ADD50C,0.50000*%
%ADD51C,0.15000*%
%ADD52C,0.15240*%
%ADD53C,0.10000*%
%ADD54C,0.25400*%
%ADD55R,1.58700X0.50800*%
%ADD56R,0.50800X1.58700*%
D48*
X10260000Y7184000D02*
G03*
X10260000Y7204000I0J10000D01*
G01*
D02*
G03*
X10260000Y7184000I0J-10000D01*
G01*
D02*
G03*
X10260000Y7204000I0J10000D01*
G01*
X11710000Y7520000D02*
G03*
X11710000Y7520000I-10000J0D01*
G01*
X14217500Y7051500D02*
Y7178500D01*
X14062500Y7051500D02*
Y7178500D01*
Y7051500D02*
X14217500D01*
X9550000Y7304000D02*
X10150000D01*
X9550000D02*
X10150000D01*
X9550000Y9104000D02*
X10150000D01*
X9550000D02*
X10150000D01*
X9550000Y7304000D02*
Y9104000D01*
Y7304000D02*
Y9104000D01*
X11550000Y7479000D02*
Y8929000D01*
Y7479000D02*
Y8929000D01*
X13022501Y6730000D02*
Y7520000D01*
Y6730000D02*
X13377499D01*
Y7520000D01*
X13022501D02*
X13377499D01*
X10715000Y6215000D02*
X11165000D01*
Y6805000D01*
X10715000D02*
X11165000D01*
X10715000Y6215000D02*
Y6805000D01*
X11225000D02*
X11675000D01*
X11225000Y6215000D02*
Y6805000D01*
Y6215000D02*
X11675000D01*
Y6805000D01*
X11130000Y5522500D02*
X11190000D01*
X11130000D02*
Y5817500D01*
X11190000D01*
Y5522500D02*
Y5817500D01*
X11225000Y5520000D02*
X11345000D01*
X10275500Y5501000D02*
X10544500D01*
Y6039000D01*
X10275500D02*
X10544500D01*
X10275500Y5501000D02*
Y6039000D01*
X11592500Y5885000D02*
X12067500D01*
X11592500Y6152500D02*
Y6175000D01*
Y5885000D02*
Y5907500D01*
Y6175000D02*
X12067500D01*
Y6152500D02*
Y6175000D01*
Y5885000D02*
Y5907500D01*
X12567500Y6140000D02*
X12692500D01*
X12532500Y6155000D02*
Y6445000D01*
X12477500D02*
X12532500D01*
X12477500Y6155000D02*
Y6445000D01*
Y6155000D02*
X12532500D01*
X12402500Y8006500D02*
X12557500D01*
X12402500D02*
Y8133500D01*
X12557500Y8006500D02*
Y8133500D01*
X12610000Y7945000D02*
Y8065000D01*
X12612500Y8100000D02*
X12907500D01*
Y8160000D01*
X12612500D02*
X12907500D01*
X12612500Y8100000D02*
Y8160000D01*
X10825000Y5705000D02*
X10881000D01*
Y5770000D01*
X10589000Y5705000D02*
Y5770000D01*
Y5705000D02*
X10645000D01*
X15115001Y7862500D02*
Y7897500D01*
X15167500Y7730000D02*
X15255000D01*
Y7957500D02*
Y8030000D01*
Y7730000D02*
Y7802500D01*
X15167500Y8030000D02*
X15255000D01*
X15115001Y8232500D02*
Y8267500D01*
X15167500Y8100000D02*
X15255000D01*
Y8327500D02*
Y8400000D01*
Y8100000D02*
Y8172500D01*
X15167500Y8400000D02*
X15255000D01*
X15115001Y8972500D02*
Y9007500D01*
X15167500Y8840000D02*
X15255000D01*
Y9067500D02*
Y9140000D01*
Y8840000D02*
Y8912500D01*
X15167500Y9140000D02*
X15255000D01*
X15115001Y8602500D02*
Y8637500D01*
X15167500Y8470000D02*
X15255000D01*
Y8697500D02*
Y8770000D01*
Y8470000D02*
Y8542500D01*
X15167500Y8770000D02*
X15255000D01*
X15115001Y7492500D02*
Y7527500D01*
X15167500Y7360000D02*
X15255000D01*
Y7587500D02*
Y7660000D01*
Y7360000D02*
Y7432500D01*
X15167500Y7660000D02*
X15255000D01*
X15115001Y6012500D02*
Y6047500D01*
X15167500Y5880000D02*
X15255000D01*
Y6107500D02*
Y6180000D01*
Y5880000D02*
Y5952500D01*
X15167500Y6180000D02*
X15255000D01*
X15115001Y5642500D02*
Y5677500D01*
X15167500Y5510000D02*
X15255000D01*
Y5737500D02*
Y5810000D01*
Y5510000D02*
Y5582500D01*
X15167500Y5810000D02*
X15255000D01*
X15115001Y7122500D02*
Y7157500D01*
X15167500Y6990000D02*
X15255000D01*
Y7217500D02*
Y7290000D01*
Y6990000D02*
Y7062500D01*
X15167500Y7290000D02*
X15255000D01*
X15115001Y6752500D02*
Y6787500D01*
X15167500Y6620000D02*
X15255000D01*
Y6847500D02*
Y6920000D01*
Y6620000D02*
Y6692500D01*
X15167500Y6920000D02*
X15255000D01*
X15115001Y6382500D02*
Y6417500D01*
X15167500Y6250000D02*
X15255000D01*
Y6477500D02*
Y6550000D01*
Y6250000D02*
Y6322500D01*
X15167500Y6550000D02*
X15255000D01*
X11866000Y7002500D02*
Y7157500D01*
X11739000Y7002500D02*
X11866000D01*
X11739000Y7157500D02*
X11866000D01*
X11613000Y8077000D02*
X11887000D01*
X11613000Y8343500D02*
X11887000D01*
X11613000Y7572000D02*
Y8343500D01*
Y7572000D02*
X11887000D01*
Y8343500D01*
X14032500Y8417500D02*
Y8762500D01*
X13687500Y8417500D02*
Y8762500D01*
X13160001Y7855000D02*
X13216000D01*
Y7790000D02*
Y7855000D01*
X12924001Y7790000D02*
Y7855000D01*
X12980000D01*
X13926500Y5762500D02*
Y5917500D01*
X14053500D01*
X13926500Y5762500D02*
X14053500D01*
D49*
X12922501Y7547500D02*
G03*
X12922501Y7547500I-12500J0D01*
G01*
X11007500Y6850000D02*
G03*
X11007500Y6850000I-12500J0D01*
G01*
X11407500Y6170000D02*
G03*
X11407500Y6170000I-12500J0D01*
G01*
X10422500Y6084000D02*
G03*
X10422500Y6084000I-12500J0D01*
G01*
X12235000Y6030000D02*
G03*
X12235000Y6030000I-12500J0D01*
G01*
X10947500Y5880000D02*
G03*
X10947500Y5880000I-12500J0D01*
G01*
X11577500Y8204000D02*
G03*
X11577500Y8204000I-12500J0D01*
G01*
X12882500Y7680000D02*
G03*
X12882500Y7680000I-12500J0D01*
G01*
D50*
X12594799Y8873493D02*
G03*
X12594799Y8873493I-20000J0D01*
G01*
D51*
X11890000Y7200000D02*
Y7280000D01*
X11790000Y7200000D02*
X11890000D01*
Y7420000D02*
Y7500000D01*
X11790000D02*
X11890000D01*
X14870001Y8070000D02*
X14970001D01*
X14870001Y8810000D02*
X14970001D01*
X14870001Y9180000D02*
X14970001D01*
X14870001Y7700000D02*
X14970001D01*
X14870001Y8440000D02*
X14970001D01*
X15550002Y5524800D02*
X15850002D01*
X15550002Y5795200D02*
X15850002D01*
X14870001Y5850000D02*
X14970001D01*
X15550002Y5894800D02*
X15850002D01*
X15550002Y6165200D02*
X15850002D01*
X14870001Y7330000D02*
X14970001D01*
X14870001Y6960000D02*
X14970001D01*
X15550002Y8755200D02*
X15850002D01*
X15550002Y8484800D02*
X15850002D01*
X15550002Y8854800D02*
X15850002D01*
X15550002Y9125200D02*
X15850002D01*
X15550002Y6264800D02*
X15850002D01*
X15550002Y6535200D02*
X15850002D01*
X15550002Y6634800D02*
X15850002D01*
X15550002Y6905200D02*
X15850002D01*
X15550002Y7004800D02*
X15850002D01*
X15550002Y7275200D02*
X15850002D01*
X15550002Y7374800D02*
X15850002D01*
X15550002Y7645200D02*
X15850002D01*
X15550002Y7744800D02*
X15850002D01*
X15550002Y8015200D02*
X15850002D01*
X15550002Y8114800D02*
X15850002D01*
X15550002Y8385200D02*
X15850002D01*
X14870001Y6219999D02*
X14970001D01*
X14870001Y6590000D02*
X14970001D01*
X16571678Y5985000D02*
Y6051645D01*
X16538356Y6018322D02*
X16605000D01*
X12355000Y7705000D02*
X12288355D01*
X13350032Y6679987D02*
X13376691D01*
X13363361D01*
Y6600013D01*
X13350032D01*
X13376691D01*
X13469994Y6666658D02*
X13456665Y6679987D01*
X13430006D01*
X13416678Y6666658D01*
Y6613342D01*
X13430006Y6600013D01*
X13456665D01*
X13469994Y6613342D01*
X13549968Y6600013D02*
X13496652D01*
X13549968Y6653329D01*
Y6666658D01*
X13536639Y6679987D01*
X13509981D01*
X13496652Y6666658D01*
X11670032Y9149987D02*
X11696690D01*
X11683361D01*
Y9070013D01*
X11670032D01*
X11696690D01*
X11789994Y9136658D02*
X11776665Y9149987D01*
X11750007D01*
X11736678Y9136658D01*
Y9083342D01*
X11750007Y9070013D01*
X11776665D01*
X11789994Y9083342D01*
X11816652Y9136658D02*
X11829981Y9149987D01*
X11856639D01*
X11869968Y9136658D01*
Y9123329D01*
X11856639Y9110000D01*
X11843310D01*
X11856639D01*
X11869968Y9096671D01*
Y9083342D01*
X11856639Y9070013D01*
X11829981D01*
X11816652Y9083342D01*
X11153348Y5903342D02*
Y5956658D01*
X11140019Y5969987D01*
X11113361D01*
X11100032Y5956658D01*
Y5903342D01*
X11113361Y5890013D01*
X11140019D01*
X11126690Y5916671D02*
X11153348Y5890013D01*
X11140019D02*
X11153348Y5903342D01*
X11180006Y5890013D02*
X11206664D01*
X11193336D01*
Y5969987D01*
X11180006Y5956658D01*
X11299968Y5969987D02*
X11246652D01*
Y5930000D01*
X11273310Y5943329D01*
X11286639D01*
X11299968Y5930000D01*
Y5903342D01*
X11286639Y5890013D01*
X11259981D01*
X11246652Y5903342D01*
X10460032Y6120013D02*
Y6199987D01*
X10500019D01*
X10513348Y6186658D01*
Y6160000D01*
X10500019Y6146671D01*
X10460032D01*
X10486690D02*
X10513348Y6120013D01*
X10540006D02*
X10566664D01*
X10553336D01*
Y6199987D01*
X10540006Y6186658D01*
X10606652Y6133342D02*
X10619981Y6120013D01*
X10646639D01*
X10659968Y6133342D01*
Y6186658D01*
X10646639Y6199987D01*
X10619981D01*
X10606652Y6186658D01*
Y6173329D01*
X10619981Y6160000D01*
X10659968D01*
X11469987Y5823355D02*
X11390013D01*
Y5863342D01*
X11403342Y5876671D01*
X11430000D01*
X11443329Y5863342D01*
Y5823355D01*
Y5850013D02*
X11469987Y5876671D01*
Y5943316D02*
X11390013D01*
X11430000Y5903329D01*
Y5956645D01*
X11006658Y6013348D02*
X10953342D01*
X10940013Y6000019D01*
Y5973361D01*
X10953342Y5960032D01*
X11006658D01*
X11019987Y5973361D01*
Y6000019D01*
X10993329Y5986690D02*
X11019987Y6013348D01*
Y6000019D02*
X11006658Y6013348D01*
X11019987Y6040006D02*
Y6066665D01*
Y6053336D01*
X10940013D01*
X10953342Y6040006D01*
X10940013Y6159968D02*
X10953342Y6133310D01*
X10980000Y6106652D01*
X11006658D01*
X11019987Y6119981D01*
Y6146639D01*
X11006658Y6159968D01*
X10993329D01*
X10980000Y6146639D01*
Y6106652D01*
X10266684Y6120013D02*
Y6199987D01*
X10306671D01*
X10320000Y6186658D01*
Y6160000D01*
X10306671Y6146671D01*
X10266684D01*
X10346658Y6120013D02*
X10373316D01*
X10359987D01*
Y6199987D01*
X10346658Y6186658D01*
X11663342Y5623348D02*
X11650013Y5610019D01*
Y5583361D01*
X11663342Y5570032D01*
X11716658D01*
X11729987Y5583361D01*
Y5610019D01*
X11716658Y5623348D01*
X11729987Y5650006D02*
Y5676664D01*
Y5663335D01*
X11650013D01*
X11663342Y5650006D01*
Y5716652D02*
X11650013Y5729981D01*
Y5756639D01*
X11663342Y5769968D01*
X11676671D01*
X11690000Y5756639D01*
Y5743310D01*
Y5756639D01*
X11703329Y5769968D01*
X11716658D01*
X11729987Y5756639D01*
Y5729981D01*
X11716658Y5716652D01*
X11753355Y6949987D02*
Y6870013D01*
X11793342D01*
X11806671Y6883342D01*
Y6936658D01*
X11793342Y6949987D01*
X11753355D01*
X11886645D02*
X11833329D01*
Y6910000D01*
X11859987Y6923329D01*
X11873316D01*
X11886645Y6910000D01*
Y6883342D01*
X11873316Y6870013D01*
X11846658D01*
X11833329Y6883342D01*
X13553342Y8013348D02*
X13540013Y8000019D01*
Y7973361D01*
X13553342Y7960032D01*
X13606657D01*
X13619987Y7973361D01*
Y8000019D01*
X13606657Y8013348D01*
X13619987Y8040006D02*
Y8066664D01*
Y8053335D01*
X13540013D01*
X13553342Y8040006D01*
Y8106652D02*
X13540013Y8119981D01*
Y8146639D01*
X13553342Y8159968D01*
X13606657D01*
X13619987Y8146639D01*
Y8119981D01*
X13606657Y8106652D01*
X13553342D01*
X12226671Y7589987D02*
X12200013D01*
X12213342D01*
Y7523342D01*
X12200013Y7510013D01*
X12186684D01*
X12173355Y7523342D01*
X12253329D02*
X12266658Y7510013D01*
X12293317D01*
X12306645Y7523342D01*
Y7576658D01*
X12293317Y7589987D01*
X12266658D01*
X12253329Y7576658D01*
Y7563329D01*
X12266658Y7550000D01*
X12306645D01*
X12036671Y7193342D02*
Y7246658D01*
X12023342Y7259987D01*
X11996684D01*
X11983355Y7246658D01*
Y7193342D01*
X11996684Y7180013D01*
X12023342D01*
X12010013Y7206671D02*
X12036671Y7180013D01*
X12023342D02*
X12036671Y7193342D01*
X12103316Y7180013D02*
Y7259987D01*
X12063329Y7220000D01*
X12116645D01*
X11839987Y8530032D02*
X11760013D01*
Y8570019D01*
X11773342Y8583348D01*
X11800000D01*
X11813329Y8570019D01*
Y8530032D01*
Y8556690D02*
X11839987Y8583348D01*
Y8610006D02*
Y8636664D01*
Y8623336D01*
X11760013D01*
X11773342Y8610006D01*
Y8676652D02*
X11760013Y8689981D01*
Y8716639D01*
X11773342Y8729968D01*
X11786671D01*
X11800000Y8716639D01*
X11813329Y8729968D01*
X11826658D01*
X11839987Y8716639D01*
Y8689981D01*
X11826658Y8676652D01*
X11813329D01*
X11800000Y8689981D01*
X11786671Y8676652D01*
X11773342D01*
X11800000Y8689981D02*
Y8716639D01*
X11849987Y8790032D02*
X11770013D01*
Y8830019D01*
X11783342Y8843348D01*
X11810000D01*
X11823329Y8830019D01*
Y8790032D01*
Y8816690D02*
X11849987Y8843348D01*
Y8870006D02*
Y8896664D01*
Y8883336D01*
X11770013D01*
X11783342Y8870006D01*
X11770013Y8936652D02*
Y8989968D01*
X11783342D01*
X11836658Y8936652D01*
X11849987D01*
X11996671Y8299987D02*
X11970013D01*
X11983342D01*
Y8233342D01*
X11970013Y8220013D01*
X11956684D01*
X11943355Y8233342D01*
X12023329Y8299987D02*
X12076645D01*
Y8286658D01*
X12023329Y8233342D01*
Y8220013D01*
X11546671Y6939987D02*
X11520013D01*
X11533342D01*
Y6873342D01*
X11520013Y6860013D01*
X11506684D01*
X11493355Y6873342D01*
X11626645Y6860013D02*
X11573329D01*
X11626645Y6913329D01*
Y6926658D01*
X11613316Y6939987D01*
X11586658D01*
X11573329Y6926658D01*
X16164989Y7033368D02*
X16085014D01*
Y7073355D01*
X16098341Y7086684D01*
X16125002D01*
X16138330Y7073355D01*
Y7033368D01*
Y7060026D02*
X16164989Y7086684D01*
X16085014Y7166658D02*
Y7113342D01*
X16125002D01*
X16111671Y7140000D01*
Y7153329D01*
X16125002Y7166658D01*
X16151659D01*
X16164989Y7153329D01*
Y7126671D01*
X16151659Y7113342D01*
X16098341Y7193316D02*
X16085014Y7206645D01*
Y7233304D01*
X16098341Y7246632D01*
X16111671D01*
X16125002Y7233304D01*
Y7219974D01*
Y7233304D01*
X16138330Y7246632D01*
X16151659D01*
X16164989Y7233304D01*
Y7206645D01*
X16151659Y7193316D01*
X16164989Y8883368D02*
X16085014D01*
Y8923355D01*
X16098341Y8936684D01*
X16125002D01*
X16138330Y8923355D01*
Y8883368D01*
Y8910026D02*
X16164989Y8936684D01*
X16085014Y9016658D02*
Y8963342D01*
X16125002D01*
X16111671Y8990000D01*
Y9003329D01*
X16125002Y9016658D01*
X16151659D01*
X16164989Y9003329D01*
Y8976671D01*
X16151659Y8963342D01*
X16098341Y9043316D02*
X16085014Y9056645D01*
Y9083303D01*
X16098341Y9096632D01*
X16151659D01*
X16164989Y9083303D01*
Y9056645D01*
X16151659Y9043316D01*
X16098341D01*
X16164989Y6663368D02*
X16085014D01*
Y6703355D01*
X16098341Y6716684D01*
X16125002D01*
X16138330Y6703355D01*
Y6663368D01*
Y6690026D02*
X16164989Y6716684D01*
Y6783329D02*
X16085014D01*
X16125002Y6743342D01*
Y6796658D01*
X16085014Y6823316D02*
Y6876632D01*
X16098341D01*
X16151659Y6823316D01*
X16164989D01*
X16164987Y8513368D02*
X16085013D01*
Y8553355D01*
X16098341Y8566684D01*
X16125000D01*
X16138329Y8553355D01*
Y8513368D01*
Y8540026D02*
X16164987Y8566684D01*
Y8633329D02*
X16085013D01*
X16125000Y8593342D01*
Y8646658D01*
X16164987Y8713304D02*
X16085013D01*
X16125000Y8673316D01*
Y8726633D01*
X16164989Y6306697D02*
X16085014D01*
Y6346684D01*
X16098341Y6360013D01*
X16125002D01*
X16138330Y6346684D01*
Y6306697D01*
Y6333355D02*
X16164989Y6360013D01*
Y6426658D02*
X16085014D01*
X16125002Y6386671D01*
Y6439987D01*
X16164989Y6466645D02*
Y6493303D01*
Y6479974D01*
X16085014D01*
X16098341Y6466645D01*
X16162424Y8143362D02*
X16082449D01*
Y8183349D01*
X16095778Y8196678D01*
X16122437D01*
X16135767Y8183349D01*
Y8143362D01*
Y8170020D02*
X16162424Y8196678D01*
X16095778Y8223336D02*
X16082449Y8236666D01*
Y8263324D01*
X16095778Y8276652D01*
X16109106D01*
X16122437Y8263324D01*
Y8249994D01*
Y8263324D01*
X16135767Y8276652D01*
X16149094D01*
X16162424Y8263324D01*
Y8236666D01*
X16149094Y8223336D01*
X16095778Y8303311D02*
X16082449Y8316640D01*
Y8343298D01*
X16095778Y8356627D01*
X16109106D01*
X16122437Y8343298D01*
X16135767Y8356627D01*
X16149094D01*
X16162424Y8343298D01*
Y8316640D01*
X16149094Y8303311D01*
X16135767D01*
X16122437Y8316640D01*
X16109106Y8303311D01*
X16095778D01*
X16122437Y8316640D02*
Y8343298D01*
X16164989Y5923368D02*
X16085014D01*
Y5963355D01*
X16098341Y5976684D01*
X16125002D01*
X16138330Y5963355D01*
Y5923368D01*
Y5950026D02*
X16164989Y5976684D01*
X16098341Y6003342D02*
X16085014Y6016671D01*
Y6043329D01*
X16098341Y6056658D01*
X16111671D01*
X16125002Y6043329D01*
Y6030000D01*
Y6043329D01*
X16138330Y6056658D01*
X16151659D01*
X16164989Y6043329D01*
Y6016671D01*
X16151659Y6003342D01*
X16085014Y6136632D02*
Y6083316D01*
X16125002D01*
X16111671Y6109974D01*
Y6123303D01*
X16125002Y6136632D01*
X16151659D01*
X16164989Y6123303D01*
Y6096645D01*
X16151659Y6083316D01*
X16164989Y7773368D02*
X16085014D01*
Y7813355D01*
X16098341Y7826684D01*
X16125002D01*
X16138330Y7813355D01*
Y7773368D01*
Y7800026D02*
X16164989Y7826684D01*
X16098341Y7853342D02*
X16085014Y7866671D01*
Y7893329D01*
X16098341Y7906658D01*
X16111671D01*
X16125002Y7893329D01*
Y7880000D01*
Y7893329D01*
X16138330Y7906658D01*
X16151659D01*
X16164989Y7893329D01*
Y7866671D01*
X16151659Y7853342D01*
X16164989Y7986632D02*
Y7933316D01*
X16111671Y7986632D01*
X16098341D01*
X16085014Y7973304D01*
Y7946646D01*
X16098341Y7933316D01*
X16164989Y5553368D02*
X16085014D01*
Y5593355D01*
X16098341Y5606684D01*
X16125002D01*
X16138330Y5593355D01*
Y5553368D01*
Y5580026D02*
X16164989Y5606684D01*
Y5686658D02*
Y5633342D01*
X16111671Y5686658D01*
X16098341D01*
X16085014Y5673329D01*
Y5646671D01*
X16098341Y5633342D01*
X16151659Y5713316D02*
X16164989Y5726645D01*
Y5753303D01*
X16151659Y5766632D01*
X16098341D01*
X16085014Y5753303D01*
Y5726645D01*
X16098341Y5713316D01*
X16111671D01*
X16125002Y5726645D01*
Y5766632D01*
X16164989Y7403368D02*
X16085014D01*
Y7443355D01*
X16098341Y7456684D01*
X16125002D01*
X16138330Y7443355D01*
Y7403368D01*
Y7430026D02*
X16164989Y7456684D01*
Y7536658D02*
Y7483342D01*
X16111671Y7536658D01*
X16098341D01*
X16085014Y7523329D01*
Y7496671D01*
X16098341Y7483342D01*
X16085014Y7616632D02*
X16098341Y7589974D01*
X16125002Y7563316D01*
X16151659D01*
X16164989Y7576645D01*
Y7603303D01*
X16151659Y7616632D01*
X16138330D01*
X16125002Y7603303D01*
Y7563316D01*
X14316685Y7146658D02*
X14303355Y7159987D01*
X14276698D01*
X14263368Y7146658D01*
Y7093342D01*
X14276698Y7080013D01*
X14303355D01*
X14316685Y7093342D01*
X14396658Y7080013D02*
X14343343D01*
X14396658Y7133329D01*
Y7146658D01*
X14383330Y7159987D01*
X14356673D01*
X14343343Y7146658D01*
X14423317D02*
X14436646Y7159987D01*
X14463304D01*
X14476633Y7146658D01*
Y7133329D01*
X14463304Y7120000D01*
X14476633Y7106671D01*
Y7093342D01*
X14463304Y7080013D01*
X14436646D01*
X14423317Y7093342D01*
Y7106671D01*
X14436646Y7120000D01*
X14423317Y7133329D01*
Y7146658D01*
X14436646Y7120000D02*
X14463304D01*
X16886671Y6029987D02*
X16860014D01*
X16873343D01*
Y5963342D01*
X16860014Y5950013D01*
X16846684D01*
X16833356Y5963342D01*
X16953317Y5950013D02*
Y6029987D01*
X16913330Y5990000D01*
X16966646D01*
X13133368Y6370013D02*
Y6449987D01*
X13173355D01*
X13186684Y6436658D01*
Y6410000D01*
X13173355Y6396671D01*
X13133368D01*
X13160027D02*
X13186684Y6370013D01*
X13266658D02*
X13213342D01*
X13266658Y6423329D01*
Y6436658D01*
X13253329Y6449987D01*
X13226671D01*
X13213342Y6436658D01*
X13333302Y6370013D02*
Y6449987D01*
X13293317Y6410000D01*
X13346632D01*
X13058768Y6249812D02*
Y6329786D01*
X13098753D01*
X13112083Y6316458D01*
Y6289799D01*
X13098753Y6276470D01*
X13058768D01*
X13085425D02*
X13112083Y6249812D01*
X13192056D02*
X13138741D01*
X13192056Y6303128D01*
Y6316458D01*
X13178729Y6329786D01*
X13152071D01*
X13138741Y6316458D01*
X13218715D02*
X13232045Y6329786D01*
X13258704D01*
X13272032Y6316458D01*
Y6303128D01*
X13258704Y6289799D01*
X13245374D01*
X13258704D01*
X13272032Y6276470D01*
Y6263141D01*
X13258704Y6249812D01*
X13232045D01*
X13218715Y6263141D01*
X11039987Y6930032D02*
X10960013D01*
Y6970019D01*
X10973342Y6983348D01*
X11000000D01*
X11013329Y6970019D01*
Y6930032D01*
Y6956690D02*
X11039987Y6983348D01*
Y7010006D02*
Y7036664D01*
Y7023335D01*
X10960013D01*
X10973342Y7010006D01*
X10960013Y7129968D02*
X10973342Y7103310D01*
X11000000Y7076652D01*
X11026658D01*
X11039987Y7089981D01*
Y7116639D01*
X11026658Y7129968D01*
X11013329D01*
X11000000Y7116639D01*
Y7076652D01*
X10599987Y6865032D02*
X10520012D01*
Y6905020D01*
X10533341Y6918349D01*
X10559999D01*
X10573329Y6905020D01*
Y6865032D01*
Y6891691D02*
X10599987Y6918349D01*
Y6945007D02*
Y6971665D01*
Y6958336D01*
X10520012D01*
X10533341Y6945007D01*
X10520012Y7064968D02*
Y7011652D01*
X10559999D01*
X10546671Y7038310D01*
Y7051639D01*
X10559999Y7064968D01*
X10586658D01*
X10599987Y7051639D01*
Y7024981D01*
X10586658Y7011652D01*
X13760033Y8040013D02*
Y8119987D01*
X13800018D01*
X13813348Y8106658D01*
Y8080000D01*
X13800018Y8066671D01*
X13760033D01*
X13786690D02*
X13813348Y8040013D01*
X13840005D02*
X13866664D01*
X13853336D01*
Y8119987D01*
X13840005Y8106658D01*
X13946638Y8040013D02*
Y8119987D01*
X13906651Y8080000D01*
X13959969D01*
X13629987Y8220032D02*
X13550014D01*
Y8260019D01*
X13563342Y8273348D01*
X13589999D01*
X13603329Y8260019D01*
Y8220032D01*
Y8246690D02*
X13629987Y8273348D01*
Y8300006D02*
Y8326664D01*
Y8313335D01*
X13550014D01*
X13563342Y8300006D01*
Y8366652D02*
X13550014Y8379981D01*
Y8406639D01*
X13563342Y8419968D01*
X13576671D01*
X13589999Y8406639D01*
Y8393310D01*
Y8406639D01*
X13603329Y8419968D01*
X13616658D01*
X13629987Y8406639D01*
Y8379981D01*
X13616658Y8366652D01*
X13000032Y8330013D02*
Y8409987D01*
X13040019D01*
X13053348Y8396658D01*
Y8370000D01*
X13040019Y8356671D01*
X13000032D01*
X13026691D02*
X13053348Y8330013D01*
X13080006D02*
X13106664D01*
X13093336D01*
Y8409987D01*
X13080006Y8396658D01*
X13199968Y8330013D02*
X13146652D01*
X13199968Y8383329D01*
Y8396658D01*
X13186639Y8409987D01*
X13159981D01*
X13146652Y8396658D01*
X12069987Y7963361D02*
X11990013D01*
Y8003348D01*
X12003342Y8016677D01*
X12030000D01*
X12043329Y8003348D01*
Y7963361D01*
Y7990019D02*
X12069987Y8016677D01*
Y8043335D02*
Y8069994D01*
Y8056665D01*
X11990013D01*
X12003342Y8043335D01*
X12069987Y8109981D02*
Y8136639D01*
Y8123310D01*
X11990013D01*
X12003342Y8109981D01*
X12320032Y7820013D02*
Y7899987D01*
X12360019D01*
X12373348Y7886658D01*
Y7860000D01*
X12360019Y7846671D01*
X12320032D01*
X12346690D02*
X12373348Y7820013D01*
X12400006D02*
X12426665D01*
X12413336D01*
Y7899987D01*
X12400006Y7886658D01*
X12466652D02*
X12479981Y7899987D01*
X12506639D01*
X12519968Y7886658D01*
Y7833342D01*
X12506639Y7820013D01*
X12479981D01*
X12466652Y7833342D01*
Y7886658D01*
X13618355Y7620013D02*
Y7699987D01*
X13658342D01*
X13671671Y7686658D01*
Y7660000D01*
X13658342Y7646671D01*
X13618355D01*
X13645013D02*
X13671671Y7620013D01*
X13698329Y7633342D02*
X13711658Y7620013D01*
X13738316D01*
X13751645Y7633342D01*
Y7686658D01*
X13738316Y7699987D01*
X13711658D01*
X13698329Y7686658D01*
Y7673329D01*
X13711658Y7660000D01*
X13751645D01*
X14050157Y6669966D02*
X13970181D01*
Y6709953D01*
X13983511Y6723282D01*
X14010168D01*
X14023499Y6709953D01*
Y6669966D01*
Y6696624D02*
X14050157Y6723282D01*
X13983511Y6749940D02*
X13970181Y6763269D01*
Y6789927D01*
X13983511Y6803256D01*
X13996840D01*
X14010168Y6789927D01*
X14023499Y6803256D01*
X14036827D01*
X14050157Y6789927D01*
Y6763269D01*
X14036827Y6749940D01*
X14023499D01*
X14010168Y6763269D01*
X13996840Y6749940D01*
X13983511D01*
X14010168Y6763269D02*
Y6789927D01*
X13123355Y6600013D02*
Y6679987D01*
X13163342D01*
X13176671Y6666658D01*
Y6640000D01*
X13163342Y6626671D01*
X13123355D01*
X13150014D02*
X13176671Y6600013D01*
X13203329Y6679987D02*
X13256645D01*
Y6666658D01*
X13203329Y6613342D01*
Y6600013D01*
X12383355Y7420013D02*
Y7499987D01*
X12423342D01*
X12436671Y7486658D01*
Y7460000D01*
X12423342Y7446671D01*
X12383355D01*
X12410013D02*
X12436671Y7420013D01*
X12516645Y7499987D02*
X12463329D01*
Y7460000D01*
X12489987Y7473329D01*
X12503316D01*
X12516645Y7460000D01*
Y7433342D01*
X12503316Y7420013D01*
X12476658D01*
X12463329Y7433342D01*
X11253355Y6960013D02*
Y7039987D01*
X11293342D01*
X11306671Y7026658D01*
Y7000000D01*
X11293342Y6986671D01*
X11253355D01*
X11280013D02*
X11306671Y6960013D01*
X11386645D02*
X11333329D01*
X11386645Y7013329D01*
Y7026658D01*
X11373316Y7039987D01*
X11346658D01*
X11333329Y7026658D01*
X10526684Y6640013D02*
Y6719987D01*
X10566671D01*
X10580000Y6706658D01*
Y6680000D01*
X10566671Y6666671D01*
X10526684D01*
X10553342D02*
X10580000Y6640013D01*
X10606658D02*
X10633316D01*
X10619987D01*
Y6719987D01*
X10606658Y6706658D01*
X12556671Y8723342D02*
Y8776658D01*
X12543342Y8789987D01*
X12516684D01*
X12503355Y8776658D01*
Y8723342D01*
X12516684Y8710013D01*
X12543342D01*
X12530013Y8736671D02*
X12556671Y8710013D01*
X12543342D02*
X12556671Y8723342D01*
X12583329Y8776658D02*
X12596658Y8789987D01*
X12623316D01*
X12636645Y8776658D01*
Y8763329D01*
X12623316Y8750000D01*
X12609987D01*
X12623316D01*
X12636645Y8736671D01*
Y8723342D01*
X12623316Y8710013D01*
X12596658D01*
X12583329Y8723342D01*
X12754171Y8365842D02*
Y8419158D01*
X12740842Y8432487D01*
X12714184D01*
X12700855Y8419158D01*
Y8365842D01*
X12714184Y8352513D01*
X12740842D01*
X12727513Y8379171D02*
X12754171Y8352513D01*
X12740842D02*
X12754171Y8365842D01*
X12834145Y8352513D02*
X12780829D01*
X12834145Y8405829D01*
Y8419158D01*
X12820816Y8432487D01*
X12794158D01*
X12780829Y8419158D01*
X13320000Y7723342D02*
Y7776658D01*
X13306671Y7789987D01*
X13280013D01*
X13266684Y7776658D01*
Y7723342D01*
X13280013Y7710013D01*
X13306671D01*
X13293343Y7736671D02*
X13320000Y7710013D01*
X13306671D02*
X13320000Y7723342D01*
X13346658Y7710013D02*
X13373315D01*
X13359987D01*
Y7789987D01*
X13346658Y7776658D01*
X12911684Y5809986D02*
Y5730012D01*
X12964999D01*
X12991658D02*
X13018317D01*
X13004987D01*
Y5809986D01*
X12991658Y5796657D01*
X11180000Y6169987D02*
X11153342D01*
X11166671D01*
Y6103342D01*
X11153342Y6090013D01*
X11140013D01*
X11126684Y6103342D01*
X11206658Y6090013D02*
X11233316D01*
X11219987D01*
Y6169987D01*
X11206658Y6156658D01*
X12060032Y6389987D02*
X12086690D01*
X12073361D01*
Y6310013D01*
X12060032D01*
X12086690D01*
X12179994Y6376658D02*
X12166665Y6389987D01*
X12140007D01*
X12126678Y6376658D01*
Y6323342D01*
X12140007Y6310013D01*
X12166665D01*
X12179994Y6323342D01*
X12246639Y6310013D02*
Y6389987D01*
X12206652Y6350000D01*
X12259968D01*
X11753355Y6319987D02*
Y6240013D01*
X11793342D01*
X11806671Y6253342D01*
Y6306658D01*
X11793342Y6319987D01*
X11753355D01*
X11886645Y6240013D02*
X11833329D01*
X11886645Y6293329D01*
Y6306658D01*
X11873316Y6319987D01*
X11846658D01*
X11833329Y6306658D01*
X12436684Y8399987D02*
Y8320013D01*
X12476671D01*
X12490000Y8333342D01*
Y8386658D01*
X12476671Y8399987D01*
X12436684D01*
X12516658Y8320013D02*
X12543316D01*
X12529987D01*
Y8399987D01*
X12516658Y8386658D01*
X14063980Y7476454D02*
Y7396480D01*
X14103967D01*
X14117296Y7409809D01*
Y7463125D01*
X14103967Y7476454D01*
X14063980D01*
X14143954Y7463125D02*
X14157283Y7476454D01*
X14183942D01*
X14197270Y7463125D01*
Y7449796D01*
X14183942Y7436467D01*
X14170612D01*
X14183942D01*
X14197270Y7423138D01*
Y7409809D01*
X14183942Y7396480D01*
X14157283D01*
X14143954Y7409809D01*
X13789661Y6076914D02*
Y5996940D01*
X13829646D01*
X13842976Y6010269D01*
Y6063585D01*
X13829646Y6076914D01*
X13789661D01*
X13909621Y5996940D02*
Y6076914D01*
X13869633Y6036927D01*
X13922951D01*
X11963348Y5726658D02*
X11950019Y5739987D01*
X11923361D01*
X11910032Y5726658D01*
Y5673342D01*
X11923361Y5660013D01*
X11950019D01*
X11963348Y5673342D01*
X11990006Y5660013D02*
X12016664D01*
X12003335D01*
Y5739987D01*
X11990006Y5726658D01*
X12109968Y5739987D02*
X12083310Y5726658D01*
X12056652Y5700000D01*
Y5673342D01*
X12069981Y5660013D01*
X12096639D01*
X12109968Y5673342D01*
Y5686671D01*
X12096639Y5700000D01*
X12056652D01*
X12113348Y6576658D02*
X12100019Y6589987D01*
X12073361D01*
X12060032Y6576658D01*
Y6523342D01*
X12073361Y6510013D01*
X12100019D01*
X12113348Y6523342D01*
X12140006Y6510013D02*
X12166665D01*
X12153336D01*
Y6589987D01*
X12140006Y6576658D01*
X12259968Y6589987D02*
X12206652D01*
Y6550000D01*
X12233310Y6563329D01*
X12246639D01*
X12259968Y6550000D01*
Y6523342D01*
X12246639Y6510013D01*
X12219981D01*
X12206652Y6523342D01*
X13043341Y6053348D02*
X13030013Y6040019D01*
Y6013361D01*
X13043341Y6000032D01*
X13096658D01*
X13109987Y6013361D01*
Y6040019D01*
X13096658Y6053348D01*
X13109987Y6080006D02*
Y6106664D01*
Y6093335D01*
X13030013D01*
X13043341Y6080006D01*
X13109987Y6186639D02*
X13030013D01*
X13070000Y6146651D01*
Y6199968D01*
X14036684Y9116658D02*
X14023355Y9129987D01*
X13996696D01*
X13983368Y9116658D01*
Y9063342D01*
X13996696Y9050013D01*
X14023355D01*
X14036684Y9063342D01*
X14116658Y9050013D02*
X14063342D01*
X14116658Y9103329D01*
Y9116658D01*
X14103329Y9129987D01*
X14076671D01*
X14063342Y9116658D01*
X14143317Y9129987D02*
X14196632D01*
Y9116658D01*
X14143317Y9063342D01*
Y9050013D01*
X13353348Y7986658D02*
X13340021Y7999987D01*
X13313361D01*
X13300032Y7986658D01*
Y7933342D01*
X13313361Y7920013D01*
X13340021D01*
X13353348Y7933342D01*
X13380006Y7920013D02*
X13406665D01*
X13393336D01*
Y7999987D01*
X13380006Y7986658D01*
X13499968Y7920013D02*
X13446652D01*
X13499968Y7973329D01*
Y7986658D01*
X13486639Y7999987D01*
X13459981D01*
X13446652Y7986658D01*
X13151677Y7976658D02*
X13138348Y7989987D01*
X13111690D01*
X13098361Y7976658D01*
Y7923342D01*
X13111690Y7910013D01*
X13138348D01*
X13151677Y7923342D01*
X13178336Y7910013D02*
X13204993D01*
X13191664D01*
Y7989987D01*
X13178336Y7976658D01*
X13244981Y7910013D02*
X13271638D01*
X13258310D01*
Y7989987D01*
X13244981Y7976658D01*
X14306683Y8866658D02*
X14293355Y8879987D01*
X14266698D01*
X14253368Y8866658D01*
Y8813342D01*
X14266698Y8800013D01*
X14293355D01*
X14306683Y8813342D01*
X14386658Y8800013D02*
X14333342D01*
X14386658Y8853329D01*
Y8866658D01*
X14373329Y8879987D01*
X14346671D01*
X14333342Y8866658D01*
X14466632Y8879987D02*
X14439973Y8866658D01*
X14413316Y8840000D01*
Y8813342D01*
X14426645Y8800013D01*
X14453304D01*
X14466632Y8813342D01*
Y8826671D01*
X14453304Y8840000D01*
X14413316D01*
X14263342Y8366684D02*
X14250014Y8353355D01*
Y8326697D01*
X14263342Y8313368D01*
X14316658D01*
X14329987Y8326697D01*
Y8353355D01*
X14316658Y8366684D01*
X14329987Y8446658D02*
Y8393342D01*
X14276671Y8446658D01*
X14263342D01*
X14250014Y8433329D01*
Y8406671D01*
X14263342Y8393342D01*
Y8473316D02*
X14250014Y8486645D01*
Y8513304D01*
X14263342Y8526632D01*
X14276671D01*
X14289999Y8513304D01*
Y8499974D01*
Y8513304D01*
X14303329Y8526632D01*
X14316658D01*
X14329987Y8513304D01*
Y8486645D01*
X14316658Y8473316D01*
X14143343Y6386684D02*
X14130013Y6373355D01*
Y6346697D01*
X14143343Y6333368D01*
X14196658D01*
X14209987Y6346697D01*
Y6373355D01*
X14196658Y6386684D01*
X14209987Y6466658D02*
Y6413342D01*
X14156671Y6466658D01*
X14143343D01*
X14130013Y6453329D01*
Y6426671D01*
X14143343Y6413342D01*
X14130013Y6546633D02*
Y6493316D01*
X14170000D01*
X14156671Y6519975D01*
Y6533304D01*
X14170000Y6546633D01*
X14196658D01*
X14209987Y6533304D01*
Y6506646D01*
X14196658Y6493316D01*
X14263342Y8000013D02*
X14250014Y7986684D01*
Y7960026D01*
X14263342Y7946697D01*
X14316658D01*
X14329987Y7960026D01*
Y7986684D01*
X14316658Y8000013D01*
X14329987Y8079987D02*
Y8026671D01*
X14276671Y8079987D01*
X14263342D01*
X14250014Y8066658D01*
Y8040000D01*
X14263342Y8026671D01*
X14329987Y8106645D02*
Y8133303D01*
Y8119974D01*
X14250014D01*
X14263342Y8106645D01*
X12196671Y6816658D02*
X12183342Y6829987D01*
X12156684D01*
X12143355Y6816658D01*
Y6763342D01*
X12156684Y6750013D01*
X12183342D01*
X12196671Y6763342D01*
X12223329D02*
X12236658Y6750013D01*
X12263316D01*
X12276645Y6763342D01*
Y6816658D01*
X12263316Y6829987D01*
X12236658D01*
X12223329Y6816658D01*
Y6803329D01*
X12236658Y6790000D01*
X12276645D01*
X12726671Y7306658D02*
X12713342Y7319987D01*
X12686684D01*
X12673355Y7306658D01*
Y7253342D01*
X12686684Y7240013D01*
X12713342D01*
X12726671Y7253342D01*
X12753329Y7306658D02*
X12766658Y7319987D01*
X12793316D01*
X12806645Y7306658D01*
Y7293329D01*
X12793316Y7280000D01*
X12806645Y7266671D01*
Y7253342D01*
X12793316Y7240013D01*
X12766658D01*
X12753329Y7253342D01*
Y7266671D01*
X12766658Y7280000D01*
X12753329Y7293329D01*
Y7306658D01*
X12766658Y7280000D02*
X12793316D01*
X12706671Y6646658D02*
X12693342Y6659987D01*
X12666684D01*
X12653355Y6646658D01*
Y6593342D01*
X12666684Y6580013D01*
X12693342D01*
X12706671Y6593342D01*
X12733329Y6659987D02*
X12786645D01*
Y6646658D01*
X12733329Y6593342D01*
Y6580013D01*
X14273341Y6426684D02*
X14260013Y6413355D01*
Y6386697D01*
X14273341Y6373368D01*
X14326659D01*
X14339989Y6386697D01*
Y6413355D01*
X14326659Y6426684D01*
X14339989Y6506658D02*
Y6453342D01*
X14286671Y6506658D01*
X14273341D01*
X14260013Y6493329D01*
Y6466671D01*
X14273341Y6453342D01*
X14339989Y6573303D02*
X14260013D01*
X14300000Y6533316D01*
Y6586632D01*
X14253342Y7665849D02*
X14240013Y7652520D01*
Y7625862D01*
X14253342Y7612533D01*
X14306657D01*
X14319987Y7625862D01*
Y7652520D01*
X14306657Y7665849D01*
X14319987Y7692507D02*
Y7719165D01*
Y7705836D01*
X14240013D01*
X14253342Y7692507D01*
X14306657Y7759152D02*
X14319987Y7772481D01*
Y7799139D01*
X14306657Y7812468D01*
X14253342D01*
X14240013Y7799139D01*
Y7772481D01*
X14253342Y7759152D01*
X14266672D01*
X14280000Y7772481D01*
Y7812468D01*
X14253342Y6156684D02*
X14240013Y6143355D01*
Y6116697D01*
X14253342Y6103368D01*
X14306657D01*
X14319987Y6116697D01*
Y6143355D01*
X14306657Y6156684D01*
X14319987Y6236658D02*
Y6183342D01*
X14266672Y6236658D01*
X14253342D01*
X14240013Y6223329D01*
Y6196671D01*
X14253342Y6183342D01*
X14319987Y6316632D02*
Y6263316D01*
X14266672Y6316632D01*
X14253342D01*
X14240013Y6303303D01*
Y6276645D01*
X14253342Y6263316D01*
X14278342Y7378349D02*
X14265013Y7365020D01*
Y7338362D01*
X14278342Y7325033D01*
X14331657D01*
X14344987Y7338362D01*
Y7365020D01*
X14331657Y7378349D01*
X14344987Y7405007D02*
Y7431665D01*
Y7418336D01*
X14265013D01*
X14278342Y7405007D01*
X14265013Y7471652D02*
Y7524968D01*
X14278342D01*
X14331657Y7471652D01*
X14344987D01*
X12333342Y6716671D02*
X12320013Y6703342D01*
Y6676684D01*
X12333342Y6663355D01*
X12386658D01*
X12399987Y6676684D01*
Y6703342D01*
X12386658Y6716671D01*
X12320013Y6796645D02*
X12333342Y6769987D01*
X12360000Y6743329D01*
X12386658D01*
X12399987Y6756658D01*
Y6783316D01*
X12386658Y6796645D01*
X12373329D01*
X12360000Y6783316D01*
Y6743329D01*
X14253342Y5771684D02*
X14240013Y5758355D01*
Y5731697D01*
X14253342Y5718368D01*
X14306657D01*
X14319987Y5731697D01*
Y5758355D01*
X14306657Y5771684D01*
X14319987Y5851658D02*
Y5798342D01*
X14266672Y5851658D01*
X14253342D01*
X14240013Y5838329D01*
Y5811671D01*
X14253342Y5798342D01*
Y5878316D02*
X14240013Y5891645D01*
Y5918303D01*
X14253342Y5931632D01*
X14306657D01*
X14319987Y5918303D01*
Y5891645D01*
X14306657Y5878316D01*
X14253342D01*
X12726671Y7066658D02*
X12713342Y7079987D01*
X12686684D01*
X12673355Y7066658D01*
Y7013342D01*
X12686684Y7000013D01*
X12713342D01*
X12726671Y7013342D01*
X12806645Y7079987D02*
X12753329D01*
Y7040000D01*
X12779987Y7053329D01*
X12793316D01*
X12806645Y7040000D01*
Y7013342D01*
X12793316Y7000013D01*
X12766658D01*
X12753329Y7013342D01*
X14323349Y5506658D02*
X14310020Y5519987D01*
X14283362D01*
X14270033Y5506658D01*
Y5453342D01*
X14283362Y5440013D01*
X14310020D01*
X14323349Y5453342D01*
X14350008Y5440013D02*
X14376665D01*
X14363336D01*
Y5519987D01*
X14350008Y5506658D01*
X14416652D02*
X14429982Y5519987D01*
X14456641D01*
X14469969Y5506658D01*
Y5493329D01*
X14456641Y5480000D01*
X14469969Y5466671D01*
Y5453342D01*
X14456641Y5440013D01*
X14429982D01*
X14416652Y5453342D01*
Y5466671D01*
X14429982Y5480000D01*
X14416652Y5493329D01*
Y5506658D01*
X14429982Y5480000D02*
X14456641D01*
X12729171Y7184158D02*
X12715842Y7197487D01*
X12689184D01*
X12675855Y7184158D01*
Y7130842D01*
X12689184Y7117513D01*
X12715842D01*
X12729171Y7130842D01*
X12795816Y7117513D02*
Y7197487D01*
X12755829Y7157500D01*
X12809145D01*
X10543342Y6446671D02*
X10530013Y6433342D01*
Y6406684D01*
X10543342Y6393355D01*
X10596658D01*
X10609987Y6406684D01*
Y6433342D01*
X10596658Y6446671D01*
X10543342Y6473329D02*
X10530013Y6486658D01*
Y6513316D01*
X10543342Y6526645D01*
X10556671D01*
X10570000Y6513316D01*
Y6499987D01*
Y6513316D01*
X10583329Y6526645D01*
X10596658D01*
X10609987Y6513316D01*
Y6486658D01*
X10596658Y6473329D01*
X10143342Y6926671D02*
X10130013Y6913342D01*
Y6886684D01*
X10143342Y6873355D01*
X10196658D01*
X10209987Y6886684D01*
Y6913342D01*
X10196658Y6926671D01*
X10209987Y7006645D02*
Y6953329D01*
X10156671Y7006645D01*
X10143342D01*
X10130013Y6993316D01*
Y6966658D01*
X10143342Y6953329D01*
X10450000Y7176658D02*
X10436671Y7189987D01*
X10410013D01*
X10396684Y7176658D01*
Y7123342D01*
X10410013Y7110013D01*
X10436671D01*
X10450000Y7123342D01*
X10476658Y7110013D02*
X10503316D01*
X10489987D01*
Y7189987D01*
X10476658Y7176658D01*
D52*
X12832100Y5479999D02*
Y6079999D01*
X12247903Y5479999D02*
Y6079999D01*
X12854128Y8463871D02*
Y9133115D01*
Y8463871D02*
X13450865D01*
X12854128Y9133115D02*
X13450865D01*
D53*
X16335001Y6125000D02*
Y8520000D01*
X17095001D01*
Y6125000D02*
Y8520000D01*
X16335001Y6125000D02*
X17095001D01*
D54*
X16893825Y8723041D02*
X17046175D01*
Y8799217D01*
X17020784Y8824608D01*
X16995392D01*
X16970000Y8799217D01*
Y8723041D01*
Y8799217D01*
X16944608Y8824608D01*
X16919217D01*
X16893825Y8799217D01*
Y8723041D01*
X16970000Y8875392D02*
Y8976959D01*
X12033041Y8893825D02*
Y9046175D01*
X12109217D01*
X12134608Y9020784D01*
Y8970000D01*
X12109217Y8944608D01*
X12033041D01*
X12185392Y8970000D02*
X12286959D01*
D55*
X14136847Y7076894D02*
D03*
X12476854Y8031882D02*
D03*
D56*
X11840607Y7076849D02*
D03*
X13951900Y5843150D02*
D03*
%TF.MD5,2268134427fbd22fe0d1b64c46591973*%
M02*
