%TF.GenerationSoftware,Altium Limited,Altium Designer,24.5.1 (21)*%
G04 Layer_Color=16711935*
%FSLAX45Y45*%
%MOMM*%
%TF.SameCoordinates,A56B3D6E-D5BE-476E-BB8E-EB53D717D8A4*%
%TF.FilePolarity,Negative*%
%TF.FileFunction,Soldermask,Bot*%
%TF.Part,Single*%
G01*
G75*
%TA.AperFunction,ComponentPad*%
%ADD39C,1.20000*%
%ADD40R,1.20000X1.20000*%
%ADD44C,1.57000*%
%ADD45R,1.57000X1.57000*%
%ADD78C,1.80000*%
G04:AMPARAMS|DCode=79|XSize=1.8mm|YSize=1.8mm|CornerRadius=0.5mm|HoleSize=0mm|Usage=FLASHONLY|Rotation=180.000|XOffset=0mm|YOffset=0mm|HoleType=Round|Shape=RoundedRectangle|*
%AMROUNDEDRECTD79*
21,1,1.80000,0.80000,0,0,180.0*
21,1,0.80000,1.80000,0,0,180.0*
1,1,1.00000,-0.40000,0.40000*
1,1,1.00000,0.40000,0.40000*
1,1,1.00000,0.40000,-0.40000*
1,1,1.00000,-0.40000,-0.40000*
%
%ADD79ROUNDEDRECTD79*%
G04:AMPARAMS|DCode=80|XSize=1.8mm|YSize=1.8mm|CornerRadius=0.5mm|HoleSize=0mm|Usage=FLASHONLY|Rotation=270.000|XOffset=0mm|YOffset=0mm|HoleType=Round|Shape=RoundedRectangle|*
%AMROUNDEDRECTD80*
21,1,1.80000,0.80000,0,0,270.0*
21,1,0.80000,1.80000,0,0,270.0*
1,1,1.00000,-0.40000,-0.40000*
1,1,1.00000,-0.40000,0.40000*
1,1,1.00000,0.40000,0.40000*
1,1,1.00000,0.40000,-0.40000*
%
%ADD80ROUNDEDRECTD80*%
%ADD81R,1.50000X1.50000*%
%ADD82C,1.50000*%
D39*
X10995000Y6410000D02*
D03*
X11395000Y6610000D02*
D03*
D40*
X10995000D02*
D03*
X11395000Y6410000D02*
D03*
D44*
X12140000Y7710000D02*
D03*
X11750000Y7696000D02*
D03*
Y7950000D02*
D03*
D45*
Y8204000D02*
D03*
D78*
X10328000Y8820000D02*
D03*
X10582000D02*
D03*
X11090000D02*
D03*
X10836000D02*
D03*
X10410000Y5643000D02*
D03*
D79*
X11344000Y8820000D02*
D03*
D80*
X10410000Y5897000D02*
D03*
D81*
X16470001Y6325000D02*
D03*
D82*
Y6525000D02*
D03*
Y6725000D02*
D03*
Y6925000D02*
D03*
Y7125000D02*
D03*
Y7325000D02*
D03*
Y7525000D02*
D03*
Y7725000D02*
D03*
Y7925000D02*
D03*
Y8125000D02*
D03*
Y8325000D02*
D03*
%TF.MD5,aa3d78e1c3c7083989290b23c0b18327*%
M02*
