%TF.GenerationSoftware,Altium Limited,Altium Designer,24.5.1 (21)*%
G04 Layer_Color=8421504*
%FSLAX45Y45*%
%MOMM*%
%TF.SameCoordinates,A56B3D6E-D5BE-476E-BB8E-EB53D717D8A4*%
%TF.FilePolarity,Positive*%
%TF.FileFunction,Paste,Top*%
%TF.Part,Single*%
G01*
G75*
%TA.AperFunction,SMDPad,CuDef*%
%ADD18R,2.60000X1.70000*%
%ADD32R,3.40000X2.10000*%
%ADD83R,0.90257X0.85257*%
%TA.AperFunction,BGAPad,CuDef*%
%ADD84R,0.64537X0.64537*%
%TA.AperFunction,ConnectorPad*%
%ADD85R,0.81243X1.41243*%
%TA.AperFunction,SMDPad,CuDef*%
%ADD86R,0.54390X0.84390*%
G04:AMPARAMS|DCode=87|XSize=1.48737mm|YSize=0.28737mm|CornerRadius=0.04319mm|HoleSize=0mm|Usage=FLASHONLY|Rotation=0.000|XOffset=0mm|YOffset=0mm|HoleType=Round|Shape=RoundedRectangle|*
%AMROUNDEDRECTD87*
21,1,1.48737,0.20100,0,0,0.0*
21,1,1.40100,0.28737,0,0,0.0*
1,1,0.08637,0.70050,-0.10050*
1,1,0.08637,-0.70050,-0.10050*
1,1,0.08637,-0.70050,0.10050*
1,1,0.08637,0.70050,0.10050*
%
%ADD87ROUNDEDRECTD87*%
%ADD88R,0.84390X0.54390*%
%ADD89R,0.75654X0.85654*%
%ADD90R,1.15907X0.55907*%
%ADD91R,5.26064X1.91065*%
%ADD92R,0.75895X0.75895*%
%ADD93R,0.75895X0.75895*%
%ADD94R,1.20853X0.55853*%
%ADD95R,2.83775X1.43775*%
%ADD96R,0.55907X1.15907*%
%ADD97R,0.94018X1.34018*%
%ADD98R,0.83390X0.73390*%
%ADD99R,0.45000X0.85000*%
%ADD100R,1.25758X2.50758*%
G04:AMPARAMS|DCode=101|XSize=3.65159mm|YSize=4.65159mm|CornerRadius=0.82579mm|HoleSize=0mm|Usage=FLASHONLY|Rotation=0.000|XOffset=0mm|YOffset=0mm|HoleType=Round|Shape=RoundedRectangle|*
%AMROUNDEDRECTD101*
21,1,3.65159,3.00000,0,0,0.0*
21,1,2.00000,4.65159,0,0,0.0*
1,1,1.65159,1.00000,-1.50000*
1,1,1.65159,-1.00000,-1.50000*
1,1,1.65159,-1.00000,1.50000*
1,1,1.65159,1.00000,1.50000*
%
%ADD101ROUNDEDRECTD101*%
%ADD102R,0.85257X0.90257*%
G04:AMPARAMS|DCode=103|XSize=3.65159mm|YSize=4.65159mm|CornerRadius=0.82579mm|HoleSize=0mm|Usage=FLASHONLY|Rotation=90.000|XOffset=0mm|YOffset=0mm|HoleType=Round|Shape=RoundedRectangle|*
%AMROUNDEDRECTD103*
21,1,3.65159,3.00000,0,0,90.0*
21,1,2.00000,4.65159,0,0,90.0*
1,1,1.65159,1.50000,1.00000*
1,1,1.65159,1.50000,-1.00000*
1,1,1.65159,-1.50000,-1.00000*
1,1,1.65159,-1.50000,1.00000*
%
%ADD103ROUNDEDRECTD103*%
G36*
X13603799Y8534494D02*
X13055798D01*
Y9062493D01*
X13603799D01*
Y8534494D01*
D02*
G37*
D18*
X12035000Y6030000D02*
D03*
X11625000D02*
D03*
D32*
X13860001Y8905000D02*
D03*
Y8275000D02*
D03*
D83*
X14139999Y6957500D02*
D03*
X14139999Y7272500D02*
D03*
X12480000Y8227500D02*
D03*
X12480000Y7912500D02*
D03*
D84*
X10990000Y8410000D02*
D03*
Y8300000D02*
D03*
Y8190000D02*
D03*
X10880000D02*
D03*
X10770000D02*
D03*
Y8300000D02*
D03*
Y8410000D02*
D03*
X10880000D02*
D03*
Y8300000D02*
D03*
D85*
X10260000Y9079000D02*
D03*
X10410000D02*
D03*
X10560000D02*
D03*
X10710000D02*
D03*
X10860000D02*
D03*
X11010000D02*
D03*
X11160000D02*
D03*
X11310000D02*
D03*
X11460000D02*
D03*
Y7329000D02*
D03*
X11310000D02*
D03*
X11160000D02*
D03*
X11010000D02*
D03*
X10860000D02*
D03*
X10710000D02*
D03*
X10560000D02*
D03*
X10410000D02*
D03*
X10260000D02*
D03*
D86*
X12895000Y6630000D02*
D03*
X13045000D02*
D03*
Y6419999D02*
D03*
X12895000D02*
D03*
X10810000Y6040000D02*
D03*
X10660000D02*
D03*
X14735001Y8715000D02*
D03*
X14585001D02*
D03*
X14735001Y8895000D02*
D03*
X14585001D02*
D03*
X14735001Y9085000D02*
D03*
X14585001D02*
D03*
X14735001Y7275000D02*
D03*
X14585001D02*
D03*
X14735001Y6825000D02*
D03*
X14585001D02*
D03*
X14735001Y6975000D02*
D03*
X14585001D02*
D03*
X14735001Y7785000D02*
D03*
X14585001D02*
D03*
X14735001Y7605000D02*
D03*
X14585001D02*
D03*
X14735001Y7125000D02*
D03*
X14585001D02*
D03*
X14735001Y6675000D02*
D03*
X14585001D02*
D03*
X14735001Y7415000D02*
D03*
X14585001D02*
D03*
X14735001Y8525000D02*
D03*
X14585001D02*
D03*
X14735001Y8345000D02*
D03*
X14585001D02*
D03*
X14735001Y8155000D02*
D03*
X14585001D02*
D03*
X14735001Y7975000D02*
D03*
X14585001D02*
D03*
X14735001Y5585000D02*
D03*
X14585001D02*
D03*
X14735001Y6125000D02*
D03*
X14585001D02*
D03*
X14735001Y5755000D02*
D03*
X14585001D02*
D03*
X14735001Y5935000D02*
D03*
X14585001D02*
D03*
X14735001Y6495000D02*
D03*
X14585001D02*
D03*
X14735001Y6305000D02*
D03*
X14585001D02*
D03*
X10295000Y6670000D02*
D03*
X10445000D02*
D03*
X13455000Y8350000D02*
D03*
X13305000D02*
D03*
X13195000Y8220000D02*
D03*
X13045000D02*
D03*
D87*
X13489999Y7425000D02*
D03*
Y7375000D02*
D03*
Y7325000D02*
D03*
Y7275000D02*
D03*
Y7225000D02*
D03*
Y7175000D02*
D03*
Y7125000D02*
D03*
Y7075000D02*
D03*
Y7025000D02*
D03*
Y6975000D02*
D03*
Y6925000D02*
D03*
Y6875000D02*
D03*
Y6825000D02*
D03*
Y6775000D02*
D03*
X12910001D02*
D03*
Y6825000D02*
D03*
Y6875000D02*
D03*
Y6925000D02*
D03*
Y6975000D02*
D03*
Y7025000D02*
D03*
Y7075000D02*
D03*
Y7125000D02*
D03*
Y7175000D02*
D03*
Y7225000D02*
D03*
Y7275000D02*
D03*
Y7325000D02*
D03*
Y7375000D02*
D03*
Y7425000D02*
D03*
Y7475000D02*
D03*
X13489999D02*
D03*
D88*
X10682500Y6915000D02*
D03*
Y7065000D02*
D03*
X11440000Y5735000D02*
D03*
Y5585000D02*
D03*
X12780000Y6435000D02*
D03*
Y6284999D02*
D03*
X12310000Y7975000D02*
D03*
Y8125000D02*
D03*
X14139999Y6660000D02*
D03*
Y6810000D02*
D03*
X14140001Y5515000D02*
D03*
Y5665000D02*
D03*
X12160000Y8125000D02*
D03*
Y7975000D02*
D03*
X11680000Y8705000D02*
D03*
Y8555000D02*
D03*
Y8815000D02*
D03*
Y8965000D02*
D03*
X11152500Y6915000D02*
D03*
Y7065000D02*
D03*
X13500000Y7600000D02*
D03*
Y7750000D02*
D03*
X10857500Y6910000D02*
D03*
Y7060000D02*
D03*
X12260000Y7225000D02*
D03*
Y7375000D02*
D03*
D89*
X11940000Y7350000D02*
D03*
X11700000Y7255000D02*
D03*
Y7445000D02*
D03*
D90*
X11285000Y5575000D02*
D03*
Y5765000D02*
D03*
X11035000Y5670000D02*
D03*
D91*
X12540000Y5587499D02*
D03*
X12540005Y5972499D02*
D03*
D92*
X11810000Y5625000D02*
D03*
Y5775000D02*
D03*
X12920000Y6025000D02*
D03*
Y6175000D02*
D03*
X11569961Y5584989D02*
D03*
Y5734989D02*
D03*
X14430000Y7985000D02*
D03*
Y8135000D02*
D03*
Y7275000D02*
D03*
Y7425000D02*
D03*
Y8355000D02*
D03*
Y8505000D02*
D03*
Y7615000D02*
D03*
Y7765000D02*
D03*
Y5750000D02*
D03*
Y5900000D02*
D03*
Y6135000D02*
D03*
Y6285000D02*
D03*
Y6505000D02*
D03*
Y6655000D02*
D03*
X12475000Y6760000D02*
D03*
Y6910000D02*
D03*
X10450000Y6875000D02*
D03*
Y7025000D02*
D03*
X12675000Y6760000D02*
D03*
Y6910000D02*
D03*
X10440000Y6385000D02*
D03*
Y6535000D02*
D03*
X10290000Y6875000D02*
D03*
Y7025000D02*
D03*
D93*
X12505000Y6539999D02*
D03*
X12355000D02*
D03*
X14435001Y8710000D02*
D03*
X14285001D02*
D03*
X14435001Y9085000D02*
D03*
X14285001D02*
D03*
X14295001Y6990000D02*
D03*
X14445001D02*
D03*
X14445000Y6790000D02*
D03*
X14295000D02*
D03*
X14285001Y5590000D02*
D03*
X14435001D02*
D03*
X12445000Y7170000D02*
D03*
X12595000D02*
D03*
X12165000Y6910000D02*
D03*
X12315000D02*
D03*
X12445000Y7280000D02*
D03*
X12595000D02*
D03*
X12445000Y7050000D02*
D03*
X12595000D02*
D03*
X13305000Y8090000D02*
D03*
X13455000D02*
D03*
X13035001D02*
D03*
X13185001D02*
D03*
X13305000Y8220000D02*
D03*
X13455000D02*
D03*
D94*
X12380000Y6205000D02*
D03*
Y6300000D02*
D03*
Y6395000D02*
D03*
X12630000D02*
D03*
Y6300000D02*
D03*
Y6205000D02*
D03*
D95*
X12650094Y9026987D02*
D03*
X12650000Y8570000D02*
D03*
D96*
X12760000Y8255000D02*
D03*
X12855000Y8005000D02*
D03*
X12665000D02*
D03*
D97*
X10830000Y5880000D02*
D03*
X10735000Y5660000D02*
D03*
X10640000Y5880000D02*
D03*
X13164999Y7680000D02*
D03*
X13070000Y7900000D02*
D03*
X12975000Y7680000D02*
D03*
D98*
X15285001Y7880000D02*
D03*
X15085001Y7785000D02*
D03*
Y7975000D02*
D03*
X15285001Y8250000D02*
D03*
X15085001Y8155000D02*
D03*
Y8345000D02*
D03*
X15285001Y8990000D02*
D03*
X15085001Y8895000D02*
D03*
Y9085000D02*
D03*
X15285001Y8620000D02*
D03*
X15085001Y8525000D02*
D03*
Y8715000D02*
D03*
X15285001Y7510000D02*
D03*
X15085001Y7415000D02*
D03*
Y7605000D02*
D03*
X15285001Y6030000D02*
D03*
X15085001Y5935000D02*
D03*
Y6125000D02*
D03*
X15285001Y5660000D02*
D03*
X15085001Y5565000D02*
D03*
Y5755000D02*
D03*
X15285001Y7140000D02*
D03*
X15085001Y7045000D02*
D03*
Y7235000D02*
D03*
X15285001Y6770000D02*
D03*
X15085001Y6675000D02*
D03*
Y6865000D02*
D03*
X15285001Y6400000D02*
D03*
X15085001Y6305000D02*
D03*
Y6495000D02*
D03*
D99*
X14920001Y7993700D02*
D03*
Y7766300D02*
D03*
Y8733700D02*
D03*
Y8506300D02*
D03*
Y9103700D02*
D03*
Y8876300D02*
D03*
Y7623700D02*
D03*
Y7396300D02*
D03*
Y8363700D02*
D03*
Y8136300D02*
D03*
X14920001Y5773700D02*
D03*
Y5546300D02*
D03*
X14920001Y7253700D02*
D03*
Y7026300D02*
D03*
Y6883700D02*
D03*
Y6656300D02*
D03*
Y6143700D02*
D03*
Y5916300D02*
D03*
Y6513700D02*
D03*
Y6286300D02*
D03*
D100*
X15947501Y5660000D02*
D03*
X15452501D02*
D03*
X15947501Y6030000D02*
D03*
X15452501D02*
D03*
Y8620000D02*
D03*
X15947501D02*
D03*
Y8990000D02*
D03*
X15452501D02*
D03*
X15947501Y6400000D02*
D03*
X15452501D02*
D03*
X15947501Y6770000D02*
D03*
X15452501D02*
D03*
X15947501Y7140000D02*
D03*
X15452501D02*
D03*
X15947501Y7510000D02*
D03*
X15452501D02*
D03*
X15947501Y7880000D02*
D03*
X15452501D02*
D03*
X15947501Y8250000D02*
D03*
X15452501D02*
D03*
D101*
X16639999Y8900000D02*
D03*
D102*
X11645000Y7080000D02*
D03*
X11960000Y7080000D02*
D03*
X14147501Y5840000D02*
D03*
X13832500Y5840000D02*
D03*
D103*
X12160000Y8630000D02*
D03*
%TF.MD5,ba25d1e1a40abaa6d320a1ed98a2c0ec*%
M02*
