G04*
G04 #@! TF.GenerationSoftware,Altium Limited,Altium Designer,24.1.2 (44)*
G04*
G04 Layer_Physical_Order=2*
G04 Layer_Color=16711680*
%FSLAX44Y44*%
%MOMM*%
G71*
G04*
G04 #@! TF.SameCoordinates,35289A0D-B0B0-4263-B8D2-BBE876D284D7*
G04*
G04*
G04 #@! TF.FilePolarity,Positive*
G04*
G01*
G75*
%ADD10C,0.2000*%
%ADD58C,1.5700*%
%ADD59R,1.5700X1.5700*%
%ADD60C,1.5500*%
%ADD61R,1.5500X1.5500*%
%ADD62R,1.5700X1.5700*%
%ADD87C,0.3000*%
%ADD89C,1.3000*%
%ADD90R,1.3000X1.3000*%
%ADD91C,0.6000*%
G36*
X1747689Y961471D02*
X1749803Y960595D01*
X1751706Y959324D01*
X1753324Y957706D01*
X1754595Y955803D01*
X1755471Y953689D01*
X1755918Y951444D01*
Y950300D01*
Y519700D01*
Y518556D01*
X1755471Y516311D01*
X1754595Y514197D01*
X1753324Y512294D01*
X1751706Y510676D01*
X1749803Y509404D01*
X1747689Y508529D01*
X1745444Y508082D01*
X967556D01*
X965311Y508529D01*
X963197Y509404D01*
X961294Y510676D01*
X959676Y512294D01*
X958404Y514197D01*
X957529Y516311D01*
X957082Y518556D01*
Y519700D01*
Y950300D01*
Y951444D01*
X957529Y953689D01*
X958404Y955803D01*
X959676Y957706D01*
X961294Y959324D01*
X963197Y960595D01*
X965311Y961471D01*
X967556Y961918D01*
X1745444D01*
X1747689Y961471D01*
D02*
G37*
%LPC*%
G36*
X1086918Y951390D02*
X1086820D01*
Y942270D01*
X1095940D01*
Y942368D01*
X1095232Y945010D01*
X1093864Y947380D01*
X1091930Y949314D01*
X1089560Y950682D01*
X1086918Y951390D01*
D02*
G37*
G36*
X1084280D02*
X1084182D01*
X1081540Y950682D01*
X1079170Y949314D01*
X1077236Y947380D01*
X1075868Y945010D01*
X1075160Y942368D01*
Y942270D01*
X1084280D01*
Y951390D01*
D02*
G37*
G36*
X1171600Y950850D02*
X1151900D01*
Y931150D01*
X1171600D01*
Y950850D01*
D02*
G37*
G36*
X1137647D02*
X1135053D01*
X1132548Y950179D01*
X1130302Y948882D01*
X1128468Y947048D01*
X1127171Y944802D01*
X1126500Y942297D01*
Y939703D01*
X1127171Y937198D01*
X1128468Y934952D01*
X1130302Y933118D01*
X1132548Y931821D01*
X1135053Y931150D01*
X1137647D01*
X1140152Y931821D01*
X1142398Y933118D01*
X1144232Y934952D01*
X1145529Y937198D01*
X1146200Y939703D01*
Y942297D01*
X1145529Y944802D01*
X1144232Y947048D01*
X1142398Y948882D01*
X1140152Y950179D01*
X1137647Y950850D01*
D02*
G37*
G36*
X1112247D02*
X1109653D01*
X1107148Y950179D01*
X1104902Y948882D01*
X1103068Y947048D01*
X1101771Y944802D01*
X1101100Y942297D01*
Y939703D01*
X1101771Y937198D01*
X1103068Y934952D01*
X1104902Y933118D01*
X1107148Y931821D01*
X1109653Y931150D01*
X1112247D01*
X1114752Y931821D01*
X1116998Y933118D01*
X1118832Y934952D01*
X1120129Y937198D01*
X1120800Y939703D01*
Y942297D01*
X1120129Y944802D01*
X1118832Y947048D01*
X1116998Y948882D01*
X1114752Y950179D01*
X1112247Y950850D01*
D02*
G37*
G36*
X1061447D02*
X1058853D01*
X1056348Y950179D01*
X1054102Y948882D01*
X1052268Y947048D01*
X1050971Y944802D01*
X1050300Y942297D01*
Y939703D01*
X1050971Y937198D01*
X1052268Y934952D01*
X1054102Y933118D01*
X1056348Y931821D01*
X1058853Y931150D01*
X1061447D01*
X1063952Y931821D01*
X1066198Y933118D01*
X1068032Y934952D01*
X1069329Y937198D01*
X1070000Y939703D01*
Y942297D01*
X1069329Y944802D01*
X1068032Y947048D01*
X1066198Y948882D01*
X1063952Y950179D01*
X1061447Y950850D01*
D02*
G37*
G36*
X1095940Y939730D02*
X1086820D01*
Y930610D01*
X1086918D01*
X1089560Y931318D01*
X1091930Y932686D01*
X1093864Y934620D01*
X1095232Y936990D01*
X1095940Y939632D01*
Y939730D01*
D02*
G37*
G36*
X1084280D02*
X1075160D01*
Y939632D01*
X1075868Y936990D01*
X1077236Y934620D01*
X1079170Y932686D01*
X1081540Y931318D01*
X1084182Y930610D01*
X1084280D01*
Y939730D01*
D02*
G37*
G36*
X1696270Y841519D02*
Y833770D01*
X1704019D01*
X1703424Y835989D01*
X1702234Y838051D01*
X1700551Y839734D01*
X1698489Y840924D01*
X1696270Y841519D01*
D02*
G37*
G36*
X1693730Y841519D02*
X1691511Y840924D01*
X1689449Y839734D01*
X1687766Y838051D01*
X1686576Y835989D01*
X1685981Y833770D01*
X1693730D01*
Y841519D01*
D02*
G37*
G36*
X1704019Y831230D02*
X1696270D01*
Y823481D01*
X1698489Y824076D01*
X1700551Y825266D01*
X1702234Y826949D01*
X1703424Y829011D01*
X1704019Y831230D01*
D02*
G37*
G36*
X1693730D02*
X1685981D01*
X1686576Y829011D01*
X1687766Y826949D01*
X1689449Y825266D01*
X1691511Y824076D01*
X1693730Y823481D01*
Y831230D01*
D02*
G37*
G36*
X1215850Y828250D02*
X1196150D01*
Y808550D01*
X1215850D01*
Y828250D01*
D02*
G37*
G36*
X1184850D02*
X1165150D01*
Y808550D01*
X1184850D01*
Y828250D01*
D02*
G37*
G36*
X1696119Y821000D02*
X1693881D01*
X1691719Y820421D01*
X1689781Y819302D01*
X1688198Y817719D01*
X1687079Y815781D01*
X1686500Y813619D01*
Y811381D01*
X1687079Y809219D01*
X1688198Y807281D01*
X1689781Y805698D01*
X1691719Y804579D01*
X1693881Y804000D01*
X1696119D01*
X1698281Y804579D01*
X1700219Y805698D01*
X1701802Y807281D01*
X1702921Y809219D01*
X1703500Y811381D01*
Y813619D01*
X1702921Y815781D01*
X1701802Y817719D01*
X1700219Y819302D01*
X1698281Y820421D01*
X1696119Y821000D01*
D02*
G37*
G36*
Y801000D02*
X1693881D01*
X1691719Y800421D01*
X1689781Y799302D01*
X1688198Y797719D01*
X1687079Y795781D01*
X1686500Y793619D01*
Y791381D01*
X1687079Y789219D01*
X1688198Y787281D01*
X1689781Y785698D01*
X1691719Y784579D01*
X1693881Y784000D01*
X1696119D01*
X1698281Y784579D01*
X1700219Y785698D01*
X1701802Y787281D01*
X1702921Y789219D01*
X1703500Y791381D01*
Y793619D01*
X1702921Y795781D01*
X1701802Y797719D01*
X1700219Y799302D01*
X1698281Y800421D01*
X1696119Y801000D01*
D02*
G37*
G36*
X1207297Y802850D02*
X1204703D01*
X1202198Y802179D01*
X1199952Y800882D01*
X1198118Y799048D01*
X1196821Y796802D01*
X1196150Y794297D01*
Y791703D01*
X1196821Y789198D01*
X1198118Y786952D01*
X1199952Y785118D01*
X1202198Y783821D01*
X1204703Y783150D01*
X1207297D01*
X1209802Y783821D01*
X1212048Y785118D01*
X1213882Y786952D01*
X1215179Y789198D01*
X1215850Y791703D01*
Y794297D01*
X1215179Y796802D01*
X1213882Y799048D01*
X1212048Y800882D01*
X1209802Y802179D01*
X1207297Y802850D01*
D02*
G37*
G36*
X1176297D02*
X1173703D01*
X1171198Y802179D01*
X1168952Y800882D01*
X1167118Y799048D01*
X1165821Y796802D01*
X1165150Y794297D01*
Y791703D01*
X1165821Y789198D01*
X1167118Y786952D01*
X1168952Y785118D01*
X1171198Y783821D01*
X1173703Y783150D01*
X1176297D01*
X1178802Y783821D01*
X1181048Y785118D01*
X1182882Y786952D01*
X1184179Y789198D01*
X1184850Y791703D01*
Y794297D01*
X1184179Y796802D01*
X1182882Y799048D01*
X1181048Y800882D01*
X1178802Y802179D01*
X1176297Y802850D01*
D02*
G37*
G36*
X1253297Y800850D02*
X1250703D01*
X1248198Y800179D01*
X1245952Y798882D01*
X1244118Y797048D01*
X1242821Y794802D01*
X1242150Y792297D01*
Y789703D01*
X1242821Y787198D01*
X1244118Y784952D01*
X1245952Y783118D01*
X1248198Y781821D01*
X1250703Y781150D01*
X1253297D01*
X1255802Y781821D01*
X1258048Y783118D01*
X1259882Y784952D01*
X1261179Y787198D01*
X1261850Y789703D01*
Y792297D01*
X1261179Y794802D01*
X1259882Y797048D01*
X1258048Y798882D01*
X1255802Y800179D01*
X1253297Y800850D01*
D02*
G37*
G36*
X1083102Y781540D02*
X1080898D01*
X1078862Y780697D01*
X1078284Y780119D01*
X1053639D01*
X1052062Y779806D01*
X1050726Y778913D01*
X1026394Y754580D01*
X1025577D01*
X1023541Y753737D01*
X1021982Y752178D01*
X1021139Y750142D01*
Y747938D01*
X1021982Y745902D01*
X1023541Y744344D01*
X1025577Y743500D01*
X1027781D01*
X1029817Y744344D01*
X1031376Y745902D01*
X1032219Y747938D01*
Y748755D01*
X1055345Y771881D01*
X1078284D01*
X1078862Y771303D01*
X1080898Y770460D01*
X1083102D01*
X1085138Y771303D01*
X1086697Y772862D01*
X1087540Y774898D01*
Y777102D01*
X1086697Y779138D01*
X1085138Y780697D01*
X1083102Y781540D01*
D02*
G37*
G36*
X1207368Y777990D02*
X1207270D01*
Y768870D01*
X1216390D01*
Y768968D01*
X1215682Y771610D01*
X1214314Y773980D01*
X1212380Y775914D01*
X1210010Y777282D01*
X1207368Y777990D01*
D02*
G37*
G36*
X1176368D02*
X1176270D01*
Y768870D01*
X1185390D01*
Y768968D01*
X1184682Y771610D01*
X1183314Y773980D01*
X1181380Y775914D01*
X1179010Y777282D01*
X1176368Y777990D01*
D02*
G37*
G36*
X1204730D02*
X1204632D01*
X1201990Y777282D01*
X1199620Y775914D01*
X1197686Y773980D01*
X1196318Y771610D01*
X1195610Y768968D01*
Y768870D01*
X1204730D01*
Y777990D01*
D02*
G37*
G36*
X1173730D02*
X1173632D01*
X1170990Y777282D01*
X1168620Y775914D01*
X1166686Y773980D01*
X1165318Y771610D01*
X1164610Y768968D01*
Y768870D01*
X1173730D01*
Y777990D01*
D02*
G37*
G36*
X1696119Y781000D02*
X1693881D01*
X1691719Y780421D01*
X1689781Y779302D01*
X1688198Y777719D01*
X1687079Y775781D01*
X1686500Y773619D01*
Y771381D01*
X1687079Y769219D01*
X1688198Y767281D01*
X1689781Y765698D01*
X1691719Y764579D01*
X1693881Y764000D01*
X1696119D01*
X1698281Y764579D01*
X1700219Y765698D01*
X1701802Y767281D01*
X1702921Y769219D01*
X1703500Y771381D01*
Y773619D01*
X1702921Y775781D01*
X1701802Y777719D01*
X1700219Y779302D01*
X1698281Y780421D01*
X1696119Y781000D01*
D02*
G37*
G36*
X1216390Y766330D02*
X1207270D01*
Y757210D01*
X1207368D01*
X1210010Y757918D01*
X1212380Y759286D01*
X1214314Y761220D01*
X1215682Y763590D01*
X1216390Y766232D01*
Y766330D01*
D02*
G37*
G36*
X1204730D02*
X1195610D01*
Y766232D01*
X1196318Y763590D01*
X1197686Y761220D01*
X1199620Y759286D01*
X1201990Y757918D01*
X1204632Y757210D01*
X1204730D01*
Y766330D01*
D02*
G37*
G36*
X1185390D02*
X1176270D01*
Y757210D01*
X1176368D01*
X1179010Y757918D01*
X1181380Y759286D01*
X1183314Y761220D01*
X1184682Y763590D01*
X1185390Y766232D01*
Y766330D01*
D02*
G37*
G36*
X1173730D02*
X1164610D01*
Y766232D01*
X1165318Y763590D01*
X1166686Y761220D01*
X1168620Y759286D01*
X1170990Y757918D01*
X1173632Y757210D01*
X1173730D01*
Y766330D01*
D02*
G37*
G36*
X1286102Y785540D02*
X1283898D01*
X1281862Y784697D01*
X1280303Y783138D01*
X1279460Y781102D01*
Y778898D01*
X1280303Y776862D01*
X1281862Y775303D01*
X1283898Y774460D01*
X1286102D01*
X1288138Y775303D01*
X1289225Y776391D01*
X1319715D01*
X1334170Y761936D01*
Y759898D01*
X1335013Y757862D01*
X1336572Y756303D01*
X1338608Y755460D01*
X1340812D01*
X1342848Y756303D01*
X1344407Y757862D01*
X1345250Y759898D01*
Y762102D01*
X1344407Y764138D01*
X1342848Y765697D01*
X1340812Y766540D01*
X1339774D01*
X1323762Y782552D01*
X1322591Y783335D01*
X1321210Y783609D01*
X1289225D01*
X1288138Y784697D01*
X1286102Y785540D01*
D02*
G37*
G36*
X1036047Y950850D02*
X1033453D01*
X1030948Y950179D01*
X1028702Y948882D01*
X1026868Y947048D01*
X1025571Y944802D01*
X1024900Y942297D01*
Y939703D01*
X1025571Y937198D01*
X1026868Y934952D01*
X1028702Y933118D01*
X1030948Y931821D01*
X1032441Y931421D01*
Y836118D01*
X1032715Y834736D01*
X1033498Y833565D01*
X1074674Y792389D01*
X1075555Y791801D01*
X1116460Y750896D01*
Y749358D01*
X1117303Y747322D01*
X1118862Y745763D01*
X1120898Y744920D01*
X1123102D01*
X1125138Y745763D01*
X1126697Y747322D01*
X1127540Y749358D01*
Y751562D01*
X1126697Y753598D01*
X1125138Y755157D01*
X1123102Y756000D01*
X1121564D01*
X1080071Y797494D01*
X1079190Y798082D01*
X1039659Y837613D01*
Y932461D01*
X1040798Y933118D01*
X1042632Y934952D01*
X1043929Y937198D01*
X1044600Y939703D01*
Y942297D01*
X1043929Y944802D01*
X1042632Y947048D01*
X1040798Y948882D01*
X1038552Y950179D01*
X1036047Y950850D01*
D02*
G37*
G36*
X1696119Y761000D02*
X1693881D01*
X1691719Y760421D01*
X1689781Y759302D01*
X1688198Y757719D01*
X1687079Y755781D01*
X1686500Y753619D01*
Y751381D01*
X1687079Y749219D01*
X1688198Y747281D01*
X1689781Y745698D01*
X1691719Y744579D01*
X1693881Y744000D01*
X1696119D01*
X1698281Y744579D01*
X1700219Y745698D01*
X1701802Y747281D01*
X1702921Y749219D01*
X1703500Y751381D01*
Y753619D01*
X1702921Y755781D01*
X1701802Y757719D01*
X1700219Y759302D01*
X1698281Y760421D01*
X1696119Y761000D01*
D02*
G37*
G36*
X1277102Y750540D02*
X1274898D01*
X1272862Y749697D01*
X1271775Y748609D01*
X1214000D01*
X1212619Y748335D01*
X1211448Y747552D01*
X1187005Y723109D01*
X1090725D01*
X1090138Y723697D01*
X1088102Y724540D01*
X1085898D01*
X1083862Y723697D01*
X1082303Y722138D01*
X1081460Y720102D01*
Y717898D01*
X1082217Y716069D01*
X1079213D01*
X1078822Y717014D01*
X1077264Y718572D01*
X1075228Y719416D01*
X1073024D01*
X1070987Y718572D01*
X1069429Y717014D01*
X1068586Y714977D01*
Y712774D01*
X1069429Y710737D01*
X1070987Y709179D01*
X1073024Y708335D01*
X1075228D01*
X1076521Y708871D01*
X1076624Y708851D01*
X1194158D01*
X1195539Y709125D01*
X1196710Y709908D01*
X1210558Y723756D01*
X1211316Y721927D01*
X1212874Y720369D01*
X1214910Y719526D01*
X1217114D01*
X1219150Y720369D01*
X1220238Y721456D01*
X1301643D01*
X1302303Y719862D01*
X1303862Y718303D01*
X1305898Y717460D01*
X1308102D01*
X1310138Y718303D01*
X1311697Y719862D01*
X1312540Y721898D01*
Y724102D01*
X1311697Y726138D01*
X1310138Y727697D01*
X1308102Y728540D01*
X1305898D01*
X1305358Y728316D01*
X1305233Y728400D01*
X1303852Y728675D01*
X1220238D01*
X1219150Y729762D01*
X1217322Y730520D01*
X1220193Y733391D01*
X1266775D01*
X1267862Y732303D01*
X1269898Y731460D01*
X1272102D01*
X1274138Y732303D01*
X1275697Y733862D01*
X1276540Y735898D01*
Y738102D01*
X1275977Y739460D01*
X1277102D01*
X1279138Y740303D01*
X1280697Y741862D01*
X1281540Y743898D01*
Y746102D01*
X1280697Y748138D01*
X1279138Y749697D01*
X1277102Y750540D01*
D02*
G37*
G36*
X1696119Y741000D02*
X1693881D01*
X1691719Y740421D01*
X1689781Y739302D01*
X1688198Y737719D01*
X1687079Y735781D01*
X1686500Y733619D01*
Y731381D01*
X1687079Y729219D01*
X1688198Y727281D01*
X1689781Y725698D01*
X1691719Y724579D01*
X1693881Y724000D01*
X1696119D01*
X1698281Y724579D01*
X1700219Y725698D01*
X1701802Y727281D01*
X1702921Y729219D01*
X1703500Y731381D01*
Y733619D01*
X1702921Y735781D01*
X1701802Y737719D01*
X1700219Y739302D01*
X1698281Y740421D01*
X1696119Y741000D01*
D02*
G37*
G36*
X1471102Y728540D02*
X1468898D01*
X1466862Y727697D01*
X1465303Y726138D01*
X1464460Y724102D01*
Y721898D01*
X1465303Y719862D01*
X1466862Y718303D01*
X1468898Y717460D01*
X1470956D01*
X1476500Y711916D01*
Y710898D01*
X1477343Y708862D01*
X1478902Y707303D01*
X1480938Y706460D01*
X1483142D01*
X1485178Y707303D01*
X1486737Y708862D01*
X1487580Y710898D01*
Y713102D01*
X1486737Y715138D01*
X1485178Y716697D01*
X1483142Y717540D01*
X1481084D01*
X1475540Y723084D01*
Y724102D01*
X1474697Y726138D01*
X1473138Y727697D01*
X1471102Y728540D01*
D02*
G37*
G36*
X1696119Y721000D02*
X1693881D01*
X1691719Y720421D01*
X1689781Y719302D01*
X1688198Y717719D01*
X1687079Y715781D01*
X1686500Y713619D01*
Y711381D01*
X1687079Y709219D01*
X1688198Y707281D01*
X1689781Y705698D01*
X1691719Y704579D01*
X1693881Y704000D01*
X1696119D01*
X1698281Y704579D01*
X1700219Y705698D01*
X1701802Y707281D01*
X1702921Y709219D01*
X1703500Y711381D01*
Y713619D01*
X1702921Y715781D01*
X1701802Y717719D01*
X1700219Y719302D01*
X1698281Y720421D01*
X1696119Y721000D01*
D02*
G37*
G36*
X1322102Y703540D02*
X1319898D01*
X1317862Y702697D01*
X1316303Y701138D01*
X1315460Y699102D01*
Y696898D01*
X1316303Y694862D01*
X1317862Y693303D01*
X1319898Y692460D01*
X1321921D01*
X1323933Y690448D01*
X1325104Y689665D01*
X1326485Y689391D01*
X1386775D01*
X1387862Y688303D01*
X1389898Y687460D01*
X1392102D01*
X1394138Y688303D01*
X1395697Y689862D01*
X1396540Y691898D01*
Y694102D01*
X1395697Y696138D01*
X1394138Y697697D01*
X1392102Y698540D01*
X1389898D01*
X1387862Y697697D01*
X1386775Y696609D01*
X1327980D01*
X1326540Y698050D01*
Y699102D01*
X1325697Y701138D01*
X1324138Y702697D01*
X1322102Y703540D01*
D02*
G37*
G36*
X1524102Y695540D02*
X1521898D01*
X1519862Y694697D01*
X1518775Y693609D01*
X1503000D01*
X1501619Y693335D01*
X1500448Y692552D01*
X1483436Y675540D01*
X1482898D01*
X1480862Y674697D01*
X1479303Y673138D01*
X1478460Y671102D01*
Y668898D01*
X1479303Y666862D01*
X1480862Y665303D01*
X1482898Y664460D01*
X1485102D01*
X1487138Y665303D01*
X1488697Y666862D01*
X1489540Y668898D01*
Y671102D01*
X1489442Y671338D01*
X1504495Y686391D01*
X1518775D01*
X1519862Y685303D01*
X1521898Y684460D01*
X1524102D01*
X1526138Y685303D01*
X1527697Y686862D01*
X1528540Y688898D01*
Y691102D01*
X1527697Y693138D01*
X1526138Y694697D01*
X1524102Y695540D01*
D02*
G37*
G36*
X1696119Y701000D02*
X1693881D01*
X1691719Y700421D01*
X1689781Y699302D01*
X1688198Y697719D01*
X1687079Y695781D01*
X1686500Y693619D01*
Y691381D01*
X1687079Y689219D01*
X1688198Y687281D01*
X1689781Y685698D01*
X1691719Y684579D01*
X1693881Y684000D01*
X1696119D01*
X1698281Y684579D01*
X1700219Y685698D01*
X1701802Y687281D01*
X1702921Y689219D01*
X1703500Y691381D01*
Y693619D01*
X1702921Y695781D01*
X1701802Y697719D01*
X1700219Y699302D01*
X1698281Y700421D01*
X1696119Y701000D01*
D02*
G37*
G36*
X1310116Y693065D02*
X1307912D01*
X1305875Y692222D01*
X1304788Y691134D01*
X1302525D01*
X1301144Y690860D01*
X1299973Y690077D01*
X1262436Y652540D01*
X1261898D01*
X1259862Y651697D01*
X1258303Y650138D01*
X1257460Y648102D01*
Y645898D01*
X1258303Y643862D01*
X1259862Y642303D01*
X1261898Y641460D01*
X1264102D01*
X1266138Y642303D01*
X1267697Y643862D01*
X1268540Y645898D01*
Y648102D01*
X1268442Y648338D01*
X1304020Y683916D01*
X1304788D01*
X1305875Y682828D01*
X1307912Y681985D01*
X1310116D01*
X1312152Y682828D01*
X1313710Y684387D01*
X1314554Y686423D01*
Y688627D01*
X1313710Y690663D01*
X1312152Y692222D01*
X1310116Y693065D01*
D02*
G37*
G36*
X1059352Y715540D02*
X1057148D01*
X1055112Y714697D01*
X1053553Y713138D01*
X1052710Y711102D01*
Y708898D01*
X1053553Y706862D01*
X1054641Y705775D01*
Y687475D01*
X1053303Y686138D01*
X1052460Y684102D01*
Y681898D01*
X1053303Y679862D01*
X1054862Y678303D01*
X1056898Y677460D01*
X1059102D01*
X1061138Y678303D01*
X1062697Y679862D01*
X1063540Y681898D01*
Y684102D01*
X1062697Y686138D01*
X1061859Y686975D01*
Y705775D01*
X1062947Y706862D01*
X1063790Y708898D01*
Y711102D01*
X1062947Y713138D01*
X1061388Y714697D01*
X1059352Y715540D01*
D02*
G37*
G36*
X1696119Y681000D02*
X1693881D01*
X1691719Y680421D01*
X1689781Y679302D01*
X1688198Y677719D01*
X1687079Y675781D01*
X1686500Y673619D01*
Y671381D01*
X1687079Y669219D01*
X1688198Y667281D01*
X1689781Y665698D01*
X1691719Y664579D01*
X1693881Y664000D01*
X1696119D01*
X1698281Y664579D01*
X1700219Y665698D01*
X1701802Y667281D01*
X1702921Y669219D01*
X1703500Y671381D01*
Y673619D01*
X1702921Y675781D01*
X1701802Y677719D01*
X1700219Y679302D01*
X1698281Y680421D01*
X1696119Y681000D01*
D02*
G37*
G36*
Y661000D02*
X1693881D01*
X1691719Y660421D01*
X1689781Y659302D01*
X1688198Y657719D01*
X1687079Y655781D01*
X1686500Y653619D01*
Y651381D01*
X1687079Y649219D01*
X1688198Y647281D01*
X1689781Y645698D01*
X1691719Y644579D01*
X1693881Y644000D01*
X1696119D01*
X1698281Y644579D01*
X1700219Y645698D01*
X1701802Y647281D01*
X1702921Y649219D01*
X1703500Y651381D01*
Y653619D01*
X1702921Y655781D01*
X1701802Y657719D01*
X1700219Y659302D01*
X1698281Y660421D01*
X1696119Y661000D01*
D02*
G37*
G36*
X1315102Y660540D02*
X1312898D01*
X1310862Y659697D01*
X1309303Y658138D01*
X1308460Y656102D01*
Y655285D01*
X1290185Y637011D01*
X1207810D01*
X1207232Y637588D01*
X1205196Y638431D01*
X1202992D01*
X1200956Y637588D01*
X1199397Y636030D01*
X1198554Y633993D01*
Y631790D01*
X1199397Y629753D01*
X1200956Y628195D01*
X1202992Y627351D01*
X1205196D01*
X1207232Y628195D01*
X1207810Y628772D01*
X1291891D01*
X1293468Y629086D01*
X1294804Y629979D01*
X1314285Y649460D01*
X1315102D01*
X1317138Y650303D01*
X1318697Y651862D01*
X1319540Y653898D01*
Y656102D01*
X1318697Y658138D01*
X1317138Y659697D01*
X1315102Y660540D01*
D02*
G37*
G36*
X1703500Y641000D02*
X1686500D01*
Y624000D01*
X1703500D01*
Y641000D01*
D02*
G37*
G36*
X1046105Y600290D02*
X1046020D01*
Y591270D01*
X1055040D01*
Y591355D01*
X1054339Y593972D01*
X1052984Y596318D01*
X1051068Y598234D01*
X1048722Y599589D01*
X1046105Y600290D01*
D02*
G37*
G36*
X1043480D02*
X1043395D01*
X1040778Y599589D01*
X1038432Y598234D01*
X1036516Y596318D01*
X1035161Y593972D01*
X1034460Y591355D01*
Y591270D01*
X1043480D01*
Y600290D01*
D02*
G37*
G36*
X1111034Y599750D02*
X1108466D01*
X1105987Y599086D01*
X1103763Y597802D01*
X1101948Y595987D01*
X1100665Y593763D01*
X1100000Y591284D01*
Y588716D01*
X1100665Y586237D01*
X1101948Y584013D01*
X1103763Y582198D01*
X1105987Y580914D01*
X1108466Y580250D01*
X1111034D01*
X1113513Y580914D01*
X1115737Y582198D01*
X1117552Y584013D01*
X1118836Y586237D01*
X1119500Y588716D01*
Y591284D01*
X1118836Y593763D01*
X1117552Y595987D01*
X1115737Y597802D01*
X1113513Y599086D01*
X1111034Y599750D01*
D02*
G37*
G36*
X1055040Y588730D02*
X1046020D01*
Y579710D01*
X1046105D01*
X1048722Y580411D01*
X1051068Y581766D01*
X1052984Y583682D01*
X1054339Y586028D01*
X1055040Y588645D01*
Y588730D01*
D02*
G37*
G36*
X1043480D02*
X1034460D01*
Y588645D01*
X1035161Y586028D01*
X1036516Y583682D01*
X1038432Y581766D01*
X1040778Y580411D01*
X1043395Y579710D01*
X1043480D01*
Y588730D01*
D02*
G37*
G36*
X1119500Y574750D02*
X1100000D01*
Y555250D01*
X1119500D01*
Y574750D01*
D02*
G37*
G36*
X1054500D02*
X1035000D01*
Y555250D01*
X1054500D01*
Y574750D01*
D02*
G37*
%LPD*%
G36*
X1266775Y740609D02*
X1218698D01*
X1217317Y740335D01*
X1216146Y739552D01*
X1192663Y716069D01*
X1189398D01*
X1189881Y716165D01*
X1191052Y716948D01*
X1215495Y741391D01*
X1267556D01*
X1266775Y740609D01*
D02*
G37*
D10*
X1075208Y713876D02*
X1076624Y712460D01*
X1074126Y713876D02*
X1075208D01*
X1076624Y712460D02*
X1194158D01*
X1218698Y737000D01*
X1326485Y693000D02*
X1391000D01*
X1321485Y698000D02*
X1326485Y693000D01*
X1077226Y794941D02*
X1077518D01*
X1122000Y750460D01*
X1036050Y836118D02*
X1077226Y794941D01*
X1058250Y710000D02*
Y711082D01*
Y683250D02*
Y710000D01*
X1087500Y719500D02*
X1188500D01*
X1214000Y745000D01*
X1087000Y719000D02*
X1087500Y719500D01*
X1058000Y683000D02*
X1058250Y683250D01*
X1036050Y836118D02*
Y941000D01*
X1218698Y737000D02*
X1271000D01*
X1214000Y745000D02*
X1276000D01*
X1216012Y725066D02*
X1303852D01*
X1285000Y780000D02*
X1321210D01*
X1338710Y762500D01*
X1303852Y725066D02*
X1305918Y723000D01*
X1307000D01*
X1321000Y698000D02*
X1321485D01*
X1263000Y647000D02*
Y648000D01*
X1302525Y687525D01*
X1309014D01*
X1470520Y723000D02*
X1481520Y712000D01*
X1470000Y723000D02*
X1470520D01*
X1481520Y712000D02*
X1482040D01*
X1484000Y670000D02*
Y671000D01*
X1503000Y690000D01*
X1523000D01*
D58*
X1252000Y791000D02*
D03*
X1175000Y767600D02*
D03*
Y793000D02*
D03*
X1206000Y767600D02*
D03*
Y793000D02*
D03*
X1034750Y941000D02*
D03*
X1060150D02*
D03*
X1085550D02*
D03*
X1110950D02*
D03*
X1136350D02*
D03*
D59*
X1175000Y818400D02*
D03*
X1206000D02*
D03*
D60*
X1109750Y590000D02*
D03*
X1044750D02*
D03*
D61*
X1109750Y565000D02*
D03*
X1044750D02*
D03*
D62*
X1161750Y941000D02*
D03*
D87*
X1026679Y749040D02*
X1053639Y776000D01*
X1082000D01*
X1291891Y632891D02*
X1314000Y655000D01*
X1204094Y632891D02*
X1291891D01*
D89*
X1695000Y832500D02*
D03*
Y812500D02*
D03*
Y792500D02*
D03*
Y772500D02*
D03*
Y752500D02*
D03*
Y732500D02*
D03*
Y712500D02*
D03*
Y692500D02*
D03*
Y672500D02*
D03*
Y652500D02*
D03*
D90*
Y632500D02*
D03*
D91*
X1174000Y914000D02*
D03*
X1306000Y737000D02*
D03*
X1179000Y727000D02*
D03*
X1074126Y713876D02*
D03*
X1146000Y748000D02*
D03*
X1246000Y752000D02*
D03*
X1082000Y776000D02*
D03*
X1093250Y807000D02*
D03*
X1110250Y824000D02*
D03*
X1122000Y750460D02*
D03*
X1087000Y719000D02*
D03*
X1058000Y683000D02*
D03*
X1271000Y737000D02*
D03*
X1216012Y725066D02*
D03*
X1276000Y745000D02*
D03*
X1047500Y623500D02*
D03*
X1265000Y818000D02*
D03*
X1285000Y780000D02*
D03*
X1339710Y761000D02*
D03*
X1350000Y792500D02*
D03*
X1297500Y822500D02*
D03*
X1235000Y712500D02*
D03*
X1212500Y700000D02*
D03*
X1380000Y924500D02*
D03*
X1390000D02*
D03*
X1370000D02*
D03*
X1355000Y945500D02*
D03*
X1405000D02*
D03*
X1167000Y570000D02*
D03*
X1321000Y698000D02*
D03*
X1026679Y749040D02*
D03*
X1307000Y723000D02*
D03*
X1391000Y693000D02*
D03*
X1314000Y655000D02*
D03*
X1204094Y632891D02*
D03*
X1263000Y647000D02*
D03*
X1309014Y687525D02*
D03*
X1058250Y710000D02*
D03*
X1038250Y677500D02*
D03*
X1523500Y892750D02*
D03*
X1442500Y870000D02*
D03*
X1445000Y917500D02*
D03*
X1082250Y807000D02*
D03*
X1066250Y824000D02*
D03*
Y836000D02*
D03*
X1083250Y852000D02*
D03*
X1093250D02*
D03*
X1110250Y836000D02*
D03*
X1482040Y712000D02*
D03*
X1470000Y723000D02*
D03*
X1278460Y599020D02*
D03*
X1180500Y612000D02*
D03*
X1189000Y542000D02*
D03*
X1484000Y670000D02*
D03*
X1523000Y690000D02*
D03*
M02*
