%TF.GenerationSoftware,Altium Limited,Altium Designer,24.1.2 (44)*%
G04 Layer_Physical_Order=2*
G04 Layer_Color=16711680*
%FSLAX45Y45*%
%MOMM*%
%TF.SameCoordinates,126283BA-89AD-4916-A54F-9615FB238DFA*%
%TF.FilePolarity,Positive*%
%TF.FileFunction,Copper,L2,Bot,Signal*%
%TF.Part,Single*%
G01*
G75*
%TA.AperFunction,Conductor*%
%ADD40C,0.30000*%
%ADD41C,0.20000*%
%TA.AperFunction,ComponentPad*%
%ADD44C,1.57000*%
%ADD45R,1.57000X1.57000*%
%ADD46C,1.55000*%
%ADD47R,1.55000X1.55000*%
%ADD48R,1.57000X1.57000*%
%ADD49C,1.30000*%
%ADD50R,1.30000X1.30000*%
%TA.AperFunction,ViaPad*%
%ADD51C,0.60000*%
G36*
X17476888Y9614713D02*
X17498030Y9605955D01*
X17517058Y9593241D01*
X17533241Y9577058D01*
X17545955Y9558031D01*
X17554713Y9536887D01*
X17559177Y9514442D01*
Y9503000D01*
Y5197000D01*
Y5185558D01*
X17554713Y5163113D01*
X17545955Y5141970D01*
X17533241Y5122941D01*
X17517058Y5106758D01*
X17498032Y5094045D01*
X17476888Y5085287D01*
X17454443Y5080823D01*
X9675557D01*
X9653112Y5085287D01*
X9631970Y5094045D01*
X9612941Y5106759D01*
X9596758Y5122942D01*
X9584045Y5141969D01*
X9575287Y5163113D01*
X9570823Y5185557D01*
Y5197000D01*
Y9503000D01*
Y9514443D01*
X9575287Y9536887D01*
X9584045Y9558030D01*
X9596759Y9577059D01*
X9612942Y9593241D01*
X9631969Y9605955D01*
X9653112Y9614713D01*
X9675557Y9619177D01*
X17454442D01*
X17476888Y9614713D01*
D02*
G37*
%LPC*%
G36*
X10869179Y9513900D02*
X10868199D01*
Y9422700D01*
X10959400D01*
Y9423679D01*
X10952319Y9450104D01*
X10938641Y9473796D01*
X10919296Y9493141D01*
X10895604Y9506819D01*
X10869179Y9513900D01*
D02*
G37*
G36*
X10842799D02*
X10841821D01*
X10815396Y9506819D01*
X10791704Y9493141D01*
X10772359Y9473796D01*
X10758681Y9450104D01*
X10751600Y9423679D01*
Y9422700D01*
X10842799D01*
Y9513900D01*
D02*
G37*
G36*
X11716000Y9508500D02*
X11519000D01*
Y9311500D01*
X11716000D01*
Y9508500D01*
D02*
G37*
G36*
X11376468D02*
X11350532D01*
X11325481Y9501787D01*
X11303020Y9488819D01*
X11284681Y9470480D01*
X11271713Y9448019D01*
X11265000Y9422968D01*
Y9397032D01*
X11271713Y9371980D01*
X11284681Y9349520D01*
X11303020Y9331180D01*
X11325481Y9318213D01*
X11350532Y9311500D01*
X11376468D01*
X11401519Y9318213D01*
X11423980Y9331180D01*
X11442320Y9349520D01*
X11455287Y9371980D01*
X11462000Y9397032D01*
Y9422968D01*
X11455287Y9448019D01*
X11442320Y9470480D01*
X11423980Y9488819D01*
X11401519Y9501787D01*
X11376468Y9508500D01*
D02*
G37*
G36*
X11122468D02*
X11096532D01*
X11071481Y9501787D01*
X11049020Y9488819D01*
X11030681Y9470480D01*
X11017713Y9448019D01*
X11011000Y9422968D01*
Y9397032D01*
X11017713Y9371980D01*
X11030681Y9349520D01*
X11049020Y9331180D01*
X11071481Y9318213D01*
X11096532Y9311500D01*
X11122468D01*
X11147519Y9318213D01*
X11169980Y9331180D01*
X11188320Y9349520D01*
X11201287Y9371980D01*
X11208000Y9397032D01*
Y9422968D01*
X11201287Y9448019D01*
X11188320Y9470480D01*
X11169980Y9488819D01*
X11147519Y9501787D01*
X11122468Y9508500D01*
D02*
G37*
G36*
X10614468D02*
X10588532D01*
X10563481Y9501787D01*
X10541020Y9488819D01*
X10522681Y9470480D01*
X10509713Y9448019D01*
X10503000Y9422968D01*
Y9397032D01*
X10509713Y9371980D01*
X10522681Y9349520D01*
X10541020Y9331180D01*
X10563481Y9318213D01*
X10588532Y9311500D01*
X10614468D01*
X10639519Y9318213D01*
X10661980Y9331180D01*
X10680320Y9349520D01*
X10693287Y9371980D01*
X10700000Y9397032D01*
Y9422968D01*
X10693287Y9448019D01*
X10680320Y9470480D01*
X10661980Y9488819D01*
X10639519Y9501787D01*
X10614468Y9508500D01*
D02*
G37*
G36*
X10959400Y9397300D02*
X10868199D01*
Y9306100D01*
X10869179D01*
X10895604Y9313181D01*
X10919296Y9326859D01*
X10938641Y9346204D01*
X10952319Y9369896D01*
X10959400Y9396321D01*
Y9397300D01*
D02*
G37*
G36*
X10842799D02*
X10751600D01*
Y9396321D01*
X10758681Y9369896D01*
X10772359Y9346204D01*
X10791704Y9326859D01*
X10815396Y9313181D01*
X10841821Y9306100D01*
X10842799D01*
Y9397300D01*
D02*
G37*
G36*
X16962700Y8415186D02*
Y8337700D01*
X17040186D01*
X17034239Y8359893D01*
X17022337Y8380507D01*
X17005507Y8397338D01*
X16984892Y8409239D01*
X16962700Y8415186D01*
D02*
G37*
G36*
X16937300Y8415186D02*
X16915108Y8409239D01*
X16894493Y8397338D01*
X16877663Y8380507D01*
X16865761Y8359893D01*
X16859814Y8337700D01*
X16937300D01*
Y8415186D01*
D02*
G37*
G36*
X17040186Y8312300D02*
X16962700D01*
Y8234814D01*
X16984892Y8240761D01*
X17005507Y8252662D01*
X17022337Y8269493D01*
X17034239Y8290107D01*
X17040186Y8312300D01*
D02*
G37*
G36*
X16937300D02*
X16859814D01*
X16865761Y8290107D01*
X16877663Y8269493D01*
X16894493Y8252662D01*
X16915108Y8240761D01*
X16937300Y8234814D01*
Y8312300D01*
D02*
G37*
G36*
X11848500Y8302500D02*
X11651500D01*
Y8105500D01*
X11848500D01*
Y8302500D01*
D02*
G37*
G36*
X16961189Y8210000D02*
X16938809D01*
X16917191Y8204207D01*
X16897809Y8193017D01*
X16881982Y8177191D01*
X16870793Y8157809D01*
X16864999Y8136190D01*
Y8113810D01*
X16870793Y8092191D01*
X16881982Y8072809D01*
X16897809Y8056983D01*
X16917191Y8045793D01*
X16938809Y8040000D01*
X16961189D01*
X16982809Y8045793D01*
X17002191Y8056983D01*
X17018018Y8072809D01*
X17029207Y8092191D01*
X17035001Y8113810D01*
Y8136190D01*
X17029207Y8157809D01*
X17018018Y8177191D01*
X17002191Y8193017D01*
X16982809Y8204207D01*
X16961189Y8210000D01*
D02*
G37*
G36*
X11762968Y8048500D02*
X11737032D01*
X11711981Y8041787D01*
X11689520Y8028820D01*
X11671181Y8010481D01*
X11658213Y7988020D01*
X11651500Y7962968D01*
Y7937032D01*
X11658213Y7911981D01*
X11671181Y7889520D01*
X11689520Y7871181D01*
X11711981Y7858213D01*
X11737032Y7851500D01*
X11762968D01*
X11788020Y7858213D01*
X11810481Y7871181D01*
X11828820Y7889520D01*
X11841787Y7911981D01*
X11848500Y7937032D01*
Y7962968D01*
X11841787Y7988020D01*
X11828820Y8010481D01*
X11810481Y8028820D01*
X11788020Y8041787D01*
X11762968Y8048500D01*
D02*
G37*
G36*
X16961189Y8010000D02*
X16938809D01*
X16917191Y8004208D01*
X16897809Y7993017D01*
X16881982Y7977191D01*
X16870793Y7957809D01*
X16864999Y7936191D01*
Y7913810D01*
X16870793Y7892191D01*
X16881982Y7872809D01*
X16897809Y7856983D01*
X16917191Y7845793D01*
X16938809Y7840000D01*
X16961189D01*
X16982809Y7845793D01*
X17002191Y7856983D01*
X17018018Y7872809D01*
X17029207Y7892191D01*
X17035001Y7913810D01*
Y7936191D01*
X17029207Y7957809D01*
X17018018Y7977191D01*
X17002191Y7993017D01*
X16982809Y8004208D01*
X16961189Y8010000D01*
D02*
G37*
G36*
X12222968Y8008500D02*
X12197032D01*
X12171980Y8001787D01*
X12149520Y7988819D01*
X12131180Y7970480D01*
X12118213Y7948019D01*
X12111500Y7922968D01*
Y7897032D01*
X12118213Y7871980D01*
X12131180Y7849519D01*
X12149520Y7831180D01*
X12171980Y7818213D01*
X12197032Y7811500D01*
X12222968D01*
X12248019Y7818213D01*
X12270480Y7831180D01*
X12288819Y7849519D01*
X12301787Y7871980D01*
X12308500Y7897032D01*
Y7922968D01*
X12301787Y7948019D01*
X12288819Y7970480D01*
X12270480Y7988819D01*
X12248019Y8001787D01*
X12222968Y8008500D01*
D02*
G37*
G36*
X10831020Y7815400D02*
X10808980D01*
X10788619Y7806966D01*
X10782844Y7801191D01*
X10536387D01*
X10520624Y7798056D01*
X10507260Y7789127D01*
X10263937Y7545803D01*
X10255770D01*
X10235409Y7537369D01*
X10219824Y7521784D01*
X10211390Y7501423D01*
Y7479383D01*
X10219824Y7459021D01*
X10235409Y7443437D01*
X10255770Y7435003D01*
X10277810D01*
X10298171Y7443437D01*
X10313756Y7459021D01*
X10322190Y7479383D01*
Y7487549D01*
X10553449Y7718809D01*
X10782844D01*
X10788619Y7713034D01*
X10808980Y7704600D01*
X10831020D01*
X10851381Y7713034D01*
X10866966Y7728619D01*
X10875400Y7748980D01*
Y7771020D01*
X10866966Y7791381D01*
X10851381Y7806966D01*
X10831020Y7815400D01*
D02*
G37*
G36*
X16961189Y7810000D02*
X16938809D01*
X16917191Y7804207D01*
X16897809Y7793017D01*
X16881982Y7777191D01*
X16870793Y7757809D01*
X16864999Y7736191D01*
Y7713810D01*
X16870793Y7692191D01*
X16881982Y7672809D01*
X16897809Y7656983D01*
X16917191Y7645793D01*
X16938809Y7640000D01*
X16961189D01*
X16982809Y7645793D01*
X17002191Y7656983D01*
X17018018Y7672809D01*
X17029207Y7692191D01*
X17035001Y7713810D01*
Y7736191D01*
X17029207Y7757809D01*
X17018018Y7777191D01*
X17002191Y7793017D01*
X16982809Y7804207D01*
X16961189Y7810000D01*
D02*
G37*
G36*
X11762968Y7794500D02*
X11737032D01*
X11711981Y7787787D01*
X11689520Y7774820D01*
X11671181Y7756481D01*
X11658213Y7734020D01*
X11651500Y7708968D01*
Y7683032D01*
X11658213Y7657981D01*
X11671181Y7635520D01*
X11689520Y7617181D01*
X11711981Y7604213D01*
X11737032Y7597500D01*
X11762968D01*
X11788020Y7604213D01*
X11810481Y7617181D01*
X11828820Y7635520D01*
X11841787Y7657981D01*
X11848500Y7683032D01*
Y7708968D01*
X11841787Y7734020D01*
X11828820Y7756481D01*
X11810481Y7774820D01*
X11788020Y7787787D01*
X11762968Y7794500D01*
D02*
G37*
G36*
X12861020Y7855400D02*
X12838980D01*
X12818619Y7846966D01*
X12803033Y7831381D01*
X12794600Y7811020D01*
Y7788980D01*
X12803033Y7768618D01*
X12818619Y7753034D01*
X12838980Y7744600D01*
X12861020D01*
X12881381Y7753034D01*
X12892255Y7763906D01*
X13197150D01*
X13341701Y7619356D01*
Y7598980D01*
X13350134Y7578618D01*
X13365720Y7563034D01*
X13386079Y7554600D01*
X13408121D01*
X13428481Y7563034D01*
X13444066Y7578618D01*
X13452499Y7598980D01*
Y7621020D01*
X13444066Y7641381D01*
X13428481Y7656966D01*
X13408121Y7665400D01*
X13397745D01*
X13237622Y7825522D01*
X13225912Y7833346D01*
X13212100Y7836093D01*
X12892255D01*
X12881381Y7846966D01*
X12861020Y7855400D01*
D02*
G37*
G36*
X10360468Y9508500D02*
X10334532D01*
X10309481Y9501787D01*
X10287020Y9488819D01*
X10268681Y9470480D01*
X10255713Y9448019D01*
X10249000Y9422968D01*
Y9397032D01*
X10255713Y9371980D01*
X10268681Y9349520D01*
X10287020Y9331180D01*
X10309481Y9318213D01*
X10324407Y9314213D01*
Y8361176D01*
X10327154Y8347364D01*
X10334978Y8335654D01*
X10746739Y7923893D01*
X10755550Y7918006D01*
X11164600Y7508956D01*
Y7493580D01*
X11173034Y7473219D01*
X11188618Y7457634D01*
X11208980Y7449200D01*
X11231020D01*
X11251381Y7457634D01*
X11266966Y7473219D01*
X11275400Y7493580D01*
Y7515620D01*
X11266966Y7535982D01*
X11251381Y7551566D01*
X11231020Y7560000D01*
X11215644D01*
X10800707Y7974937D01*
X10791896Y7980824D01*
X10396594Y8376127D01*
Y9324606D01*
X10407980Y9331180D01*
X10426320Y9349520D01*
X10439287Y9371980D01*
X10446000Y9397032D01*
Y9422968D01*
X10439287Y9448019D01*
X10426320Y9470480D01*
X10407980Y9488819D01*
X10385519Y9501787D01*
X10360468Y9508500D01*
D02*
G37*
G36*
X16961189Y7610000D02*
X16938809D01*
X16917191Y7604207D01*
X16897809Y7593017D01*
X16881982Y7577191D01*
X16870793Y7557809D01*
X16864999Y7536190D01*
Y7513809D01*
X16870793Y7492191D01*
X16881982Y7472809D01*
X16897809Y7456983D01*
X16917191Y7445793D01*
X16938809Y7440000D01*
X16961189D01*
X16982809Y7445793D01*
X17002191Y7456983D01*
X17018018Y7472809D01*
X17029207Y7492191D01*
X17035001Y7513809D01*
Y7536190D01*
X17029207Y7557809D01*
X17018018Y7577191D01*
X17002191Y7593017D01*
X16982809Y7604207D01*
X16961189Y7610000D01*
D02*
G37*
G36*
X12771020Y7505400D02*
X12748980D01*
X12728618Y7496966D01*
X12717746Y7486093D01*
X12140000D01*
X12126188Y7483346D01*
X12114478Y7475522D01*
X11870050Y7231093D01*
X10907254D01*
X10901382Y7236966D01*
X10881020Y7245400D01*
X10858980D01*
X10838619Y7236966D01*
X10823034Y7221382D01*
X10814600Y7201020D01*
Y7178980D01*
X10822175Y7160694D01*
X10792133D01*
X10788222Y7170137D01*
X10772637Y7185721D01*
X10752275Y7194155D01*
X10730236D01*
X10709874Y7185721D01*
X10694290Y7170137D01*
X10685856Y7149775D01*
Y7127736D01*
X10694290Y7107374D01*
X10709874Y7091789D01*
X10730236Y7083355D01*
X10752275D01*
X10765206Y7088712D01*
X10766235Y7088507D01*
X11941578D01*
X11955391Y7091254D01*
X11967100Y7099078D01*
X12105583Y7237561D01*
X12113157Y7219274D01*
X12128742Y7203690D01*
X12149103Y7195256D01*
X12171143D01*
X12191504Y7203690D01*
X12202377Y7214562D01*
X13016431D01*
X13023035Y7198619D01*
X13038618Y7183034D01*
X13058980Y7174600D01*
X13081020D01*
X13101381Y7183034D01*
X13116966Y7198619D01*
X13125400Y7218980D01*
Y7241020D01*
X13116966Y7261381D01*
X13101381Y7276966D01*
X13081020Y7285400D01*
X13058980D01*
X13053584Y7283165D01*
X13052333Y7284001D01*
X13038521Y7286749D01*
X12202377D01*
X12191504Y7297621D01*
X12173218Y7305196D01*
X12201929Y7333907D01*
X12667746D01*
X12678619Y7323034D01*
X12698980Y7314600D01*
X12721020D01*
X12741381Y7323034D01*
X12756966Y7338619D01*
X12765400Y7358980D01*
Y7381020D01*
X12759775Y7394600D01*
X12771020D01*
X12791381Y7403034D01*
X12806966Y7418619D01*
X12815401Y7438980D01*
Y7461020D01*
X12806966Y7481382D01*
X12791381Y7496966D01*
X12771020Y7505400D01*
D02*
G37*
G36*
X16961189Y7410000D02*
X16938809D01*
X16917191Y7404207D01*
X16897809Y7393017D01*
X16881982Y7377191D01*
X16870793Y7357809D01*
X16864999Y7336191D01*
Y7313810D01*
X16870793Y7292191D01*
X16881982Y7272809D01*
X16897809Y7256983D01*
X16917191Y7245793D01*
X16938809Y7240000D01*
X16961189D01*
X16982809Y7245793D01*
X17002191Y7256983D01*
X17018018Y7272809D01*
X17029207Y7292191D01*
X17035001Y7313810D01*
Y7336191D01*
X17029207Y7357809D01*
X17018018Y7377191D01*
X17002191Y7393017D01*
X16982809Y7404207D01*
X16961189Y7410000D01*
D02*
G37*
G36*
X14711020Y7285400D02*
X14688980D01*
X14668619Y7276966D01*
X14653033Y7261381D01*
X14644600Y7241020D01*
Y7218980D01*
X14653033Y7198619D01*
X14668619Y7183034D01*
X14688980Y7174600D01*
X14709557D01*
X14764999Y7119156D01*
Y7108980D01*
X14773434Y7088619D01*
X14789018Y7073034D01*
X14809380Y7064600D01*
X14831419D01*
X14851781Y7073034D01*
X14867366Y7088619D01*
X14875800Y7108980D01*
Y7131020D01*
X14867366Y7151381D01*
X14851781Y7166966D01*
X14831419Y7175400D01*
X14810844D01*
X14755400Y7230844D01*
Y7241020D01*
X14746967Y7261381D01*
X14731383Y7276966D01*
X14711020Y7285400D01*
D02*
G37*
G36*
X16961189Y7210000D02*
X16938809D01*
X16917191Y7204207D01*
X16897809Y7193017D01*
X16881982Y7177191D01*
X16870793Y7157809D01*
X16864999Y7136190D01*
Y7113809D01*
X16870793Y7092191D01*
X16881982Y7072809D01*
X16897809Y7056983D01*
X16917191Y7045793D01*
X16938809Y7040000D01*
X16961189D01*
X16982809Y7045793D01*
X17002191Y7056983D01*
X17018018Y7072809D01*
X17029207Y7092191D01*
X17035001Y7113809D01*
Y7136190D01*
X17029207Y7157809D01*
X17018018Y7177191D01*
X17002191Y7193017D01*
X16982809Y7204207D01*
X16961189Y7210000D01*
D02*
G37*
G36*
X13221021Y7035400D02*
X13198981D01*
X13178619Y7026966D01*
X13163034Y7011381D01*
X13154601Y6991020D01*
Y6968980D01*
X13163034Y6948619D01*
X13178619Y6933034D01*
X13198981Y6924600D01*
X13219208D01*
X13239330Y6904478D01*
X13251041Y6896654D01*
X13264851Y6893907D01*
X13867746D01*
X13878619Y6883034D01*
X13898981Y6874600D01*
X13921021D01*
X13941382Y6883034D01*
X13956966Y6898619D01*
X13965401Y6918980D01*
Y6941020D01*
X13956966Y6961382D01*
X13941382Y6976966D01*
X13921021Y6985400D01*
X13898981D01*
X13878619Y6976966D01*
X13867746Y6966094D01*
X13279802D01*
X13265401Y6980496D01*
Y6991020D01*
X13256966Y7011381D01*
X13241380Y7026966D01*
X13221021Y7035400D01*
D02*
G37*
G36*
X15241020Y6955400D02*
X15218980D01*
X15198619Y6946966D01*
X15187746Y6936093D01*
X15030000D01*
X15016188Y6933346D01*
X15004478Y6925522D01*
X14834357Y6755400D01*
X14828979D01*
X14808620Y6746966D01*
X14793034Y6731382D01*
X14784599Y6711020D01*
Y6688980D01*
X14793034Y6668619D01*
X14808620Y6653034D01*
X14828979Y6644600D01*
X14851019D01*
X14871381Y6653034D01*
X14886966Y6668619D01*
X14895399Y6688980D01*
Y6711020D01*
X14894423Y6713379D01*
X15044949Y6863907D01*
X15187746D01*
X15198619Y6853034D01*
X15218980Y6844600D01*
X15241020D01*
X15261382Y6853034D01*
X15276965Y6868618D01*
X15285400Y6888980D01*
Y6911020D01*
X15276965Y6931381D01*
X15261382Y6946966D01*
X15241020Y6955400D01*
D02*
G37*
G36*
X16961189Y7010000D02*
X16938809D01*
X16917191Y7004207D01*
X16897809Y6993017D01*
X16881982Y6977191D01*
X16870793Y6957809D01*
X16864999Y6936191D01*
Y6913810D01*
X16870793Y6892191D01*
X16881982Y6872809D01*
X16897809Y6856983D01*
X16917191Y6845793D01*
X16938809Y6840000D01*
X16961189D01*
X16982809Y6845793D01*
X17002191Y6856983D01*
X17018018Y6872809D01*
X17029207Y6892191D01*
X17035001Y6913810D01*
Y6936191D01*
X17029207Y6957809D01*
X17018018Y6977191D01*
X17002191Y6993017D01*
X16982809Y7004207D01*
X16961189Y7010000D01*
D02*
G37*
G36*
X13101157Y6930650D02*
X13079115D01*
X13058754Y6922216D01*
X13047882Y6911343D01*
X13025250D01*
X13011436Y6908596D01*
X12999728Y6900772D01*
X12624356Y6525400D01*
X12618980D01*
X12598618Y6516966D01*
X12583034Y6501381D01*
X12574600Y6481020D01*
Y6458980D01*
X12583034Y6438619D01*
X12598618Y6423034D01*
X12618980Y6414600D01*
X12641020D01*
X12661381Y6423034D01*
X12676966Y6438619D01*
X12685400Y6458980D01*
Y6481020D01*
X12684423Y6483379D01*
X13040199Y6839156D01*
X13047882D01*
X13058754Y6828284D01*
X13079115Y6819850D01*
X13101157D01*
X13121516Y6828284D01*
X13137102Y6843868D01*
X13145535Y6864230D01*
Y6886269D01*
X13137102Y6906631D01*
X13121516Y6922216D01*
X13101157Y6930650D01*
D02*
G37*
G36*
X10593520Y7155400D02*
X10571480D01*
X10551119Y7146966D01*
X10535534Y7131382D01*
X10527100Y7111020D01*
Y7088981D01*
X10535534Y7068619D01*
X10546407Y7057747D01*
Y6874754D01*
X10533034Y6861382D01*
X10524600Y6841020D01*
Y6818980D01*
X10533034Y6798619D01*
X10548618Y6783034D01*
X10568980Y6774600D01*
X10591020D01*
X10611381Y6783034D01*
X10626966Y6798619D01*
X10635400Y6818980D01*
Y6841020D01*
X10626966Y6861382D01*
X10618593Y6869754D01*
Y7057747D01*
X10629466Y7068619D01*
X10637900Y7088981D01*
Y7111020D01*
X10629466Y7131382D01*
X10613881Y7146966D01*
X10593520Y7155400D01*
D02*
G37*
G36*
X16961189Y6810000D02*
X16938809D01*
X16917191Y6804207D01*
X16897809Y6793017D01*
X16881982Y6777191D01*
X16870793Y6757809D01*
X16864999Y6736190D01*
Y6713810D01*
X16870793Y6692191D01*
X16881982Y6672809D01*
X16897809Y6656983D01*
X16917191Y6645793D01*
X16938809Y6640000D01*
X16961189D01*
X16982809Y6645793D01*
X17002191Y6656983D01*
X17018018Y6672809D01*
X17029207Y6692191D01*
X17035001Y6713810D01*
Y6736190D01*
X17029207Y6757809D01*
X17018018Y6777191D01*
X17002191Y6793017D01*
X16982809Y6804207D01*
X16961189Y6810000D01*
D02*
G37*
G36*
Y6610000D02*
X16938809D01*
X16917191Y6604208D01*
X16897809Y6593017D01*
X16881982Y6577191D01*
X16870793Y6557809D01*
X16864999Y6536191D01*
Y6513810D01*
X16870793Y6492191D01*
X16881982Y6472809D01*
X16897809Y6456983D01*
X16917191Y6445793D01*
X16938809Y6440000D01*
X16961189D01*
X16982809Y6445793D01*
X17002191Y6456983D01*
X17018018Y6472809D01*
X17029207Y6492191D01*
X17035001Y6513810D01*
Y6536191D01*
X17029207Y6557809D01*
X17018018Y6577191D01*
X17002191Y6593017D01*
X16982809Y6604208D01*
X16961189Y6610000D01*
D02*
G37*
G36*
X13151019Y6605400D02*
X13128979D01*
X13108618Y6596966D01*
X13093034Y6581382D01*
X13084599Y6561020D01*
Y6552854D01*
X12901852Y6370106D01*
X12078096D01*
X12072322Y6375880D01*
X12051960Y6384314D01*
X12029920D01*
X12009559Y6375880D01*
X11993974Y6360296D01*
X11985540Y6339934D01*
Y6317895D01*
X11993974Y6297533D01*
X12009559Y6281949D01*
X12029920Y6273515D01*
X12051960D01*
X12072322Y6281949D01*
X12078096Y6287723D01*
X12918913D01*
X12934677Y6290859D01*
X12948041Y6299788D01*
X13142853Y6494600D01*
X13151019D01*
X13171381Y6503034D01*
X13186966Y6518619D01*
X13195399Y6538980D01*
Y6561020D01*
X13186966Y6581382D01*
X13171381Y6596966D01*
X13151019Y6605400D01*
D02*
G37*
G36*
X17035001Y6410000D02*
X16864999D01*
Y6240000D01*
X17035001D01*
Y6410000D01*
D02*
G37*
G36*
X10461047Y6002900D02*
X10460200D01*
Y5912700D01*
X10550400D01*
Y5913547D01*
X10543388Y5939718D01*
X10529841Y5963182D01*
X10510682Y5982340D01*
X10487218Y5995887D01*
X10461047Y6002900D01*
D02*
G37*
G36*
X10434800D02*
X10433953D01*
X10407782Y5995887D01*
X10384318Y5982340D01*
X10365160Y5963182D01*
X10351613Y5939718D01*
X10344600Y5913547D01*
Y5912700D01*
X10434800D01*
Y6002900D01*
D02*
G37*
G36*
X11110336Y5997500D02*
X11084664D01*
X11059866Y5990855D01*
X11037634Y5978019D01*
X11019481Y5959866D01*
X11006645Y5937634D01*
X11000000Y5912836D01*
Y5887164D01*
X11006645Y5862366D01*
X11019481Y5840134D01*
X11037634Y5821980D01*
X11059866Y5809145D01*
X11084664Y5802500D01*
X11110336D01*
X11135134Y5809145D01*
X11157366Y5821980D01*
X11175519Y5840134D01*
X11188355Y5862366D01*
X11195000Y5887164D01*
Y5912836D01*
X11188355Y5937634D01*
X11175519Y5959866D01*
X11157366Y5978019D01*
X11135134Y5990855D01*
X11110336Y5997500D01*
D02*
G37*
G36*
X10550400Y5887300D02*
X10460200D01*
Y5797100D01*
X10461047D01*
X10487218Y5804112D01*
X10510682Y5817659D01*
X10529841Y5836818D01*
X10543388Y5860282D01*
X10550400Y5886453D01*
Y5887300D01*
D02*
G37*
G36*
X10434800D02*
X10344600D01*
Y5886453D01*
X10351613Y5860282D01*
X10365160Y5836818D01*
X10384318Y5817659D01*
X10407782Y5804112D01*
X10433953Y5797100D01*
X10434800D01*
Y5887300D01*
D02*
G37*
G36*
X11195000Y5747500D02*
X11000000D01*
Y5552500D01*
X11195000D01*
Y5747500D01*
D02*
G37*
G36*
X10545000D02*
X10350000D01*
Y5552500D01*
X10545000D01*
Y5747500D01*
D02*
G37*
%LPD*%
G36*
X12667746Y7406093D02*
X12186978D01*
X12173166Y7403346D01*
X12161456Y7395522D01*
X11926628Y7160694D01*
X11893983D01*
X11898812Y7161654D01*
X11910522Y7169478D01*
X12154951Y7413907D01*
X12675559D01*
X12667746Y7406093D01*
D02*
G37*
D40*
X10266790Y7490403D02*
X10536387Y7760000D01*
X10820000D01*
X12918913Y6328914D02*
X13139999Y6550000D01*
X12040940Y6328914D02*
X12918913D01*
D41*
X10752080Y7138755D02*
X10766235Y7124600D01*
X10741256Y7138755D02*
X10752080D01*
X10766235Y7124600D02*
X11941578D01*
X12186978Y7370000D01*
X13264851Y6930000D02*
X13910001D01*
X13214851Y6980000D02*
X13264851Y6930000D01*
X10772261Y7949415D02*
X10775185D01*
X11220000Y7504600D01*
X10360500Y8361176D02*
X10772261Y7949415D01*
X10582500Y7100001D02*
Y7110824D01*
Y6832500D02*
Y7100001D01*
X10875000Y7195000D02*
X11885000D01*
X12140000Y7450000D01*
X10870000Y7190000D02*
X10875000Y7195000D01*
X10580000Y6830000D02*
X10582500Y6832500D01*
X10360500Y8361176D02*
Y9410000D01*
X12186978Y7370000D02*
X12710000D01*
X12140000Y7450000D02*
X12760000D01*
X12160123Y7250656D02*
X13038521D01*
X12850000Y7800000D02*
X13212100D01*
X13387100Y7625000D01*
X13038521Y7250656D02*
X13059177Y7230000D01*
X13070000D01*
X13210001Y6980000D02*
X13214851D01*
X12630000Y6470000D02*
Y6480000D01*
X13025250Y6875250D01*
X13090137D01*
X14705200Y7230000D02*
X14815199Y7120000D01*
X14700000Y7230000D02*
X14705200D01*
X14815199Y7120000D02*
X14820399D01*
X14839999Y6700000D02*
Y6710000D01*
X15030000Y6900000D01*
X15230000D01*
D44*
X12210000Y7910000D02*
D03*
X11750000Y7696000D02*
D03*
Y7950000D02*
D03*
X10347500Y9410000D02*
D03*
X10601500D02*
D03*
X10855500D02*
D03*
X11109500D02*
D03*
X11363500D02*
D03*
D45*
X11750000Y8204000D02*
D03*
D46*
X11097500Y5900000D02*
D03*
X10447500D02*
D03*
D47*
X11097500Y5650000D02*
D03*
X10447500D02*
D03*
D48*
X11617500Y9410000D02*
D03*
D49*
X16950000Y8325000D02*
D03*
Y8125000D02*
D03*
Y7925000D02*
D03*
Y7725000D02*
D03*
Y7525000D02*
D03*
Y7325000D02*
D03*
Y7125000D02*
D03*
Y6925000D02*
D03*
Y6725000D02*
D03*
Y6525000D02*
D03*
D50*
Y6325000D02*
D03*
D51*
X17399995Y9299997D02*
D03*
Y8699997D02*
D03*
Y8099998D02*
D03*
Y7499998D02*
D03*
Y6899998D02*
D03*
Y6299998D02*
D03*
X17099995Y9299997D02*
D03*
X17249995Y8999997D02*
D03*
X17099995Y8699997D02*
D03*
X17249995Y8399997D02*
D03*
X17099995Y8099998D02*
D03*
X17249995Y7799998D02*
D03*
X17099995Y7499998D02*
D03*
X17249995Y7199998D02*
D03*
X17099995Y6899998D02*
D03*
X17249995Y6599998D02*
D03*
X16799995Y9299997D02*
D03*
X16949995Y8999997D02*
D03*
X16799995Y8699997D02*
D03*
Y7499998D02*
D03*
X16949995Y5399998D02*
D03*
X16649995Y7199998D02*
D03*
Y6599998D02*
D03*
Y5999998D02*
D03*
Y5399998D02*
D03*
X16199995Y9299997D02*
D03*
Y8099998D02*
D03*
Y6899998D02*
D03*
Y5699998D02*
D03*
X16049995Y8399997D02*
D03*
Y7199998D02*
D03*
Y5999998D02*
D03*
X15749995Y8999997D02*
D03*
Y7799998D02*
D03*
Y6599998D02*
D03*
Y5399998D02*
D03*
X14699995Y9299997D02*
D03*
Y8699997D02*
D03*
Y7499998D02*
D03*
Y6899998D02*
D03*
Y6299998D02*
D03*
X14399995Y9299997D02*
D03*
Y7499998D02*
D03*
Y6299998D02*
D03*
X14099995Y9299997D02*
D03*
X14249995Y8999997D02*
D03*
X14099995Y8099998D02*
D03*
X14249995Y7799998D02*
D03*
Y7199998D02*
D03*
X14099995Y6299998D02*
D03*
X13949995Y8999997D02*
D03*
X13649995D02*
D03*
Y6599998D02*
D03*
X13499995Y5699998D02*
D03*
X13649995Y5399998D02*
D03*
X13349995Y7199998D02*
D03*
Y6599998D02*
D03*
Y5399998D02*
D03*
X12899995Y8699997D02*
D03*
X13049995Y5999998D02*
D03*
X12749996Y8999997D02*
D03*
Y8399997D02*
D03*
X12599996Y8099998D02*
D03*
X12449996Y8999997D02*
D03*
Y8399997D02*
D03*
X12299996Y8099998D02*
D03*
X12449996Y6599998D02*
D03*
X11999996Y6899998D02*
D03*
X12149996Y6599998D02*
D03*
Y5399998D02*
D03*
X11849996Y7799998D02*
D03*
Y6599998D02*
D03*
X11699996Y6299998D02*
D03*
X11399997Y8699997D02*
D03*
X11549996Y7799998D02*
D03*
X11399997Y5699998D02*
D03*
X11549996Y5399998D02*
D03*
X11099997Y8699997D02*
D03*
X11249997Y8399997D02*
D03*
Y7799998D02*
D03*
X11099997Y7499998D02*
D03*
Y6299998D02*
D03*
X11249997Y5999998D02*
D03*
Y5399998D02*
D03*
X10799997Y8699997D02*
D03*
X10949997Y6599998D02*
D03*
Y5999998D02*
D03*
X10799997Y5699998D02*
D03*
X10949997Y5399998D02*
D03*
X10499997Y9299997D02*
D03*
Y8699997D02*
D03*
Y7499998D02*
D03*
X10649997Y6599998D02*
D03*
Y5399998D02*
D03*
X10199997Y9299997D02*
D03*
Y8699997D02*
D03*
Y8099998D02*
D03*
X10349997Y7199998D02*
D03*
Y5999998D02*
D03*
X11740000Y9140000D02*
D03*
X13060001Y7370000D02*
D03*
X11790000Y7270000D02*
D03*
X10741256Y7138755D02*
D03*
X11460000Y7480000D02*
D03*
X12460000Y7520000D02*
D03*
X10820000Y7760000D02*
D03*
X10932500Y8070000D02*
D03*
X11102500Y8240000D02*
D03*
X11220000Y7504600D02*
D03*
X10870000Y7190000D02*
D03*
X10580000Y6830000D02*
D03*
X12710000Y7370000D02*
D03*
X12160123Y7250656D02*
D03*
X12760000Y7450000D02*
D03*
X10475000Y6235000D02*
D03*
X12650000Y8180000D02*
D03*
X12850000Y7800000D02*
D03*
X13397099Y7610000D02*
D03*
X13500000Y7925000D02*
D03*
X12975000Y8225000D02*
D03*
X12350000Y7125000D02*
D03*
X12125000Y7000000D02*
D03*
X13800000Y9245000D02*
D03*
X13900000D02*
D03*
X13700000D02*
D03*
X13550000Y9455000D02*
D03*
X14050000D02*
D03*
X11670000Y5700000D02*
D03*
X13210001Y6980000D02*
D03*
X10266790Y7490403D02*
D03*
X13070000Y7230000D02*
D03*
X13910001Y6930000D02*
D03*
X13139999Y6550000D02*
D03*
X12040940Y6328914D02*
D03*
X12630000Y6470000D02*
D03*
X13090137Y6875250D02*
D03*
X10582500Y7100001D02*
D03*
X10382500Y6775000D02*
D03*
X15235001Y8927500D02*
D03*
X14425000Y8700000D02*
D03*
X14450000Y9175000D02*
D03*
X10822500Y8070000D02*
D03*
X10662500Y8240000D02*
D03*
Y8360000D02*
D03*
X10832500Y8520000D02*
D03*
X10932500D02*
D03*
X11102500Y8360000D02*
D03*
X14820399Y7120000D02*
D03*
X14700000Y7230000D02*
D03*
X12784601Y5990200D02*
D03*
X11805000Y6120000D02*
D03*
X11890000Y5420000D02*
D03*
X14839999Y6700000D02*
D03*
X15230000Y6900000D02*
D03*
%TF.MD5,93c3b4917597540259d11237e0994c19*%
M02*
